<svg width="386" height="51" viewBox="0 0 386 51" fill="none" xmlns="http://www.w3.org/2000/svg">
<path d="M76.1945 21.709C76.1945 21.709 67.1878 26.3934 64.3926 25.8729C61.5974 25.3525 50.8088 14.5314 48.6746 14.7712C46.5403 15.0111 48.8638 20.5639 47.0004 20.1475C42.7345 19.2804 40.6466 16.0551 39.1921 12.2328C37.7375 8.41051 36.1595 7.40441 34.5878 7.30663C33.0161 7.20885 32.7769 14.5248 31.8857 15.1508C30.9946 15.7768 28.1843 14.0632 27.683 11.1456C26.9601 6.93806 26.0998 1.61172 24.961 1.29942C23.8222 0.987128 23.2931 4.63689 21.3262 4.42869C19.3592 4.2205 12.7513 -0.201075 11.509 0.00712602C10.2667 0.215314 10.7666 1.51394 9.11021 1.82623C7.45381 2.13852 0 0.993443 0 0.993443C0 0.993443 6.52208 4.84508 10.1455 8.07213C13.7688 11.2992 29.4011 25.6647 38.0972 28.2672C46.7933 30.8697 54.0401 31.2861 57.8705 30.2451C61.701 29.2041 74.9522 22.9582 74.9522 22.9582L76.1945 21.709Z" fill="url(#paint0_linear_1_11)"/>
<path d="M73.2429 26.4455C73.2429 26.4455 68.2366 30.9144 58.6976 34.6693C49.1586 38.4243 44.9796 37.3669 40.8809 38.6592C36.7821 39.9515 34.5674 43.6224 33.4249 42.6938C32.2002 41.6984 35.965 37.5788 33.9943 35.8233C32.0236 34.0678 22.4727 41.4625 21.2304 39.4846C19.9881 37.5068 24.3273 34.0447 22.5673 32.3271C20.8074 30.6095 10.0408 32.4833 10.6102 30.2451C11.1796 28.007 15.342 29.3625 14.6994 26.6017C14.0568 23.8409 5.79265 23.2126 6.36934 20.8867C6.94604 18.5609 7.99096 15.3129 6.36189 12.6645C4.73291 10.0161 1.76383 5.58554 1.81046 5.57382C1.81046 5.57382 12.9394 13.5373 19.4615 19.0546C25.9836 24.5718 31.781 29.6726 38.9242 31.5984C46.0674 33.5242 54.0906 33.8886 59.0081 32.5353C63.9255 31.182 73.2428 26.4455 73.2428 26.4455H73.2429Z" fill="url(#paint1_linear_1_11)"/>
<path d="M96.0454 41.2233C92.5157 41.2233 89.5102 40.4216 87.0289 38.8183C84.5826 37.215 82.8701 35.0191 81.8916 32.2307L87.0813 29.1984C88.5491 33.3112 91.5896 35.3677 96.2027 35.3677C98.4743 35.3677 100.169 34.932 101.288 34.0606C102.441 33.1544 103.018 31.9867 103.018 30.5577C103.018 29.0589 102.406 27.9262 101.183 27.1594C99.9596 26.3577 97.7928 25.4863 94.6825 24.5452C92.9351 24.0224 91.5197 23.5345 90.4363 23.0813C89.3529 22.6282 88.1997 22.0008 86.9765 21.1992C85.7883 20.3627 84.8971 19.3344 84.303 18.1145C83.7089 16.8946 83.4118 15.4656 83.4118 13.8274C83.4118 10.5859 84.5651 8.02406 86.8717 6.1419C89.1782 4.22488 91.9566 3.26637 95.2067 3.26637C98.1423 3.26637 100.711 3.9809 102.913 5.40995C105.114 6.83899 106.809 8.80829 107.998 11.3178L102.913 14.2456C101.375 10.8299 98.8063 9.12199 95.2067 9.12199C93.4593 9.12199 92.0614 9.54025 91.013 10.3768C89.9645 11.1784 89.4403 12.2763 89.4403 13.6705C89.4403 15.0299 89.9645 16.1104 91.013 16.912C92.0963 17.6788 94.0359 18.4979 96.8318 19.3693C98.2297 19.8224 99.2432 20.171 99.8722 20.4149C100.536 20.6241 101.445 20.9726 102.598 21.4606C103.786 21.9486 104.678 22.4365 105.272 22.9245C105.866 23.4125 106.495 24.0224 107.159 24.7544C107.858 25.4863 108.347 26.3228 108.627 27.2639C108.906 28.205 109.046 29.2681 109.046 30.4531C109.046 33.7643 107.84 36.3959 105.429 38.3478C103.052 40.2648 99.9246 41.2233 96.0454 41.2233Z" fill="black"/>
<path d="M136.921 14.4025H142.583V40.5436H136.921V36.7793C134.789 39.7419 131.731 41.2233 127.747 41.2233C124.148 41.2233 121.072 39.8988 118.521 37.2498C115.97 34.566 114.694 31.3071 114.694 27.473C114.694 23.6042 115.97 20.3452 118.521 17.6963C121.072 15.0473 124.148 13.7228 127.747 13.7228C131.731 13.7228 134.789 15.1867 136.921 18.1145V14.4025ZM122.715 33.4855C124.288 35.054 126.262 35.8382 128.639 35.8382C131.015 35.8382 132.99 35.054 134.562 33.4855C136.135 31.8822 136.921 29.878 136.921 27.473C136.921 25.0681 136.135 23.0813 134.562 21.5129C132.99 19.9096 131.015 19.1079 128.639 19.1079C126.262 19.1079 124.288 19.9096 122.715 21.5129C121.142 23.0813 120.356 25.0681 120.356 27.473C120.356 29.878 121.142 31.8822 122.715 33.4855Z" fill="black"/>
<path d="M150.754 40.5436V2.37758H156.416V40.5436H150.754Z" fill="black"/>
<path d="M169.018 29.878C169.437 31.8648 170.398 33.3984 171.901 34.4789C173.404 35.5245 175.239 36.0473 177.405 36.0473C180.411 36.0473 182.665 34.9668 184.168 32.8058L188.833 35.5245C186.247 39.3237 182.42 41.2233 177.353 41.2233C173.089 41.2233 169.647 39.9337 167.026 37.3544C164.405 34.7403 163.094 31.4465 163.094 27.473C163.094 23.5693 164.387 20.3104 166.974 17.6963C169.56 15.0473 172.88 13.7228 176.934 13.7228C180.778 13.7228 183.923 15.0647 186.37 17.7486C188.851 20.4324 190.092 23.6913 190.092 27.5253C190.092 28.1179 190.022 28.9021 189.882 29.878H169.018ZM168.966 25.2772H184.378C183.993 23.1511 183.102 21.5477 181.704 20.4672C180.341 19.3867 178.733 18.8465 176.881 18.8465C174.784 18.8465 173.037 19.4216 171.639 20.5718C170.241 21.722 169.35 23.2905 168.966 25.2772Z" fill="black"/>
<path d="M217.251 14.4025H222.913V40.5436H217.251V36.7793C215.119 39.7419 212.062 41.2233 208.077 41.2233C204.478 41.2233 201.402 39.8988 198.851 37.2498C196.3 34.566 195.024 31.3071 195.024 27.473C195.024 23.6042 196.3 20.3452 198.851 17.6963C201.402 15.0473 204.478 13.7228 208.077 13.7228C212.062 13.7228 215.119 15.1867 217.251 18.1145V14.4025ZM203.045 33.4855C204.618 35.054 206.592 35.8382 208.969 35.8382C211.345 35.8382 213.32 35.054 214.892 33.4855C216.465 31.8822 217.251 29.878 217.251 27.473C217.251 25.0681 216.465 23.0813 214.892 21.5129C213.32 19.9096 211.345 19.1079 208.969 19.1079C206.592 19.1079 204.618 19.9096 203.045 21.5129C201.472 23.0813 200.686 25.0681 200.686 27.473C200.686 29.878 201.472 31.8822 203.045 33.4855Z" fill="black"/>
<path d="M251.843 2.37759H257.505V40.5436H251.843V36.7793C249.712 39.7419 246.654 41.2233 242.67 41.2233C239.07 41.2233 235.995 39.8988 233.443 37.2498C230.892 34.566 229.617 31.3071 229.617 27.473C229.617 23.6042 230.892 20.3452 233.443 17.6963C235.995 15.0473 239.07 13.7228 242.67 13.7228C246.654 13.7228 249.712 15.1867 251.843 18.1145V2.37759ZM237.637 33.4855C239.21 35.054 241.184 35.8382 243.561 35.8382C245.937 35.8382 247.912 35.054 249.484 33.4855C251.057 31.8822 251.843 29.878 251.843 27.473C251.843 25.0681 251.057 23.0813 249.484 21.5129C247.912 19.9096 245.937 19.1079 243.561 19.1079C241.184 19.1079 239.21 19.9096 237.637 21.5129C236.064 23.0813 235.278 25.0681 235.278 27.473C235.278 29.878 236.064 31.8822 237.637 33.4855Z" fill="black"/>
<path d="M270.608 21.6174C270.608 22.4888 271.08 23.1859 272.023 23.7087C273.002 24.1967 274.173 24.6324 275.536 25.0158C276.933 25.3643 278.331 25.7826 279.729 26.2706C281.127 26.7585 282.298 27.595 283.241 28.7801C284.22 29.9303 284.709 31.3942 284.709 33.1718C284.709 35.6814 283.731 37.6507 281.774 39.0797C279.852 40.5088 277.423 41.2233 274.487 41.2233C271.901 41.2233 269.682 40.683 267.83 39.6025C265.977 38.522 264.632 37.0233 263.793 35.1063L268.668 32.283C269.577 34.7926 271.517 36.0473 274.487 36.0473C277.458 36.0473 278.943 35.0714 278.943 33.1195C278.943 32.283 278.454 31.6033 277.475 31.0805C276.532 30.5577 275.361 30.122 273.963 29.7735C272.6 29.3901 271.219 28.9544 269.822 28.4664C268.424 27.9784 267.235 27.1768 266.257 26.0614C265.313 24.9112 264.841 23.4647 264.841 21.722C264.841 19.317 265.75 17.3826 267.567 15.9187C269.42 14.4548 271.709 13.7228 274.435 13.7228C276.601 13.7228 278.524 14.2108 280.201 15.1867C281.913 16.1278 283.224 17.4523 284.133 19.1602L279.362 21.8266C278.454 19.8398 276.811 18.8465 274.435 18.8465C273.351 18.8465 272.443 19.0905 271.709 19.5784C270.975 20.0315 270.608 20.7112 270.608 21.6174Z" fill="black"/>
<path d="M298.171 40.0207C297.403 40.7876 296.476 41.171 295.393 41.171C294.31 41.171 293.384 40.7876 292.615 40.0207C291.846 39.2539 291.461 38.3303 291.461 37.2498C291.461 36.1693 291.828 35.2456 292.562 34.4788C293.331 33.712 294.275 33.3286 295.393 33.3286C296.476 33.3286 297.403 33.712 298.171 34.4788C298.94 35.2456 299.325 36.1693 299.325 37.2498C299.325 38.3303 298.94 39.2539 298.171 40.0207Z" fill="#60D130"/>
<path d="M321.755 13.7228C325.355 13.7228 328.43 15.0647 330.981 17.7485C333.532 20.3975 334.808 23.639 334.808 27.473C334.808 31.3419 333.532 34.6008 330.981 37.2498C328.43 39.8988 325.355 41.2232 321.755 41.2232C317.771 41.2232 314.713 39.7593 312.581 36.8315V51H306.92V14.4024H312.581V18.1668C314.713 15.2041 317.771 13.7228 321.755 13.7228ZM314.94 33.4855C316.513 35.0539 318.487 35.8382 320.864 35.8382C323.24 35.8382 325.215 35.0539 326.787 33.4855C328.36 31.8821 329.146 29.878 329.146 27.473C329.146 25.068 328.36 23.0813 326.787 21.5128C325.215 19.9095 323.24 19.1078 320.864 19.1078C318.487 19.1078 316.513 19.9095 314.94 21.5128C313.368 23.0813 312.581 25.068 312.581 27.473C312.581 29.878 313.368 31.8821 314.94 33.4855Z" fill="#60D130"/>
<path d="M347.173 18.7942C348.606 15.5527 351.297 13.9319 355.246 13.9319V20.0489C353.08 19.9095 351.192 20.4323 349.585 21.6174C347.977 22.7676 347.173 24.6846 347.173 27.3684V40.5436H341.512V14.4024H347.173V18.7942Z" fill="#60D130"/>
<path d="M372.145 41.2232C368.301 41.2232 365.033 39.8988 362.342 37.2498C359.651 34.6008 358.306 31.3419 358.306 27.473C358.306 23.6041 359.651 20.3452 362.342 17.6962C365.033 15.0473 368.301 13.7228 372.145 13.7228C376.024 13.7228 379.292 15.0473 381.948 17.6962C384.639 20.3452 385.984 23.6041 385.984 27.473C385.984 31.3419 384.639 34.6008 381.948 37.2498C379.292 39.8988 376.024 41.2232 372.145 41.2232ZM366.326 33.3809C367.899 34.9494 369.838 35.7336 372.145 35.7336C374.451 35.7336 376.391 34.9494 377.964 33.3809C379.536 31.8124 380.323 29.8431 380.323 27.473C380.323 25.1029 379.536 23.1336 377.964 21.5651C376.391 19.9966 374.451 19.2124 372.145 19.2124C369.838 19.2124 367.899 19.9966 366.326 21.5651C364.753 23.1336 363.967 25.1029 363.967 27.473C363.967 29.8431 364.753 31.8124 366.326 33.3809Z" fill="#60D130"/>
<defs>
<linearGradient id="paint0_linear_1_11" x1="38.0972" y1="0" x2="38.0972" y2="30.7733" gradientUnits="userSpaceOnUse">
<stop stop-color="#64DB31"/>
<stop offset="1" stop-color="#5ECC2F"/>
</linearGradient>
<linearGradient id="paint1_linear_1_11" x1="37.5264" y1="5.57382" x2="37.5264" y2="42.8426" gradientUnits="userSpaceOnUse">
<stop stop-color="#64DB31"/>
<stop offset="1" stop-color="#5ECC2F"/>
</linearGradient>
</defs>
</svg>
