<svg width="94" height="94" viewBox="0 0 94 94" fill="none" xmlns="http://www.w3.org/2000/svg">
<g clip-path="url(#clip0)">
<path d="M58.7322 30.7924C57.6569 29.7171 55.9133 29.7169 54.8377 30.7924L47.2626 38.3673L39.1641 30.2688C38.0888 29.1933 36.345 29.1933 35.2695 30.2688C34.194 31.3443 34.194 33.0879 35.2695 34.1633L44.5087 43.4025V52.4724C44.5087 53.9933 45.7417 55.2263 47.2626 55.2263C48.7835 55.2263 50.0165 53.9933 50.0165 52.4724V43.4025L58.7322 34.687C59.8077 33.6117 59.8077 31.8679 58.7322 30.7924Z" fill="#47419B"/>
<path d="M72.7724 0C72.7724 0 72.7724 0 72.7724 0C61.0676 0 51.5449 9.52962 51.5449 21.2433C51.5449 25.5714 52.845 29.6013 55.0749 32.9625C57.822 37.1033 63.2907 37.7965 68.076 36.4572L68.2158 36.4181C71.1896 35.5858 74.341 35.6336 77.2882 36.5557C81.9291 38.0077 87.2917 37.4672 90.1021 33.4989C92.5562 30.0338 93.9999 25.804 93.9999 21.2433C93.9999 9.52962 84.4772 0 72.7724 0C72.7724 0 72.7724 0 72.7724 0Z" fill="url(#paint0_linear)"/>
<path d="M21.2275 0C9.52264 0 0 9.52962 0 21.2433C0 28.3891 3.54391 34.7222 8.96525 38.5747L21.2275 35.1428L33.0876 38.8536C38.7352 35.0323 42.4548 28.5642 42.4548 21.2433C42.455 9.52962 32.9323 0 21.2275 0V0Z" fill="url(#paint1_linear)"/>
<path d="M47.0009 51.5137C35.2961 51.5137 25.7734 61.0433 25.7734 72.7569C25.7734 79.9028 29.3173 86.2358 34.7387 90.0884L47.0009 86.6563L58.8611 90.3671C64.5086 86.5457 68.2282 80.0777 68.2282 72.7568C68.2284 61.0433 58.7058 51.5137 47.0009 51.5137Z" fill="url(#paint2_linear)"/>
<path d="M47.0005 77.27C40.6581 77.27 35.3926 82.0262 34.7524 88.3334C34.7431 88.4257 34.7383 88.5186 34.7383 88.6115V90.0882C38.2038 92.5507 42.4362 94 47.0005 94C51.5648 94 55.7972 92.5507 59.2627 90.088V88.6113C59.2627 88.5184 59.2581 88.4257 59.2486 88.3332C58.6084 82.0262 53.3429 77.27 47.0005 77.27Z" fill="#615AD3"/>
<path d="M56.0541 73.7272C56.0641 68.7221 52.0172 64.6567 47.0152 64.6467C42.0131 64.6367 37.95 68.6859 37.94 73.6909C37.93 78.6959 41.9769 82.7614 46.9789 82.7714C51.981 82.7814 56.0441 78.7322 56.0541 73.7272Z" fill="#F1D0A4"/>
<path d="M21.2271 25.7563C14.8846 25.7563 9.61917 30.5125 8.97898 36.8197C8.96962 36.9121 8.96484 37.005 8.96484 37.0979V38.5745C12.4302 41.0372 16.6626 42.4865 21.2271 42.4865C25.7914 42.4865 30.0238 41.0372 33.4893 38.5745V37.0979C33.4893 37.005 33.4847 36.9122 33.4752 36.8197C32.835 30.5125 27.5695 25.7563 21.2271 25.7563Z" fill="#FFD830"/>
<path d="M30.2826 22.2179C30.2926 17.2129 26.2458 13.1474 21.2437 13.1374C16.2416 13.1274 12.1785 17.1766 12.1685 22.1816C12.1585 27.1867 16.2054 31.2521 21.2074 31.2621C26.2095 31.2721 30.2726 27.2229 30.2826 22.2179Z" fill="#F1D0A4"/>
<path d="M72.772 25.7563C66.4296 25.7563 61.1641 30.5125 60.5239 36.8197C60.5145 36.9121 60.5098 37.005 60.5098 37.0979V38.5745C63.9751 41.0372 68.2075 42.4865 72.772 42.4865C77.3363 42.4865 81.5687 41.0372 85.0342 38.5745V37.0979C85.0342 37.005 85.0296 36.9122 85.0201 36.8197C84.3801 30.5125 79.1144 25.7563 72.772 25.7563Z" fill="#5CE6B8"/>
<path d="M81.8236 22.2179C81.8336 17.2129 77.7868 13.1474 72.7847 13.1374C67.7826 13.1274 63.7195 17.1766 63.7095 22.1816C63.6995 27.1867 67.7464 31.2521 72.7484 31.2621C77.7505 31.2721 81.8136 27.2229 81.8236 22.2179Z" fill="#F1D0A4"/>
</g>
<defs>
<linearGradient id="paint0_linear" x1="51.5449" y1="19.4268" x2="93.9999" y2="19.4268" gradientUnits="userSpaceOnUse">
<stop stop-color="#5D61C8"/>
<stop offset="1" stop-color="#7D73E7"/>
</linearGradient>
<linearGradient id="paint1_linear" x1="21.2274" y1="0" x2="21.2274" y2="38.8536" gradientUnits="userSpaceOnUse">
<stop stop-color="#EB3352"/>
<stop offset="1" stop-color="#FF6680"/>
</linearGradient>
<linearGradient id="paint2_linear" x1="47.0008" y1="51.5137" x2="47.0008" y2="90.3671" gradientUnits="userSpaceOnUse">
<stop stop-color="#56B9AF"/>
<stop offset="1" stop-color="#72C863"/>
</linearGradient>
<clipPath id="clip0">
<rect width="94" height="94" fill="white"/>
</clipPath>
</defs>
</svg>
