<svg width="92" height="92" viewBox="0 0 92 92" fill="none" xmlns="http://www.w3.org/2000/svg">
<g clip-path="url(#clip0)">
<path d="M75.2974 37.7174V54.5233H19.7532C16.5936 54.5233 14.0312 51.961 14.0312 48.7996V41.0351C14.0312 39.982 14.3157 38.9928 14.8168 38.145C15.8078 36.4513 17.6485 35.3134 19.753 35.3134H72.8951C74.2216 35.3132 75.2974 36.3891 75.2974 37.7174Z" fill="#328919"/>
<path d="M75.2974 43.6518V60.4578H19.7532C16.5936 60.4578 14.0312 57.8954 14.0312 54.734V46.9697C14.0312 45.9166 14.3157 44.9274 14.8168 44.0796C15.8078 42.3859 17.6485 41.2479 19.753 41.2479H72.8951C74.2216 41.2477 75.2974 42.3235 75.2974 43.6518Z" fill="#52A23C"/>
<path d="M72.8742 15.3446C72.8742 23.8206 66.0042 30.6907 57.528 30.6907C56.9118 30.6907 56.305 30.6548 55.7094 30.5828C53.7718 30.3544 51.9437 29.7648 50.2968 28.8827C48.7893 28.0758 47.4319 27.0248 46.2808 25.7815C43.9945 23.3214 42.5086 20.1109 42.2319 16.5594C42.1992 16.1591 42.1836 15.7541 42.1836 15.3444C42.1832 6.86998 49.0532 0 57.5278 0C57.9377 0 58.3427 0.0156328 58.7428 0.0483358C62.2944 0.325054 65.505 1.81089 67.9649 4.09723C69.2082 5.24812 70.2592 6.60566 71.0662 8.11306C71.9481 9.75971 72.5378 11.588 72.7662 13.5256C72.838 14.1216 72.8742 14.73 72.8742 15.3446Z" fill="url(#paint0_linear)"/>
<path d="M57.5271 22.47C54.9447 22.47 52.8438 20.6428 52.8438 18.397C52.8438 17.8327 53.301 17.3753 53.8654 17.3753C54.4297 17.3753 54.887 17.8327 54.887 18.397C54.887 19.5163 56.0713 20.4267 57.5273 20.4267C58.9832 20.4267 60.1675 19.5162 60.1675 18.397C60.1675 17.2778 58.9832 16.3672 57.5273 16.3672C54.9448 16.3672 52.8439 14.54 52.8439 12.2941C52.8439 10.0483 54.945 8.22095 57.5273 8.22095C60.1097 8.22095 62.2107 10.0482 62.2107 12.2941C62.2107 12.8584 61.7534 13.3158 61.189 13.3158C60.6247 13.3158 60.1674 12.8584 60.1674 12.2941C60.1674 11.1748 58.9831 10.2642 57.5271 10.2642C56.0712 10.2642 54.8869 11.1747 54.8869 12.294C54.8869 13.4133 56.0712 14.3238 57.5271 14.3238C60.1096 14.3238 62.2105 16.151 62.2105 18.3968C62.2105 20.6427 60.1096 22.47 57.5271 22.47Z" fill="#FFF061"/>
<path d="M57.5275 23.6904C56.9632 23.6904 56.5059 23.233 56.5059 22.6688V8.02164C56.5059 7.45743 56.9632 7 57.5275 7C58.0918 7 58.5491 7.45743 58.5491 8.02164V22.6688C58.5491 23.233 58.0918 23.6904 57.5275 23.6904Z" fill="#FFF061"/>
<path d="M51.7218 33.7122C51.7218 42.1882 44.8518 49.0584 36.3756 49.0584C35.7595 49.0584 35.1527 49.0224 34.557 48.9504C32.6195 48.722 30.7913 48.1324 29.1445 47.2504C27.6369 46.4434 26.2796 45.3924 25.1285 44.1491C22.8421 41.689 21.3563 38.4786 21.0796 34.927C21.0469 34.5267 21.0312 34.1217 21.0312 33.712C21.0312 25.2374 27.9012 18.3674 36.3758 18.3674C36.7857 18.3674 37.1907 18.3831 37.5909 18.4158C41.1424 18.6925 44.353 20.1783 46.8129 22.4647C48.0562 23.6156 49.1072 24.9731 49.9142 26.4805C50.7961 28.1271 51.3858 29.9555 51.6142 31.893C51.6859 32.4892 51.7218 33.0976 51.7218 33.7122Z" fill="url(#paint1_linear)"/>
<path d="M36.376 41.1512C33.6798 41.1512 31.4863 39.2435 31.4863 36.8986C31.4863 36.3095 31.9638 35.832 32.553 35.832C33.1422 35.832 33.6196 36.3095 33.6196 36.8986C33.6196 38.0672 34.8561 39.0179 36.3761 39.0179C37.8962 39.0179 39.1327 38.0672 39.1327 36.8986C39.1327 35.73 37.8962 34.7794 36.3761 34.7794C33.68 34.7794 31.4865 32.8717 31.4865 30.527C31.4865 28.1823 33.68 26.2745 36.3761 26.2745C39.0723 26.2745 41.2658 28.1823 41.2658 30.527C41.2658 31.1161 40.7884 31.5936 40.1992 31.5936C39.61 31.5936 39.1325 31.1161 39.1325 30.527C39.1325 29.3583 37.8961 28.4078 36.376 28.4078C34.8559 28.4078 33.6195 29.3585 33.6195 30.527C33.6195 31.6955 34.8559 32.6462 36.376 32.6462C39.0722 32.6462 41.2657 34.5539 41.2657 36.8986C41.2657 39.2433 39.0722 41.1512 36.376 41.1512Z" fill="url(#paint2_linear)"/>
<path d="M36.3772 42.4255C35.788 42.4255 35.3105 41.948 35.3105 41.3589V26.0666C35.3105 25.4776 35.788 25 36.3772 25C36.9664 25 37.4438 25.4776 37.4438 26.0666V41.3589C37.4438 41.948 36.9664 42.4255 36.3772 42.4255Z" fill="url(#paint3_linear)"/>
<path d="M75.2981 50.2032V88.5551C75.2981 90.4575 73.7555 92.0001 71.8531 92.0001H19.7544C16.5954 92.0001 14.0332 89.4379 14.0332 86.2774V41.0354C14.0332 44.1959 16.5954 46.7581 19.7544 46.7581H71.8531C73.7556 46.7581 75.2981 48.3009 75.2981 50.2032Z" fill="url(#paint4_linear)"/>
<path d="M65.4011 75.3484H75.472C76.8506 75.3484 77.9682 74.2308 77.9682 72.8522V63.7067C77.9682 62.3281 76.8506 61.2104 75.472 61.2104H65.4011C61.4969 61.2104 58.332 64.3753 58.332 68.2795C58.332 72.1834 61.4972 75.3484 65.4011 75.3484Z" fill="#74E766"/>
<path d="M65.2439 71.1064C66.8057 71.1064 68.0718 69.8403 68.0718 68.2785C68.0718 66.7167 66.8057 65.4506 65.2439 65.4506C63.6821 65.4506 62.416 66.7167 62.416 68.2785C62.416 69.8403 63.6821 71.1064 65.2439 71.1064Z" fill="white"/>
<path d="M26.8779 15.7204C26.0973 15.7204 25.4648 15.0878 25.4648 14.3074V7.14792C25.4648 6.36754 26.0973 5.73486 26.8779 5.73486C27.6585 5.73486 28.291 6.36754 28.291 7.14792V14.3074C28.291 15.0878 27.6585 15.7204 26.8779 15.7204Z" fill="#FFD488"/>
<path d="M33.9424 12.8941C33.1618 12.8941 32.5293 12.2615 32.5293 11.4811V4.32163C32.5293 3.54125 33.1618 2.90857 33.9424 2.90857C34.7229 2.90857 35.3554 3.54125 35.3554 4.32163V11.4811C35.3554 12.2615 34.7227 12.8941 33.9424 12.8941Z" fill="#FFD488"/>
</g>
<defs>
<linearGradient id="paint0_linear" x1="57.5289" y1="0" x2="57.5289" y2="30.6907" gradientUnits="userSpaceOnUse">
<stop stop-color="#FFD488"/>
<stop offset="1" stop-color="#FFBA88"/>
</linearGradient>
<linearGradient id="paint1_linear" x1="36.3765" y1="18.3674" x2="36.3765" y2="49.0584" gradientUnits="userSpaceOnUse">
<stop stop-color="#FFD488"/>
<stop offset="1" stop-color="#FFBA88"/>
</linearGradient>
<linearGradient id="paint2_linear" x1="36.3761" y1="26.2745" x2="36.3761" y2="41.1512" gradientUnits="userSpaceOnUse">
<stop stop-color="#FFED4A"/>
<stop offset="1" stop-color="#FFFCAE"/>
</linearGradient>
<linearGradient id="paint3_linear" x1="36.3772" y1="25" x2="36.3772" y2="42.4255" gradientUnits="userSpaceOnUse">
<stop stop-color="#FFED4A"/>
<stop offset="1" stop-color="#FFFCAE"/>
</linearGradient>
<linearGradient id="paint4_linear" x1="14" y1="67" x2="75" y2="67" gradientUnits="userSpaceOnUse">
<stop stop-color="#3FAF51"/>
<stop offset="0.1875" stop-color="#5FC869"/>
<stop offset="1" stop-color="#76C85A"/>
</linearGradient>
<clipPath id="clip0">
<rect width="92" height="92" fill="white"/>
</clipPath>
</defs>
</svg>
