<svg width="29" height="39" viewBox="0 0 29 39" fill="none" xmlns="http://www.w3.org/2000/svg">
<path d="M14.1154 38.8151C8.66187 38.8151 3.96178 36.9315 0.0151367 33.1643L5.0202 27.1905C8.034 29.9173 11.0299 31.2806 14.0078 31.2806C15.9811 31.2806 17.5239 30.8142 18.6361 29.8814C19.7483 28.9485 20.3045 27.639 20.3045 25.9527C20.3045 24.374 19.6945 23.1362 18.4747 22.2392C17.2548 21.3064 15.6403 20.84 13.6311 20.84C11.6219 20.84 9.52296 21.3064 7.33436 22.2392L2.54458 19.064L3.62093 0.496826H26.7626V7.76224H10.7249L10.2943 14.2742C12.0165 13.8437 13.6669 13.6284 15.2456 13.6284C19.1564 13.6284 22.3316 14.633 24.7713 16.6422C27.2111 18.6514 28.431 21.7011 28.431 25.7912C28.431 29.7737 27.1214 32.949 24.5023 35.317C21.919 37.6491 18.4567 38.8151 14.1154 38.8151Z" fill="white"/>
</svg>
