<svg width="15" height="15" viewBox="0 0 15 15" fill="none" xmlns="http://www.w3.org/2000/svg">
<path d="M7.5 0C3.36448 0 0 3.36448 0 7.5C0 11.6355 3.36448 15 7.5 15C11.6355 15 15 11.6355 15 7.5C15 3.36448 11.6355 0 7.5 0ZM7.5 14.1211C3.84911 14.1211 0.878906 11.1509 0.878906 7.5C0.878906 3.84911 3.84911 0.878906 7.5 0.878906C11.1509 0.878906 14.1211 3.84911 14.1211 7.5C14.1211 11.1509 11.1509 14.1211 7.5 14.1211Z" fill="#9B9B9B"/>
<path d="M7.50095 2.5415C4.76685 2.5415 2.54248 4.76587 2.54248 7.49997C2.54248 10.2341 4.76685 12.4584 7.50095 12.4584C10.235 12.4584 12.4594 10.2341 12.4594 7.49997C12.4594 4.76587 10.235 2.5415 7.50095 2.5415ZM7.50095 11.5795C5.25147 11.5795 3.42139 9.74944 3.42139 7.49997C3.42139 5.2505 5.25147 3.42041 7.50095 3.42041C9.75042 3.42041 11.5805 5.2505 11.5805 7.49997C11.5805 9.74944 9.75042 11.5795 7.50095 11.5795Z" fill="#9B9B9B"/>
<path d="M7.49821 5.11011C6.18043 5.11011 5.1084 6.18217 5.1084 7.49992C5.1084 8.81767 6.18043 9.88973 7.49821 9.88973C8.81599 9.88973 9.88802 8.81767 9.88802 7.49992C9.88802 6.18217 8.81596 5.11011 7.49821 5.11011ZM7.49821 9.01082C6.66506 9.01082 5.98731 8.33304 5.98731 7.49992C5.98731 6.6668 6.66509 5.98902 7.49821 5.98902C8.33133 5.98902 9.00911 6.6668 9.00911 7.49992C9.00911 8.33304 8.33136 9.01082 7.49821 9.01082Z" fill="#9B9B9B"/>
</svg>
