<svg width="15" height="16" viewBox="0 0 15 16" fill="none" xmlns="http://www.w3.org/2000/svg">
<path d="M14.1602 6.94114H13.8033V4.79696C13.8033 3.92022 13.0896 3.20959 12.216 3.20959H11.8868L11.8899 2.41283C11.8899 1.82219 11.41 1.34229 10.8193 1.34229H1.30127C0.590648 1.34229 0.00922888 1.91448 0 2.6251C0 2.63125 0 2.6374 0 2.64356V13.146C0 13.7367 0.479901 14.2166 1.07055 14.2166H12.219C13.0958 14.2166 13.8064 13.5029 13.8064 12.6292V10.4819H14.1632C14.6247 10.4819 15 10.1066 15 9.6452V7.77789C14.9969 7.31644 14.6216 6.94114 14.1602 6.94114ZM1.30127 2.0806H10.8193C11.0008 2.0806 11.1516 2.22826 11.1516 2.40976L11.1485 3.20959H1.30127C0.990566 3.20959 0.73831 2.95734 0.73831 2.64663C0.73831 2.33593 0.990566 2.0806 1.30127 2.0806ZM13.065 12.6261C13.065 13.0937 12.6836 13.4752 12.216 13.4752H1.06747C0.885972 13.4752 0.735234 13.3275 0.735234 13.1429V3.8187C0.907506 3.90176 1.09824 3.9479 1.30127 3.9479H12.216C12.6836 3.9479 13.065 4.32937 13.065 4.79696V6.94114H10.5455C10.0841 6.94114 9.70878 7.31644 9.70878 7.77789V9.6452C9.70878 10.1066 10.0841 10.4819 10.5455 10.4819H13.065V12.6261ZM14.2586 9.6452C14.2586 9.70057 14.2155 9.74364 14.1602 9.74364H10.5486C10.4932 9.74364 10.4502 9.70057 10.4502 9.6452V7.77789C10.4502 7.72559 10.4932 7.67945 10.5486 7.67945H14.1602C14.2125 7.67945 14.2586 7.72252 14.2586 7.77789V9.6452Z" fill="#979797"/>
</svg>
