<svg width="10" height="10" viewBox="0 0 10 10" fill="none" xmlns="http://www.w3.org/2000/svg">
<path d="M3.78564 4.2165C3.40293 4.63109 2.91259 4.83839 2.31462 4.83839C1.71664 4.83839 1.23029 4.63508 0.855555 4.22846C0.480823 3.81386 0.293457 3.30359 0.293457 2.69764C0.293457 2.09169 0.484809 1.5854 0.867514 1.17878C1.25022 0.764183 1.74056 0.556885 2.33854 0.556885C2.93651 0.556885 3.42287 0.764183 3.7976 1.17878C4.17233 1.5854 4.35969 2.09169 4.35969 2.69764C4.35969 3.29561 4.16834 3.8019 3.78564 4.2165ZM1.13062 9.02423L7.24194 0.65256H8.66512L2.55381 9.02423H1.13062ZM8.92823 8.49801C8.54553 8.9126 8.05519 9.1199 7.45721 9.1199C6.85924 9.1199 6.37288 8.91659 5.99815 8.50997C5.62342 8.09537 5.43605 7.5851 5.43605 6.97915C5.43605 6.3732 5.6274 5.86691 6.01011 5.46029C6.39281 5.04569 6.88315 4.83839 7.48113 4.83839C8.07911 4.83839 8.56546 5.04569 8.94019 5.46029C9.31492 5.86691 9.50229 6.3732 9.50229 6.97915C9.50229 7.57712 9.31094 8.08341 8.92823 8.49801ZM2.33854 3.75008C2.57773 3.75008 2.76509 3.65041 2.90063 3.45109C3.03617 3.24379 3.10394 2.99264 3.10394 2.69764C3.10394 2.41061 3.0282 2.16345 2.87671 1.95615C2.7332 1.74885 2.54583 1.6452 2.31462 1.6452C2.07543 1.6452 1.88806 1.74486 1.75252 1.94419C1.61698 2.14351 1.54921 2.39466 1.54921 2.69764C1.54921 2.98467 1.62096 3.23183 1.76448 3.43913C1.91597 3.64643 2.10732 3.75008 2.33854 3.75008ZM7.48113 8.03159C7.72032 8.03159 7.90769 7.93192 8.04323 7.7326C8.17877 7.5253 8.24654 7.27415 8.24654 6.97915C8.24654 6.69212 8.1708 6.44496 8.01931 6.23766C7.87579 6.03036 7.68843 5.92671 7.45721 5.92671C7.21802 5.92671 7.03065 6.02637 6.89511 6.2257C6.75957 6.42502 6.6918 6.67617 6.6918 6.97915C6.6918 7.26618 6.76356 7.51334 6.90707 7.72064C7.05856 7.92794 7.24991 8.03159 7.48113 8.03159Z" fill="white"/>
</svg>
