<svg width="107" height="107" viewBox="0 0 107 107" fill="none" xmlns="http://www.w3.org/2000/svg">
<g clip-path="url(#clip0)">
<line x1="44.7094" y1="45.5931" x2="58.7094" y2="35.5931" stroke="white" stroke-dasharray="1 1"/>
<line x1="76.4984" y1="41.9601" x2="77.8699" y2="59.11" stroke="white" stroke-dasharray="1 1"/>
<line x1="44.7615" y1="63.4367" x2="59.8169" y2="71.7634" stroke="white" stroke-dasharray="1 1"/>
<path d="M96.9537 24.0615C97.4416 29.1636 96.0512 34.2685 93.0433 38.4185C90.0353 42.5686 85.6166 45.4785 80.6159 46.6026C75.6152 47.7266 70.3763 46.9875 65.8817 44.5239C61.3872 42.0603 57.9459 38.0415 56.2035 33.2214C54.461 28.4012 54.5371 23.1109 56.4175 18.3428C58.2978 13.5747 61.8532 9.65654 66.4168 7.32321C70.9803 4.98989 76.2384 4.40177 81.2046 5.66918C86.1709 6.93659 90.5041 9.97243 93.3915 14.2072C95.39 17.1395 96.6153 20.5291 96.9537 24.0615Z" fill="#BAD6FF"/>
<circle cx="89" cy="9" r="7" fill="white"/>
<path d="M89.0003 12C89.1885 12 89.369 11.9252 89.5021 11.7921C89.6352 11.659 89.71 11.4785 89.71 11.2903V9.70987H91.2903C91.4785 9.70987 91.659 9.63509 91.7921 9.50199C91.9252 9.36889 92 9.18837 92 9.00014C92 8.81191 91.9252 8.63139 91.7921 8.49829C91.659 8.36519 91.4785 8.29042 91.2903 8.29042H89.71V6.70972C89.71 6.52149 89.6352 6.34097 89.5021 6.20787C89.369 6.07478 89.1885 6 89.0003 6C88.8121 6 88.6316 6.07478 88.4985 6.20787C88.3654 6.34097 88.2906 6.52149 88.2906 6.70972V8.29042H86.7097C86.5215 8.29042 86.341 8.36519 86.2079 8.49829C86.0748 8.63139 86 8.81191 86 9.00014C86 9.18837 86.0748 9.36889 86.2079 9.50199C86.341 9.63509 86.5215 9.70987 86.7097 9.70987H88.2906V11.2903C88.2906 11.4785 88.3654 11.659 88.4985 11.7921C88.6316 11.9252 88.8121 12 89.0003 12Z" fill="#74C85D"/>
<path d="M31.2133 76.2001C42.6805 74.2698 50.4118 63.409 48.4815 51.9418C46.5512 40.4746 35.6904 32.7434 24.2232 34.6736C12.756 36.6039 5.02476 47.4647 6.95503 58.9319C8.8853 70.3991 19.7461 78.1304 31.2133 76.2001Z" fill="#2EB05D"/>
<path d="M23.2807 62.3709C23.5433 63.0722 24.0137 63.6767 24.629 64.1036C25.2443 64.5304 25.9752 64.7594 26.7241 64.7598C27.473 64.7602 28.2041 64.5321 28.8199 64.1059C29.4357 63.6797 29.9067 63.0757 30.1701 62.3747C30.2587 62.139 30.2501 61.8777 30.1461 61.6484C30.0421 61.4191 29.8513 61.2404 29.6156 61.1518C29.3796 61.0684 29.1205 61.0796 28.8926 61.1829C28.6646 61.2863 28.4855 61.4738 28.3927 61.7063C28.2652 62.0446 28.0377 62.3362 27.7404 62.5421C27.4431 62.748 27.0902 62.8585 26.7286 62.8589C26.367 62.8593 26.0139 62.7496 25.7161 62.5444C25.4184 62.3392 25.1902 62.0481 25.0619 61.7101C24.9701 61.4767 24.7913 61.2882 24.5632 61.184C24.3351 61.0799 24.0755 61.0683 23.839 61.1518C23.6035 61.2397 23.4125 61.4174 23.3079 61.6459C23.2032 61.8745 23.1935 62.1352 23.2807 62.3709Z" fill="white"/>
<path d="M37.2724 51.4568C37.8258 50.8958 38.2494 50.2202 38.5132 49.4777C38.777 48.7352 38.8747 47.9438 38.7993 47.1594C38.724 46.375 38.4774 45.6167 38.077 44.938C37.6766 44.2593 37.1322 43.6767 36.4821 43.2314L34.8946 42.1448C34.7643 42.0557 34.6139 42.0005 34.457 41.9841C34.3 41.9678 34.1415 41.9908 33.9956 42.0511C33.8498 42.1114 33.7213 42.2071 33.6218 42.3296C33.5223 42.452 33.4548 42.5974 33.4255 42.7524C33.3359 43.2239 33.0846 43.6493 32.7151 43.9555C32.3455 44.2617 31.8808 44.4295 31.4009 44.43H21.9351C20.6273 44.4313 19.3734 44.9514 18.4487 45.8762C17.524 46.801 17.0039 48.0549 17.0027 49.3627V54.7557C16.0845 54.7686 15.2087 55.1446 14.567 55.8016C13.9252 56.4585 13.5697 57.3428 13.5783 58.2611C13.5868 59.1795 13.9587 60.057 14.6125 60.7019C15.2663 61.3468 16.149 61.7065 17.0673 61.7024H17.3332C17.8804 63.7771 19.0989 65.6125 20.7986 66.9221C22.4984 68.2317 24.5838 68.9418 26.7295 68.9418C28.8752 68.9418 30.9606 68.2317 32.6604 66.9221C34.3601 65.6125 35.5786 63.7771 36.1258 61.7024H36.3879C37.3062 61.7065 38.1889 61.3468 38.8427 60.7019C39.4965 60.057 39.8684 59.1795 39.8769 58.2611C39.8855 57.3428 39.53 56.4585 38.8882 55.8016C38.2465 55.1446 37.3707 54.7686 36.4525 54.7557V52.2908L37.2724 51.4568ZM15.49 58.2258C15.4906 57.8191 15.648 57.4283 15.9297 57.1348C16.2113 56.8414 16.5953 56.668 17.0016 56.6508V59.2246C17.0016 59.4183 17.0073 59.6109 17.0183 59.8011C16.6089 59.7883 16.2205 59.6168 15.9353 59.3228C15.6501 59.0288 15.4904 58.6354 15.49 58.2258ZM34.5516 59.2246C34.5516 61.3001 33.7271 63.2905 32.2596 64.7581C30.792 66.2257 28.8015 67.0502 26.7261 67.0502C24.6506 67.0502 22.6602 66.2257 21.1926 64.7581C19.725 63.2905 18.9005 61.3001 18.9005 59.2246V52.8518H34.5516V59.2246ZM37.9621 58.2258C37.9616 58.6355 37.8018 59.0289 37.5165 59.3229C37.2311 59.6169 36.8426 59.7884 36.4331 59.8011C36.4445 59.6113 36.4506 59.4176 36.4506 59.2246V56.6508C36.8569 56.668 37.2409 56.8414 37.5225 57.1348C37.8041 57.4283 37.9616 57.8191 37.9621 58.2258ZM35.9215 50.1219L35.1027 50.9517H18.9017V49.3619C18.9029 48.5577 19.2228 47.7868 19.7914 47.2182C20.36 46.6495 21.1309 46.3295 21.9351 46.3281H31.4009C32.0883 46.3277 32.7638 46.1484 33.361 45.808C33.9582 45.4675 34.4566 44.9776 34.8072 44.3863L35.4107 44.7991C35.8311 45.0875 36.1832 45.4646 36.4421 45.9038C36.701 46.343 36.8605 46.8337 36.9092 47.3412C36.9579 47.8487 36.8947 48.3607 36.724 48.8412C36.5534 49.3216 36.2794 49.7588 35.9215 50.1219Z" fill="white"/>
<path d="M22.6409 57.8554C22.8927 57.8554 23.1342 57.7554 23.3123 57.5773C23.4903 57.3992 23.5903 57.1577 23.5903 56.9059V56.3894C23.5903 56.1376 23.4903 55.8961 23.3123 55.718C23.1342 55.54 22.8927 55.4399 22.6409 55.4399C22.3891 55.4399 22.1476 55.54 21.9695 55.718C21.7914 55.8961 21.6914 56.1376 21.6914 56.3894V56.9059C21.6914 57.1577 21.7914 57.3992 21.9695 57.5773C22.1476 57.7554 22.3891 57.8554 22.6409 57.8554Z" fill="white"/>
<path d="M30.8084 57.8554C31.0602 57.8554 31.3017 57.7554 31.4797 57.5773C31.6578 57.3992 31.7578 57.1577 31.7578 56.9059V56.3894C31.7578 56.1376 31.6578 55.8961 31.4797 55.718C31.3017 55.54 31.0602 55.4399 30.8084 55.4399C30.5565 55.4399 30.315 55.54 30.137 55.718C29.9589 55.8961 29.8589 56.1376 29.8589 56.3894V56.9059C29.8589 57.1577 29.9589 57.3992 30.137 57.5773C30.315 57.7554 30.5565 57.8554 30.8084 57.8554Z" fill="white"/>
<path d="M26.7229 60.2099C26.9747 60.2099 27.2162 60.1099 27.3943 59.9318C27.5723 59.7538 27.6724 59.5123 27.6724 59.2605V56.9058C27.6724 56.654 27.5723 56.4124 27.3943 56.2344C27.2162 56.0563 26.9747 55.9563 26.7229 55.9563C26.4711 55.9563 26.2296 56.0563 26.0515 56.2344C25.8735 56.4124 25.7734 56.654 25.7734 56.9058V59.2605C25.7734 59.5123 25.8735 59.7538 26.0515 59.9318C26.2296 60.1099 26.4711 60.2099 26.7229 60.2099Z" fill="white"/>
<path d="M97.6627 76.1213C98.1491 81.1864 96.7856 86.2563 93.8243 90.3941C90.8629 94.5319 86.5038 97.4579 81.5526 98.6313C76.6015 99.8048 71.3929 99.1463 66.8895 96.7777C62.386 94.409 58.8923 90.4903 57.0538 85.7457C55.2153 81.0011 55.1563 75.7514 56.8879 70.9668C58.6194 66.1821 62.0244 62.186 66.4735 59.7169C70.9227 57.2477 76.1152 56.4726 81.0914 57.5346C86.0677 58.5966 90.4913 61.4241 93.5448 65.4944C95.8679 68.591 97.2927 72.2679 97.6627 76.1213Z" fill="#E4B7FF"/>
<circle cx="90" cy="62" r="7" fill="white"/>
<path d="M90.0003 65C90.1885 65 90.369 64.9252 90.5021 64.7921C90.6352 64.659 90.71 64.4785 90.71 64.2903V62.7099H92.2903C92.4785 62.7099 92.659 62.6351 92.7921 62.502C92.9252 62.3689 93 62.1884 93 62.0001C93 61.8119 92.9252 61.6314 92.7921 61.4983C92.659 61.3652 92.4785 61.2904 92.2903 61.2904H90.71V59.7097C90.71 59.5215 90.6352 59.341 90.5021 59.2079C90.369 59.0748 90.1885 59 90.0003 59C89.8121 59 89.6316 59.0748 89.4985 59.2079C89.3654 59.341 89.2906 59.5215 89.2906 59.7097V61.2904H87.7097C87.5215 61.2904 87.341 61.3652 87.2079 61.4983C87.0748 61.6314 87 61.8119 87 62.0001C87 62.1884 87.0748 62.3689 87.2079 62.502C87.341 62.6351 87.5215 62.7099 87.7097 62.7099H89.2906V64.2903C89.2906 64.4785 89.3654 64.659 89.4985 64.7921C89.6316 64.9252 89.8121 65 90.0003 65Z" fill="#74C85D"/>
<path d="M79.5859 83.8013C79.3493 83.719 79.0902 83.7312 78.8624 83.8352C78.6346 83.9391 78.4557 84.127 78.3629 84.3596C78.2346 84.6972 78.0069 84.9879 77.7099 85.1933C77.4129 85.3988 77.0606 85.5093 76.6995 85.5103C76.337 85.5132 75.9824 85.4043 75.684 85.1983C75.3857 84.9924 75.1581 84.6995 75.0322 84.3596C74.9402 84.1273 74.762 83.9395 74.5348 83.8355C74.3076 83.7314 74.0491 83.7192 73.8131 83.8013C73.5769 83.8885 73.385 84.0659 73.2796 84.2945C73.1742 84.5231 73.1639 84.7842 73.251 85.0204C73.5136 85.7217 73.984 86.3262 74.5993 86.7531C75.2146 87.18 75.9455 87.4089 76.6944 87.4093C77.4432 87.4097 78.1744 87.1816 78.7902 86.7554C79.4059 86.3292 79.877 85.7252 80.1403 85.0242C80.1847 84.9075 80.2055 84.7833 80.2016 84.6585C80.1978 84.5338 80.1692 84.411 80.1177 84.2973C80.0661 84.1836 79.9926 84.0813 79.9013 83.9962C79.8101 83.911 79.7028 83.8448 79.5859 83.8013Z" fill="white"/>
<path d="M73.5669 80.1391V79.6226C73.5669 79.3707 73.4669 79.1292 73.2888 78.9512C73.1108 78.7731 72.8693 78.6731 72.6174 78.6731C72.3656 78.6731 72.1241 78.7731 71.9461 78.9512C71.768 79.1292 71.668 79.3707 71.668 79.6226V80.1391C71.668 80.3909 71.768 80.6324 71.9461 80.8104C72.1241 80.9885 72.3656 81.0885 72.6174 81.0885C72.8693 81.0885 73.1108 80.9885 73.2888 80.8104C73.4669 80.6324 73.5669 80.3909 73.5669 80.1391Z" fill="white"/>
<path d="M80.7781 78.6729C80.5263 78.6729 80.2848 78.7729 80.1067 78.9509C79.9286 79.129 79.8286 79.3705 79.8286 79.6223V80.1388C79.8286 80.3906 79.9286 80.6321 80.1067 80.8102C80.2848 80.9883 80.5263 81.0883 80.7781 81.0883C81.0299 81.0883 81.2714 80.9883 81.4495 80.8102C81.6275 80.6321 81.7276 80.3906 81.7276 80.1388V79.6223C81.7276 79.3705 81.6275 79.129 81.4495 78.9509C81.2714 78.7729 81.0299 78.6729 80.7781 78.6729Z" fill="white"/>
<path d="M76.6995 83.4454C76.9513 83.4454 77.1928 83.3453 77.3708 83.1673C77.5489 82.9892 77.6489 82.7477 77.6489 82.4959V80.1389C77.6489 79.8871 77.5489 79.6456 77.3708 79.4675C77.1928 79.2895 76.9513 79.1895 76.6995 79.1895C76.4477 79.1895 76.2062 79.2895 76.0281 79.4675C75.85 79.6456 75.75 79.8871 75.75 80.1389V82.4959C75.75 82.7477 75.85 82.9892 76.0281 83.1673C76.2062 83.3453 76.4477 83.4454 76.6995 83.4454Z" fill="white"/>
<path d="M77.9291 67.8851C77.5692 68.1473 77.1352 68.2883 76.6899 68.2877C76.2446 68.2872 75.811 68.1451 75.4517 67.8821C74.6603 67.3239 73.7294 66.9966 72.7628 66.9368C71.7962 66.8769 70.832 67.0869 69.9778 67.5432C69.1236 67.9995 68.413 68.6842 67.9253 69.5209C67.4376 70.3576 67.1921 71.3134 67.216 72.2815V75.7163C66.2199 75.7934 65.2909 76.2483 64.6192 76.9878C63.9474 77.7273 63.5836 78.6955 63.6022 79.6944C63.6209 80.6933 64.0205 81.6474 64.7194 82.3613C65.4183 83.0752 66.3636 83.4951 67.3618 83.535C67.7514 85.727 68.9 87.7119 70.6064 89.1418C72.3128 90.5717 74.4681 91.3553 76.6944 91.3553C78.9207 91.3553 81.076 90.5717 82.7824 89.1418C84.4888 87.7119 85.6374 85.727 86.0269 83.535C87.0253 83.4954 87.9707 83.0758 88.6699 82.362C89.369 81.6483 89.7689 80.6943 89.7878 79.6953C89.8066 78.6964 89.4431 77.728 88.7714 76.9883C88.0997 76.2486 87.1708 75.7936 86.1747 75.7163V72.2815C86.1732 68.0359 81.5363 65.3466 77.9291 67.8851ZM67.2145 79.0581V81.6209C66.7375 81.5469 66.3027 81.3047 65.9886 80.9381C65.6746 80.5716 65.5019 80.1048 65.5019 79.6221C65.5019 79.1394 65.6746 78.6726 65.9886 78.306C66.3027 77.9394 66.7375 77.6973 67.2145 77.6232V79.0581ZM84.2742 81.8757C84.26 83.877 83.4551 85.7914 82.035 87.2016C80.6149 88.6117 78.6947 89.403 76.6934 89.403C74.6921 89.403 72.772 88.6117 71.3519 87.2016C69.9318 85.7914 69.1268 83.877 69.1127 81.8757V79.0729C69.1127 79.068 69.1127 79.063 69.1127 79.0581C69.1127 76.2913 72.3173 74.8291 74.3538 76.3585C75.0362 76.8454 75.8536 77.1072 76.6919 77.1072C77.5302 77.1072 78.3477 76.8454 79.0301 76.3585C79.5266 76.0078 80.1097 75.8 80.7161 75.7576C81.3224 75.7153 81.9288 75.84 82.4692 76.1183C83.0096 76.3966 83.4633 76.8177 83.7811 77.3359C84.0988 77.8541 84.2683 78.4495 84.2712 79.0573L84.2742 81.8757ZM84.2742 75.0319C83.3871 74.3058 82.2863 73.8908 81.1406 73.8505C79.9949 73.8102 78.8676 74.1469 77.9317 74.809L77.9272 74.8121C77.5718 75.0708 77.1439 75.2112 76.7043 75.2133C76.2646 75.2154 75.8355 75.0792 75.4776 74.8238C74.5434 74.1466 73.4097 73.8009 72.2566 73.8416C71.1035 73.8823 69.9971 74.3072 69.1131 75.0487V72.2804C69.1131 69.4536 72.1248 67.8524 74.3492 69.4286C75.0312 69.9167 75.8488 70.1795 76.6876 70.1801C77.5263 70.1807 78.3443 69.9191 79.0271 69.432C81.3365 67.8061 84.2738 69.5459 84.2738 72.2804L84.2742 75.0319ZM87.886 79.6209C87.8854 80.1036 87.7125 80.5703 87.3983 80.9368C87.0841 81.3032 86.6494 81.5454 86.1724 81.6198V79.0653V79.0577V77.6221C86.6498 77.6962 87.085 77.9385 87.3995 78.3052C87.714 78.6719 87.8871 79.139 87.8875 79.6221L87.886 79.6209Z" fill="white"/>
<path d="M75.8039 12.4883C69.1078 12.5878 63.6602 18.2322 63.6602 25.0699V31.5784C63.6602 31.8302 63.7602 32.0717 63.9382 32.2497C64.1163 32.4278 64.3578 32.5278 64.6096 32.5278H68.5856C69.1484 34.036 70.1586 35.3362 71.4809 36.2541C72.8033 37.1721 74.3746 37.6641 75.9843 37.6641C77.594 37.6641 79.1653 37.1721 80.4877 36.2541C81.81 35.3362 82.8202 34.036 83.383 32.5278H87.3571C87.6089 32.5278 87.8504 32.4278 88.0284 32.2497C88.2065 32.0717 88.3065 31.8302 88.3065 31.5784V24.8136C88.3085 23.1794 87.9852 21.5613 87.3554 20.0534C86.7256 18.5455 85.8019 17.1781 84.6382 16.0308C83.4744 14.8836 82.0939 13.9795 80.5772 13.3713C79.0605 12.7631 77.4378 12.4629 75.8039 12.4883ZM81.9834 29.7687C81.9708 31.3513 81.3333 32.8649 80.2097 33.9795C79.0861 35.0942 77.5676 35.7197 75.9849 35.7197C74.4022 35.7197 72.8836 35.0942 71.76 33.9795C70.6364 32.8649 69.9989 31.3513 69.9863 29.7687V25.0752C69.9864 24.8758 70.0288 24.6786 70.1108 24.4967C70.1928 24.3149 70.3124 24.1525 70.4618 24.0203C70.6113 23.8882 70.7871 23.7892 70.9776 23.7301C71.1681 23.671 71.369 23.6529 71.567 23.6772H71.5746L81.9834 25.0745V29.7687ZM86.4076 30.6278H83.836C83.8682 30.3425 83.8837 30.0557 83.8824 29.7687V24.2446C83.8823 24.0148 83.7989 23.7928 83.6475 23.6198C83.4962 23.4468 83.2872 23.3345 83.0594 23.3039L71.8218 21.795C71.3554 21.7347 70.8814 21.7744 70.4316 21.9117C69.9817 22.0489 69.5663 22.2804 69.2129 22.5908C68.8595 22.9011 68.5764 23.2833 68.3823 23.7117C68.1882 24.1401 68.0877 24.6049 68.0874 25.0752V29.7698C68.0884 30.0568 68.1042 30.3435 68.1348 30.6289H65.5591V25.0703C65.5591 19.2641 70.1675 14.4716 75.8305 14.3876C77.2128 14.366 78.5855 14.6199 79.8686 15.1343C81.1518 15.6488 82.3197 16.4135 83.3042 17.384C84.2887 18.3545 85.0702 19.5113 85.603 20.7869C86.1358 22.0626 86.4093 23.4315 86.4076 24.8139V30.6278Z" fill="white"/>
<path d="M72.7207 32.2939C72.9697 32.9585 73.4156 33.5313 73.9989 33.9357C74.5821 34.3401 75.2748 34.5569 75.9845 34.5572C76.6942 34.5574 77.3871 34.3411 77.9706 33.9371C78.5541 33.5331 79.0005 32.9606 79.25 32.2962C79.2959 32.179 79.3181 32.0538 79.3152 31.9279C79.3123 31.802 79.2844 31.678 79.2331 31.563C79.1819 31.448 79.1082 31.3444 79.0165 31.2581C78.9248 31.1718 78.8168 31.1047 78.6989 31.0605C78.581 31.0164 78.4555 30.9961 78.3297 31.0009C78.2038 31.0058 78.0802 31.0356 77.9661 31.0886C77.8519 31.1416 77.7493 31.2168 77.6645 31.3099C77.5796 31.4029 77.5141 31.5119 77.4718 31.6305C77.3571 31.9314 77.1538 32.1905 76.8887 32.3733C76.6235 32.5562 76.3091 32.6542 75.9871 32.6545C75.665 32.6547 75.3504 32.5572 75.085 32.3747C74.8196 32.1923 74.6159 31.9335 74.5007 31.6327C74.4579 31.5151 74.3922 31.4071 74.3074 31.315C74.2227 31.2229 74.1205 31.1484 74.0069 31.0959C73.8933 31.0434 73.7704 31.0139 73.6453 31.0091C73.5202 31.0043 73.3954 31.0242 73.278 31.0678C73.1607 31.1114 73.0531 31.1777 72.9615 31.2631C72.8699 31.3484 72.7961 31.451 72.7443 31.5649C72.6925 31.6789 72.6637 31.802 72.6597 31.9271C72.6556 32.0522 72.6763 32.1769 72.7207 32.2939Z" fill="white"/>
<path d="M71.2383 26.7092V27.1893C71.2383 27.4411 71.3383 27.6826 71.5164 27.8607C71.6944 28.0387 71.9359 28.1388 72.1877 28.1388C72.4396 28.1388 72.6811 28.0387 72.8591 27.8607C73.0372 27.6826 73.1372 27.4411 73.1372 27.1893V26.7092C73.1372 26.4574 73.0372 26.2159 72.8591 26.0379C72.6811 25.8598 72.4396 25.7598 72.1877 25.7598C71.9359 25.7598 71.6944 25.8598 71.5164 26.0379C71.3383 26.2159 71.2383 26.4574 71.2383 26.7092Z" fill="white"/>
<path d="M79.782 28.139C80.0338 28.139 80.2753 28.039 80.4534 27.8609C80.6314 27.6829 80.7315 27.4413 80.7315 27.1895V26.7095C80.7315 26.4577 80.6314 26.2162 80.4534 26.0381C80.2753 25.86 80.0338 25.76 79.782 25.76C79.5302 25.76 79.2887 25.86 79.1106 26.0381C78.9325 26.2162 78.8325 26.4577 78.8325 26.7095V27.1895C78.8325 27.4413 78.9325 27.6829 79.1106 27.8609C79.2887 28.039 79.5302 28.139 79.782 28.139Z" fill="white"/>
<path d="M75.9846 30.3299C76.2364 30.3299 76.4779 30.2299 76.656 30.0518C76.8341 29.8738 76.9341 29.6323 76.9341 29.3805V27.1895C76.9341 26.9376 76.8341 26.6961 76.656 26.5181C76.4779 26.34 76.2364 26.24 75.9846 26.24C75.7328 26.24 75.4913 26.34 75.3133 26.5181C75.1352 26.6961 75.0352 26.9376 75.0352 27.1895V29.3805C75.0352 29.6323 75.1352 29.8738 75.3133 30.0518C75.4913 30.2299 75.7328 30.3299 75.9846 30.3299Z" fill="white"/>
</g>
<defs>
<clipPath id="clip0">
<rect width="97.2258" height="97.2258" fill="white" transform="translate(0 9.2876) rotate(-5.48164)"/>
</clipPath>
</defs>
</svg>
