<svg width="137" height="120" viewBox="0 0 137 120" fill="none" xmlns="http://www.w3.org/2000/svg">
<rect width="120" height="120" rx="60" fill="url(#paint0_linear)"/>
<rect x="95.4004" y="39.6" width="40.8" height="40.8" rx="20.4" fill="url(#paint1_linear)"/>
<path d="M61.0132 93C51.5708 93 43.4329 89.7556 36.5996 83.2669L45.2655 72.9775C50.4837 77.6742 55.6708 80.0225 60.8269 80.0225C64.2435 80.0225 66.9148 79.2191 68.8405 77.6124C70.7663 76.0056 71.7292 73.75 71.7292 70.8455C71.7292 68.1264 70.6731 65.9944 68.561 64.4494C66.4489 62.8427 63.6534 62.0393 60.1746 62.0393C56.6958 62.0393 53.0617 62.8427 49.2723 64.4494L40.9792 58.9803L42.8428 27H82.911V39.514H55.1428L54.3973 50.7303C57.3792 49.9888 60.2367 49.618 62.9701 49.618C69.7413 49.618 75.239 51.3483 79.4632 54.809C83.6875 58.2697 85.7996 63.5225 85.7996 70.5674C85.7996 77.427 83.5322 82.8961 78.9973 86.9747C74.5246 90.9916 68.5299 93 61.0132 93Z" fill="white"/>
<path d="M114.743 58.3542C114.07 59.0514 113.207 59.4 112.155 59.4C111.103 59.4 110.248 59.0581 109.588 58.3743C108.929 57.6771 108.6 56.819 108.6 55.8C108.6 54.781 108.936 53.9296 109.609 53.2458C110.283 52.5486 111.145 52.2 112.197 52.2C113.249 52.2 114.105 52.5486 114.764 53.2458C115.423 53.9296 115.753 54.781 115.753 55.8C115.753 56.8056 115.416 57.657 114.743 58.3542ZM110.072 66.4391L120.823 52.3609H123.327L112.576 66.4391H110.072ZM123.79 65.5542C123.116 66.2514 122.254 66.6 121.202 66.6C120.15 66.6 119.294 66.2581 118.635 65.5743C117.976 64.8771 117.646 64.019 117.646 63C117.646 61.981 117.983 61.1296 118.656 60.4458C119.329 59.7486 120.192 59.4 121.244 59.4C122.296 59.4 123.152 59.7486 123.811 60.4458C124.47 61.1296 124.8 61.981 124.8 63C124.8 64.0056 124.463 64.857 123.79 65.5542ZM112.197 57.5698C112.618 57.5698 112.948 57.4022 113.186 57.0671C113.425 56.7184 113.544 56.2961 113.544 55.8C113.544 55.3173 113.411 54.9017 113.144 54.5531C112.892 54.2045 112.562 54.0302 112.155 54.0302C111.734 54.0302 111.405 54.1978 111.166 54.533C110.928 54.8682 110.809 55.2905 110.809 55.8C110.809 56.2827 110.935 56.6983 111.187 57.0469C111.454 57.3955 111.791 57.5698 112.197 57.5698ZM121.244 64.7698C121.665 64.7698 121.994 64.6022 122.233 64.2671C122.471 63.9184 122.591 63.4961 122.591 63C122.591 62.5173 122.457 62.1017 122.191 61.7531C121.938 61.4045 121.609 61.2302 121.202 61.2302C120.781 61.2302 120.452 61.3978 120.213 61.733C119.975 62.0682 119.855 62.4905 119.855 63C119.855 63.4827 119.982 63.8983 120.234 64.2469C120.501 64.5955 120.837 64.7698 121.244 64.7698Z" fill="white"/>
<defs>
<linearGradient id="paint0_linear" x1="60" y1="0" x2="60" y2="120" gradientUnits="userSpaceOnUse">
<stop stop-color="#56B9AF"/>
<stop offset="1" stop-color="#72C863"/>
</linearGradient>
<linearGradient id="paint1_linear" x1="115.8" y1="39.6" x2="115.8" y2="80.4" gradientUnits="userSpaceOnUse">
<stop stop-color="#56B9AF"/>
<stop offset="1" stop-color="#72C863"/>
</linearGradient>
</defs>
</svg>
