<svg width="13" height="13" viewBox="0 0 13 13" fill="none" xmlns="http://www.w3.org/2000/svg">
<path d="M12.5828 11.8409L9.48874 8.623C10.2843 7.67732 10.7201 6.48745 10.7201 5.24874C10.7201 2.35463 8.36551 0 5.4714 0C2.57729 0 0.222656 2.35463 0.222656 5.24874C0.222656 8.14286 2.57729 10.4975 5.4714 10.4975C6.55789 10.4975 7.59326 10.1698 8.47848 9.5477L11.596 12.7901C11.7263 12.9254 11.9016 13 12.0894 13C12.2672 13 12.4358 12.9322 12.5638 12.809C12.8358 12.5472 12.8445 12.1132 12.5828 11.8409ZM5.4714 1.36924C7.61061 1.36924 9.35091 3.10954 9.35091 5.24874C9.35091 7.38795 7.61061 9.12825 5.4714 9.12825C3.3322 9.12825 1.59189 7.38795 1.59189 5.24874C1.59189 3.10954 3.3322 1.36924 5.4714 1.36924Z" fill="#7DC855"/>
</svg>
