<svg width="15" height="15" viewBox="0 0 15 15" fill="none" xmlns="http://www.w3.org/2000/svg">
<g clip-path="url(#clip0)">
<path d="M7.5 10.6251C5.77688 10.6251 4.375 9.22319 4.375 7.50006C4.375 5.77694 5.77688 4.37506 7.5 4.37506C9.22313 4.37506 10.625 5.77694 10.625 7.50006C10.625 9.22319 9.22313 10.6251 7.5 10.6251ZM7.5 5.00006C6.12125 5.00006 5 6.12131 5 7.50006C5 8.87881 6.12125 10.0001 7.5 10.0001C8.87875 10.0001 10 8.87881 10 7.50006C10 6.12131 8.87875 5.00006 7.5 5.00006Z" fill="#7DC855"/>
<path d="M8.56065 15H6.43565C6.0019 15 5.61878 14.6919 5.5244 14.2675L5.23628 12.9875C4.75628 12.7925 4.30003 12.5281 3.8769 12.1981L2.6294 12.5919C2.20503 12.7231 1.74378 12.5444 1.5319 12.165L0.47128 10.3313C0.25503 9.94688 0.328154 9.47188 0.646279 9.1725L1.61003 8.28687C1.57753 8.02063 1.56065 7.75688 1.56065 7.5C1.56065 7.24312 1.57753 6.97937 1.61003 6.71313L0.649405 5.83C0.328155 5.52812 0.255654 5.05312 0.469405 4.67188L1.5344 2.83062C1.74503 2.45562 2.2069 2.27688 2.62878 2.4075L3.87753 2.80125C4.30003 2.4725 4.75628 2.2075 5.23628 2.0125L5.5244 0.73125C5.61878 0.308125 6.0019 0 6.43565 0H8.56065C8.9944 0 9.37753 0.308125 9.4719 0.731875L9.76003 2.0125C10.24 2.2075 10.6963 2.47187 11.1194 2.80187L12.3669 2.40812C12.7913 2.27688 13.2519 2.45625 13.4644 2.83437L14.525 4.66813C14.7407 5.05312 14.6682 5.52813 14.35 5.8275L13.3863 6.71313C13.4188 6.97937 13.4357 7.24312 13.4357 7.5C13.4357 7.75688 13.4188 8.02063 13.3863 8.28687L14.3475 9.17C14.3482 9.17062 14.3494 9.17188 14.35 9.1725C14.6682 9.47188 14.7407 9.94687 14.5269 10.3281L13.4619 12.1694C13.2519 12.5444 12.79 12.7244 12.3675 12.5925L11.1188 12.1987C10.6957 12.5281 10.2394 12.7931 9.7594 12.9881L9.47128 14.2694C9.37753 14.6919 8.9944 15 8.56065 15ZM3.9419 11.5375C4.01378 11.5375 4.08378 11.5625 4.14065 11.6087C4.59315 11.9819 5.08815 12.2694 5.61253 12.4631C5.71253 12.5 5.78628 12.5844 5.8094 12.6875L6.1344 14.1313C6.16565 14.2725 6.29253 14.375 6.43565 14.375H8.56065C8.70378 14.375 8.83065 14.2725 8.86128 14.1319L9.1869 12.6875C9.21003 12.5844 9.28378 12.5 9.38315 12.4631C9.90753 12.2688 10.4032 11.9812 10.855 11.6087C10.9363 11.5419 11.0475 11.5212 11.1475 11.5519L12.5538 11.9956C12.6969 12.0413 12.8488 11.985 12.9182 11.8594L13.9832 10.0181C14.0538 9.89187 14.0294 9.73063 13.9219 9.62813L12.8419 8.63625C12.7657 8.56625 12.7288 8.4625 12.7444 8.36063C12.7888 8.06875 12.8107 7.77938 12.8107 7.5C12.8107 7.22062 12.7888 6.93125 12.7457 6.63938C12.7307 6.53688 12.7669 6.43375 12.8432 6.36375L13.9244 5.37C14.03 5.27063 14.055 5.10813 13.9819 4.97813L12.9213 3.14375C12.8488 3.015 12.6969 2.95813 12.5532 3.00437L11.1482 3.44813C11.0482 3.48 10.9375 3.45875 10.8557 3.39125C10.4032 3.01813 9.90815 2.73062 9.38378 2.53688C9.28378 2.5 9.21003 2.41563 9.1869 2.3125L8.8619 0.86875C8.83065 0.7275 8.70378 0.625 8.56065 0.625H6.43565C6.29253 0.625 6.16565 0.7275 6.13503 0.8675L5.8094 2.3125C5.78628 2.41563 5.71253 2.5 5.61253 2.53688C5.08815 2.73062 4.59315 3.01813 4.14065 3.39125C4.06003 3.45875 3.95003 3.48 3.84815 3.44813L2.4419 3.00437C2.29815 2.95938 2.14753 3.01562 2.0769 3.14L1.01253 4.98125C0.941905 5.10812 0.96628 5.27 1.07503 5.37188L2.15378 6.36312C2.23003 6.43313 2.2669 6.53687 2.25128 6.63875C2.20753 6.93125 2.18565 7.22062 2.18565 7.5C2.18565 7.77938 2.20753 8.06875 2.25065 8.36063C2.26565 8.46313 2.2294 8.56625 2.15315 8.63625L1.0719 9.63C0.96628 9.72937 0.94128 9.89188 1.0144 10.0219L2.07503 11.8556C2.14753 11.9844 2.29753 12.04 2.44315 11.995L3.84815 11.5519C3.87878 11.5425 3.91065 11.5375 3.9419 11.5375Z" fill="#7DC855"/>
</g>
<defs>
<clipPath id="clip0">
<rect width="15" height="15" fill="white"/>
</clipPath>
</defs>
</svg>
