<svg width="15" height="15" viewBox="0 0 15 15" fill="none" xmlns="http://www.w3.org/2000/svg">
<g clip-path="url(#clip0)">
<path d="M11.9479 1.84457C9.48843 -0.614887 5.50754 -0.615152 3.04782 1.84457C0.588418 4.30394 0.588036 8.28491 3.04782 10.7446L7.16526 14.8621C7.34898 15.0458 7.64679 15.0458 7.83047 14.8621L11.9479 10.7446C14.4073 8.28527 14.4077 4.30432 11.9479 1.84457ZM11.2827 10.0795L7.49785 13.8643L3.71303 10.0795C1.62608 7.99251 1.62608 4.59676 3.71303 2.50981C5.8 0.422896 9.19564 0.422837 11.2827 2.50981C13.3696 4.59673 13.3696 7.99248 11.2827 10.0795Z" fill="#7DC855"/>
<path d="M7.50083 3.48145C5.94598 3.48145 4.6875 4.73967 4.6875 6.29476C4.6875 7.84959 5.94578 9.10807 7.50083 9.10807C9.05572 9.10807 10.3142 7.84979 10.3142 6.29476C10.3142 4.73993 9.05592 3.48145 7.50083 3.48145ZM8.82493 7.61886C8.80691 7.61886 8.36355 8.1673 7.50083 8.1673C6.4659 8.1673 5.62827 7.32981 5.62827 6.29476C5.62827 5.25985 6.46578 4.42221 7.50083 4.42221C9.18201 4.42221 9.99007 6.45375 8.82493 7.61886Z" fill="#7DC855"/>
</g>
<defs>
<clipPath id="clip0">
<rect width="15" height="15" fill="white"/>
</clipPath>
</defs>
</svg>
