<svg width="17" height="17" viewBox="0 0 17 17" fill="none" xmlns="http://www.w3.org/2000/svg">
<path d="M16.5019 0.830078C15.2214 0.830078 1.20926 0.830078 0.498046 0.830078C0.222992 0.830078 0 1.05307 0 1.32812C0 1.60318 0.222992 1.82617 0.498046 1.82617H1.69336V15.6718C1.69336 15.8387 1.77693 15.9945 1.91592 16.0868C2.0551 16.1792 2.23118 16.1955 2.38464 16.1309L5.34579 14.8841L8.30694 16.1309C8.43049 16.1829 8.56988 16.1829 8.69349 16.1309L11.6544 14.8841L14.6153 16.1309C14.7691 16.1956 14.9451 16.1791 15.0841 16.0868C15.2231 15.9945 15.3066 15.8387 15.3066 15.6719V1.82617H16.502C16.777 1.82617 17 1.60318 17 1.32812C17 1.05307 16.777 0.830078 16.5019 0.830078ZM14.3105 14.9217L11.8477 13.8847C11.7241 13.8327 11.5847 13.8327 11.4611 13.8847L8.50015 15.1314L5.539 13.8847C5.41545 13.8327 5.27603 13.8327 5.15248 13.8847L2.68945 14.9218V1.82617H14.3105V14.9217Z" fill="#7DC855"/>
<path d="M10.9902 3.48633H6.00976C5.73471 3.48633 5.51172 3.70932 5.51172 3.98437C5.51172 4.25943 5.73471 4.48242 6.00976 4.48242H10.9902C11.2653 4.48242 11.4883 4.25943 11.4883 3.98437C11.4883 3.70932 11.2653 3.48633 10.9902 3.48633Z" fill="#7DC855"/>
<path d="M12.1504 7.4707H7.50195C7.2269 7.4707 7.00391 7.69369 7.00391 7.96875C7.00391 8.2438 7.2269 8.46679 7.50195 8.46679H12.1504C12.4254 8.46679 12.6484 8.2438 12.6484 7.96875C12.6484 7.69369 12.4254 7.4707 12.1504 7.4707Z" fill="#7DC855"/>
<path d="M4.91406 8.63281C5.28081 8.63281 5.57812 8.3355 5.57812 7.96875C5.57812 7.602 5.28081 7.30469 4.91406 7.30469C4.54731 7.30469 4.25 7.602 4.25 7.96875C4.25 8.3355 4.54731 8.63281 4.91406 8.63281Z" fill="#7DC855"/>
<path d="M12.1504 10.127H7.50195C7.2269 10.127 7.00391 10.3499 7.00391 10.625C7.00391 10.9001 7.2269 11.123 7.50195 11.123H12.1504C12.4254 11.123 12.6484 10.9001 12.6484 10.625C12.6484 10.3499 12.4254 10.127 12.1504 10.127Z" fill="#7DC855"/>
<path d="M4.91406 11.2891C5.28081 11.2891 5.57812 10.9918 5.57812 10.625C5.57812 10.2582 5.28081 9.96094 4.91406 9.96094C4.54731 9.96094 4.25 10.2582 4.25 10.625C4.25 10.9918 4.54731 11.2891 4.91406 11.2891Z" fill="#7DC855"/>
</svg>
