<svg width="14" height="17" viewBox="0 0 14 17" fill="none" xmlns="http://www.w3.org/2000/svg">
<g clip-path="url(#clip0)">
<path d="M13.2125 0.830078C12.1899 0.830078 0.999882 0.830078 0.431916 0.830078C0.212259 0.830078 0.0341797 1.05307 0.0341797 1.32812C0.0341797 1.60318 0.212259 1.82617 0.431916 1.82617H1.38648V15.6718C1.38648 15.8387 1.45322 15.9945 1.56422 16.0868C1.67537 16.1792 1.81598 16.1955 1.93854 16.1309L4.30329 14.8841L6.66804 16.1309C6.76671 16.1829 6.87802 16.1829 6.97674 16.1309L9.34133 14.8841L11.7059 16.1309C11.8287 16.1956 11.9693 16.1791 12.0802 16.0868C12.1912 15.9945 12.258 15.8387 12.258 15.6719V1.82617H13.2125C13.4322 1.82617 13.6103 1.60318 13.6103 1.32812C13.6103 1.05307 13.4322 0.830078 13.2125 0.830078ZM11.4625 14.9217L9.49565 13.8847C9.39694 13.8327 9.28565 13.8327 9.18693 13.8847L6.82234 15.1314L4.45759 13.8847C4.35892 13.8327 4.24758 13.8327 4.14892 13.8847L2.18195 14.9218V1.82617H11.4625V14.9217Z" fill="#979797"/>
<path d="M8.81064 3.48632H4.83328C4.61363 3.48632 4.43555 3.70931 4.43555 3.98437C4.43555 4.25942 4.61363 4.48241 4.83328 4.48241H8.81064C9.0303 4.48241 9.20838 4.25942 9.20838 3.98437C9.20838 3.70931 9.0303 3.48632 8.81064 3.48632Z" fill="#979797"/>
<path d="M9.73884 7.47069H6.02664C5.80699 7.47069 5.62891 7.69368 5.62891 7.96873C5.62891 8.24379 5.80699 8.46678 6.02664 8.46678H9.73884C9.9585 8.46678 10.1366 8.24379 10.1366 7.96873C10.1366 7.69368 9.9585 7.47069 9.73884 7.47069Z" fill="#979797"/>
<path d="M3.95854 8.63279C4.25142 8.63279 4.48885 8.33548 4.48885 7.96873C4.48885 7.60198 4.25142 7.30467 3.95854 7.30467C3.66565 7.30467 3.42822 7.60198 3.42822 7.96873C3.42822 8.33548 3.66565 8.63279 3.95854 8.63279Z" fill="#979797"/>
<path d="M9.73884 10.1269H6.02664C5.80699 10.1269 5.62891 10.3499 5.62891 10.625C5.62891 10.9 5.80699 11.123 6.02664 11.123H9.73884C9.9585 11.123 10.1366 10.9 10.1366 10.625C10.1366 10.3499 9.9585 10.1269 9.73884 10.1269Z" fill="#979797"/>
<path d="M3.95854 11.289C4.25142 11.289 4.48885 10.9917 4.48885 10.625C4.48885 10.2582 4.25142 9.96092 3.95854 9.96092C3.66565 9.96092 3.42822 10.2582 3.42822 10.625C3.42822 10.9917 3.66565 11.289 3.95854 11.289Z" fill="#979797"/>
</g>
<defs>
<clipPath id="clip0">
<rect width="13.5761" height="17" fill="white" transform="translate(0.0341797)"/>
</clipPath>
</defs>
</svg>
