<svg width="15" height="15" viewBox="0 0 15 15" fill="none" xmlns="http://www.w3.org/2000/svg">
<g clip-path="url(#clip0)">
<path d="M7.49951 10.625C5.77639 10.625 4.37451 9.22316 4.37451 7.50003C4.37451 5.77691 5.77639 4.37503 7.49951 4.37503C9.22264 4.37503 10.6245 5.77691 10.6245 7.50003C10.6245 9.22316 9.22264 10.625 7.49951 10.625ZM7.49951 5.00003C6.12076 5.00003 4.99951 6.12128 4.99951 7.50003C4.99951 8.87878 6.12076 10 7.49951 10C8.87826 10 9.99951 8.87878 9.99951 7.50003C9.99951 6.12128 8.87826 5.00003 7.49951 5.00003Z" fill="#979797"/>
<path d="M8.56212 15H6.43712C6.00337 15 5.62024 14.6919 5.52587 14.2675L5.23774 12.9875C4.75774 12.7925 4.30149 12.5281 3.87837 12.1981L2.63087 12.5919C2.20649 12.7231 1.74524 12.5444 1.53337 12.165L0.472744 10.3312C0.256494 9.94687 0.329619 9.47187 0.647744 9.17249L1.61149 8.28687C1.57899 8.02062 1.56212 7.75687 1.56212 7.49999C1.56212 7.24312 1.57899 6.97937 1.61149 6.71312L0.650869 5.82999C0.329619 5.52812 0.257119 5.05312 0.470869 4.67187L1.53587 2.83062C1.74649 2.45562 2.20837 2.27687 2.63024 2.40749L3.87899 2.80124C4.30149 2.47249 4.75774 2.20749 5.23774 2.01249L5.52587 0.731242C5.62024 0.308117 6.00337 -7.62939e-06 6.43712 -7.62939e-06H8.56212C8.99587 -7.62939e-06 9.37899 0.308117 9.47337 0.731867L9.76149 2.01249C10.2415 2.20749 10.6977 2.47187 11.1209 2.80187L12.3684 2.40812C12.7927 2.27687 13.2534 2.45624 13.4659 2.83437L14.5265 4.66812C14.7421 5.05312 14.6696 5.52812 14.3515 5.82749L13.3877 6.71312C13.4202 6.97937 13.4371 7.24312 13.4371 7.49999C13.4371 7.75687 13.4202 8.02062 13.3877 8.28687L14.349 9.16999C14.3496 9.17062 14.3509 9.17187 14.3515 9.17249C14.6696 9.47187 14.7421 9.94687 14.5284 10.3281L13.4634 12.1694C13.2534 12.5444 12.7915 12.7244 12.369 12.5925L11.1202 12.1987C10.6971 12.5281 10.2409 12.7931 9.76087 12.9881L9.47274 14.2694C9.37899 14.6919 8.99587 15 8.56212 15ZM3.94337 11.5375C4.01524 11.5375 4.08524 11.5625 4.14212 11.6087C4.59462 11.9819 5.08962 12.2694 5.61399 12.4631C5.71399 12.5 5.78774 12.5844 5.81087 12.6875L6.13587 14.1312C6.16712 14.2725 6.29399 14.375 6.43712 14.375H8.56212C8.70524 14.375 8.83212 14.2725 8.86274 14.1319L9.18837 12.6875C9.21149 12.5844 9.28524 12.5 9.38462 12.4631C9.90899 12.2687 10.4046 11.9812 10.8565 11.6087C10.9377 11.5419 11.049 11.5212 11.149 11.5519L12.5552 11.9956C12.6984 12.0412 12.8502 11.985 12.9196 11.8594L13.9846 10.0181C14.0552 9.89187 14.0309 9.73062 13.9234 9.62812L12.8434 8.63624C12.7671 8.56624 12.7302 8.46249 12.7459 8.36062C12.7902 8.06874 12.8121 7.77937 12.8121 7.49999C12.8121 7.22062 12.7902 6.93124 12.7471 6.63937C12.7321 6.53687 12.7684 6.43374 12.8446 6.36374L13.9259 5.36999C14.0315 5.27062 14.0565 5.10812 13.9834 4.97812L12.9227 3.14374C12.8502 3.01499 12.6984 2.95812 12.5546 3.00437L11.1496 3.44812C11.0496 3.47999 10.939 3.45874 10.8571 3.39124C10.4046 3.01812 9.90962 2.73062 9.38524 2.53687C9.28524 2.49999 9.21149 2.41562 9.18837 2.31249L8.86337 0.868742C8.83212 0.727492 8.70524 0.624992 8.56212 0.624992H6.43712C6.29399 0.624992 6.16712 0.727492 6.13649 0.867492L5.81087 2.31249C5.78774 2.41562 5.71399 2.49999 5.61399 2.53687C5.08962 2.73062 4.59462 3.01812 4.14212 3.39124C4.06149 3.45874 3.95149 3.47999 3.84962 3.44812L2.44337 3.00437C2.29962 2.95937 2.14899 3.01562 2.07837 3.13999L1.01399 4.98124C0.943369 5.10812 0.967744 5.26999 1.07649 5.37187L2.15524 6.36312C2.23149 6.43312 2.26837 6.53687 2.25274 6.63874C2.20899 6.93124 2.18712 7.22062 2.18712 7.49999C2.18712 7.77937 2.20899 8.06874 2.25212 8.36062C2.26712 8.46312 2.23087 8.56624 2.15462 8.63624L1.07337 9.62999C0.967744 9.72937 0.942744 9.89187 1.01587 10.0219L2.07649 11.8556C2.14899 11.9844 2.29899 12.04 2.44462 11.995L3.84962 11.5519C3.88024 11.5425 3.91212 11.5375 3.94337 11.5375Z" fill="#979797"/>
</g>
<defs>
<clipPath id="clip0">
<rect width="15" height="15" fill="white"/>
</clipPath>
</defs>
</svg>
