<svg width="15" height="15" viewBox="0 0 15 15" fill="none" xmlns="http://www.w3.org/2000/svg">
<path d="M14.1602 6.6617H13.8033V4.51753C13.8033 3.64078 13.0896 2.93016 12.216 2.93016H11.8868L11.8899 2.1334C11.8899 1.54275 11.41 1.06285 10.8193 1.06285H1.30127C0.590648 1.06285 0.00922888 1.63504 0 2.34566C0 2.35182 0 2.35797 0 2.36412V12.8666C0 13.4572 0.479901 13.9371 1.07055 13.9371H12.219C13.0958 13.9371 13.8064 13.2234 13.8064 12.3498V10.2025H14.1632C14.6247 10.2025 15 9.82721 15 9.36576V7.49845C14.9969 7.03701 14.6216 6.6617 14.1602 6.6617ZM1.30127 1.80116H10.8193C11.0008 1.80116 11.1516 1.94882 11.1516 2.13032L11.1485 2.93016H1.30127C0.990566 2.93016 0.73831 2.6779 0.73831 2.3672C0.73831 2.05649 0.990566 1.80116 1.30127 1.80116ZM13.065 12.3467C13.065 12.8143 12.6836 13.1957 12.216 13.1957H1.06747C0.885972 13.1957 0.735234 13.0481 0.735234 12.8635V3.53927C0.907506 3.62233 1.09824 3.66847 1.30127 3.66847H12.216C12.6836 3.66847 13.065 4.04993 13.065 4.51753V6.6617H10.5455C10.0841 6.6617 9.70878 7.03701 9.70878 7.49845V9.36576C9.70878 9.82721 10.0841 10.2025 10.5455 10.2025H13.065V12.3467ZM14.2586 9.36576C14.2586 9.42114 14.2155 9.4642 14.1602 9.4642H10.5486C10.4932 9.4642 10.4502 9.42114 10.4502 9.36576V7.49845C10.4502 7.44616 10.4932 7.40001 10.5486 7.40001H14.1602C14.2125 7.40001 14.2586 7.44308 14.2586 7.49845V9.36576Z" fill="#979797"/>
</svg>
