<svg width="15" height="15" viewBox="0 0 15 15" fill="none" xmlns="http://www.w3.org/2000/svg">
<g clip-path="url(#clip0)">
<path d="M11.9498 1.8446C9.49038 -0.614857 5.5095 -0.615122 3.04977 1.8446C0.590371 4.30397 0.589989 8.28494 3.04977 10.7447L7.16721 14.8621C7.35093 15.0458 7.64874 15.0458 7.83243 14.8621L11.9499 10.7447C14.4092 8.2853 14.4096 4.30435 11.9498 1.8446ZM11.2846 10.0795L7.4998 13.8643L3.71498 10.0795C1.62804 7.99254 1.62804 4.59679 3.71498 2.50984C5.80196 0.422926 9.1976 0.422868 11.2846 2.50984C13.3716 4.59676 13.3716 7.99251 11.2846 10.0795Z" fill="#979797"/>
<path d="M7.50083 3.48145C5.94598 3.48145 4.6875 4.73967 4.6875 6.29476C4.6875 7.84959 5.94578 9.10807 7.50083 9.10807C9.05572 9.10807 10.3142 7.84979 10.3142 6.29476C10.3142 4.73993 9.05592 3.48145 7.50083 3.48145ZM8.82493 7.61886C8.80691 7.61886 8.36355 8.1673 7.50083 8.1673C6.4659 8.1673 5.62827 7.32981 5.62827 6.29476C5.62827 5.25985 6.46578 4.42221 7.50083 4.42221C9.18201 4.42221 9.99007 6.45375 8.82493 7.61886Z" fill="#979797"/>
</g>
<defs>
<clipPath id="clip0">
<rect width="15" height="15" fill="white"/>
</clipPath>
</defs>
</svg>
