<svg width="14" height="14" viewBox="0 0 14 14" fill="none" xmlns="http://www.w3.org/2000/svg">
<g clip-path="url(#clip0)">
<path d="M13.5521 12.7523L10.2201 9.28686C11.0768 8.26843 11.5462 6.98703 11.5462 5.65304C11.5462 2.53631 9.01044 0.000549316 5.8937 0.000549316C2.77697 0.000549316 0.241211 2.53631 0.241211 5.65304C0.241211 8.76978 2.77697 11.3055 5.8937 11.3055C7.06377 11.3055 8.17879 10.9526 9.13209 10.2827L12.4894 13.7745C12.6298 13.9202 12.8185 14.0005 13.0208 14.0005C13.2122 14.0005 13.3938 13.9276 13.5317 13.7948C13.8246 13.513 13.834 13.0455 13.5521 12.7523ZM5.8937 1.47511C8.19746 1.47511 10.0716 3.34928 10.0716 5.65304C10.0716 7.9568 8.19746 9.83097 5.8937 9.83097C3.58995 9.83097 1.71577 7.9568 1.71577 5.65304C1.71577 3.34928 3.58995 1.47511 5.8937 1.47511Z" fill="#979797"/>
</g>
<defs>
<clipPath id="clip0">
<rect width="14" height="14" fill="white" transform="translate(0 0.000549316)"/>
</clipPath>
</defs>
</svg>
