<svg width="21" height="21" viewBox="0 0 21 21" fill="none" xmlns="http://www.w3.org/2000/svg">
<circle cx="10.5" cy="10.5" r="10" stroke="#68B04E"/>
<path d="M10.9849 14.3359H9.52011V7.8135H10.9849V14.3359ZM9.42969 6.11959C9.42969 5.89454 9.50002 5.70767 9.64067 5.55898C9.78535 5.41028 9.9903 5.33594 10.2555 5.33594C10.5208 5.33594 10.7257 5.41028 10.8704 5.55898C11.0151 5.70767 11.0874 5.89454 11.0874 6.11959C11.0874 6.34063 11.0151 6.52549 10.8704 6.67418C10.7257 6.81886 10.5208 6.8912 10.2555 6.8912C9.9903 6.8912 9.78535 6.81886 9.64067 6.67418C9.50002 6.52549 9.42969 6.34063 9.42969 6.11959Z" fill="#68B04E"/>
</svg>
