<svg width="18" height="18" viewBox="0 0 18 18" fill="none" xmlns="http://www.w3.org/2000/svg">
<path d="M4.42389 7.55467C5.22003 8.35076 5.22003 9.64625 4.42389 10.4423C3.62775 11.2385 2.33231 11.2385 1.53617 10.4423C1.13807 10.0443 0.939023 9.52136 0.939023 8.99853C0.939023 8.4757 1.13802 7.95272 1.53617 7.55472C2.33226 6.75853 3.62775 6.75853 4.42389 7.55467Z" fill="#5073ED"/>
<path d="M8.03224 14.0533L6.58843 12.6095C8.57876 10.6191 8.57876 7.38067 6.58843 5.39029L8.03224 3.94648C10.8187 6.73286 10.8187 11.2669 8.03224 14.0533Z" fill="#5073ED"/>
<path d="M15.229 9.00133C15.229 12.2738 13.9547 15.3505 11.6406 17.6644L10.1968 16.2206C12.1251 14.2923 13.1871 11.7284 13.1871 9.00138C13.1871 6.27434 12.1251 3.71044 10.1968 1.78214L11.6406 0.338318C13.9547 2.65221 15.229 5.72883 15.229 9.00133Z" fill="#5073ED"/>
</svg>
