<svg width="18" height="18" viewBox="0 0 18 18" fill="none" xmlns="http://www.w3.org/2000/svg">
<g clip-path="url(#clip0)">
<path d="M14.836 0.590969C14.6528 0.484938 14.427 0.484551 14.2434 0.589985C12.7959 1.42094 8.60622 3.57718 6.62661 3.57718C6.29884 3.57718 6.0332 3.84282 6.0332 4.17058V10.3222C6.0332 10.65 6.29884 10.9156 6.62661 10.9156C9.16204 10.9156 14.1862 13.8692 14.2367 13.8989C14.3296 13.9539 14.4343 13.9816 14.5387 13.9816C14.6402 13.9816 14.7414 13.9554 14.8326 13.9034C15.0178 13.798 15.1321 13.6012 15.1321 13.3882V1.10464C15.1321 0.892997 15.0194 0.697176 14.836 0.590969ZM13.9453 12.3732C12.4471 11.5587 9.39685 10.0259 7.22001 9.7664V4.72285C9.3252 4.45204 12.4309 2.91336 13.9453 2.10729V12.3732Z" fill="#CEBA71"/>
<path d="M7.04595 14.7692C6.81867 14.4143 6.17028 12.8718 6.17028 10.5198H4.98348C4.98348 13.0736 5.67855 14.8348 6.05715 15.4255C6.12103 15.5184 6.13312 15.6197 6.09255 15.7052C6.07494 15.7173 6.0518 15.7311 6.0235 15.7452C6.00353 15.7553 5.98413 15.7661 5.96553 15.7784C5.81183 15.8783 5.23365 16.21 4.23039 16.297C4.228 16.2885 4.22544 16.2802 4.22287 16.2717L2.28446 10.2587L1.15479 10.623L3.08929 16.6238C3.23487 17.1406 3.69082 17.4886 4.19422 17.4886C4.24189 17.4886 4.29016 17.4854 4.33861 17.4789C5.19825 17.4035 6.0138 17.1535 6.58523 16.7909C6.73436 16.7129 6.86237 16.6208 6.96601 16.5171C6.98717 16.4958 7.00675 16.4728 7.02454 16.4487C7.39347 15.9457 7.39766 15.2801 7.04595 14.7692Z" fill="#CEBA71"/>
<path d="M6.64615 4.7642V3.5774H1.1868C0.521402 3.5774 0 4.0988 0 4.7642V9.72904C0 10.3944 0.521402 10.9158 1.1868 10.9158H6.64615V9.72904H1.1868V4.7642H6.64615Z" fill="#CEBA71"/>
<path d="M15.489 4.3289H14.5396V5.5157H15.489C16.2197 5.5157 16.8143 6.1103 16.8143 6.84099C16.8143 7.57167 16.2197 8.16627 15.489 8.16627H14.5396V9.35308H15.489C16.8742 9.35308 18.0011 8.22621 18.0011 6.84099C18.0011 5.45576 16.8742 4.3289 15.489 4.3289Z" fill="#CEBA71"/>
</g>
<defs>
<clipPath id="clip0">
<rect width="18" height="18" fill="white"/>
</clipPath>
</defs>
</svg>
