<svg width="15" height="14" viewBox="0 0 15 14" fill="none" xmlns="http://www.w3.org/2000/svg">
<path d="M5.01999 1.78633C5.01999 1.39965 4.70652 1.08618 4.31984 1.08618H2.70307C1.21021 1.08618 0 2.30522 0 3.80897V11.2772C0 12.7809 1.21021 14 2.70307 14H10.1172C11.6101 14 12.8203 12.7809 12.8203 11.2772V9.48286C12.8203 9.09898 12.5091 8.78778 12.1252 8.78778C11.7413 8.78778 11.4301 9.09898 11.4301 9.48286V11.2772C11.4301 12.0076 10.8423 12.5997 10.1172 12.5997H2.70307C1.97796 12.5997 1.39015 12.0076 1.39015 11.2772V3.80897C1.39015 3.07857 1.97796 2.48647 2.70307 2.48647H4.31984C4.70652 2.48647 5.01999 2.17301 5.01999 1.78633Z" fill="#A2A2A2"/>
<path d="M4.48071 11.7069C4.7514 11.7069 4.69376 11.3293 4.6311 11.1404C4.45564 10.3222 4.3604 8.3761 5.38303 7.13743C6.24539 6.0929 8.39818 5.92382 9.82585 5.98706C10.2304 6.00499 10.5338 6.34759 10.5338 6.75255C10.5338 7.46457 11.3954 7.82034 11.8977 7.31575L13.5978 5.60807C14.2944 4.90842 14.2944 3.77735 13.5978 3.0777L11.921 1.39336C11.4101 0.880175 10.5338 1.242 10.5338 1.96615C10.5338 2.43518 10.1376 2.81146 9.6686 2.80412C9.03734 2.79423 8.12042 2.79595 6.9621 2.83231C4.5559 2.90784 2.90164 4.90934 2.67606 6.5332C2.45048 8.15706 3.24001 10.1586 3.61598 10.8006L3.63035 10.8251C3.99584 11.4493 4.14668 11.7069 4.48071 11.7069Z" fill="#A2A2A2"/>
</svg>
