<svg width="55" height="54" viewBox="0 0 55 54" fill="none" xmlns="http://www.w3.org/2000/svg">
<path d="M8.01637 34.071C4.11113 30.1658 4.11114 23.8341 8.01638 19.9289L20.8743 7.07099C24.7795 3.16575 31.1111 3.16576 35.0164 7.071L47.8743 19.9289C51.7795 23.8341 51.7795 30.1658 47.8743 34.071L35.0164 46.9289C31.1111 50.8341 24.7795 50.8341 20.8743 46.9289L8.01637 34.071Z" fill="#F7A870"/>
<path d="M26.7714 29.8299L26.1774 23.9999V19.5999H29.5874V23.9999L29.0154 29.8299H26.7714ZM29.2134 34.7359C28.8468 35.1026 28.4068 35.2859 27.8934 35.2859C27.3801 35.2859 26.9401 35.1026 26.5734 34.7359C26.2068 34.3692 26.0234 33.9292 26.0234 33.4159C26.0234 32.9026 26.2068 32.4626 26.5734 32.0959C26.9401 31.7292 27.3801 31.5459 27.8934 31.5459C28.4068 31.5459 28.8468 31.7292 29.2134 32.0959C29.5801 32.4626 29.7634 32.9026 29.7634 33.4159C29.7634 33.9292 29.5801 34.3692 29.2134 34.7359Z" fill="white"/>
</svg>
