<svg width="7" height="26" viewBox="0 0 7 26" fill="none" xmlns="http://www.w3.org/2000/svg">
<path d="M1.90509 16.775L0.960088 7.5V0.5H6.38509V7.5L5.47509 16.775H1.90509ZM5.79009 24.58C5.20675 25.1633 4.50675 25.455 3.69009 25.455C2.87342 25.455 2.17342 25.1633 1.59009 24.58C1.00675 23.9967 0.715088 23.2967 0.715088 22.48C0.715088 21.6633 1.00675 20.9633 1.59009 20.38C2.17342 19.7967 2.87342 19.505 3.69009 19.505C4.50675 19.505 5.20675 19.7967 5.79009 20.38C6.37342 20.9633 6.66509 21.6633 6.66509 22.48C6.66509 23.2967 6.37342 23.9967 5.79009 24.58Z" fill="#FF6161"/>
</svg>
