<svg width="27" height="27" viewBox="0 0 27 27" fill="none" xmlns="http://www.w3.org/2000/svg">
<g clip-path="url(#clip0)">
<path d="M22.0253 10.7915H11.9672C12.4323 10.2568 12.7149 9.55946 12.7149 8.79686C12.7149 7.1187 11.3497 5.75345 9.6715 5.75345C7.99334 5.75345 6.62808 7.1187 6.62808 8.79686C6.62808 9.55946 6.91068 10.2568 7.37573 10.7915H4.97476C3.52389 10.7915 2.34351 11.9718 2.34351 13.4227V16.5275C2.34351 16.8182 2.57911 17.0538 2.86976 17.0538C3.16041 17.0538 3.39601 16.8182 3.39601 16.5275V13.4227C3.39601 12.5522 4.10424 11.844 4.97476 11.844H19.7098C20.5803 11.844 21.2885 12.5522 21.2885 13.4227V16.2645H15.8155C14.3647 16.2645 13.1843 17.4449 13.1843 18.8957C13.1843 20.3466 14.3647 21.527 15.8155 21.527H21.2885V24.3687C21.2885 25.2393 20.5803 25.9475 19.7098 25.9475H4.97476C4.10424 25.9475 3.39601 25.2393 3.39601 24.3687V21.2598C3.39601 20.9691 3.16041 20.7335 2.86976 20.7335C2.57911 20.7335 2.34351 20.9691 2.34351 21.2598V24.3687C2.34351 25.8196 3.52389 27 4.97476 27H22.0253C23.4762 27 24.6566 25.8196 24.6566 24.3687V13.4227C24.6566 11.9718 23.4762 10.7915 22.0253 10.7915ZM9.6715 6.806C10.7693 6.806 11.6624 7.6991 11.6624 8.79692C11.6624 9.89473 10.7693 10.7878 9.6715 10.7878C8.57374 10.7878 7.68059 9.89473 7.68059 8.79692C7.68059 7.6991 8.57369 6.806 9.6715 6.806ZM21.8134 11.844H22.0253C22.8958 11.844 23.6041 12.5522 23.6041 13.4227V16.2645H22.341V13.4227C22.341 12.8308 22.1445 12.2841 21.8134 11.844ZM14.2368 18.8957C14.2368 18.0252 14.945 17.317 15.8155 17.317H23.6041V20.4745H15.8155C14.945 20.4745 14.2368 19.7663 14.2368 18.8957ZM22.0253 25.9475H21.8134C22.1445 25.5074 22.341 24.9607 22.341 24.3687V21.527H23.6041V24.3687C23.6041 25.2393 22.8958 25.9475 22.0253 25.9475Z" fill="#979797"/>
<path d="M15.6808 18.3694C15.5419 18.3694 15.4061 18.4257 15.3082 18.5236C15.2103 18.6215 15.1545 18.7573 15.1545 18.8957C15.1545 19.0341 15.2103 19.1699 15.3082 19.2677C15.4066 19.3656 15.5419 19.4219 15.6808 19.4219C15.8192 19.4219 15.9544 19.3656 16.0529 19.2677C16.1507 19.1699 16.207 19.0341 16.207 18.8957C16.207 18.7573 16.1507 18.6215 16.0529 18.5236C15.955 18.4257 15.8192 18.3694 15.6808 18.3694Z" fill="#979797"/>
<path d="M17.3286 7.24438C19.0067 7.24438 20.372 5.87913 20.372 4.20096C20.372 2.52285 19.0067 1.15755 17.3286 1.15755C15.6504 1.15755 14.2852 2.5228 14.2852 4.20096C14.2852 5.87913 15.6504 7.24438 17.3286 7.24438ZM17.3286 2.2101C18.4263 2.2101 19.3195 3.1032 19.3195 4.20102C19.3195 5.29883 18.4264 6.19193 17.3286 6.19193C16.2308 6.19193 15.3377 5.29883 15.3377 4.20102C15.3377 3.1032 16.2308 2.2101 17.3286 2.2101V2.2101Z" fill="#AEAEAE"/>
<path d="M12.1886 5.18784C12.4793 5.18784 12.7149 4.95223 12.7149 4.66159V0.526251C12.7149 0.235603 12.4793 0 12.1886 0C11.898 0 11.6624 0.235603 11.6624 0.526251V4.66159C11.6624 4.95223 11.898 5.18784 12.1886 5.18784Z" fill="#AEAEAE"/>
<path d="M9.66261 3.36801C9.95326 3.36801 10.1889 3.1324 10.1889 2.84176V0.526251C10.1889 0.235603 9.95326 0 9.66261 0C9.37196 0 9.13635 0.235603 9.13635 0.526251V2.84176C9.13635 3.1324 9.37196 3.36801 9.66261 3.36801Z" fill="#AEAEAE"/>
<path d="M2.86976 19.4219C3.00816 19.4219 3.14393 19.3656 3.24182 19.2677C3.3397 19.1699 3.39601 19.0341 3.39601 18.8957C3.39601 18.7573 3.3397 18.6215 3.24182 18.5236C3.14393 18.4257 3.00869 18.3694 2.86976 18.3694C2.73135 18.3694 2.59558 18.4257 2.4977 18.5236C2.39981 18.6215 2.34351 18.7573 2.34351 18.8957C2.34351 19.0341 2.39981 19.1699 2.4977 19.2677C2.59558 19.3656 2.7313 19.4219 2.86976 19.4219Z" fill="#979797"/>
</g>
<defs>
<clipPath id="clip0">
<rect width="27" height="27" fill="white"/>
</clipPath>
</defs>
</svg>
