<svg width="13" height="7" viewBox="0 0 13 7" fill="none" xmlns="http://www.w3.org/2000/svg">
<path d="M1.11076 3.26319L1.11118 3.26275L3.53666 0.870766C3.71837 0.691574 4.01227 0.692241 4.19314 0.87233C4.37399 1.0524 4.37329 1.34364 4.19158 1.52286L2.56312 3.1288H12.3937C12.65 3.1288 12.8579 3.33474 12.8579 3.58879C12.8579 3.84285 12.65 4.04879 12.3937 4.04879H2.56314L4.19156 5.65473C4.37327 5.83395 4.37396 6.12519 4.19312 6.30526C4.01224 6.48537 3.71832 6.48599 3.53664 6.30682L1.11116 3.91484L1.11074 3.9144C0.928939 3.73459 0.929519 3.4424 1.11076 3.26319Z" fill="#CECECE"/>
</svg>
