<svg width="20" height="21" viewBox="0 0 20 21" fill="none" xmlns="http://www.w3.org/2000/svg">
<g clip-path="url(#clip0)">
<path d="M17.6423 0.017806C16.6354 0.123744 15.424 0.794056 13.9388 2.06702C11.2518 4.37007 8.08224 8.34656 6.04091 11.2077C4.55037 10.9752 2.97939 11.6127 2.04923 12.7753C0.34193 14.9095 1.77119 16.8141 0.160758 18.5121C-0.119671 18.8078 -0.0196324 19.2936 0.35529 19.4541C2.98994 20.5821 6.35779 19.8791 7.93767 18.2132C8.90322 17.1951 9.42857 15.6921 9.16466 14.2771C11.9881 12.1107 15.8892 8.77105 18.0983 6.00038C19.3215 4.46613 19.9423 3.23195 19.9961 2.22734C20.0685 0.873939 19.0182 -0.126803 17.6423 0.017806ZM7.08744 17.4067C6.01861 18.5336 3.65388 19.19 1.54966 18.6288C2.72623 16.7521 1.71486 15.0693 2.96427 13.5075C3.98951 12.2259 6.05154 11.8671 7.24978 13.0654C8.64974 14.4655 7.99763 16.4469 7.08744 17.4067ZM7.20736 11.5926C7.49463 11.1954 7.94513 10.5822 8.50775 9.84808L10.4304 11.7709C9.7224 12.3532 9.13107 12.8201 8.74771 13.1183C8.40232 12.498 7.86779 11.9422 7.20736 11.5926ZM18.8259 2.16468C18.6944 4.62577 13.2071 9.43113 11.3338 11.0171L9.23287 8.91589C10.7742 6.96433 15.2978 1.44277 17.765 1.18331C18.4232 1.11398 18.8599 1.52933 18.8259 2.16468Z" fill="white"/>
</g>
<defs>
<clipPath id="clip0">
<rect width="20" height="20" fill="white" transform="translate(0 0.00390625)"/>
</clipPath>
</defs>
</svg>
