<svg width="20" height="20" viewBox="0 0 20 20" fill="none" xmlns="http://www.w3.org/2000/svg">
<path d="M10.0449 0C10.0395 0.00535859 10.0288 0.00535859 10.0127 0.00535859C4.58981 0.00535859 0.179688 4.41548 0.179688 9.83837C0.179688 12.0515 0.93525 14.2003 2.31777 15.9311L0.887022 19.2534C0.769133 19.5267 0.89774 19.8428 1.16567 19.9554C1.26212 19.9982 1.3693 20.009 1.47111 19.9929L6.71718 19.0712C7.76746 19.4517 8.87133 19.6446 9.98592 19.6392C15.4088 19.6392 19.8189 15.2291 19.8189 9.80621C19.8297 4.3994 15.4517 0.00535859 10.0449 0ZM9.99128 18.5729C8.95707 18.5729 7.93358 18.3853 6.96367 18.0209C6.87258 17.9834 6.77612 17.9781 6.67967 17.9941L2.26418 18.7658L3.43236 16.049C3.51274 15.8614 3.48058 15.6417 3.34662 15.4863C2.7143 14.7522 2.2106 13.9163 1.85693 13.0106C1.46039 11.9979 1.25677 10.9208 1.25677 9.83301C1.25677 4.99956 5.18998 1.07172 10.0181 1.07172C14.8355 1.061 18.7472 4.95669 18.7526 9.77406C18.7526 9.78478 18.7526 9.7955 18.7526 9.80621C18.7526 14.645 14.8194 18.5729 9.99128 18.5729Z" fill="white"/>
<path d="M9.57403 7.86108H6.68039C6.38567 7.86108 6.14453 8.10222 6.14453 8.39694C6.14453 8.69167 6.38567 8.9328 6.68039 8.9328H9.57403C9.86876 8.9328 10.1099 8.69167 10.1099 8.39694C10.1099 8.10222 9.86876 7.86108 9.57403 7.86108Z" fill="white"/>
<path d="M13.3251 10.5403H6.68039C6.38567 10.5403 6.14453 10.7814 6.14453 11.0762C6.14453 11.3709 6.38567 11.612 6.68039 11.612H13.3251C13.6198 11.612 13.8609 11.3709 13.8609 11.0762C13.8609 10.7814 13.6198 10.5403 13.3251 10.5403Z" fill="white"/>
</svg>
