<svg width="15" height="15" viewBox="0 0 15 15" fill="none" xmlns="http://www.w3.org/2000/svg">
    <g clip-path="url(#clip0)">
        <path d="M13.7286 1.57192C12.0846 -0.0366516 9.45643 -0.0363017 7.81284 1.57272L0.919479 8.46611C-0.326978 9.74195 -0.303156 11.7867 0.972687 13.0331C2.22754 14.2591 4.23163 14.2591 5.48648 13.0331L11.7285 6.79106C12.54 5.97959 12.54 4.66389 11.7285 3.85242C10.9171 3.04094 9.60136 3.04094 8.78988 3.85242L2.81922 9.82305C2.61097 10.0387 2.61695 10.3823 2.83258 10.5905C3.04293 10.7937 3.37639 10.7937 3.58674 10.5905L9.55737 4.61991C9.9533 4.24062 10.5817 4.25413 10.961 4.65006C11.3288 5.03403 11.3288 5.6396 10.961 6.02357L4.71899 12.2656C3.87574 13.0968 2.51826 13.0871 1.687 12.2439C0.86414 11.4091 0.86414 10.0683 1.687 9.2336L8.58036 2.34021C9.80824 1.11188 11.7994 1.11153 13.0277 2.33938C14.256 3.56723 14.2564 5.55838 13.0285 6.7867L6.13512 13.6801C5.90744 13.8751 5.88091 14.2177 6.0759 14.4454C6.27089 14.6731 6.61354 14.6996 6.84123 14.5046C6.86247 14.4864 6.88226 14.4667 6.90045 14.4454L13.7938 7.55203C15.4272 5.88268 15.398 3.20527 13.7286 1.57192Z" fill="#979797"></path>
    </g>
    <defs>
        <clipPath id="clip0">
            <rect width="15" height="15" fill="white"></rect>
        </clipPath>
    </defs>
</svg>
