<svg width="45" height="45" viewBox="0 0 45 45" fill="none" xmlns="http://www.w3.org/2000/svg">
<path d="M44.8746 23.8973C44.6417 22.7956 43.4504 21.9089 41.2918 21.255C39.4825 20.7086 37.2074 20.3862 34.6994 20.3324L34.4576 10.1394C34.1262 9.13617 32.9349 8.32108 30.9196 7.71201C28.9043 7.10293 26.2799 6.77152 23.5121 6.77152C20.7534 6.77152 18.1469 7.10293 16.1764 7.71201C14.5551 8.2136 12.6115 9.14513 12.6115 10.7484C12.6115 10.847 12.6204 10.9455 12.6383 11.044L12.7369 15.1284C12.074 15.003 11.4023 14.9403 10.7215 14.9403C4.80991 14.9403 0 19.7502 0 25.6618C0 31.5824 4.792 36.3834 10.7126 36.3834C13.1758 36.3834 15.5673 35.5325 17.4751 33.9829C19.159 34.377 21.1385 34.592 23.2345 34.6099C23.6913 37.091 29.0744 38.2285 34.0904 38.2285C36.8491 38.2285 39.4467 37.8882 41.4351 37.2791C43.0742 36.7775 45 35.837 45 34.2337L44.8746 23.8973ZM16.6779 9.43175C18.4873 8.87642 20.9146 8.56292 23.4942 8.56292C26.047 8.56292 28.5639 8.87642 30.3911 9.43175C32.3438 10.0229 32.7647 10.632 32.7647 10.7574C32.7647 10.8828 32.3438 11.4919 30.3911 12.083C28.5729 12.6294 26.0559 12.9519 23.5032 12.9519C21.0311 12.9519 18.6843 12.6652 16.9019 12.1457C14.9761 11.5904 14.4297 10.9724 14.385 10.7753C14.385 10.7663 14.376 10.7574 14.367 10.7484C14.367 10.5603 14.9672 9.96022 16.6779 9.43175ZM32.908 12.9698V15.209C32.8095 15.3613 32.7647 15.5315 32.7647 15.7106C32.7647 15.8271 32.3438 16.4451 30.4001 17.0363C28.5818 17.5916 26.0649 17.9051 23.5121 17.9051C21.2998 17.9051 19.1322 17.6722 17.4124 17.2333C17.3855 17.2243 17.3587 17.2243 17.3408 17.2154C16.4988 16.5436 15.5494 16.0062 14.5462 15.63L14.4835 13.1041C15.1015 13.4176 15.7464 13.6684 16.4182 13.8476C18.3619 14.4118 20.8788 14.7164 23.5211 14.7164C26.2888 14.7164 28.9132 14.385 30.9196 13.7759C31.6003 13.5968 32.2721 13.3191 32.908 12.9698ZM16.7227 32.2632C13.0772 35.5862 7.42536 35.3175 4.11127 31.672C0.797174 28.0265 1.05693 22.3746 4.70243 19.0605C6.35052 17.5647 8.49124 16.7317 10.7126 16.7317C11.6083 16.7317 12.495 16.8661 13.3549 17.1258C14.5193 17.4841 15.6031 18.0842 16.5257 18.8904C18.0305 20.1712 19.0605 21.9268 19.4636 23.8615C19.58 24.4527 19.6427 25.0617 19.6427 25.6618C19.6517 28.1788 18.5858 30.5792 16.7227 32.2632ZM18.9978 32.4602C19.7233 31.5735 20.3055 30.5792 20.7176 29.5134C21.4879 29.5761 22.294 29.6208 23.127 29.6298C23.1091 29.7373 23.1091 29.8358 23.127 29.9433L23.1628 32.8275C21.7745 32.8095 20.3861 32.6931 18.9978 32.4602ZM21.3893 24.596C21.9178 24.6318 22.4642 24.6497 23.0285 24.6587C23.0374 24.7214 23.0553 24.7841 23.0732 24.8468L23.1091 27.8294C22.4642 27.8205 21.8282 27.7936 21.2281 27.7488C21.3625 27.0591 21.4341 26.3515 21.4341 25.6529C21.4341 25.3036 21.4162 24.9542 21.3893 24.596ZM23.5748 22.8762C23.548 22.8762 23.5301 22.8762 23.5032 22.8762C22.6344 22.8762 21.8103 22.8404 21.04 22.7777C20.7086 21.5864 20.1622 20.4578 19.4457 19.4457C20.7892 19.6159 22.1507 19.7054 23.5032 19.7054C26.2709 19.7054 28.8953 19.374 30.9017 18.765C31.6003 18.5679 32.2631 18.2902 32.8991 17.9409V20.3324C30.6598 20.3951 28.5549 20.6818 26.88 21.1565C25.3035 21.6043 24.2018 22.1776 23.5748 22.8762ZM24.8109 24.2108C24.9632 23.9331 25.635 23.3868 27.3816 22.9031C29.1371 22.4105 31.4212 22.1417 33.8217 22.1417H33.8933C36.455 22.1417 38.963 22.4373 40.7812 22.9927C42.6622 23.5659 43.119 24.1392 43.1459 24.2914V24.3004C43.1369 24.4347 42.6981 25.0528 40.7096 25.6439C38.8734 26.1903 36.4461 26.4859 33.8933 26.4859C31.5197 26.4859 29.2357 26.2172 27.4801 25.7425C25.7962 25.2857 25.0707 24.7572 24.8557 24.4527C24.8557 24.372 24.8378 24.2914 24.8109 24.2108ZM43.2086 34.2247C43.2086 34.3501 42.8145 34.9682 40.9067 35.5593C39.0794 36.1236 36.661 36.4371 34.0814 36.4371C31.4928 36.4371 29.0834 36.1326 27.283 35.5862C25.5723 35.0577 24.999 34.4666 24.999 34.2695C24.999 34.2606 24.999 34.2606 24.999 34.2516L24.99 33.7052L24.9632 31.681C25.6797 32.0303 26.4232 32.299 27.1935 32.4871C29.0744 32.9797 31.448 33.2484 33.8933 33.2484C36.661 33.2484 39.2586 32.917 41.2649 32.3079C41.9188 32.1109 42.6712 31.8422 43.2086 31.4929V34.2247ZM43.0922 29.2626C43.0922 29.388 42.6801 29.997 40.7544 30.5882C38.9182 31.1435 36.4819 31.4481 33.8844 31.4481C29.0117 31.4481 25.6977 30.3643 24.9273 29.5044L24.8915 26.674C27.0054 27.7757 30.5613 28.2773 33.8933 28.2773C36.6162 28.2773 39.2048 27.9548 41.2022 27.3637C41.9009 27.1666 42.5727 26.8979 43.2176 26.5486V28.7878C43.2086 28.9222 43.0922 29.0834 43.0922 29.2626Z" fill="white"/>
<path d="M10.7214 19.7412C7.45213 19.7412 4.80981 22.3925 4.80981 25.6528C4.80981 28.9132 7.46109 31.5645 10.7214 31.5645C13.9818 31.5645 16.6331 28.9132 16.6331 25.6528C16.6241 22.3925 13.9818 19.7502 10.7214 19.7412ZM10.7214 29.782C8.44636 29.782 6.60122 27.9369 6.60122 25.6618C6.60122 23.3867 8.44636 21.5416 10.7214 21.5416C12.9965 21.5416 14.8417 23.3867 14.8417 25.6618C14.8417 27.9369 12.9965 29.782 10.7214 29.782Z" fill="white"/>
</svg>
