<svg width="12" height="12" viewBox="0 0 12 12" fill="none" xmlns="http://www.w3.org/2000/svg">
<path d="M2.94959 5.03668C3.48035 5.56741 3.48035 6.43107 2.94959 6.96179C2.41882 7.49255 1.5552 7.49255 1.02444 6.96179C0.759039 6.69643 0.626341 6.34781 0.626341 5.99925C0.626341 5.6507 0.759007 5.30205 1.02444 5.03671C1.55517 4.50592 2.41882 4.50592 2.94959 5.03668Z" fill="#79BC41"/>
<path d="M5.35678 9.36865L4.39424 8.40611C5.72113 7.07919 5.72113 4.92021 4.39424 3.59329L5.35678 2.63075C7.21441 4.48834 7.21441 7.511 5.35678 9.36865Z" fill="#79BC41"/>
<path d="M10.1523 6.00096C10.1523 8.18263 9.30278 10.2337 7.76009 11.7764L6.79754 10.8138C8.08308 9.52828 8.79109 7.81902 8.79109 6.00099C8.79109 4.18297 8.08308 2.4737 6.79754 1.18817L7.76009 0.225621C9.30278 1.76821 10.1523 3.81929 10.1523 6.00096Z" fill="#79BC41"/>
</svg>
