<svg width="30" height="30" viewBox="0 0 30 30" fill="none" xmlns="http://www.w3.org/2000/svg">
<g clip-path="url(#clip0)">
<path d="M15.0673 0C15.0593 0.00803789 15.0432 0.00803789 15.0191 0.00803789C6.88472 0.00803789 0.269531 6.62322 0.269531 14.7576C0.269531 18.0772 1.40287 21.3004 3.47665 23.8966L1.33053 28.8801C1.1537 29.2901 1.34661 29.7643 1.7485 29.9331C1.89319 29.9974 2.05394 30.0135 2.20666 29.9894L10.0758 28.6068C11.6512 29.1775 13.307 29.4669 14.9789 29.4589C23.1132 29.4589 29.7284 22.8437 29.7284 14.7093C29.7445 6.59911 23.1775 0.00803789 15.0673 0ZM14.9869 27.8593C13.4356 27.8593 11.9004 27.578 10.4455 27.0314C10.3089 26.9752 10.1642 26.9671 10.0195 26.9912L3.39627 28.1487L5.14853 24.0735C5.2691 23.7921 5.22088 23.4626 5.01993 23.2295C4.07146 22.1283 3.31589 20.8744 2.78539 19.516C2.19059 17.9968 1.88515 16.3812 1.88515 14.7495C1.88515 7.49935 7.78497 1.60758 15.0271 1.60758C22.2532 1.5915 28.1208 7.43505 28.1289 14.6611C28.1289 14.6772 28.1289 14.6933 28.1289 14.7093C28.1289 21.9675 22.2291 27.8593 14.9869 27.8593Z" fill="url(#paint0_linear)"/>
<path d="M15.1525 21.221C14.0078 21.221 13.0332 20.9604 12.2285 20.439C11.4352 19.9177 10.8798 19.2037 10.5625 18.297L12.2455 17.311C12.7215 18.6484 13.7075 19.317 15.2035 19.317C15.9402 19.317 16.4898 19.1754 16.8525 18.892C17.2265 18.5974 17.4135 18.2177 17.4135 17.753C17.4135 17.2657 17.2152 16.8974 16.8185 16.648C16.4218 16.3874 15.7192 16.104 14.7105 15.798C14.1438 15.628 13.6848 15.4694 13.3335 15.322C12.9822 15.1747 12.6082 14.9707 12.2115 14.71C11.8262 14.438 11.5372 14.1037 11.3445 13.707C11.1518 13.3104 11.0555 12.8457 11.0555 12.313C11.0555 11.259 11.4295 10.426 12.1775 9.81403C12.9255 9.1907 13.8265 8.87903 14.8805 8.87903C15.8325 8.87903 16.6655 9.11136 17.3795 9.57603C18.0935 10.0407 18.6432 10.681 19.0285 11.497L17.3795 12.449C16.8808 11.3384 16.0478 10.783 14.8805 10.783C14.3138 10.783 13.8605 10.919 13.5205 11.191C13.1805 11.4517 13.0105 11.8087 13.0105 12.262C13.0105 12.704 13.1805 13.0554 13.5205 13.316C13.8718 13.5654 14.5008 13.8317 15.4075 14.115C15.8608 14.2624 16.1895 14.3757 16.3935 14.455C16.6088 14.523 16.9035 14.6364 17.2775 14.795C17.6628 14.9537 17.9518 15.1124 18.1445 15.271C18.3372 15.4297 18.5412 15.628 18.7565 15.866C18.9832 16.104 19.1418 16.376 19.2325 16.682C19.3232 16.988 19.3685 17.3337 19.3685 17.719C19.3685 18.7957 18.9775 19.6514 18.1955 20.286C17.4248 20.9094 16.4105 21.221 15.1525 21.221Z" fill="url(#paint1_linear)"/>
</g>
<defs>
<linearGradient id="paint0_linear" x1="0.269531" y1="14.6512" x2="29.7285" y2="14.6512" gradientUnits="userSpaceOnUse">
<stop stop-color="#55C86E"/>
<stop offset="1" stop-color="#7DC855"/>
</linearGradient>
<linearGradient id="paint1_linear" x1="10.5625" y1="14.9065" x2="19.3685" y2="14.9065" gradientUnits="userSpaceOnUse">
<stop stop-color="#55C86E"/>
<stop offset="1" stop-color="#7DC855"/>
</linearGradient>
<clipPath id="clip0">
<rect width="30" height="30" fill="white"/>
</clipPath>
</defs>
</svg>
