<svg width="30" height="30" viewBox="0 0 30 30" fill="none" xmlns="http://www.w3.org/2000/svg">
<path fill-rule="evenodd" clip-rule="evenodd" d="M25 1.5H5C3.067 1.5 1.5 3.067 1.5 5V25C1.5 26.933 3.067 28.5 5 28.5H25C26.933 28.5 28.5 26.933 28.5 25V5C28.5 3.067 26.933 1.5 25 1.5ZM5 0C2.23858 0 0 2.23858 0 5V25C0 27.7614 2.23858 30 5 30H25C27.7614 30 30 27.7614 30 25V5C30 2.23858 27.7614 0 25 0H5Z" fill="url(#paint0_linear)"/>
<path fill-rule="evenodd" clip-rule="evenodd" d="M12.6269 17.0262L4.10713 10.0554C3.78654 9.79311 3.73929 9.32059 4.00159 9.00001C4.26388 8.67943 4.7364 8.63217 5.05698 8.89447L13.5768 15.8652C14.4056 16.5434 15.5975 16.5434 16.4264 15.8652L24.9462 8.89447C25.2668 8.63217 25.7393 8.67943 26.0016 9.00001C26.2639 9.32059 26.2166 9.79311 25.896 10.0554L17.3762 17.0262C15.9949 18.1564 14.0083 18.1564 12.6269 17.0262Z" fill="url(#paint1_linear)"/>
<defs>
<linearGradient id="paint0_linear" x1="5.23132e-08" y1="14.6512" x2="30" y2="14.6512" gradientUnits="userSpaceOnUse">
<stop stop-color="#55C86E"/>
<stop offset="1" stop-color="#7DC855"/>
</linearGradient>
<linearGradient id="paint1_linear" x1="3.83203" y1="13.193" x2="26.1711" y2="13.193" gradientUnits="userSpaceOnUse">
<stop stop-color="#55C86E"/>
<stop offset="1" stop-color="#7DC855"/>
</linearGradient>
</defs>
</svg>
