<svg width="45" height="45" viewBox="0 0 45 45" fill="none" xmlns="http://www.w3.org/2000/svg">
<g clip-path="url(#clip0_1601_1003)">
<path d="M40.1953 6.79688H5.03906C2.12662 6.79688 -0.234375 9.15787 -0.234375 12.0703V33.1641C-0.234375 36.0765 2.12662 38.4375 5.03906 38.4375H40.1953C43.1077 38.4375 45.4688 36.0765 45.4688 33.1641V12.0703C45.4688 9.15787 43.1077 6.79688 40.1953 6.79688Z" fill="#D8E1EF"/>
<path d="M45.4688 13.8281H-0.234375V19.1016H45.4688V13.8281Z" fill="#6A67FF"/>
<path d="M13.8281 31.4062H8.55469C8.08849 31.4062 7.64138 31.2211 7.31173 30.8914C6.98207 30.5617 6.79688 30.1146 6.79688 29.6484C6.79688 29.1822 6.98207 28.7351 7.31173 28.4055C7.64138 28.0758 8.08849 27.8906 8.55469 27.8906H13.8281C14.2943 27.8906 14.7414 28.0758 15.0711 28.4055C15.4007 28.7351 15.5859 29.1822 15.5859 29.6484C15.5859 30.1146 15.4007 30.5617 15.0711 30.8914C14.7414 31.2211 14.2943 31.4062 13.8281 31.4062Z" fill="#6A67FF"/>
</g>
<defs>
<clipPath id="clip0_1601_1003">
<rect width="45" height="45" fill="white"/>
</clipPath>
</defs>
</svg>
