<svg width="55" height="55" viewBox="0 0 55 55" fill="none" xmlns="http://www.w3.org/2000/svg">
<path d="M50.4883 8.97134L41.5169 0H14.8242V33.1054C9.08134 33.4402 4.51172 38.2176 4.51172 44.043C4.51172 50.0847 9.42702 55 15.4688 55C19.5601 55 23.1344 52.7455 25.016 49.4141H50.4883V8.97134ZM41.8945 2.20054L48.2877 8.59375H41.8945V2.20054ZM15.4688 53.7109C10.1378 53.7109 5.80078 49.3739 5.80078 44.043C5.80078 38.7121 10.1378 34.375 15.4688 34.375C20.7997 34.375 25.1367 38.7121 25.1367 44.043C25.1367 49.3739 20.7997 53.7109 15.4688 53.7109ZM25.6366 48.125C26.1451 46.8628 26.4258 45.4851 26.4258 44.043C26.4258 38.2176 21.8562 33.4402 16.1133 33.1054V1.28906H40.6055V9.88281H49.1992V48.125H25.6366Z" fill="black"/>
<path d="M20.625 6.875H30.9375V8.16406H20.625V6.875Z" fill="black"/>
<path d="M20.625 10.3125H27.5V11.6016H20.625V10.3125Z" fill="black"/>
<path d="M20.625 15.4688H44.6875V16.4688H20.625V15.4688Z" fill="black"/>
<path d="M20.625 18.4688H44.6875V19.4688H20.625V18.4688Z" fill="black"/>
<path d="M20.625 21.4688H35.625V22.4688H20.625V21.4688Z" fill="black"/>
<path d="M14.824 41.7239V48.7617H16.113V41.7239L18.4502 44.0612L19.3618 43.1497L15.4685 39.2565L11.5752 43.1497L12.4868 44.0612L14.824 41.7239Z" fill="black"/>
</svg>
