<svg width="21" height="10" viewBox="0 0 21 10" fill="none" xmlns="http://www.w3.org/2000/svg">
<path fill-rule="evenodd" clip-rule="evenodd" d="M20.4999 0.499925C20.8904 0.890449 20.8904 1.52361 20.4999 1.91414L13.4141 8.99992C12.6331 9.78097 11.3668 9.78097 10.5857 8.99993L9.49992 7.91414C9.1094 7.52361 9.1094 6.89045 9.49992 6.49992C9.89045 6.1094 10.5236 6.1094 10.9141 6.49992L11.6464 7.23216C11.8416 7.42742 12.1582 7.42742 12.3535 7.23216L19.0857 0.499924C19.4762 0.1094 20.1094 0.1094 20.4999 0.499925Z" fill="#79BC41"/>
<path fill-rule="evenodd" clip-rule="evenodd" d="M12.4999 0.499925C12.8904 0.890449 12.8904 1.52361 12.4999 1.91414L5.41414 8.99992C4.63309 9.78097 3.36676 9.78097 2.58571 8.99993L0.499924 6.91414C0.1094 6.52361 0.1094 5.89045 0.499925 5.49992C0.890449 5.1094 1.52361 5.1094 1.91414 5.49992L3.64637 7.23216C3.84163 7.42742 4.15822 7.42742 4.35348 7.23216L11.0857 0.499924C11.4762 0.1094 12.1094 0.1094 12.4999 0.499925Z" fill="#79BC41"/>
</svg>
