<svg width="15" height="15" fill="black" xmlns="http://www.w3.org/2000/svg" viewBox="0 0 26 32">
    <path d="M21.333 2.133c1.178 0 2.133 0.955 2.133 2.133v23.467c0 1.178-0.955 2.133-2.133 2.133h-17.067c-1.178 0-2.133-0.955-2.133-2.133v-23.467c0-1.178 0.955-2.133 2.133-2.133h17.067zM4.267 0c-2.356 0-4.267 1.91-4.267 4.267v23.467c0 2.356 1.91 4.267 4.267 4.267h17.067c2.356 0 4.267-1.91 4.267-4.267v-23.467c0-2.356-1.91-4.267-4.267-4.267h-17.067z"></path>
    <path d="M19.2 22.4c0 0.589-0.478 1.067-1.067 1.067h-10.667c-0.589 0-1.067-0.478-1.067-1.067s0.478-1.067 1.067-1.067h10.667c0.589 0 1.067 0.478 1.067 1.067z"></path>
    <path d="M19.2 18.133c0 0.589-0.478 1.067-1.067 1.067h-10.667c-0.589 0-1.067-0.478-1.067-1.067s0.478-1.067 1.067-1.067h10.667c0.589 0 1.067 0.478 1.067 1.067z"></path>
    <path d="M19.2 9.6c0 0.589-0.478 1.067-1.067 1.067h-6.4c-0.589 0-1.067-0.478-1.067-1.067s0.478-1.067 1.067-1.067h6.4c0.589 0 1.067 0.478 1.067 1.067z"></path>
</svg>
