<svg width="15" height="15" fill="black" xmlns="http://www.w3.org/2000/svg" viewBox="-1 0 41 32">
    <path d="M32 7.566c0 0.69-0.56 1.25-1.25 1.25s-1.25-0.56-1.25-1.25v-1.312c0-2.070-1.684-3.754-3.754-3.754l-19.421 0.005c-1.047 0-2.062 0.434-2.785 1.192-0.713 0.747-1.079 1.719-1.031 2.737 0.094 2.002 1.739 3.571 3.745 3.571h19.492c3.448 0 6.254 2.805 6.254 6.254v0.81h-2.5v-0.81c0-2.070-1.684-3.754-3.754-3.754h-19.492c-1.405 0-2.704-0.462-3.749-1.245v13.238c0 2.759 2.245 5.004 5.004 5.004h18.238c2.070 0 3.754-1.684 3.754-3.754v-0.146h2.5v0.146c0 3.448-2.806 6.254-6.254 6.254h-18.238c-4.138 0-7.504-3.366-7.504-7.504 0 0 0.001-17.995 0.004-18.027-0.057-1.678 0.553-3.273 1.723-4.5 1.142-1.196 2.726-1.904 4.375-1.962 0.048-0.006 19.64-0.009 19.64-0.009 3.448 0 6.254 2.805 6.254 6.254v1.312z"></path>
    <path d="M25.75 5.004c0.69 0 1.25 0.56 1.25 1.25s-0.56 1.25-1.25 1.25h-19.497c-1.657-0.065-1.658-2.434 0-2.5h19.497z"></path>
    <path d="M34.499 15.924l4.655 4.655c0.416 0.417 0.416 1.092 0 1.508l-4.655 4.655c-0.417 0.416-1.092 0.416-1.508 0s-0.417-1.092 0-1.508l2.834-2.834h-12.358v-2.133h12.358l-2.834-2.834c-0.417-0.417-0.417-1.092 0-1.508s1.092-0.417 1.508 0z"></path>
</svg>
