<svg width="15" height="15" fill="black" xmlns="http://www.w3.org/2000/svg" viewBox="0 0 32 32" >
    <path d="M1.6 16c0.884 0 1.6 0.716 1.6 1.6v12.8c0 0.884-0.716 1.6-1.6 1.6s-1.6-0.716-1.6-1.6v-12.8c0-0.884 0.716-1.6 1.6-1.6z"/>
    <path d="M11.201 6.4c0.884 0 1.6 0.716 1.6 1.6v22.4c0 0.884-0.716 1.6-1.6 1.6s-1.6-0.716-1.6-1.6v-22.4c0-0.884 0.716-1.6 1.6-1.6z"/>
    <path d="M20.802 12.8c0.884 0 1.6 0.716 1.6 1.6v16c0 0.884-0.716 1.6-1.6 1.6s-1.6-0.716-1.6-1.6v-16c0-0.884 0.716-1.6 1.6-1.6z"/>
    <path d="M30.398 0c0.884 0 1.6 0.716 1.6 1.6v28.8c0 0.884-0.716 1.6-1.6 1.6s-1.6-0.716-1.6-1.6v-28.8c0-0.884 0.716-1.6 1.6-1.6z"/>
</svg>
