<svg width="15" height="15" viewBox="0 0 42 31" fill="black" xmlns="http://www.w3.org/2000/svg">
    <path d="M14.229 30.949c-0.481 0.481-1.26 0.481-1.741 0l-10.026-10.026c-0.775-0.775-0.587-1.231 0.51-1.231h35.947c0.68 0 1.231 0.551 1.231 1.231v0.721c0 0.68-0.551 1.231-1.231 1.231h-28.816c-0.439 0-0.658 0.53-0.348 0.84l4.984 4.984c0.481 0.48 0.481 1.26 0 1.741l-0.509 0.509z" />
    <path d="M28.382 2.822c0.481-0.481 1.26-0.481 1.741 0l10.026 10.026c0.775 0.775 0.587 1.231-0.509 1.231h-35.947c-0.68 0-1.231-0.551-1.231-1.231v-0.721c0-0.68 0.551-1.231 1.231-1.231h28.816c0.439 0 0.658-0.53 0.348-0.84l-4.984-4.984c-0.48-0.481-0.48-1.26 0-1.741l0.51-0.509z" />
</svg>
