<svg width="37" height="37" viewBox="0 0 37 37" fill="none" xmlns="http://www.w3.org/2000/svg">
<path d="M33.599 7.83294C33.3174 7.43522 33.0236 7.04737 32.7109 6.67394C29.3152 2.59883 24.2049 0 18.4996 0C18.489 0 18.4806 0.000759006 18.4715 0.000759006C18.4655 0.000759006 18.4609 0 18.4548 0C18.4343 0 18.4131 0.00227702 18.3911 0.00227702C12.729 0.0349143 7.66352 2.62616 4.28753 6.67394C3.97635 7.04813 3.6811 7.43522 3.39952 7.83294C1.2622 10.85 0 14.5289 0 18.5C0 22.4704 1.26144 26.1508 3.39952 29.1671C3.6811 29.5648 3.97635 29.9526 4.28753 30.3261C7.66276 34.3738 12.7283 36.9651 18.3911 36.9977C18.4131 36.9977 18.4343 37 18.4548 37C18.4609 37 18.4655 36.9992 18.4708 36.9992C18.4799 36.9992 18.4882 37 18.4989 37C24.2049 37 29.3145 34.4019 32.7109 30.3268C33.0221 29.9534 33.3174 29.5648 33.599 29.1671C35.7363 26.15 36.9985 22.4711 36.9985 18.4992C36.9985 14.5296 35.7363 10.85 33.599 7.83294ZM13.0918 2.40605C11.3917 4.04626 9.97844 6.44396 9.00466 9.32135C7.69995 8.83406 6.52579 8.24735 5.5133 7.58398C7.49806 5.22651 10.1082 3.41097 13.0918 2.40605ZM4.62225 8.7445C5.77288 9.51262 7.10263 10.1843 8.57279 10.7377C7.93827 13.0557 7.57396 15.6287 7.5603 18.3436H1.52102C1.55365 14.7725 2.70352 11.4678 4.62225 8.7445ZM1.57794 19.8617H7.5899C7.68781 22.1341 8.03315 24.2905 8.57127 26.2631C7.10035 26.8164 5.77136 27.4881 4.62225 28.257C2.92135 25.8426 1.82461 22.9721 1.57794 19.8617ZM5.51786 29.413C6.53035 28.7511 7.70147 28.1659 9.00314 27.6787C9.97692 30.5568 11.3909 32.953 13.0918 34.5932C10.1082 33.589 7.50337 31.7697 5.51786 29.413ZM17.7406 35.4273C14.6257 35.0008 11.9374 31.8061 10.4133 27.205C12.6106 26.5462 15.0978 26.147 17.7406 26.0825V35.4273ZM17.7406 24.566C14.9536 24.6328 12.3268 25.0631 9.98755 25.7811C9.50863 23.9626 9.20199 21.9671 9.11016 19.8624H17.7406V24.566ZM17.7406 18.3436H9.07828C9.09194 15.7941 9.42362 13.3858 9.99438 11.2211C12.3305 11.9369 14.9559 12.368 17.7399 12.434V18.3436H17.7406ZM17.7406 10.9175C15.0993 10.853 12.6129 10.4553 10.4179 9.79648C11.9412 5.19767 14.6273 1.99998 17.7406 1.57266V10.9175ZM35.4759 18.3436H29.3494C29.3357 15.6401 28.976 13.0777 28.346 10.768C29.8488 10.2094 31.2066 9.52704 32.3762 8.74526C34.2942 11.4686 35.4433 14.7725 35.4759 18.3436ZM31.4837 7.5855C30.4507 8.26178 29.25 8.85759 27.9141 9.35019C26.9312 6.43333 25.4975 4.00679 23.7708 2.36051C26.8098 3.35556 29.4678 5.1916 31.4837 7.5855ZM19.2586 1.58404C22.3393 2.05994 24.9928 5.25156 26.5001 9.81925C24.3256 10.4636 21.8673 10.8538 19.2586 10.9175V1.58404ZM19.2586 12.4348C22.0099 12.3695 24.6057 11.9475 26.9214 11.2469C27.4891 13.4056 27.8185 15.8048 27.8314 18.3444H19.2586V12.4348ZM19.2586 19.8617H27.8003C27.7084 21.9565 27.4033 23.9428 26.929 25.7561C24.6102 25.0533 22.0115 24.632 19.2601 24.566L19.2586 19.8617ZM19.2586 35.416V26.0832C21.8688 26.147 24.3271 26.5371 26.5047 27.1815C24.9951 31.7507 22.3386 34.9401 19.2586 35.416ZM23.7708 34.6403C25.4975 32.9947 26.9343 30.5697 27.9172 27.6521C29.25 28.1439 30.4492 28.739 31.4806 29.4137C29.4647 31.8069 26.8098 33.6444 23.7708 34.6403ZM32.3762 28.257C31.2066 27.4752 29.8488 26.7914 28.3452 26.2335C28.878 24.2692 29.2204 22.1227 29.3167 19.8624H35.4198C35.1731 22.9721 34.0794 25.8434 32.3762 28.257Z" fill="#7C86BA"/>
</svg>
