<svg width="23" height="16" viewBox="0 0 23 16" fill="none" xmlns="http://www.w3.org/2000/svg">
<g clip-path="url(#clip0)">
<path d="M20.0253 -0.208542H9.96722C9 -0.212173 9.26026 -0.212173 8.5 -0.212173C7 -0.212169 8.78679 -0.212168 7.10862 -0.212168C5.43046 -0.212168 6.25694 -0.212173 5 -0.208542C4 -0.212173 4.91217 -0.212173 4 -0.212173L2.97476 -0.208542C1.52389 -0.208542 0.343506 0.97184 0.343506 2.42271V5.52754C0.343506 5.81819 0.579109 6.0538 0.869757 6.0538C1.16041 6.0538 1.39601 5.81819 1.39601 5.52754V2.42271C1.39601 1.55219 2.10424 0.843961 2.97476 0.843961H17.7098C18.5803 0.843961 19.2885 1.55219 19.2885 2.42271V5.26447H13.8155C12.3647 5.26447 11.1843 6.44485 11.1843 7.89573C11.1843 9.3466 12.3647 10.527 13.8155 10.527H19.2885V13.3687C19.2885 14.2393 18.5803 14.9475 17.7098 14.9475H2.97476C2.10424 14.9475 1.39601 14.2393 1.39601 13.3687V10.2598C1.39601 9.9691 1.16041 9.7335 0.869757 9.7335C0.579109 9.7335 0.343506 9.9691 0.343506 10.2598V13.3687C0.343506 14.8196 1.52389 16 2.97476 16H20.0253C21.4762 16 22.6566 14.8196 22.6566 13.3687V2.42271C22.6566 0.97184 21.4762 -0.208542 20.0253 -0.208542ZM19.8134 0.843961H20.0253C20.8958 0.843961 21.6041 1.55219 21.6041 2.42271V5.26447H20.341V2.42271C20.341 1.83084 20.1445 1.28406 19.8134 0.843961ZM12.2368 7.89573C12.2368 7.0252 12.945 6.31697 13.8155 6.31697H21.6041V9.47448H13.8155C12.945 9.47448 12.2368 8.76625 12.2368 7.89573ZM20.0253 14.9475H19.8134C20.1445 14.5074 20.341 13.9607 20.341 13.3687V10.527H21.6041V13.3687C21.6041 14.2393 20.8958 14.9475 20.0253 14.9475Z" fill="#979797"/>
<path d="M13.6808 7.36942C13.5419 7.36942 13.4061 7.42572 13.3082 7.52361C13.2103 7.62149 13.1545 7.75727 13.1545 7.89567C13.1545 8.03408 13.2103 8.16985 13.3082 8.26773C13.4066 8.36562 13.5419 8.42193 13.6808 8.42193C13.8192 8.42193 13.9544 8.36562 14.0529 8.26773C14.1507 8.16985 14.207 8.03408 14.207 7.89567C14.207 7.75727 14.1507 7.62149 14.0529 7.52361C13.955 7.42567 13.8192 7.36942 13.6808 7.36942Z" fill="#979797"/>
<path d="M0.869757 8.42193C1.00816 8.42193 1.14393 8.36562 1.24182 8.26773C1.3397 8.16985 1.39601 8.03408 1.39601 7.89567C1.39601 7.75727 1.3397 7.62149 1.24182 7.52361C1.14393 7.42572 1.00869 7.36942 0.869757 7.36942C0.731353 7.36942 0.59558 7.42572 0.497698 7.52361C0.399815 7.62149 0.343506 7.75727 0.343506 7.89567C0.343506 8.03408 0.399815 8.16985 0.497698 8.26773C0.59558 8.36562 0.731301 8.42193 0.869757 8.42193Z" fill="#979797"/>
</g>
<defs>
<clipPath id="clip0">
<rect width="23" height="16" fill="white"/>
</clipPath>
</defs>
</svg>
