<svg width="75" height="57" viewBox="0 0 75 57" fill="none" xmlns="http://www.w3.org/2000/svg">
<rect width="75" height="57" rx="14" fill="white"/>
<path d="M63.7071 17.7071C64.0976 17.3166 64.0976 16.6834 63.7071 16.2929L57.3431 9.92893C56.9526 9.53841 56.3195 9.53841 55.9289 9.92893C55.5384 10.3195 55.5384 10.9526 55.9289 11.3431L61.5858 17L55.9289 22.6569C55.5384 23.0474 55.5384 23.6805 55.9289 24.0711C56.3195 24.4616 56.9526 24.4616 57.3431 24.0711L63.7071 17.7071ZM11 18H63V16H11V18Z" fill="url(#paint0_linear)"/>
<circle cx="17" cy="17" r="11" fill="#7BBF56"/>
<path d="M13.6094 19.9053L14.8281 19.3213C15.082 19.7275 15.4036 20.0449 15.793 20.2734C16.1908 20.502 16.6182 20.6162 17.0752 20.6162C17.5068 20.6162 17.8708 20.4977 18.167 20.2607C18.4632 20.0238 18.6113 19.6852 18.6113 19.2451C18.6113 19.0166 18.569 18.8219 18.4844 18.6611C18.3997 18.4919 18.2516 18.3395 18.04 18.2041C17.8369 18.0687 17.638 17.9587 17.4434 17.874C17.2487 17.7809 16.9609 17.654 16.5801 17.4932C16.2077 17.3324 15.8903 17.1885 15.6279 17.0615C14.4938 16.5114 13.9268 15.6904 13.9268 14.5986C13.9268 14.04 14.1214 13.5111 14.5107 13.0117C14.9085 12.5039 15.4925 12.1823 16.2627 12.0469V10.9424H17.7861V12.0723C18.277 12.123 18.7425 12.3304 19.1826 12.6943C19.6312 13.0498 19.9443 13.4307 20.1221 13.8369L18.8779 14.4336C18.3955 13.7142 17.7777 13.3545 17.0244 13.3545C16.5928 13.3545 16.2415 13.473 15.9707 13.71C15.7083 13.9469 15.5771 14.2474 15.5771 14.6113C15.5771 14.7552 15.5941 14.8864 15.6279 15.0049C15.6618 15.1234 15.7253 15.2334 15.8184 15.335C15.9115 15.4281 16.0003 15.5127 16.085 15.5889C16.1781 15.6566 16.3177 15.737 16.5039 15.8301C16.6901 15.9147 16.8467 15.9867 16.9736 16.0459C17.1006 16.0967 17.2952 16.1771 17.5576 16.2871C17.8285 16.3971 18.0485 16.486 18.2178 16.5537C19.5973 17.1377 20.2871 17.9883 20.2871 19.1055C20.2871 19.8672 20.0544 20.4977 19.5889 20.9971C19.1318 21.488 18.5309 21.8011 17.7861 21.9365V22.9775H16.2627V21.9111C15.7464 21.8604 15.2344 21.6445 14.7266 21.2637C14.2188 20.8743 13.8464 20.4215 13.6094 19.9053Z" fill="white"/>
<path d="M10.2929 40.2929C9.90237 40.6834 9.90237 41.3166 10.2929 41.7071L16.6569 48.0711C17.0474 48.4616 17.6805 48.4616 18.0711 48.0711C18.4616 47.6805 18.4616 47.0474 18.0711 46.6569L12.4142 41L18.0711 35.3431C18.4616 34.9526 18.4616 34.3195 18.0711 33.9289C17.6805 33.5384 17.0474 33.5384 16.6569 33.9289L10.2929 40.2929ZM63 40H11V42H63V40Z" fill="url(#paint1_linear)"/>
<circle cx="58" cy="41" r="11" fill="#7EB2FB"/>
<path d="M50.0029 48.5526C50.0619 46.9937 51.1379 45.6591 52.6616 45.2794L55.056 44.6806L55.2735 43.81C54.6697 43.1863 54.2535 42.3431 54.1241 41.4838C53.7329 41.4075 53.4235 41.0869 53.3722 40.6794L53.216 39.4294C53.1829 39.1625 53.2654 38.8944 53.4435 38.6925C53.5573 38.5631 53.7029 38.4694 53.8635 38.4188C53.8185 38.0375 53.7504 37.4056 53.7504 37.125C53.7504 35.9187 54.1129 34.6819 56.7754 34.6262C57.7079 34 58.7091 34 59.1441 34C60.2466 34 61.0429 34.3631 61.5116 35.0787C62.1216 36.01 61.8298 36.6518 61.4779 37.0262L61.2441 37.2606L61.1866 38.4375C61.3297 38.4919 61.4591 38.5806 61.5616 38.6981C61.7366 38.8981 61.8179 39.165 61.7847 39.4287L61.6285 40.6788C61.581 41.0606 61.306 41.365 60.951 41.465C60.821 42.3588 60.3823 43.23 59.7416 43.8644L59.9454 44.6794L62.3398 45.2781C63.9066 45.67 65.5004 47.385 65.5004 49C65.5004 49.0172 65.499 49.0341 65.4963 49.0506C65.4005 49.1399 65.303 49.2275 65.204 49.3133C65.1987 49.3136 65.1933 49.3137 65.1879 49.3137C65.1879 49.3137 65.1789 49.3268 65.1601 49.3512C63.735 50.5741 61.9933 51.4386 60.0748 51.8047C59.3935 51.9148 58.6318 51.9851 57.7825 51.9979C54.7188 51.9384 51.962 50.6263 50.0029 48.5526Z" fill="white"/>
<defs>
<linearGradient id="paint0_linear" x1="63" y1="17" x2="11" y2="17" gradientUnits="userSpaceOnUse">
<stop stop-color="#79BE54"/>
<stop offset="1" stop-color="#C1FFA0" stop-opacity="0"/>
</linearGradient>
<linearGradient id="paint1_linear" x1="11" y1="41" x2="63" y2="41" gradientUnits="userSpaceOnUse">
<stop stop-color="#7AAEFD"/>
<stop offset="1" stop-color="#C1FFA0" stop-opacity="0"/>
</linearGradient>
</defs>
</svg>
