<svg width="14" height="14" viewBox="0 0 14 14" fill="none" xmlns="http://www.w3.org/2000/svg">
<path d="M11.1823 3.90165C10.065 2.78439 8.57951 2.16907 6.99945 2.16907H6.13219L7.52418 0.773664L6.7486 0L4.03757 2.71767L6.71321 5.43804L7.49423 4.66988L6.11198 3.26452H6.99945C9.65721 3.26452 11.8195 5.42675 11.8195 8.08453C11.8195 10.7423 9.65721 12.9046 6.99945 12.9046C4.34169 12.9046 2.17943 10.7423 2.17943 8.08443V7.5367L1.08398 7.53681V8.08453C1.08398 9.66462 1.6993 11.1501 2.81659 12.2674C3.93386 13.3847 5.41939 14 6.99945 14C8.57951 14 10.065 13.3847 11.1823 12.2674C12.2996 11.1501 12.9149 9.66459 12.9149 8.08453C12.9149 6.50448 12.2996 5.01895 11.1823 3.90165Z" fill="#45A856"/>
</svg>
