<svg width="15" height="15" viewBox="0 0 15 15" fill="none" xmlns="http://www.w3.org/2000/svg">
<path d="M4.6875 9.37494C4.515 9.37494 4.375 9.23494 4.375 9.06244V1.87494C4.375 1.18556 4.93562 0.624939 5.625 0.624939C6.31437 0.624939 6.87499 1.18556 6.87499 1.87494V8.43744C6.87499 8.60994 6.73499 8.74994 6.56249 8.74994C6.38999 8.74994 6.24999 8.60994 6.24999 8.43744V1.87494C6.24999 1.52994 5.96937 1.24994 5.625 1.24994C5.28062 1.24994 5 1.52994 5 1.87494V9.06244C5 9.23494 4.86 9.37494 4.6875 9.37494Z" fill="#45A856"/>
<path d="M8.43749 8.74994C8.26499 8.74994 8.12499 8.60994 8.12499 8.43744V5.62494C8.12499 5.27994 7.84437 4.99994 7.5 4.99994C7.15562 4.99994 6.875 5.27994 6.875 5.62494C6.875 5.79744 6.735 5.93744 6.5625 5.93744C6.39 5.93744 6.25 5.79744 6.25 5.62494C6.25 4.93556 6.81062 4.37494 7.5 4.37494C8.18937 4.37494 8.74999 4.93556 8.74999 5.62494V8.43744C8.74999 8.60994 8.60999 8.74994 8.43749 8.74994Z" fill="#45A856"/>
<path d="M10.3125 8.74988C10.14 8.74988 9.99999 8.60988 9.99999 8.43738V6.24988C9.99999 5.90488 9.71937 5.62488 9.375 5.62488C9.03062 5.62488 8.75 5.90488 8.75 6.24988C8.75 6.42238 8.61 6.56238 8.4375 6.56238C8.265 6.56238 8.125 6.42238 8.125 6.24988C8.125 5.5605 8.68562 4.99988 9.375 4.99988C10.0644 4.99988 10.625 5.5605 10.625 6.24988V8.43738C10.625 8.60988 10.485 8.74988 10.3125 8.74988Z" fill="#45A856"/>
<path d="M9.6875 15H6.07063C5.09625 15 4.20563 14.5069 3.68813 13.6819L0.82375 9.11438C0.8225 9.11188 0.82125 9.11 0.82 9.10812C0.6925 8.91375 0.625 8.68187 0.625 8.4375C0.625 7.74813 1.18562 7.1875 1.875 7.1875C2.105 7.1875 2.32562 7.24813 2.51312 7.36313C2.51812 7.36563 2.52313 7.36875 2.5275 7.37188L4.85063 8.79625C4.9975 8.88625 5.04437 9.07875 4.95375 9.22625C4.86375 9.3725 4.67 9.41937 4.52375 9.32875L2.21438 7.9125C2.2075 7.90875 2.20125 7.905 2.19437 7.90062C2.10375 7.84312 1.99312 7.8125 1.875 7.8125C1.53062 7.8125 1.25 8.0925 1.25 8.4375C1.25 8.55375 1.28062 8.66563 1.33625 8.75625C1.33938 8.76063 1.34187 8.765 1.345 8.76938L4.2175 13.35C4.62 13.9919 5.3125 14.375 6.07063 14.375H9.6875C10.8938 14.375 11.875 13.3938 11.875 12.1875V6.875C11.875 6.53 11.5944 6.25 11.25 6.25C10.9056 6.25 10.625 6.53 10.625 6.875C10.625 7.0475 10.485 7.1875 10.3125 7.1875C10.14 7.1875 10 7.0475 10 6.875C10 6.18562 10.5606 5.625 11.25 5.625C11.9394 5.625 12.5 6.18562 12.5 6.875V12.1875C12.5 13.7381 11.2381 15 9.6875 15Z" fill="#45A856"/>
</svg>
