<svg width="15" height="15" viewBox="0 0 15 15" fill="none" xmlns="http://www.w3.org/2000/svg">
<path d="M4.6875 9.375C4.515 9.375 4.375 9.235 4.375 9.0625V1.875C4.375 1.18563 4.93562 0.625 5.625 0.625C6.31437 0.625 6.87499 1.18563 6.87499 1.875V8.4375C6.87499 8.61 6.73499 8.75 6.56249 8.75C6.38999 8.75 6.24999 8.61 6.24999 8.4375V1.875C6.24999 1.53 5.96937 1.25 5.625 1.25C5.28062 1.25 5 1.53 5 1.875V9.0625C5 9.235 4.86 9.375 4.6875 9.375Z" fill="#9B9B9B"/>
<path d="M8.43749 8.75C8.26499 8.75 8.12499 8.61 8.12499 8.4375V5.625C8.12499 5.28 7.84437 5 7.5 5C7.15562 5 6.875 5.28 6.875 5.625C6.875 5.7975 6.735 5.9375 6.5625 5.9375C6.39 5.9375 6.25 5.7975 6.25 5.625C6.25 4.93563 6.81062 4.375 7.5 4.375C8.18937 4.375 8.74999 4.93563 8.74999 5.625V8.4375C8.74999 8.61 8.60999 8.75 8.43749 8.75Z" fill="#9B9B9B"/>
<path d="M10.3125 8.75C10.14 8.75 9.99999 8.61 9.99999 8.4375V6.25C9.99999 5.905 9.71937 5.625 9.375 5.625C9.03062 5.625 8.75 5.905 8.75 6.25C8.75 6.4225 8.61 6.5625 8.4375 6.5625C8.265 6.5625 8.125 6.4225 8.125 6.25C8.125 5.56062 8.68562 5 9.375 5C10.0644 5 10.625 5.56062 10.625 6.25V8.4375C10.625 8.61 10.485 8.75 10.3125 8.75Z" fill="#9B9B9B"/>
<path d="M9.6875 15H6.07063C5.09625 15 4.20563 14.5069 3.68813 13.6819L0.82375 9.11438C0.8225 9.11188 0.82125 9.11 0.82 9.10812C0.6925 8.91375 0.625 8.68187 0.625 8.4375C0.625 7.74813 1.18562 7.1875 1.875 7.1875C2.105 7.1875 2.32562 7.24813 2.51312 7.36313C2.51812 7.36563 2.52313 7.36875 2.5275 7.37188L4.85063 8.79625C4.9975 8.88625 5.04437 9.07875 4.95375 9.22625C4.86375 9.3725 4.67 9.41937 4.52375 9.32875L2.21438 7.9125C2.2075 7.90875 2.20125 7.905 2.19437 7.90062C2.10375 7.84312 1.99312 7.8125 1.875 7.8125C1.53062 7.8125 1.25 8.0925 1.25 8.4375C1.25 8.55375 1.28062 8.66563 1.33625 8.75625C1.33938 8.76063 1.34187 8.765 1.345 8.76938L4.2175 13.35C4.62 13.9919 5.3125 14.375 6.07063 14.375H9.6875C10.8938 14.375 11.875 13.3938 11.875 12.1875V6.875C11.875 6.53 11.5944 6.25 11.25 6.25C10.9056 6.25 10.625 6.53 10.625 6.875C10.625 7.0475 10.485 7.1875 10.3125 7.1875C10.14 7.1875 10 7.0475 10 6.875C10 6.18562 10.5606 5.625 11.25 5.625C11.9394 5.625 12.5 6.18562 12.5 6.875V12.1875C12.5 13.7381 11.2381 15 9.6875 15Z" fill="#9B9B9B"/>
</svg>
