<svg width="15" height="15" viewBox="0 0 15 15" fill="none" xmlns="http://www.w3.org/2000/svg">
<g clip-path="url(#clip0)">
<path d="M14.9846 7.10768C14.9771 6.96113 14.8969 6.82803 14.7709 6.75288C14.6449 6.67771 14.4896 6.67041 14.3571 6.73334C13.9978 6.90406 13.6124 6.99061 13.2114 6.99061C11.7362 6.99061 10.536 5.78953 10.536 4.31317C10.536 3.9437 10.6099 3.58582 10.7556 3.24945C10.8271 3.08415 10.7906 2.89195 10.6635 2.76442C10.5362 2.63686 10.3441 2.59985 10.1787 2.67105C9.97023 2.7607 9.74868 2.80614 9.52024 2.80614C8.59949 2.80614 7.8504 2.05643 7.8504 1.13492C7.8504 0.947002 7.88175 0.761779 7.94354 0.584467C7.99024 0.450487 7.96938 0.30221 7.88755 0.186336C7.80575 0.0704326 7.673 0.00117192 7.53111 0.000322279L7.5232 0.000205087C7.51526 0.000117192 7.50732 0 7.49932 0C5.49718 0 3.61486 0.780179 2.19915 2.1968C0.783528 3.61333 0.00390625 5.49673 0.00390625 7.49999C0.00390625 9.50324 0.783528 11.3866 2.19915 12.8032C3.61486 14.2198 5.49718 15 7.49932 15C9.50146 15 11.3838 14.2198 12.7995 12.8032C14.2151 11.3866 14.9947 9.50324 14.9947 7.49999C14.9948 7.3706 14.9913 7.23859 14.9846 7.10768ZM12.1778 12.1819C10.9281 13.4324 9.26658 14.1211 7.49932 14.1211C5.73206 14.1211 4.07054 13.4324 2.82086 12.1819C1.57112 10.9313 0.882849 9.26859 0.882849 7.49999C0.882849 5.73138 1.57112 4.06865 2.82086 2.81812C3.9479 1.69035 5.40987 1.01954 6.98233 0.898718C6.97506 0.977062 6.97143 1.05584 6.97143 1.13495C6.97143 2.54111 8.11481 3.68511 9.52021 3.68511C9.58499 3.68511 9.64945 3.68271 9.71346 3.67793C9.67593 3.88607 9.65704 4.09819 9.65704 4.31317C9.65704 6.27418 11.2515 7.86955 13.2114 7.86955C13.5189 7.86955 13.8196 7.83114 14.111 7.75494C14.0481 9.42786 13.3673 10.9916 12.1778 12.1819Z" fill="#45A856"/>
<path d="M4.33883 7.13003C5.13735 7.13003 5.78701 6.48005 5.78701 5.68118C5.78701 4.88231 5.13735 4.23236 4.33883 4.23236C3.54028 4.23236 2.89062 4.88231 2.89062 5.68118C2.89062 6.48005 3.54028 7.13003 4.33883 7.13003ZM4.33883 5.1113C4.6527 5.1113 4.90807 5.36696 4.90807 5.68118C4.90807 5.9954 4.6527 6.25109 4.33883 6.25109C4.02496 6.25109 3.76957 5.9954 3.76957 5.68118C3.76957 5.36696 4.02493 5.1113 4.33883 5.1113Z" fill="#45A856"/>
<path d="M4.61997 8.43628C3.87855 8.43628 3.27539 9.03973 3.27539 9.78143C3.27539 10.5231 3.87855 11.1266 4.61997 11.1266C5.36138 11.1266 5.96457 10.5231 5.96457 9.78143C5.96457 9.03973 5.36138 8.43628 4.61997 8.43628ZM4.61997 10.2477C4.3632 10.2477 4.15433 10.0385 4.15433 9.78143C4.15433 9.52437 4.3632 9.31522 4.61997 9.31522C4.87674 9.31522 5.08563 9.52437 5.08563 9.78143C5.08563 10.0385 4.87674 10.2477 4.61997 10.2477Z" fill="#45A856"/>
<path d="M10.6982 8.6723C9.89965 8.6723 9.25 9.32225 9.25 10.1211C9.25 10.92 9.89965 11.57 10.6982 11.57C11.4967 11.57 12.1464 10.92 12.1464 10.1211C12.1464 9.32225 11.4967 8.6723 10.6982 8.6723ZM10.6982 10.691C10.3843 10.691 10.1289 10.4353 10.1289 10.1211C10.1289 9.8069 10.3843 9.55124 10.6982 9.55124C11.012 9.55124 11.2674 9.8069 11.2674 10.1211C11.2674 10.4353 11.012 10.691 10.6982 10.691Z" fill="#45A856"/>
<path d="M8.10159 11.1304C7.8632 11.1304 7.66992 11.3238 7.66992 11.5624C7.66992 11.8009 7.8632 11.9943 8.10159 11.9943C8.33999 11.9943 8.53327 11.8009 8.53327 11.5624C8.53327 11.3238 8.33999 11.1304 8.10159 11.1304Z" fill="#45A856"/>
<path d="M5.52543 2.95342C5.76384 2.95342 5.95711 2.76002 5.95711 2.52145C5.95711 2.28288 5.76384 2.08948 5.52543 2.08948C5.28702 2.08948 5.09375 2.28288 5.09375 2.52145C5.09375 2.76002 5.28702 2.95342 5.52543 2.95342Z" fill="#45A856"/>
<path d="M2.52543 8.87595C2.76384 8.87595 2.95711 8.68256 2.95711 8.44399C2.95711 8.20542 2.76384 8.01202 2.52543 8.01202C2.28702 8.01202 2.09375 8.20542 2.09375 8.44399C2.09375 8.68256 2.28702 8.87595 2.52543 8.87595Z" fill="#45A856"/>
<path d="M6.67191 6.08783C6.43351 6.08783 6.24023 6.28123 6.24023 6.5198C6.24023 6.75838 6.43351 6.95175 6.67191 6.95175C6.91031 6.95175 7.10359 6.75835 7.10359 6.5198C7.10359 6.28123 6.91034 6.08783 6.67191 6.08783Z" fill="#45A856"/>
<path d="M9.25784 8.25188C9.49625 8.25188 9.68952 8.05848 9.68952 7.81991C9.68952 7.58134 9.49625 7.38794 9.25784 7.38794C9.01944 7.38794 8.82617 7.58134 8.82617 7.81991C8.82617 8.05848 9.01944 8.25188 9.25784 8.25188Z" fill="#45A856"/>
</g>
<defs>
<clipPath id="clip0">
<rect width="15" height="15" fill="white"/>
</clipPath>
</defs>
</svg>
