<svg width="15" height="15" viewBox="0 0 15 15" fill="none" xmlns="http://www.w3.org/2000/svg">
<g clip-path="url(#clip0)">
<path d="M7.5004 7.33599C9.16814 7.33599 10.5202 5.69379 10.5202 3.66801C10.5202 1.6422 10.0763 0 7.5004 0C4.92447 0 4.48047 1.6422 4.48047 3.66801C4.48047 5.69379 5.83257 7.33599 7.5004 7.33599Z" fill="#E2E2E2"/>
<path d="M13.198 12.7885C13.1421 9.25951 12.6812 8.25395 9.15438 7.61743C9.15438 7.61743 8.65792 8.25005 7.50078 8.25005C6.34363 8.25005 5.84709 7.61743 5.84709 7.61743C2.35873 8.247 1.86982 9.23765 1.80553 12.6738C1.80026 12.9544 1.79782 12.9691 1.79688 12.9366C1.79709 12.9976 1.79735 13.1105 1.79735 13.3073C1.79735 13.3073 2.637 15 7.50078 15C12.3645 15 13.2042 13.3073 13.2042 13.3073C13.2042 13.1809 13.2043 13.0929 13.2044 13.0331C13.2035 13.0532 13.2016 13.0142 13.198 12.7885Z" fill="#E2E2E2"/>
</g>
<defs>
<clipPath id="clip0">
<rect width="15" height="15" fill="white"/>
</clipPath>
</defs>
</svg>
