<svg width="157" height="27" viewBox="0 0 157 27" fill="none" xmlns="http://www.w3.org/2000/svg">
<path d="M41.3881 14.5154C41.3881 14.5154 36.6835 16.9217 35.2234 16.6544C33.7633 16.387 28.1279 10.8284 27.0131 10.9516C25.8983 11.0748 27.1119 13.9272 26.1386 13.7133C23.9103 13.2679 22.8197 11.6111 22.0599 9.64766C21.3001 7.6842 20.4758 7.16739 19.6548 7.11716C18.8339 7.06693 18.7089 10.825 18.2434 11.1466C17.7779 11.4682 16.31 10.5879 16.0481 9.0892C15.6705 6.92783 15.2211 4.19178 14.6263 4.03135C14.0315 3.87093 13.7551 5.74575 12.7276 5.63881C11.7002 5.53186 8.24857 3.26057 7.59965 3.36752C6.95073 3.47446 7.21184 4.14154 6.34661 4.30196C5.48139 4.46238 1.58789 3.87418 1.58789 3.87418C1.58789 3.87418 4.9947 5.8527 6.88738 7.51038C8.78005 9.16806 16.9456 16.5474 21.488 17.8843C26.0304 19.2211 29.8158 19.435 31.8166 18.9003C33.8174 18.3655 40.7392 15.1571 40.7392 15.1571L41.3881 14.5154Z" fill="#6D7287"/>
<path d="M39.8467 16.9485C39.8467 16.9485 37.2317 19.244 32.249 21.1729C27.2663 23.1017 25.0834 22.5586 22.9424 23.2224C20.8014 23.8863 19.6446 25.7719 19.0478 25.2949C18.4081 24.7836 20.3746 22.6674 19.3452 21.7657C18.3158 20.8639 13.3269 24.6624 12.678 23.6464C12.0291 22.6304 14.2956 20.852 13.3763 19.9697C12.457 19.0874 6.8331 20.0499 7.13052 18.9002C7.42794 17.7506 9.60219 18.4468 9.26653 17.0287C8.93088 15.6105 4.61407 15.2877 4.91531 14.093C5.21655 12.8982 5.76236 11.2298 4.91141 9.86935C4.06052 8.50892 2.50962 6.23301 2.53397 6.22699C2.53397 6.22699 8.34719 10.3177 11.754 13.1518C15.1608 15.9859 18.1891 18.6061 21.9204 19.5954C25.6516 20.5847 29.8425 20.7718 32.4112 20.0767C34.9798 19.3815 39.8467 16.9485 39.8467 16.9485H39.8467Z" fill="#6D7287"/>
<path d="M58.5561 18.5771C58.5561 17.4925 58.1153 16.6366 57.2337 16.0091C56.3521 15.3728 54.7393 14.7722 52.3953 14.2076C50.0513 13.6339 48.34 13.011 47.2613 12.3388C45.7263 11.3887 44.9588 10.1428 44.9588 8.60113C44.9588 7.10429 45.6693 5.88979 47.0902 4.95762C48.5215 4.01649 50.3469 3.54593 52.5664 3.54593C54.0703 3.54593 55.4134 3.7969 56.5958 4.29883C57.7886 4.80077 58.7116 5.49989 59.365 6.3962C60.0185 7.29251 60.3452 8.2919 60.3452 9.39436H58.416C58.416 8.05886 57.8871 6.98777 56.8292 6.18109C55.7713 5.36544 54.3503 4.95762 52.5664 4.95762C50.8344 4.95762 49.4549 5.29374 48.4281 5.96597C47.4013 6.62924 46.8879 7.49867 46.8879 8.57424C46.8879 9.56915 47.3495 10.3803 48.2726 11.0077C49.1956 11.6351 50.6736 12.1909 52.7064 12.6749C54.7393 13.1499 56.2795 13.6474 57.327 14.1672C58.3746 14.6781 59.1628 15.2921 59.6918 16.0091C60.2207 16.7262 60.4852 17.5732 60.4852 18.5502C60.4852 20.0918 59.7695 21.3288 58.3382 22.2609C56.9173 23.1931 55.0401 23.6592 52.7064 23.6592C51.1092 23.6592 49.6416 23.4127 48.3037 22.9197C46.9761 22.4267 45.9649 21.7366 45.27 20.8492C44.5854 19.9619 44.2432 18.9446 44.2432 17.7973H46.1567C46.1567 19.1776 46.7531 20.2666 47.9458 21.0643C49.1386 21.8621 50.7255 22.2609 52.7064 22.2609C54.4696 22.2609 55.8854 21.9248 56.9536 21.2526C58.0219 20.5803 58.5561 19.6885 58.5561 18.5771Z" fill="#6D7287"/>
<path d="M74.7826 23.3903C74.5959 22.9331 74.4767 22.2564 74.4248 21.3601C73.7714 22.0951 72.9365 22.6642 71.9201 23.0676C70.914 23.462 69.8457 23.6592 68.7152 23.6592C67.0972 23.6592 65.7852 23.2693 64.7792 22.4895C63.7835 21.7097 63.2856 20.7237 63.2856 19.5316C63.2856 18.1155 63.965 16.9951 65.3237 16.1705C66.6927 15.3459 68.5959 14.9336 71.0333 14.9336H74.4093V13.2799C74.4093 12.2401 74.0359 11.4245 73.2891 10.8329C72.5527 10.2324 71.4741 9.93214 70.0532 9.93214C68.7567 9.93214 67.6832 10.219 66.8328 10.7926C65.9823 11.3662 65.557 12.0564 65.557 12.8631L63.6901 12.8496C63.6901 11.6934 64.3124 10.694 65.557 9.85146C66.8016 8.99997 68.3315 8.57422 70.1465 8.57422C72.0238 8.57422 73.5017 8.98204 74.5804 9.79769C75.6694 10.6044 76.2295 11.7337 76.2606 13.1857V20.0694C76.2606 21.4766 76.4317 22.5298 76.774 23.2289V23.3903L74.7826 23.3903ZM68.933 22.234C70.1776 22.234 71.2874 21.9741 72.2623 21.4542C73.2476 20.9344 73.9633 20.2397 74.4093 19.3703V16.1705H71.08C69.2234 16.1884 67.7714 16.4842 66.7239 17.0578C65.6763 17.6225 65.1525 18.4023 65.1525 19.3972C65.1525 20.2128 65.5 20.8896 66.1949 21.4273C66.9002 21.9651 67.8129 22.234 68.933 22.234Z" fill="#6D7287"/>
<path d="M151.452 19.693C151.452 18.8953 151.079 18.2544 150.332 17.7704C149.596 17.2864 148.481 16.9099 146.987 16.641C145.494 16.3632 144.332 16.0495 143.502 15.6999C142.683 15.3414 142.071 14.9067 141.666 14.3958C141.272 13.8849 141.075 13.2664 141.075 12.5404C141.075 11.3931 141.63 10.4475 142.74 9.70357C143.85 8.95067 145.271 8.57422 147.003 8.57422C148.88 8.57422 150.384 8.97756 151.514 9.78424C152.655 10.582 153.226 11.6262 153.226 12.9169H151.359C151.359 12.0654 150.944 11.3573 150.114 10.7926C149.295 10.2279 148.258 9.94558 147.003 9.94558C145.779 9.94558 144.793 10.1831 144.047 10.6581C143.31 11.1242 142.942 11.7337 142.942 12.4866C142.942 13.2126 143.248 13.7773 143.86 14.1807C144.482 14.575 145.608 14.938 147.236 15.2697C148.875 15.6013 150.099 15.9553 150.908 16.3318C151.727 16.7082 152.334 17.1609 152.728 17.6897C153.122 18.2185 153.319 18.8594 153.319 19.6123C153.319 20.8402 152.743 21.8217 151.592 22.5567C150.451 23.2917 148.958 23.6591 147.112 23.6591C145.151 23.6591 143.559 23.2513 142.335 22.4357C141.122 21.6111 140.515 20.5714 140.515 19.3165H142.382C142.455 20.2576 142.911 20.9926 143.751 21.5214C144.602 22.0413 145.722 22.3012 147.112 22.3012C148.408 22.3012 149.456 22.0547 150.254 21.5618C151.053 21.0688 151.452 20.4459 151.452 19.693Z" fill="#6D7287"/>
<path d="M84.85 23.3903H80.3384V2.73926H84.85V23.3903Z" fill="#6D7287"/>
<path d="M96.3158 23.6592C93.8473 23.6592 91.8352 23.0048 90.2795 21.6962C88.7341 20.3876 87.9614 18.6443 87.9614 16.4662V16.0898C87.9614 14.6288 88.2881 13.3247 88.9415 12.1774C89.595 11.0212 90.518 10.1338 91.7108 9.51535C92.9139 8.88793 94.283 8.57422 95.818 8.57422C98.1205 8.57422 99.9303 9.20164 101.248 10.4565C102.575 11.7113 103.239 13.4905 103.239 15.794V17.3805H92.5198C92.665 18.3306 93.1006 19.0924 93.8266 19.6661C94.563 20.2397 95.4913 20.5265 96.6114 20.5265C98.3435 20.5265 99.697 19.9843 100.672 18.8997L102.881 21.0374C102.207 21.862 101.294 22.5074 100.143 22.9735C98.9917 23.4306 97.716 23.6592 96.3158 23.6592ZM95.8024 11.7203C94.9104 11.7203 94.1844 11.9802 93.6244 12.5001C93.0747 13.0199 92.722 13.7639 92.5664 14.7319H98.8206V14.4227C98.7998 13.5622 98.5302 12.8989 98.0116 12.4328C97.493 11.9578 96.7566 11.7203 95.8024 11.7203Z" fill="#6D7287"/>
<path d="M115.561 23.3903C115.353 23.0407 115.203 22.606 115.11 22.0861C114.021 23.1348 112.605 23.6592 110.862 23.6592C109.213 23.6592 107.844 23.2468 106.755 22.4222C105.677 21.5976 105.137 20.5579 105.137 19.3031C105.137 17.7614 105.796 16.5783 107.113 15.7537C108.441 14.9291 110.354 14.5123 112.854 14.5033H114.923V13.6698C114.923 12.9975 114.721 12.4597 114.316 12.0564C113.922 11.6531 113.295 11.4514 112.434 11.4514C111.677 11.4514 111.08 11.6082 110.645 11.9219C110.219 12.2357 110.007 12.6659 110.007 13.2126H105.511C105.511 12.3701 105.811 11.5903 106.413 10.8733C107.014 10.1562 107.865 9.59601 108.964 9.19267C110.064 8.78037 111.298 8.57422 112.667 8.57422C114.741 8.57422 116.385 9.02686 117.599 9.93213C118.823 10.8284 119.435 12.0922 119.435 13.7235V20.0291C119.445 21.4094 119.668 22.4536 120.104 23.1617V23.3903H115.561ZM111.842 20.6879C112.506 20.6879 113.118 20.5624 113.678 20.3114C114.238 20.0515 114.653 19.7064 114.923 19.2762V16.7755H113.243C110.992 16.7755 109.794 17.4477 109.649 18.7922L109.633 19.0207C109.633 19.5047 109.83 19.9036 110.225 20.2173C110.619 20.531 111.158 20.6879 111.843 20.6879H111.842Z" fill="#6D7287"/>
<path d="M122.219 16.0092C122.219 13.7415 122.805 11.9354 123.977 10.591C125.16 9.24648 126.772 8.57425 128.816 8.57425C130.454 8.57425 131.808 9.10307 132.876 10.1607V2.73926H137.388V23.3903H133.327L133.109 21.8441C131.989 23.0542 130.548 23.6592 128.784 23.6592C126.804 23.6592 125.211 22.9869 124.008 21.6425C122.816 20.289 122.219 18.4113 122.219 16.0092ZM126.715 16.2915C126.715 17.6539 126.99 18.6981 127.54 19.4241C128.09 20.1501 128.888 20.5131 129.936 20.5131C131.326 20.5131 132.306 20.0067 132.876 18.9939V13.253C132.316 12.2402 131.346 11.7337 129.967 11.7337C127.799 11.7337 126.715 13.253 126.715 16.2915Z" fill="#6D7287"/>
</svg>
