<svg width="158" height="89" viewBox="0 0 158 89" fill="none" xmlns="http://www.w3.org/2000/svg">
<path d="M157.934 44.7501C157.934 44.7501 139.265 54.4064 133.471 53.3335C127.678 52.2605 105.315 29.9544 100.891 30.4488C96.4677 30.9432 101.284 42.3897 97.4212 41.5313C88.5791 39.7439 84.2513 33.0954 81.2363 25.2162C78.2213 17.3371 74.9505 15.2632 71.6927 15.0616C68.4349 14.86 67.9391 29.9409 66.0919 31.2313C64.2448 32.5217 58.4196 28.9893 57.3806 22.9752C55.8823 14.3018 54.099 3.32234 51.7386 2.67857C49.3782 2.03483 48.2814 9.55829 44.2043 9.12912C40.1273 8.69997 26.4307 -0.414488 23.8557 0.0146893C21.2807 0.443839 22.3168 3.12077 18.8834 3.76451C15.4501 4.40826 0 2.04784 0 2.04784C0 2.04784 13.5188 9.98745 21.0293 16.6396C28.5397 23.2917 60.9419 52.9043 78.967 58.2689C96.9921 63.6335 112.013 64.4918 119.953 62.346C127.892 60.2002 155.359 47.3251 155.359 47.3251L157.934 44.7501Z" fill="#56C96E"/>
<path d="M151.817 54.5136C151.817 54.5136 141.441 63.7255 121.668 71.4658C101.896 79.2061 93.234 77.0266 84.7382 79.6905C76.2424 82.3543 71.6519 89.9214 69.2837 88.0072C66.7452 85.9553 74.5486 77.4634 70.4639 73.8446C66.3792 70.2259 46.5822 85.469 44.0072 81.3919C41.4322 77.3148 50.4263 70.1783 46.7784 66.6376C43.1304 63.097 20.8137 66.9595 21.9939 62.346C23.1741 57.7324 31.8019 60.5264 30.47 54.8355C29.138 49.1446 12.0082 47.8494 13.2036 43.0549C14.3989 38.2605 16.5648 31.5652 13.1881 26.1059C9.81163 20.6467 3.6574 11.5137 3.75405 11.4895C3.75405 11.4895 26.8219 27.9052 40.3407 39.2782C53.8595 50.6511 65.8762 61.1657 80.6825 65.1356C95.4888 69.1054 112.119 69.8564 122.312 67.0668C132.505 64.2772 151.817 54.5136 151.817 54.5136H151.817Z" fill="#56C96E"/>
</svg>
