<svg width="30" height="29" viewBox="0 0 30 29" fill="none" xmlns="http://www.w3.org/2000/svg">
<path fill-rule="evenodd" clip-rule="evenodd" d="M18.6606 6.44378L16.6845 2.92691C15.9449 1.61057 14.0551 1.61058 13.3155 2.92691L11.3394 6.44378C10.5116 7.91701 9.08582 8.95611 7.43323 9.29059L3.4882 10.0891C2.0116 10.3879 1.42765 12.1907 2.44712 13.3031L5.17085 16.2751C6.31183 17.5201 6.85642 19.2014 6.66287 20.8814L6.20082 24.8917C6.02788 26.3928 7.55668 27.5069 8.92639 26.8781L12.5859 25.198C14.1188 24.4943 15.8812 24.4943 17.4141 25.198L21.0736 26.8781C22.4433 27.5069 23.9721 26.3927 23.7992 24.8917L23.3371 20.8814C23.1436 19.2014 23.6882 17.5201 24.8292 16.2751L27.5529 13.3031C28.5723 12.1907 27.9884 10.3879 26.5118 10.0891L22.5668 9.29059C20.9142 8.95611 19.4884 7.91701 18.6606 6.44378ZM18.369 1.97451C16.8897 -0.658168 13.1103 -0.658171 11.631 1.97451L9.65489 5.49137C9.10302 6.47353 8.15251 7.16626 7.05079 7.38925L3.10576 8.18771C0.152564 8.78543 -1.01534 12.391 1.0236 14.6158L3.74732 17.5878C4.50798 18.4178 4.87104 19.5387 4.74201 20.6587L4.27995 24.669C3.93407 27.6711 6.99168 29.8995 9.73111 28.6418L13.3906 26.9618C14.4125 26.4926 15.5874 26.4926 16.6094 26.9618L20.2689 28.6418C23.0083 29.8995 26.0659 27.6711 25.72 24.669L25.258 20.6587C25.129 19.5387 25.492 18.4178 26.2527 17.5878L28.9764 14.6158C31.0153 12.391 29.8474 8.78543 26.8942 8.18771L22.9492 7.38925C21.8475 7.16626 20.897 6.47353 20.3451 5.49137L18.369 1.97451Z" fill="url(#paint0_linear)"/>
<defs>
<linearGradient id="paint0_linear" x1="5.23132e-08" y1="14.1628" x2="30" y2="14.1628" gradientUnits="userSpaceOnUse">
<stop stop-color="#FA5C8B"/>
<stop offset="1" stop-color="#EB64DD"/>
</linearGradient>
</defs>
</svg>
