<svg width="34" height="30" viewBox="0 0 34 30" fill="none" xmlns="http://www.w3.org/2000/svg">
<path fill-rule="evenodd" clip-rule="evenodd" d="M26.8966 5.68966H6.2069C3.63592 5.68966 1.55172 7.77386 1.55172 10.3448V23.7931C1.55172 26.3641 3.63592 28.4483 6.2069 28.4483H26.8966C29.4675 28.4483 31.5517 26.3641 31.5517 23.7931V10.3448C31.5517 7.77385 29.4675 5.68966 26.8966 5.68966ZM6.2069 4.13794C2.77892 4.13794 0 6.91686 0 10.3448V23.7931C0 27.2211 2.77892 30 6.2069 30H26.8966C30.3245 30 33.1034 27.2211 33.1034 23.7931V10.3448C33.1034 6.91686 30.3245 4.13794 26.8966 4.13794H6.2069Z" fill="url(#paint0_linear)"/>
<path d="M14.4824 1.55172H18.6203C19.4773 1.55172 20.172 2.24645 20.172 3.10345H21.7237C21.7237 1.38946 20.3343 0 18.6203 0H14.4824C12.7684 0 11.3789 1.38946 11.3789 3.10345H12.9306C12.9306 2.24645 13.6254 1.55172 14.4824 1.55172Z" fill="url(#paint1_linear)"/>
<path fill-rule="evenodd" clip-rule="evenodd" d="M13.978 15.7978L6.83948 11.3689C6.4739 11.1421 6.32441 10.6853 6.48521 10.2862C6.69054 9.77665 7.30571 9.57537 7.77254 9.865L14.6495 14.1315C15.847 14.8745 17.2567 14.8745 18.4542 14.1315L25.3312 9.86499C25.798 9.57537 26.4132 9.77665 26.6185 10.2862C26.7793 10.6853 26.6298 11.1421 26.2642 11.3689L19.1257 15.7978C17.5054 16.803 15.5983 16.803 13.978 15.7978Z" fill="url(#paint2_linear)"/>
<defs>
<linearGradient id="paint0_linear" x1="16.5517" y1="4.13794" x2="16.5517" y2="30" gradientUnits="userSpaceOnUse">
<stop stop-color="#FFB84F"/>
<stop offset="1" stop-color="#EB9260"/>
</linearGradient>
<linearGradient id="paint1_linear" x1="16.5513" y1="0" x2="16.5513" y2="3.10345" gradientUnits="userSpaceOnUse">
<stop stop-color="#FFB84F"/>
<stop offset="1" stop-color="#EB9260"/>
</linearGradient>
<linearGradient id="paint2_linear" x1="16.5519" y1="9.3103" x2="16.5519" y2="16.5517" gradientUnits="userSpaceOnUse">
<stop stop-color="#FFB84F"/>
<stop offset="1" stop-color="#EB9260"/>
</linearGradient>
</defs>
</svg>
