<svg width="30" height="30" viewBox="0 0 30 30" fill="none" xmlns="http://www.w3.org/2000/svg">
<g clip-path="url(#clip0)">
<path d="M26.6779 5.58224C23.8302 2.05045 19.5365 -0.00193219 14.9997 1.36498e-06C7.19172 0.0103723 0.694448 6.00246 0.0535039 13.7841C0.019403 13.8509 0.00112207 13.9247 8.8114e-06 13.9997C0.00264548 14.0451 0.0117273 14.0899 0.0269028 14.1328C0.0104383 14.4199 8.8114e-06 14.7086 8.8114e-06 14.9996C-0.00245208 17.2633 0.510585 19.4979 1.50027 21.5337C1.50648 21.5621 1.50783 21.5928 1.51486 21.6208C1.54064 21.7199 1.5966 21.8085 1.675 21.8743C4.57351 27.4986 10.6906 30.698 16.9634 29.8707C23.2363 29.0434 28.3147 24.3674 29.656 18.184L29.6572 18.1784C30.621 13.7452 29.5256 9.11396 26.6779 5.58224ZM6.75521 3.69479C6.93632 4.10822 7.0852 4.53495 7.20051 4.97129C7.37606 5.66854 7.42879 6.22271 7.11508 6.66245C6.85716 6.99004 6.56572 7.28974 6.24545 7.55669L5.99374 7.78467C5.60802 8.15158 5.19114 8.48421 4.74765 8.77881C4.08104 9.20795 3.12106 9.60397 2.30844 9.09908C3.31248 6.95231 4.84193 5.09346 6.75521 3.69479ZM1.63263 19.1648C1.21217 17.8164 0.998837 16.4121 0.99995 14.9997C0.99995 14.844 1.00669 14.69 1.01173 14.5355C1.60316 14.6105 2.34735 14.8123 2.55265 15.2234C2.69375 15.5056 2.35684 16.6199 2.11075 17.4333C1.94165 17.9925 1.76576 18.5813 1.63263 19.1648ZM14.9997 28.9994C9.6808 28.9944 4.82324 25.9785 2.45943 21.2136C2.30317 20.2704 2.70482 18.9234 3.06803 17.7227C3.45791 16.4329 3.76605 15.4142 3.44719 14.776C3.00306 13.8879 1.80806 13.6183 1.07671 13.5362C1.20262 12.334 1.48504 11.1533 1.91669 10.0243C2.29332 10.2309 2.71607 10.339 3.14567 10.3385C3.91429 10.3093 4.65836 10.0596 5.28916 9.61956C5.78128 9.29384 6.24399 8.92576 6.67195 8.51948L6.91364 8.30046C7.28987 7.98629 7.63035 7.63175 7.929 7.2431C8.49881 6.44478 8.37067 5.52317 8.17022 4.72702C8.02884 4.17584 7.83982 3.63802 7.60521 3.11965C10.5508 1.27673 14.0789 0.601806 17.4968 1.22734C16.6863 1.60602 15.9165 2.06604 15.1991 2.6004L15.1525 2.63532C14.7228 2.95781 14.1344 3.39949 14.0546 4.03053C14.0177 4.36234 14.1209 4.6945 14.3392 4.94703C14.5159 5.15064 14.71 5.33843 14.9193 5.50829C15.23 5.73241 15.489 6.02074 15.6785 6.35372C15.3049 6.41818 14.9236 6.42509 14.5479 6.37423C14.4485 6.36714 14.3658 6.36152 14.3079 6.36005C13.3363 6.29941 12.361 6.34956 11.4007 6.50946C10.847 6.59565 10.3485 6.89383 10.0106 7.34101C9.80484 7.66468 9.74203 8.059 9.837 8.4306C9.98536 9.06744 10.4126 9.60356 11.0003 9.89026C11.3765 10.0221 11.7804 10.0546 12.1729 9.98477C12.2964 9.97258 12.418 9.95963 12.531 9.95963C13.1748 10.0386 13.7856 10.2883 14.3003 10.683L14.3533 10.7162C14.4266 10.7609 14.504 10.8107 14.5845 10.8627C15.1753 11.2438 15.9837 11.765 16.8157 11.4528C17.1924 11.2883 17.5153 11.0213 17.7478 10.6823C17.8398 10.56 17.9422 10.4458 18.0539 10.341C18.3155 10.1133 18.6527 9.99156 18.9994 9.99965C19.0907 9.99438 19.182 10.0069 19.2685 10.0363C19.3642 10.2645 18.8722 11.2696 18.0988 12.2003C17.6965 12.7031 17.1826 13.1052 16.5978 13.3748C16.1347 13.5842 15.615 13.6333 15.1208 13.5144C14.462 13.317 13.8259 13.0504 13.2232 12.719C11.868 12.0415 10.3319 11.274 8.77601 12.0523C7.45691 12.6895 6.58629 13.991 6.50068 15.4533C6.31102 16.6674 6.57199 19.0238 8.90152 19.4897C11.4664 20.0026 12.6048 20.4816 13.0145 22.1207C13.1229 22.5839 13.203 23.0534 13.2542 23.5265C13.4178 24.8155 13.5723 26.0328 15.3782 26.4844C15.9313 26.6428 16.5013 26.7349 17.0762 26.7588C17.4887 26.7728 17.8965 26.6675 18.2505 26.4553C18.8584 26.0705 19.2405 25.3435 19.4897 24.0974C19.9279 21.9071 20.3904 20.3629 21.2231 19.9466C22.0942 19.5111 22.6315 17.899 22.2497 16.8666C21.9697 16.11 21.2704 15.7909 20.3781 16.0143C19.7712 16.1659 19.6894 15.9455 19.6623 15.8727C19.5589 15.3292 19.7768 14.7746 20.2225 14.4469C20.2889 14.4161 20.3584 14.3926 20.4298 14.3769C21.5983 14.1132 24.2904 14.6957 25.0521 16.223C26.0719 18.2624 27.4606 18.6962 28.506 18.6758C26.8409 24.7651 21.3123 28.9908 14.9997 28.9994ZM28.7442 17.6517C27.5977 17.7848 26.6329 17.1492 25.9467 15.7765C24.8818 13.6411 21.5972 13.0871 20.203 13.4035C20.0554 13.4368 19.9122 13.4868 19.776 13.5525C18.8724 14.1097 18.4443 15.196 18.7247 16.2199C18.8231 16.486 19.2506 17.3278 20.621 16.9848C21.1764 16.8458 21.2643 17.0851 21.3119 17.2137C21.5282 17.7987 21.1659 18.8575 20.776 19.0523C19.5709 19.6548 19.0324 21.2866 18.5095 23.9013C18.3234 24.8313 18.0639 25.3903 17.7158 25.6105C17.311 25.8669 16.6416 25.7697 15.6211 25.5143C14.5222 25.2396 14.4114 24.7011 14.2463 23.4008C14.1903 22.8884 14.103 22.3799 13.9848 21.8782C13.4006 19.5413 11.5909 19.0079 9.09798 18.5093C7.10829 18.1114 7.47666 15.6837 7.49301 15.5819C7.49758 15.5547 7.49986 15.5272 7.49986 15.4996C7.57099 14.3998 8.22993 13.4239 9.22348 12.9469C10.3343 12.392 11.5203 12.9858 12.7761 13.6134C13.444 13.9785 14.1491 14.2707 14.8794 14.485C15.585 14.6581 16.3282 14.591 16.9914 14.2943C17.7293 13.9584 18.3776 13.4532 18.8837 12.8197C19.3031 12.3163 20.6359 10.5974 20.174 9.61077C19.9484 9.18193 19.4803 8.93836 18.9997 8.99971C18.4114 8.99197 17.841 9.20109 17.3972 9.5871C17.2403 9.73012 17.0967 9.88709 16.9682 10.0561C16.8442 10.2522 16.6698 10.4114 16.4633 10.517C16.1042 10.6523 15.5624 10.3032 15.1264 10.0224C15.039 9.96602 14.9552 9.91205 14.8788 9.86518L14.829 9.83418C14.1619 9.33234 13.3666 9.02918 12.5347 8.95969C12.3867 8.95969 12.2317 8.9741 12.0747 8.98975C11.8477 9.03375 11.6137 9.02672 11.3897 8.96924C11.0987 8.80735 10.889 8.53073 10.8118 8.20683C10.7764 8.09814 10.791 7.97932 10.8515 7.88241C11.0445 7.6652 11.31 7.52575 11.5984 7.49007C12.485 7.3474 13.3848 7.30363 14.2811 7.3597C14.3282 7.36093 14.3956 7.36603 14.477 7.37189C15.2206 7.42509 15.9838 7.44613 16.4046 7.07969C16.5728 6.93655 16.6753 6.731 16.6886 6.51058C16.7352 5.75936 16.0914 5.20127 15.5743 4.7528C15.412 4.62114 15.26 4.47718 15.1198 4.32214C15.0385 4.22084 15.0448 4.17197 15.0468 4.15586C15.0734 3.94492 15.5155 3.61311 15.7528 3.43493L15.7994 3.40001C16.8206 2.641 17.9526 2.04389 19.1556 1.62958C25.9695 3.7443 30.1007 10.6474 28.7442 17.6517Z" fill="url(#paint0_linear)"/>
</g>
<defs>
<linearGradient id="paint0_linear" x1="14.9998" y1="0" x2="14.9998" y2="30" gradientUnits="userSpaceOnUse">
<stop stop-color="#2A9D17"/>
<stop offset="1" stop-color="#149839"/>
</linearGradient>
<clipPath id="clip0">
<rect width="30" height="30" fill="white"/>
</clipPath>
</defs>
</svg>
