<svg width="30" height="30" viewBox="0 0 30 30" fill="none" xmlns="http://www.w3.org/2000/svg">
<g clip-path="url(#clip0)">
<path d="M14.999 21.25C11.5528 21.25 8.74902 18.4463 8.74902 15C8.74902 11.5538 11.5528 8.75 14.999 8.75C18.4453 8.75 21.249 11.5538 21.249 15C21.249 18.4463 18.4453 21.25 14.999 21.25ZM14.999 10C12.2415 10 9.99902 12.2425 9.99902 15C9.99902 17.7575 12.2415 20 14.999 20C17.7565 20 19.999 17.7575 19.999 15C19.999 12.2425 17.7565 10 14.999 10Z" fill="url(#paint0_linear)"/>
<path d="M17.1242 30H12.8742C12.0067 30 11.2405 29.3837 11.0517 28.535L10.4755 25.975C9.51549 25.585 8.60299 25.0562 7.75674 24.3962L5.26174 25.1838C4.41299 25.4462 3.49049 25.0888 3.06674 24.33L0.945489 20.6625C0.512989 19.8938 0.659239 18.9438 1.29549 18.345L3.22299 16.5737C3.15799 16.0413 3.12424 15.5138 3.12424 15C3.12424 14.4862 3.15799 13.9587 3.22299 13.4263L1.30174 11.66C0.659239 11.0562 0.514239 10.1062 0.941739 9.34375L3.07174 5.66125C3.49299 4.91125 4.41674 4.55375 5.26049 4.815L7.75799 5.6025C8.60299 4.945 9.51549 4.415 10.4755 4.025L11.0517 1.4625C11.2405 0.61625 12.0067 0 12.8742 0H17.1242C17.9917 0 18.758 0.61625 18.9467 1.46375L19.523 4.025C20.483 4.415 21.3955 4.94375 22.2417 5.60375L24.7367 4.81625C25.5855 4.55375 26.5067 4.9125 26.9317 5.66875L29.053 9.33625C29.4842 10.1062 29.3392 11.0563 28.703 11.655L26.7755 13.4263C26.8405 13.9587 26.8742 14.4862 26.8742 15C26.8742 15.5138 26.8405 16.0413 26.7755 16.5737L28.698 18.34C28.6992 18.3412 28.7017 18.3438 28.703 18.345C29.3392 18.9438 29.4842 19.8937 29.0567 20.6562L26.9267 24.3388C26.5067 25.0888 25.583 25.4488 24.738 25.185L22.2405 24.3975C21.3942 25.0562 20.4817 25.5863 19.5217 25.9762L18.9455 28.5387C18.758 29.3837 17.9917 30 17.1242 30ZM7.88674 23.075C8.03049 23.075 8.17049 23.125 8.28424 23.2175C9.18924 23.9637 10.1792 24.5387 11.228 24.9263C11.428 25 11.5755 25.1687 11.6217 25.375L12.2717 28.2625C12.3342 28.545 12.588 28.75 12.8742 28.75H17.1242C17.4105 28.75 17.6642 28.545 17.7255 28.2638L18.3767 25.375C18.423 25.1687 18.5705 25 18.7692 24.9263C19.818 24.5375 20.8092 23.9625 21.713 23.2175C21.8755 23.0837 22.098 23.0425 22.298 23.1038L25.1105 23.9913C25.3967 24.0825 25.7005 23.97 25.8392 23.7188L27.9692 20.0362C28.1105 19.7837 28.0617 19.4613 27.8467 19.2563L25.6867 17.2725C25.5342 17.1325 25.4605 16.925 25.4917 16.7213C25.5805 16.1375 25.6242 15.5588 25.6242 15C25.6242 14.4412 25.5805 13.8625 25.4942 13.2788C25.4642 13.0738 25.5367 12.8675 25.6892 12.7275L27.8517 10.74C28.063 10.5413 28.113 10.2163 27.9667 9.95625L25.8455 6.2875C25.7005 6.03 25.3967 5.91625 25.1092 6.00875L22.2992 6.89625C22.0992 6.96 21.878 6.9175 21.7142 6.7825C20.8092 6.03625 19.8192 5.46125 18.7705 5.07375C18.5705 5 18.423 4.83125 18.3767 4.625L17.7267 1.7375C17.6642 1.455 17.4105 1.25 17.1242 1.25H12.8742C12.588 1.25 12.3342 1.455 12.273 1.735L11.6217 4.625C11.5755 4.83125 11.428 5 11.228 5.07375C10.1792 5.46125 9.18924 6.03625 8.28424 6.7825C8.12299 6.9175 7.90299 6.96 7.69924 6.89625L4.88674 6.00875C4.59924 5.91875 4.29799 6.03125 4.15674 6.28L2.02799 9.9625C1.88674 10.2162 1.93549 10.54 2.15299 10.7438L4.31049 12.7262C4.46299 12.8663 4.53674 13.0737 4.50549 13.2775C4.41799 13.8625 4.37424 14.4412 4.37424 15C4.37424 15.5588 4.41799 16.1375 4.50424 16.7213C4.53424 16.9263 4.46174 17.1325 4.30924 17.2725L2.14674 19.26C1.93549 19.4587 1.88549 19.7838 2.03174 20.0438L4.15299 23.7113C4.29799 23.9688 4.59799 24.08 4.88924 23.99L7.69924 23.1038C7.76049 23.085 7.82424 23.075 7.88674 23.075Z" fill="url(#paint1_linear)"/>
</g>
<defs>
<linearGradient id="paint0_linear" x1="8.74902" y1="14.8546" x2="21.249" y2="14.8546" gradientUnits="userSpaceOnUse">
<stop stop-color="#2982D3"/>
<stop offset="1" stop-color="#545BFF"/>
</linearGradient>
<linearGradient id="paint1_linear" x1="0.698242" y1="14.6512" x2="29.3006" y2="14.6512" gradientUnits="userSpaceOnUse">
<stop stop-color="#2982D3"/>
<stop offset="1" stop-color="#545BFF"/>
</linearGradient>
<clipPath id="clip0">
<rect width="30" height="30" fill="white"/>
</clipPath>
</defs>
</svg>
