<svg width="27" height="27" viewBox="0 0 27 27" fill="none" xmlns="http://www.w3.org/2000/svg">
<g clip-path="url(#clip0)">
<path d="M12.5057 11.5703C12.6607 11.7519 12.9324 11.7764 13.1177 11.6257L15.3934 9.77423C15.5173 9.67559 15.5787 9.51804 15.5542 9.36173C15.5296 9.20541 15.4231 9.07413 15.2749 9.01842C15.1269 8.96248 14.9601 8.9907 14.8386 9.09204L12.8958 10.6726L12.1974 9.85472C12.0958 9.7335 11.9371 9.67632 11.7815 9.70454C11.6262 9.73301 11.4976 9.84245 11.4453 9.99165C11.393 10.1409 11.4247 10.3065 11.5285 10.4258L12.5057 11.5703Z" fill="#AEAEAE"/>
<path d="M13.4895 15.1959C16.1611 15.1959 18.3267 13.0303 18.3267 10.3588C18.3267 7.68741 16.1611 5.52158 13.4895 5.52158C10.8182 5.52158 8.65234 7.68741 8.65234 10.3588C8.65553 13.0291 10.8194 15.193 13.4895 15.1959V15.1959ZM13.4895 6.40106C15.6752 6.40106 17.4472 8.17304 17.4472 10.3588C17.4472 12.5447 15.6752 14.3164 13.4895 14.3164C11.3038 14.3164 9.53183 12.5447 9.53183 10.3588C9.53429 8.17403 11.3048 6.40376 13.4895 6.40106V6.40106Z" fill="#AEAEAE"/>
<path d="M25.6874 10.0994L21.5822 7.56595C21.5673 7.55687 21.552 7.54852 21.5363 7.54141L21.4718 7.51147V6.44131C21.4718 6.33285 21.4318 6.22831 21.3594 6.14758L15.986 0.157297C15.9792 0.14969 15.9718 0.142573 15.9644 0.135457C15.8818 0.0488332 15.7672 0 15.6474 0C15.631 0 15.6143 0.000981571 15.5978 0.00294471L15.5902 0.00220853C15.5755 0.000736181 15.561 0 15.5463 0H7.94747C6.60493 0.00147236 5.51686 1.08954 5.51539 2.43209V7.5446L1.30126 10.0984C0.798695 10.4078 0.491709 10.9553 0.489746 11.5457V23.768C0.491464 25.5523 1.93732 26.9981 3.72157 27.0001H23.2656C25.0499 26.9981 26.4957 25.5523 26.4974 23.768V11.5457C26.4955 10.956 26.1892 10.4091 25.6874 10.0994V10.0994ZM25.227 10.8488C25.469 10.9978 25.617 11.2613 25.6179 11.5457V12.2137L21.4718 14.7476V8.53132L25.227 10.8488ZM16.0871 1.5872L19.4934 5.38465H17.6397C16.7826 5.38367 16.0881 4.68896 16.0871 3.83181V1.5872ZM7.94747 0.879242H15.2077V3.83181C15.2091 5.17435 16.2972 6.26242 17.6397 6.26414H20.2824L20.5923 6.60965V15.285L13.4936 19.6231L6.39487 15.285V2.43209C6.39561 1.57493 7.09032 0.880224 7.94747 0.879242V0.879242ZM1.75867 10.8495L5.51539 8.57279V14.7476L1.36923 12.2137V11.5457C1.36997 11.2621 1.51745 10.9987 1.75867 10.8495ZM23.2656 26.1206H3.72157C2.42295 26.1191 1.37046 25.0666 1.36923 23.768V13.2443L5.65207 15.8619C5.69747 15.9051 5.75121 15.938 5.81035 15.9586L13.2641 20.5136C13.405 20.5997 13.5822 20.5997 13.7228 20.5136L21.1768 15.9584C21.236 15.9378 21.2897 15.9049 21.3351 15.8617L25.6179 13.2443V23.768C25.6167 25.0666 24.5642 26.1191 23.2656 26.1206V26.1206Z" fill="#979797"/>
</g>
<defs>
<clipPath id="clip0">
<rect width="27" height="27" fill="white"/>
</clipPath>
</defs>
</svg>
