<svg width="45" height="45" viewBox="0 0 45 45" fill="none" xmlns="http://www.w3.org/2000/svg">
<path fill-rule="evenodd" clip-rule="evenodd" d="M19.7232 7.98102C9.93909 7.98102 2 16.0696 2 26.038C2 36.0063 9.93909 44.0949 19.7232 44.0949C29.5073 44.0949 37.4464 36.0063 37.4464 26.038H31.52C31.52 32.7025 26.2086 38.057 19.7232 38.057C13.1818 38.057 7.92636 32.6456 7.92636 26.038C7.92636 19.3734 13.2377 14.019 19.7232 14.019V7.98102Z" fill="#FC2C38"/>
<path fill-rule="evenodd" clip-rule="evenodd" d="M31.52 2L25.6495 7.98101V15.8418L21.3445 20.2278C20.8414 20.1139 20.3382 20 19.7791 20C16.5364 20 13.8527 22.6772 13.8527 26.038C13.8527 29.3987 16.4805 32.0759 19.7232 32.0759C22.9659 32.0759 25.6495 29.3987 25.6495 26.038C25.6495 25.5253 25.5936 25.0127 25.4818 24.5L29.8986 20H31.5759H37.5582L43.4286 14.019H31.52V2Z" fill="#FC2C38"/>
</svg>
