<svg width="30" height="30" viewBox="0 0 30 30" fill="none" xmlns="http://www.w3.org/2000/svg">
<path d="M7.37201 12.591C8.69891 13.9178 8.69891 16.0769 7.37201 17.4038C6.04511 18.7307 3.88604 18.7307 2.55914 17.4038C1.89564 16.7403 1.5639 15.8688 1.5639 14.9974C1.5639 14.126 1.89556 13.2544 2.55914 12.5911C3.88596 11.2641 6.04511 11.2641 7.37201 12.591Z" fill="#B3B3B3"/>
<path d="M13.3841 23.4224L10.9778 21.016C14.295 17.6987 14.295 12.3013 10.9778 8.98396L13.3841 6.5776C18.0282 11.2216 18.0282 18.7782 13.3841 23.4224Z" fill="#B3B3B3"/>
<path d="M25.3828 15.0024C25.3828 20.4566 23.2589 25.5843 19.4022 29.4409L16.9958 27.0346C20.2096 23.8207 21.9797 19.5476 21.9797 15.0025C21.9797 10.4574 20.2096 6.18426 16.9958 2.97042L19.4022 0.564054C23.2589 4.42054 25.3828 9.54823 25.3828 15.0024Z" fill="#B3B3B3"/>
</svg>
