<svg width="18" height="17" viewBox="0 0 18 17" fill="none" xmlns="http://www.w3.org/2000/svg">
<g clip-path="url(#clip0)">
<path fill-rule="evenodd" clip-rule="evenodd" d="M10.5741 1.89767L9.7395 1.24262C9.37365 0.955466 8.86222 0.955466 8.49637 1.24262L7.6618 1.89767C7.16006 2.29149 6.54926 2.51659 5.9149 2.54147L4.85974 2.58284C4.39718 2.60098 4.00541 2.93384 3.90744 3.39193L3.68397 4.4369C3.54962 5.06514 3.22462 5.63512 2.75446 6.06705L1.97243 6.78549C1.62961 7.10044 1.5408 7.61041 1.75656 8.02508L2.24875 8.97102C2.54466 9.53972 2.65753 10.1879 2.57157 10.8248L2.42859 11.8841C2.36591 12.3485 2.62162 12.7969 3.05015 12.9742L4.0277 13.3785C4.6154 13.6215 5.11333 14.0446 5.45179 14.5884L6.01476 15.493C6.26155 15.8895 6.74214 16.0666 7.18292 15.9235L8.18843 15.5969C8.79293 15.4006 9.44294 15.4006 10.0474 15.5969L11.0529 15.9235C11.4937 16.0666 11.9743 15.8895 12.2211 15.493L12.7841 14.5884C13.1225 14.0446 13.6205 13.6215 14.2082 13.3785L15.1857 12.9742C15.6142 12.7969 15.87 12.3485 15.8073 11.8841L15.6643 10.8248C15.5783 10.1879 15.6912 9.53972 15.9871 8.97102L16.4793 8.02508C16.6951 7.61041 16.6063 7.10044 16.2634 6.78549L15.4814 6.06705C15.0113 5.63512 14.6862 5.06514 14.5519 4.4369L14.3284 3.39193C14.2305 2.93384 13.8387 2.60098 13.3761 2.58284L12.321 2.54147C11.6866 2.51659 11.0758 2.29149 10.5741 1.89767ZM10.3611 0.430735C9.62936 -0.143578 8.60651 -0.143578 7.87481 0.430735L7.04024 1.08578C6.70574 1.34833 6.29854 1.4984 5.87563 1.51498L4.82047 1.55636C3.89537 1.59264 3.11182 2.25836 2.91589 3.17453L2.69242 4.21951C2.60285 4.63833 2.38618 5.01831 2.07274 5.30627L1.29071 6.02471C0.605069 6.65461 0.427453 7.67455 0.858979 8.5039L1.35117 9.44984C1.54844 9.82897 1.62369 10.2611 1.56638 10.6857L1.4234 11.745C1.29804 12.6738 1.80946 13.5707 2.66653 13.9252L3.64408 14.3295C4.03588 14.4915 4.36783 14.7735 4.59347 15.1361L5.15644 16.0406C5.65002 16.8337 6.61119 17.1879 7.49276 16.9017L8.49826 16.5751C8.90127 16.4443 9.3346 16.4443 9.73761 16.5751L10.7431 16.9017C11.6247 17.1879 12.5858 16.8337 13.0794 16.0406L13.6424 15.1361C13.868 14.7735 14.2 14.4915 14.5918 14.3295L15.5693 13.9252C16.4264 13.5707 16.9378 12.6738 16.8125 11.745L16.6695 10.6857C16.6122 10.2611 16.6874 9.82897 16.8847 9.44984L17.3769 8.5039C17.8084 7.67455 17.6308 6.65461 16.9452 6.02471L16.1631 5.30627C15.8497 5.01831 15.633 4.63833 15.5435 4.21951L15.32 3.17453C15.1241 2.25836 14.3405 1.59264 13.4154 1.55636L12.3602 1.51498C11.9373 1.4984 11.5301 1.34833 11.1956 1.08578L10.3611 0.430735Z" fill="#979797"/>
<line x1="5.72266" y1="7.1499" x2="12.517" y2="7.1499" stroke="#979797"/>
<line x1="5.72266" y1="8.8501" x2="12.517" y2="8.8501" stroke="#979797"/>
<line x1="5.72266" y1="10.5498" x2="9.96912" y2="10.5498" stroke="#979797"/>
</g>
<defs>
<clipPath id="clip0">
<rect width="16.9859" height="17" fill="white" transform="translate(0.625)"/>
</clipPath>
</defs>
</svg>
