<svg width="86" height="18" viewBox="0 0 86 18" fill="none" xmlns="http://www.w3.org/2000/svg">
<path d="M16.3405 0C11.3302 0 7.34473 4.04431 7.34473 9C7.34473 14.0126 11.3872 18 16.3405 18C21.2939 18 25.3364 13.9557 25.3364 9C25.3933 4.04431 21.2939 0 16.3405 0ZM16.3405 12.3607C14.5186 12.3607 12.9813 10.8228 12.9813 9C12.9813 7.17721 14.5186 5.63926 16.3405 5.63926C18.1625 5.63926 19.6997 7.17721 19.6997 9C19.6997 10.8228 18.2194 12.3607 16.3405 12.3607Z" fill="#8B3FFD"/>
<path d="M7.34469 2.62036V15.7216H4.09936L0 2.62036H7.34469Z" fill="#8B3FFD"/>
<path d="M83.2401 4.95581L81.2474 9.85455C81.1905 9.9115 81.1905 10.0254 81.1905 10.0824L81.1333 10.1963L81.0765 10.0824C81.0765 10.0254 81.0196 9.9115 81.0196 9.85455L79.0268 4.95581H76.4648L79.8239 13.3292L78.4007 16.5191H80.9627L85.6884 4.95581H83.2401Z" fill="black"/>
<path d="M64.337 5.41144C63.8815 5.06965 63.3122 4.84181 62.6289 4.78486C61.4904 4.67092 60.4088 5.06965 59.6686 5.81017V4.8988H57.334V13.2722H59.6686V8.88612C59.6686 7.91776 59.8391 7.63296 60.0101 7.40512C60.2947 6.94943 60.8071 6.72159 61.4336 6.72159C62.0597 6.72159 62.6289 7.00638 62.9139 7.46207C63.0845 7.80385 63.1413 8.25954 63.1413 8.48739C63.1413 9.22791 63.1413 13.2722 63.1413 13.2722H65.4759V8.20259C65.4759 6.89244 65.0772 5.98107 64.337 5.41144Z" fill="black"/>
<path d="M52.8927 5.01264C51.7542 4.6139 50.5016 4.67089 49.3628 5.18353C48.6226 5.52531 47.9396 6.09491 47.5409 6.83543C47.1422 7.46201 46.9717 8.25948 46.9717 9.1139C46.9717 9.96833 47.1422 10.7658 47.5409 11.3924C47.9396 12.019 48.452 12.5886 49.135 12.9304C49.8183 13.2722 50.6153 13.5 51.3555 13.5C51.7542 13.5 52.1526 13.443 52.5512 13.3291C52.8927 13.2152 53.2346 13.1013 53.576 12.9304C54.2594 12.5316 54.8286 12.019 55.1705 11.3924C55.5688 10.7658 55.7397 9.96833 55.7397 9.1139C55.7966 7.23416 54.7149 5.63922 52.8927 5.01264ZM53.576 9.22784C53.5192 9.96833 53.2914 10.5949 52.8359 10.9936C52.4944 11.2785 51.982 11.4494 51.3555 11.5063C50.7294 11.5063 50.2739 11.3354 49.8752 10.9936C49.42 10.5949 49.1922 9.96833 49.135 9.22784C49.0781 8.37342 49.42 7.68985 50.0461 7.23416C50.3876 7.00632 50.8431 6.83543 51.2987 6.83543C51.8111 6.83543 52.2098 7.00632 52.6081 7.23416C53.2914 7.6329 53.6329 8.37342 53.576 9.22784Z" fill="black"/>
<path d="M44.2955 5.41149C43.8399 5.06974 43.2707 4.8419 42.5874 4.78491C42.4736 4.78491 42.3027 4.78491 42.189 4.78491C41.2779 4.78491 40.4809 5.18365 39.7976 5.98112L39.6839 6.15201H39.4561C39.2852 5.86722 39.0574 5.63937 38.8296 5.46848C38.3741 5.1267 37.8048 4.89885 37.1215 4.8419C36.0398 4.72796 35.1858 5.06974 34.4457 5.86722V5.01279H32.1113V13.3862H34.4457V9.00012V8.88618C34.4457 7.9748 34.5596 7.74696 34.7303 7.46216C35.015 7.00644 35.5274 6.72164 36.0967 6.77859C36.6663 6.77859 37.1787 7.06342 37.4633 7.51911C37.6911 7.86086 37.6911 8.2596 37.6911 8.65833V13.3292H40.0253V8.82922C40.0253 7.9748 40.1391 7.69 40.31 7.40517C40.5946 6.94948 41.107 6.72164 41.6766 6.72164C42.2459 6.72164 42.7014 7.00644 42.986 7.46216C43.157 7.74696 43.2138 8.08874 43.2138 8.31658C43.2138 8.43049 43.2138 8.54443 43.2138 8.60138V13.2723H45.5481V8.14569C45.5481 7.69 45.4912 7.23428 45.3771 6.83554C45.1497 6.26595 44.8079 5.75328 44.2955 5.41149Z" fill="black"/>
<path d="M74.2437 10.766C73.9022 11.1078 73.1048 11.7344 72.0232 11.7913C71.1121 11.8483 70.4291 11.5635 69.9167 11.0508C69.6889 10.8229 69.518 10.4812 69.4043 10.1394H75.8378V10.0825C75.895 9.74067 75.9518 9.45588 75.9518 9.11409C75.9518 8.8293 75.895 8.43056 75.7809 7.91789C75.4963 6.94952 74.927 6.20904 74.1869 5.63941C73.3326 5.01283 72.5356 4.84194 72.3078 4.84194C70.6569 4.55714 68.7779 5.29763 67.8099 6.83562C67.1266 7.91789 67.1838 9.00015 67.1838 9.34194C67.1838 9.74067 67.2406 10.9938 68.2654 12.1331C69.4612 13.4432 71.1121 13.5002 71.6245 13.5571C73.9022 13.6141 75.4394 12.19 75.7809 11.9052L74.2437 10.766ZM70.2582 7.23435C70.5997 7.00651 70.9984 6.83562 71.5108 6.83562C72.0232 6.83562 72.4219 7.00651 72.8202 7.23435C73.1621 7.51915 73.4467 7.86093 73.6172 8.25967H69.518C69.5749 7.86093 69.8595 7.4622 70.2582 7.23435Z" fill="black"/>
</svg>
