<svg width="41" height="41" viewBox="0 0 41 41" fill="none" xmlns="http://www.w3.org/2000/svg">
<path d="M30.2262 20.3193L27.1084 23.1362L29.9235 26.252L33.0413 23.4351L30.2262 20.3193Z" fill="#0069AC"/>
<path d="M24.0123 22.854L19.8545 26.5967L23.599 30.7565L27.7568 27.0138L24.0123 22.854Z" fill="#0069AC"/>
<path d="M35.8492 19.3279L33.7725 21.1997L35.6443 23.2765L37.7211 21.4046L35.8492 19.3279Z" fill="#0069AC"/>
<path d="M24.6824 7.46883L21.5615 10.2781L24.3708 13.3989L27.4916 10.5897L24.6824 7.46883Z" fill="#0069AC"/>
<path d="M33.1898 13.1218L31.1172 14.9944L32.9916 17.069L35.0642 15.1964L33.1898 13.1218Z" fill="#0069AC"/>
<path d="M21.0612 15.6475L16.8994 19.3938L20.6439 23.5536L24.8057 19.8073L21.0612 15.6475Z" fill="#0069AC"/>
<path d="M18.0885 8.55874L13.9287 12.3032L17.6732 16.463L21.833 12.7185L18.0885 8.55874Z" fill="#0069AC"/>
<path d="M27.5496 13.7446L24.4365 16.5544L27.2518 19.6735L30.3648 16.8636L27.5496 13.7446Z" fill="#0069AC"/>
<path d="M30.5202 6.95309L28.4434 8.82495L30.3152 10.9017L32.392 9.02989L30.5202 6.95309Z" fill="#0069AC"/>
<path d="M32.9731 26.6244L29.8535 29.4353L32.6662 32.5568L35.7858 29.7459L32.9731 26.6244Z" fill="#0069AC"/>
<path d="M27.5009 30.1606L23.4349 33.9097L16.5702 26.2703L18.4794 24.5901L13.6732 19.2086L15.593 17.5257L10.7148 12.1496L18.3277 5.29566L20.7455 7.94245L24.8275 4.29979L27.2399 6.80012L28.8483 5.35956C28.4888 5.15187 28.1293 4.96015 27.7645 4.78707C25.4452 3.65273 22.8411 3.01367 20.0984 3.01367C10.4672 3.01367 2.60938 10.8688 2.60938 20.5027C2.60938 30.1339 10.4672 37.9891 20.0984 37.9891C23.2272 37.9891 26.1748 37.161 28.7178 35.7098C29.5565 35.2358 30.3208 34.7219 31.0184 34.1813L27.5009 30.1606Z" fill="#0069AC"/>
</svg>
