<svg width="45" height="45" viewBox="0 0 45 45" fill="none" xmlns="http://www.w3.org/2000/svg">
<g clip-path="url(#clip0)">
<path d="M5.97559 19.8115H11.5893V35.8725H5.97559V19.8115Z" fill="#E2DEE2"/>
<path d="M8.87305 19.8115H11.5893V35.8725H8.87305V19.8115Z" fill="#CBC4CC"/>
<path d="M11.8609 38.2544H5.70388C4.95382 38.2544 4.3457 37.6464 4.3457 36.8963C4.3457 36.1462 4.95373 35.5381 5.70388 35.5381H11.8608C12.6109 35.5381 13.219 36.1461 13.219 36.8963C13.219 37.6464 12.6109 38.2544 11.8609 38.2544Z" fill="#F3F0F3"/>
<path d="M11.8618 35.5381H9.14551C9.89556 35.5381 10.5037 36.1462 10.5037 36.8963C10.5037 37.6463 9.89565 38.2544 9.14551 38.2544H11.8618C12.6118 38.2544 13.2199 37.6464 13.2199 36.8963C13.2199 36.1461 12.6118 35.5381 11.8618 35.5381Z" fill="#E2DEE2"/>
<path d="M11.8609 20.2583H5.70388C4.95382 20.2583 4.3457 19.6503 4.3457 18.9002C4.3457 18.1501 4.95373 17.542 5.70388 17.542H11.8608C12.6109 17.542 13.219 18.15 13.219 18.9002C13.219 19.6503 12.6109 20.2583 11.8609 20.2583Z" fill="#F3F0F3"/>
<path d="M11.8618 17.5422H9.14551C9.89556 17.5422 10.5037 18.1504 10.5037 18.9004C10.5037 19.6505 9.89565 20.2586 9.14551 20.2586H11.8618C12.6118 20.2586 13.2199 19.6505 13.2199 18.9004C13.2198 18.1503 12.6118 17.5422 11.8618 17.5422Z" fill="#E2DEE2"/>
<path d="M33.4102 19.8115H39.0238V35.8725H33.4102V19.8115Z" fill="#E2DEE2"/>
<path d="M36.3086 19.8115H39.0249V35.8725H36.3086V19.8115Z" fill="#CBC4CC"/>
<path d="M39.2963 38.2544H33.1394C32.3894 38.2544 31.7812 37.6464 31.7812 36.8963C31.7812 36.1462 32.3893 35.5381 33.1394 35.5381H39.2963C40.0464 35.5381 40.6545 36.1461 40.6545 36.8963C40.6544 37.6464 40.0464 38.2544 39.2963 38.2544Z" fill="#F3F0F3"/>
<path d="M39.2954 35.5381H36.5791C37.3292 35.5381 37.9373 36.1462 37.9373 36.8963C37.9373 37.6463 37.3292 38.2544 36.5791 38.2544H39.2954C40.0454 38.2544 40.6535 37.6464 40.6535 36.8963C40.6535 36.1461 40.0454 35.5381 39.2954 35.5381Z" fill="#E2DEE2"/>
<path d="M39.2963 20.2583H33.1394C32.3894 20.2583 31.7812 19.6503 31.7812 18.9002C31.7812 18.1501 32.3893 17.542 33.1394 17.542H39.2963C40.0464 17.542 40.6545 18.15 40.6545 18.9002C40.6544 19.6503 40.0464 20.2583 39.2963 20.2583Z" fill="#F3F0F3"/>
<path d="M39.2954 17.5422H36.5791C37.3292 17.5422 37.9373 18.1504 37.9373 18.9004C37.9373 19.6505 37.3292 20.2586 36.5791 20.2586H39.2954C40.0454 20.2586 40.6535 19.6505 40.6535 18.9004C40.6535 18.1503 40.0454 17.5422 39.2954 17.5422Z" fill="#E2DEE2"/>
<path d="M19.6924 19.8115H25.306V35.8725H19.6924V19.8115Z" fill="#E2DEE2"/>
<path d="M22.5908 19.8115H25.3071V35.8725H22.5908V19.8115Z" fill="#CBC4CC"/>
<path d="M25.5776 38.2544H19.4207C18.6706 38.2544 18.0625 37.6464 18.0625 36.8963C18.0625 36.1462 18.6705 35.5381 19.4207 35.5381H25.5776C26.3276 35.5381 26.9358 36.1461 26.9358 36.8963C26.9358 37.6464 26.3276 38.2544 25.5776 38.2544Z" fill="#F3F0F3"/>
<path d="M25.5786 35.5381H22.8623C23.6124 35.5381 24.2205 36.1462 24.2205 36.8963C24.2205 37.6463 23.6125 38.2544 22.8623 38.2544H25.5786C26.3286 38.2544 26.9367 37.6464 26.9367 36.8963C26.9367 36.1461 26.3286 35.5381 25.5786 35.5381Z" fill="#E2DEE2"/>
<path d="M25.5776 20.2583H19.4207C18.6706 20.2583 18.0625 19.6503 18.0625 18.9002C18.0625 18.1501 18.6705 17.542 19.4207 17.542H25.5776C26.3276 17.542 26.9358 18.15 26.9358 18.9002C26.9358 19.6503 26.3276 20.2583 25.5776 20.2583Z" fill="#F3F0F3"/>
<path d="M25.5786 17.5422H22.8623C23.6124 17.5422 24.2205 18.1504 24.2205 18.9004C24.2205 19.6505 23.6125 20.2586 22.8623 20.2586H25.5786C26.3286 20.2586 26.9367 19.6505 26.9367 18.9004C26.9367 18.1503 26.3286 17.5422 25.5786 17.5422Z" fill="#E2DEE2"/>
<path d="M42.9637 42.2105H2.03809V38.7977C2.03809 38.3226 2.42322 37.9375 2.89827 37.9375H42.1035C42.5785 37.9375 42.9637 38.3226 42.9637 38.7977V42.2105Z" fill="#E2DEE2"/>
<path d="M42.103 37.9375H39.3867C39.8618 37.9375 40.2469 38.3226 40.2469 38.7977V42.2105H42.9632V38.7977C42.9632 38.3226 42.578 37.9375 42.103 37.9375Z" fill="#CBC4CC"/>
<path d="M44.7005 45H0.299531C0.134121 45 0 44.8659 0 44.7005V41.6951C0 41.2201 0.385137 40.835 0.860186 40.835H44.1399C44.615 40.835 45.0001 41.2201 45.0001 41.6951V44.7005C45 44.8659 44.8659 45 44.7005 45Z" fill="#F3F0F3"/>
<path d="M44.1401 40.835H41.4238C41.8989 40.835 42.284 41.2201 42.284 41.6951V44.9999H44.7008C44.8662 44.9999 45.0003 44.8658 45.0003 44.7004V41.6951C45.0002 41.22 44.6151 40.835 44.1401 40.835Z" fill="#E2DEE2"/>
<path d="M2.16494 17.7464H42.8353C43.9629 17.7464 44.4344 16.2348 43.5249 15.5354L23.9799 0.507964C23.099 -0.169321 21.9012 -0.169321 21.0204 0.507964L1.47535 15.5354C0.565765 16.2348 1.0373 17.7464 2.16494 17.7464Z" fill="#E2DEE2"/>
<path d="M7.34752 14.4463L22.301 2.94909C22.418 2.85909 22.5809 2.85909 22.6979 2.94909L37.6513 14.4463C37.8979 14.6358 37.7638 15.0301 37.4529 15.0301H7.54598C7.23502 15.0301 7.10099 14.6359 7.34752 14.4463Z" fill="#CBC4CC"/>
</g>
<defs>
<clipPath id="clip0">
<rect width="45" height="45" fill="white"/>
</clipPath>
</defs>
</svg>
