<svg width="45" height="45" viewBox="0 0 45 45" fill="none" xmlns="http://www.w3.org/2000/svg">
<g clip-path="url(#clip0)">
<path d="M43.0637 15.3779L28.4174 0.731585C27.442 -0.243862 25.8637 -0.243862 24.8883 0.731585L2.57812 23.0419H33.2326V25.4529H36.5179L43.0638 18.907C44.0392 17.9316 44.0392 16.3533 43.0637 15.3779Z" fill="#D5D6DB"/>
<path d="M17.9216 23.0418L34.3244 6.63898L31.3103 3.625L11.8936 23.0418H17.9216Z" fill="#2F4859"/>
<path d="M38.662 21.7916V42.5046C38.662 43.884 37.5461 45 36.1665 45H3.69956C2.32004 45 1.2041 43.884 1.2041 42.5046V21.7916C1.2041 20.4121 2.32004 19.2961 3.69956 19.2961H36.1665C37.5461 19.2961 38.662 20.4121 38.662 21.7916Z" fill="#2E9AE1"/>
<path d="M6.07165 38.4541H4.30468C3.73406 38.4541 3.27148 38.9167 3.27148 39.4873C3.27148 40.0579 3.73406 40.5205 4.30468 40.5205H6.07165C6.64227 40.5205 7.10485 40.0579 7.10485 39.4873C7.10485 38.9167 6.64227 38.4541 6.07165 38.4541Z" fill="#7AC9FD"/>
<path d="M11.9672 38.4541H10.2051C9.63445 38.4541 9.17188 38.9167 9.17188 39.4873C9.17188 40.0579 9.63445 40.5205 10.2051 40.5205H11.9672C12.5379 40.5205 13.0004 40.0579 13.0004 39.4873C13.0004 38.9167 12.5379 38.4541 11.9672 38.4541Z" fill="#7AC9FD"/>
<path d="M17.8666 38.4541H16.0996C15.529 38.4541 15.0664 38.9167 15.0664 39.4873C15.0664 40.0579 15.529 40.5205 16.0996 40.5205H17.8666C18.4372 40.5205 18.8998 40.0579 18.8998 39.4873C18.8998 38.9167 18.4372 38.4541 17.8666 38.4541Z" fill="#7AC9FD"/>
<path d="M23.767 38.4541H22C21.4294 38.4541 20.9668 38.9167 20.9668 39.4873C20.9668 40.0579 21.4294 40.5205 22 40.5205H23.767C24.3376 40.5205 24.8002 40.0579 24.8002 39.4873C24.8002 38.9167 24.3376 38.4541 23.767 38.4541Z" fill="#7AC9FD"/>
<path d="M29.6645 38.4541H27.9023C27.3317 38.4541 26.8691 38.9167 26.8691 39.4873C26.8691 40.0579 27.3317 40.5205 27.9023 40.5205H29.6645C30.2351 40.5205 30.6977 40.0579 30.6977 39.4873C30.6977 38.9167 30.2351 38.4541 29.6645 38.4541Z" fill="#7AC9FD"/>
<path d="M35.5599 38.4541H33.793C33.2223 38.4541 32.7598 38.9167 32.7598 39.4873C32.7598 40.0579 33.2223 40.5205 33.793 40.5205H35.5599C36.1306 40.5205 36.5931 40.0579 36.5931 39.4873C36.5931 38.9167 36.1306 38.4541 35.5599 38.4541Z" fill="#7AC9FD"/>
<path d="M33.2209 35.5031C34.3714 35.5031 35.3041 34.5704 35.3041 33.4199C35.3041 32.2694 34.3714 31.3367 33.2209 31.3367C32.0704 31.3367 31.1377 32.2694 31.1377 33.4199C31.1377 34.5704 32.0704 35.5031 33.2209 35.5031Z" fill="#FCD462"/>
<path d="M30.2834 35.5031C31.4339 35.5031 32.3666 34.5704 32.3666 33.4199C32.3666 32.2694 31.4339 31.3367 30.2834 31.3367C29.1329 31.3367 28.2002 32.2694 28.2002 33.4199C28.2002 34.5704 29.1329 35.5031 30.2834 35.5031Z" fill="#E56353"/>
<path d="M7.7297 26.941L8.76021 27.2677C8.60223 27.8423 8.33951 28.2689 7.97205 28.5478C7.60458 28.8267 7.13843 28.9661 6.5734 28.9661C5.87442 28.9661 5.29987 28.7273 4.84986 28.2497C4.39986 27.7721 4.1748 27.1193 4.1748 26.2909C4.1748 25.4147 4.40101 24.7343 4.85342 24.2496C5.30583 23.7649 5.90074 23.5225 6.63807 23.5225C7.282 23.5225 7.80504 23.7127 8.20728 24.0934C8.44665 24.3184 8.62625 24.6416 8.74589 25.0628L7.69376 25.3142C7.63149 25.0413 7.50167 24.8259 7.30419 24.6679C7.10672 24.5099 6.86668 24.4309 6.58426 24.4309C6.19402 24.4309 5.87749 24.5709 5.63447 24.8511C5.39145 25.1312 5.26999 25.5847 5.26999 26.2119C5.26999 26.8774 5.38972 27.3514 5.62909 27.6339C5.86846 27.9165 6.17971 28.0576 6.56274 28.0576C6.84525 28.0576 7.08818 27.9679 7.2917 27.7883C7.49523 27.6087 7.6411 27.3264 7.7297 26.941Z" fill="#EBF0F3"/>
<path d="M14.4197 28.8764H13.2635L12.8039 27.6807H10.6997L10.2653 28.8764H9.1377L11.188 23.6123H12.312L14.4197 28.8764ZM12.4627 26.7938L11.7374 24.8404L11.0264 26.7938H12.4627Z" fill="#EBF0F3"/>
<path d="M14.9873 28.8764V23.6123H17.2244C17.7869 23.6123 18.1957 23.6596 18.4506 23.7541C18.7056 23.8487 18.9097 24.0169 19.0628 24.2586C19.216 24.5004 19.2927 24.7769 19.2927 25.0881C19.2927 25.483 19.1766 25.8093 18.9443 26.0666C18.7122 26.324 18.365 26.4862 17.903 26.5531C18.1328 26.6872 18.3225 26.8344 18.4721 26.9948C18.6218 27.1552 18.8235 27.4401 19.0771 27.8493L19.7199 28.8763H18.4488L17.6803 27.7309C17.4074 27.3215 17.2207 27.0636 17.1202 26.957C17.0197 26.8505 16.9131 26.7775 16.8006 26.738C16.6881 26.6985 16.5097 26.6787 16.2655 26.6787H16.0501V28.8763H14.9873V28.8764ZM16.0502 25.8386H16.8365C17.3464 25.8386 17.6648 25.8171 17.7917 25.7739C17.9185 25.7309 18.0179 25.6566 18.0898 25.5513C18.1616 25.446 18.1975 25.3143 18.1975 25.1563C18.1975 24.9792 18.1502 24.8361 18.0557 24.7273C17.9611 24.6184 17.8276 24.5495 17.6553 24.5208C17.5691 24.5088 17.3107 24.5028 16.8798 24.5028H16.0503V25.8386H16.0502Z" fill="#EBF0F3"/>
<path d="M20.29 23.6123H22.2327C22.6708 23.6123 23.0047 23.6458 23.2345 23.7128C23.5434 23.8038 23.8078 23.9654 24.0281 24.1976C24.2483 24.4298 24.4159 24.7141 24.5307 25.0504C24.6457 25.3868 24.7031 25.8015 24.7031 26.2947C24.7031 26.7279 24.6493 27.1014 24.5415 27.415C24.4099 27.798 24.2219 28.108 23.9777 28.345C23.7934 28.5245 23.5444 28.6646 23.2309 28.7651C22.9963 28.8393 22.6827 28.8764 22.2901 28.8764H20.29V23.6123ZM21.3529 24.5028V27.9894H22.1465C22.4433 27.9894 22.6576 27.9727 22.7892 27.9392C22.9616 27.8961 23.1046 27.8231 23.2183 27.7202C23.332 27.6173 23.4248 27.4479 23.4966 27.2122C23.5684 26.9764 23.6043 26.655 23.6043 26.248C23.6043 25.8411 23.5684 25.5287 23.4966 25.3108C23.4248 25.093 23.3242 24.923 23.1949 24.801C23.0657 24.6789 22.9017 24.5963 22.703 24.5532C22.5546 24.5197 22.2638 24.503 21.8305 24.503H21.3529V24.5028Z" fill="#EBF0F3"/>
</g>
<defs>
<clipPath id="clip0">
<rect width="45" height="45" fill="white"/>
</clipPath>
</defs>
</svg>
