<svg width="40" height="40" viewBox="0 0 40 40" fill="none" xmlns="http://www.w3.org/2000/svg">
<g clip-path="url(#clip0)">
<path d="M32.8574 31.3455L28.5332 30.0149C27.7143 29.763 27.1555 29.0064 27.1555 28.1496V25.037C27.1555 24.6777 26.8643 24.3865 26.505 24.3865H13.4936C13.1343 24.3865 12.8431 24.6777 12.8431 25.037V28.1495C12.8431 29.0063 12.2843 29.763 11.4654 30.0149L7.14121 31.3455C5.5034 31.8494 4.38574 33.3626 4.38574 35.0762V38.0484C4.38574 39.1262 5.25957 40.0001 6.33746 40.0001H33.6612C34.7391 40.0001 35.6129 39.1262 35.6129 38.0484V35.0762C35.6129 33.3626 34.4952 31.8494 32.8574 31.3455Z" fill="#96C77C"/>
<path d="M11.5303 29.9892C12.5404 32.7566 15.9443 34.7955 19.9997 34.7955C24.0552 34.7955 27.4591 32.7566 28.4692 29.9892C27.6868 29.7176 27.156 28.9829 27.156 28.1496V25.037C27.156 24.6777 26.8647 24.3865 26.5054 24.3865H13.4941C13.1348 24.3865 12.8436 24.6777 12.8436 25.037V28.1495C12.8435 28.9829 12.3127 29.7175 11.5303 29.9892Z" fill="#ADD597"/>
<path d="M26.5055 24.3865H13.4942C13.3051 24.3865 13.1384 24.47 13.0195 24.5988C14.5445 26.8251 17.1036 28.2899 19.9999 28.2899C22.8962 28.2899 25.4554 26.8251 26.9803 24.5988C26.8613 24.47 26.6946 24.3865 26.5055 24.3865Z" fill="#5E9B3D"/>
<path d="M28.7825 13.3267H28.4572V6.82104H11.5425V13.3267H11.2172C10.3227 13.3267 9.59082 14.0585 9.59082 14.9531C9.59082 15.8476 10.3227 16.5795 11.2172 16.5795H11.5754C11.9086 20.9453 15.5486 24.3863 19.9998 24.3863C24.451 24.3863 28.0911 20.9453 28.4243 16.5795H28.7824C29.6769 16.5795 30.4088 15.8476 30.4088 14.9531C30.4088 14.0585 29.6771 13.3267 28.7825 13.3267Z" fill="#F5B97D"/>
<path d="M16.0968 15.3349C15.7372 15.3349 15.4463 15.0436 15.4463 14.6844V14.0338C15.4463 13.6746 15.7372 13.3833 16.0968 13.3833C16.4564 13.3833 16.7474 13.6746 16.7474 14.0338V14.6844C16.7475 15.0437 16.4564 15.3349 16.0968 15.3349Z" fill="#5A4650"/>
<path d="M23.9035 15.3349C23.5439 15.3349 23.2529 15.0436 23.2529 14.6844V14.0338C23.2529 13.6746 23.5439 13.3833 23.9035 13.3833C24.2631 13.3833 24.554 13.6746 24.554 14.0338V14.6844C24.554 15.0437 24.263 15.3349 23.9035 15.3349Z" fill="#5A4650"/>
<path d="M16.7475 12.6763H15.4464C15.0868 12.6763 14.7959 12.385 14.7959 12.0258C14.7959 11.6665 15.0868 11.3752 15.4464 11.3752H16.7475C17.1071 11.3752 17.3981 11.6666 17.3981 12.0258C17.3981 12.385 17.1071 12.6763 16.7475 12.6763Z" fill="#6E5A64"/>
<path d="M24.5542 12.6763H23.2531C22.8935 12.6763 22.6025 12.385 22.6025 12.0258C22.6025 11.6665 22.8935 11.3752 23.2531 11.3752H24.5542C24.9138 11.3752 25.2047 11.6666 25.2047 12.0258C25.2047 12.385 24.9137 12.6763 24.5542 12.6763Z" fill="#6E5A64"/>
<path d="M25.2044 7.47167V6.82104H11.5425V13.3267H11.2743C10.5336 13.3267 9.84181 13.796 9.64993 14.5114C9.3597 15.5934 10.1789 16.5795 11.2173 16.5795H11.5754C11.9086 20.9453 15.5487 24.3863 19.9999 24.3863C20.4449 24.3863 20.8788 24.3429 21.3051 24.2767C17.2516 23.6511 14.1448 20.1576 14.1448 15.9289V12.0255C14.1448 10.229 15.6011 8.77269 17.3976 8.77269H23.9032C24.6219 8.77276 25.2044 8.19026 25.2044 7.47167Z" fill="#E3AA75"/>
<path d="M15.4467 1.10474C12.2493 1.76653 9.94785 4.76528 10.3051 8.15271L10.8548 13.365L11.5259 13.3518C12.2344 13.3379 12.8014 12.7596 12.8014 12.051V9.42341C12.8014 8.34552 13.6753 7.47169 14.7532 7.47169H21.9524L15.4467 1.10474Z" fill="#5A4650"/>
<path d="M25.2045 17.2302H14.7955C13.7176 17.2302 12.8438 18.1041 12.8438 19.1819V19.8325C12.8438 23.7847 16.0477 26.9887 20 26.9887C23.9523 26.9887 27.1562 23.7847 27.1562 19.8325V19.1819C27.1562 18.1041 26.2824 17.2302 25.2045 17.2302Z" fill="#84737B"/>
<path d="M19.9998 21.1336C19.0239 21.1336 18.123 20.8204 17.5912 20.2956C17.3352 20.0434 17.3327 19.6314 17.5849 19.3757C17.8371 19.1197 18.2501 19.1171 18.5048 19.3693C18.7215 19.5831 19.243 19.8325 19.9998 19.8325C20.7565 19.8325 21.278 19.5831 21.4947 19.3693C21.7494 19.1172 22.1624 19.1197 22.4146 19.3757C22.6668 19.6314 22.6643 20.0434 22.4083 20.2956C21.8765 20.8204 20.9756 21.1336 19.9998 21.1336Z" fill="#E3AA75"/>
<path d="M16.0956 19.8325V19.1819C16.0956 18.1041 16.9694 17.2302 18.0473 17.2302H14.7945C13.7166 17.2302 12.8428 18.1041 12.8428 19.1819V19.8325C12.8428 23.7847 16.0468 26.9887 19.999 26.9887C20.5594 26.9887 21.1022 26.9178 21.6254 26.7959C18.4581 26.0586 16.0956 23.2244 16.0956 19.8325Z" fill="#6E5A64"/>
<path d="M29.1021 13.3651L29.6519 8.15277C30.057 4.31184 27.0456 0.966054 23.1833 0.966054H16.7465C15.0782 0.966054 13.1724 0.728398 12.0445 0.0498821C11.8059 -0.0936335 11.4979 0.0908977 11.499 0.369335C11.5064 2.28934 12.4101 7.47168 21.951 7.47168H25.2039C26.2817 7.47168 27.1556 8.34551 27.1556 9.4234V12.051C27.1556 12.7596 27.7226 13.3379 28.4311 13.3518L29.1021 13.3651Z" fill="#6E5A64"/>
</g>
<defs>
<clipPath id="clip0">
<rect width="40" height="40" fill="white"/>
</clipPath>
</defs>
</svg>
