<svg width="21" height="20" viewBox="0 0 21 20" fill="none" xmlns="http://www.w3.org/2000/svg">
    <g clip-path="url(#clip0)">
        <path d="M19.8721 3.60883L16.8055 0.542192C16.083 -0.180347 14.9134 -0.180464 14.1908 0.542192C13.6765 1.05661 2.36899 12.3641 2.15333 12.5797C2.06809 12.665 2.00782 12.7718 1.97911 12.8889L0.433677 19.1826C0.315083 19.6657 0.753443 20.0982 1.23176 19.9807C1.55836 19.9005 7.23637 18.5062 7.5254 18.4352C7.64243 18.4065 7.74938 18.3463 7.83458 18.261C8.06176 18.0338 19.3063 6.78926 19.8721 6.22348C20.5946 5.50094 20.5948 4.33145 19.8721 3.60883ZM1.97489 18.4394L2.03786 18.1831L2.23126 18.3765L1.97489 18.4394ZM3.72946 18.0086L2.40575 16.6849L2.98137 14.3408L6.07356 17.433L3.72946 18.0086ZM7.36805 16.8615L3.5529 13.0463L13.4047 3.1945L17.2198 7.00965L7.36805 16.8615ZM18.9391 5.29044L18.177 6.05243L14.3619 2.23727L15.1239 1.47528C15.3307 1.26852 15.6656 1.26833 15.8725 1.47528L18.9391 4.54196C19.1459 4.74879 19.1459 5.08352 18.9391 5.29044Z" fill="#9B9B9B"></path>
    </g>
    <defs>
        <clipPath id="clip0">
            <rect width="20" height="20" fill="white" transform="translate(0.414062)"></rect>
        </clipPath>
    </defs>
</svg>
