<svg width="57" height="57" viewBox="0 0 57 57" fill="none" xmlns="http://www.w3.org/2000/svg">
<path d="M52.3784 43.1428H42.3649C42.1606 43.1428 41.9646 43.0616 41.8202 42.9172C41.6757 42.7727 41.5946 42.5768 41.5946 42.3725C41.5946 42.1682 41.6757 41.9723 41.8202 41.8279C41.9646 41.6834 42.1606 41.6022 42.3649 41.6022H52.3784C52.7869 41.6022 53.1788 41.4399 53.4677 41.151C53.7566 40.8621 53.9189 40.4703 53.9189 40.0617V20.805C53.9189 20.3964 53.7566 20.0045 53.4677 19.7156C53.1788 19.4267 52.7869 19.2644 52.3784 19.2644H4.62161C4.21303 19.2644 3.82119 19.4267 3.53228 19.7156C3.24337 20.0045 3.08107 20.3964 3.08107 20.805V40.0617C3.08107 40.4703 3.24337 40.8621 3.53228 41.151C3.82119 41.4399 4.21303 41.6022 4.62161 41.6022H14.6351C14.8394 41.6022 15.0353 41.6834 15.1798 41.8279C15.3242 41.9723 15.4054 42.1682 15.4054 42.3725C15.4054 42.5768 15.3242 42.7727 15.1798 42.9172C15.0353 43.0616 14.8394 43.1428 14.6351 43.1428H4.62161C3.80446 43.1428 3.02077 42.8182 2.44296 42.2404C1.86514 41.6625 1.54053 40.8789 1.54053 40.0617V20.805C1.54053 19.9878 1.86514 19.2041 2.44296 18.6263C3.02077 18.0485 3.80446 17.7239 4.62161 17.7239H52.3784C53.1955 17.7239 53.9792 18.0485 54.557 18.6263C55.1348 19.2041 55.4594 19.9878 55.4594 20.805V40.0617C55.4594 40.8789 55.1348 41.6625 54.557 42.2404C53.9792 42.8182 53.1955 43.1428 52.3784 43.1428Z" fill="black"/>
<path d="M42.3643 19.2645H14.6345C14.4302 19.2645 14.2343 19.1833 14.0899 19.0389C13.9454 18.8944 13.8643 18.6985 13.8643 18.4942V2.30311C13.8643 2.09882 13.9454 1.9029 14.0899 1.75844C14.2343 1.61399 14.4302 1.53284 14.6345 1.53284H42.3643C42.5685 1.53284 42.7645 1.61399 42.9089 1.75844C43.0534 1.9029 43.1345 2.09882 43.1345 2.30311V18.4942C43.1345 18.6985 43.0534 18.8944 42.9089 19.0389C42.7645 19.1833 42.5685 19.2645 42.3643 19.2645ZM15.4048 17.7239H41.594V3.07338H15.4048V17.7239Z" fill="black"/>
<path d="M47.5161 19.2645H42.3645C42.1602 19.2645 41.9643 19.1833 41.8198 19.0389C41.6754 18.8944 41.5942 18.6985 41.5942 18.4942V10.7915C41.5942 10.5872 41.6754 10.3913 41.8198 10.2468C41.9643 10.1024 42.1602 10.0212 42.3645 10.0212H45.3532C46.1308 10.0223 46.8763 10.3316 47.4261 10.8815C47.976 11.4313 48.2853 12.1768 48.2863 12.9544V18.4942C48.2863 18.6985 48.2052 18.8944 48.0607 19.0389C47.9163 19.1833 47.7204 19.2645 47.5161 19.2645ZM43.1348 17.7239H46.7458V12.9544C46.7454 12.5852 46.5985 12.2312 46.3375 11.9701C46.0764 11.709 45.7224 11.5622 45.3532 11.5618H43.1348V17.7239Z" fill="black"/>
<path d="M14.6352 19.2645H9.48365C9.27936 19.2645 9.08344 19.1833 8.93899 19.0389C8.79453 18.8944 8.71338 18.6985 8.71338 18.4942V12.9544C8.7144 12.1768 9.02376 11.4313 9.57362 10.8815C10.1235 10.3316 10.8689 10.0223 11.6466 10.0212H14.6352C14.8395 10.0212 15.0354 10.1024 15.1799 10.2468C15.3243 10.3913 15.4055 10.5872 15.4055 10.7915V18.4942C15.4055 18.6985 15.3243 18.8944 15.1799 19.0389C15.0354 19.1833 14.8395 19.2645 14.6352 19.2645ZM10.2539 17.7239H13.8649V11.5618H11.6466C11.2773 11.5622 10.9233 11.709 10.6623 11.9701C10.4012 12.2312 10.2543 12.5852 10.2539 12.9544V17.7239Z" fill="black"/>
<path d="M42.3643 55.4717H14.6345C14.4302 55.4717 14.2343 55.3906 14.0899 55.2461C13.9454 55.1017 13.8643 54.9057 13.8643 54.7014V36.2103C13.8643 36.006 13.9454 35.8101 14.0899 35.6657C14.2343 35.5212 14.4302 35.4401 14.6345 35.4401H42.3643C42.5685 35.4401 42.7645 35.5212 42.9089 35.6657C43.0534 35.8101 43.1345 36.006 43.1345 36.2103V54.7014C43.1345 54.9057 43.0534 55.1017 42.9089 55.2461C42.7645 55.3906 42.5685 55.4717 42.3643 55.4717ZM15.4048 53.9312H41.594V36.9806H15.4048V53.9312Z" fill="black"/>
<path d="M45.5785 36.9806H11.4216C11.2173 36.9806 11.0214 36.8995 10.877 36.755C10.7325 36.6106 10.6514 36.4146 10.6514 36.2103C10.6514 36.006 10.7325 35.8101 10.877 35.6657C11.0214 35.5212 11.2173 35.4401 11.4216 35.4401H45.5785C45.7828 35.4401 45.9787 35.5212 46.1232 35.6657C46.2676 35.8101 46.3488 36.006 46.3488 36.2103C46.3488 36.4146 46.2676 36.6106 46.1232 36.755C45.9787 36.8995 45.7828 36.9806 45.5785 36.9806Z" fill="black"/>
<path d="M36.973 41.7147H20.0271C19.8228 41.7147 19.6269 41.6336 19.4824 41.4891C19.338 41.3447 19.2568 41.1488 19.2568 40.9445C19.2568 40.7402 19.338 40.5443 19.4824 40.3998C19.6269 40.2554 19.8228 40.1742 20.0271 40.1742H36.973C37.1773 40.1742 37.3732 40.2554 37.5177 40.3998C37.6622 40.5443 37.7433 40.7402 37.7433 40.9445C37.7433 41.1488 37.6622 41.3447 37.5177 41.4891C37.3732 41.6336 37.1773 41.7147 36.973 41.7147Z" fill="black"/>
<path d="M36.973 46.2262H20.0271C19.8228 46.2262 19.6269 46.1451 19.4824 46.0006C19.338 45.8562 19.2568 45.6602 19.2568 45.4559C19.2568 45.2517 19.338 45.0557 19.4824 44.9113C19.6269 44.7668 19.8228 44.6857 20.0271 44.6857H36.973C37.1773 44.6857 37.3732 44.7668 37.5177 44.9113C37.6622 45.0557 37.7433 45.2517 37.7433 45.4559C37.7433 45.6602 37.6622 45.8562 37.5177 46.0006C37.3732 46.1451 37.1773 46.2262 36.973 46.2262Z" fill="black"/>
<path d="M36.973 50.7377H20.0271C19.8228 50.7377 19.6269 50.6565 19.4824 50.5121C19.338 50.3676 19.2568 50.1717 19.2568 49.9674C19.2568 49.7631 19.338 49.5672 19.4824 49.4228C19.6269 49.2783 19.8228 49.1971 20.0271 49.1971H36.973C37.1773 49.1971 37.3732 49.2783 37.5177 49.4228C37.6622 49.5672 37.7433 49.7631 37.7433 49.9674C37.7433 50.1717 37.6622 50.3676 37.5177 50.5121C37.3732 50.6565 37.1773 50.7377 36.973 50.7377Z" fill="black"/>
</svg>
