<svg width="27" height="27" viewBox="0 0 27 27" fill="none" xmlns="http://www.w3.org/2000/svg">
<g clip-path="url(#clip0)">
<path d="M23.3145 11.9557V4.33712C23.3145 3.02254 22.1493 2.09636 20.8347 2.09636H18.833V0.483103C18.8688 0.254876 18.7128 0.0408876 18.4846 0.00508953C18.4416 -0.00165836 18.3979 -0.00165836 18.355 0.00508953H15.5167C15.1881 0.00508953 14.949 0.154458 14.949 0.483103V2.09642H8.37624V0.483103C8.37624 0.154458 7.98784 0.00508953 7.65919 0.00508953H4.82091C4.49226 0.00508953 4.19352 0.154458 4.19352 0.483103V2.09642H2.37108C1.0565 2.09642 0.0108643 3.0226 0.0108643 4.33718V21.6655C0.0108643 22.9801 1.05656 23.9063 2.37108 23.9063H12.3498C15.179 27.4539 20.3484 28.0364 23.896 25.2072C25.8389 23.6579 26.9761 21.3123 26.9893 18.8273C26.9409 16.079 25.5733 13.5218 23.3145 11.9557ZM16.1441 1.20009H17.6379V3.88896H16.1441V1.20009ZM5.38858 1.20009H7.18118V3.88896H5.38858V1.20009ZM1.20587 4.33712C1.20587 3.67983 1.71379 3.29142 2.37108 3.29142H4.19352V4.42673C4.20731 4.77259 4.47613 5.05417 4.82091 5.08402H7.65919C8.02278 5.06023 8.32094 4.78688 8.37624 4.42673V3.29148H14.9491V4.42679C14.9316 4.76258 15.1819 5.05251 15.5168 5.08407H18.355C18.6837 5.08407 18.8331 4.75543 18.8331 4.42679V3.29148H20.8348C21.4921 3.29148 22.1195 3.67989 22.1195 4.33718V8.07173H1.20587V4.33712ZM2.37108 22.7112C1.71379 22.7112 1.20587 22.3228 1.20587 21.6655V9.26673H22.1194V11.3282C21.0697 10.8802 19.9441 10.6369 18.8031 10.6112C14.2655 10.6167 10.5915 14.2995 10.597 18.8371C10.5986 20.1891 10.9339 21.5198 11.573 22.7112H2.37108V22.7112ZM18.7434 25.8183C14.8659 25.8348 11.7091 22.7048 11.6927 18.8272C11.6762 14.9497 14.8062 11.793 18.6837 11.7765C22.5613 11.76 25.718 14.8901 25.7345 18.7676C25.7345 18.7875 25.7345 18.8073 25.7345 18.8272C25.7345 22.6883 22.6044 25.8183 18.7434 25.8183Z" fill="#979797"/>
<path d="M21.5518 18.8272H18.833V15.2421C18.833 14.912 18.5655 14.6445 18.2355 14.6445C17.9055 14.6445 17.6379 14.912 17.6379 15.2421V19.4247C17.6968 19.7735 18.0013 20.0272 18.355 20.0223H21.5518C21.8818 20.0223 22.1493 19.7548 22.1493 19.4247C22.1493 19.0947 21.8818 18.8272 21.5518 18.8272Z" fill="#AEAEAE"/>
</g>
<defs>
<clipPath id="clip0">
<rect width="27" height="27" fill="white"/>
</clipPath>
</defs>
</svg>
