<svg width="50" height="54" viewBox="0 0 50 54" fill="none" xmlns="http://www.w3.org/2000/svg">
<path d="M11.4587 33.7612L5.14086 32.9814C4.40792 32.5499 4.20465 31.5361 4.68702 30.7167L7.45326 26.0177C7.72155 25.562 8.16202 25.2422 8.64803 25.1495L21.4059 22.7235L11.4587 33.7612Z" fill="url(#paint0_linear)"/>
<path d="M25.398 42.1247L29.1826 47.1345C29.9155 47.566 30.9006 47.2517 31.383 46.4323L34.1492 41.7334C34.4175 41.2776 34.4833 40.7373 34.3282 40.2672L30.2588 27.9351L25.398 42.1247Z" fill="url(#paint1_linear)"/>
<path d="M24.8307 43.1734L10.7156 34.864L21.6812 16.2369C24.0807 12.161 28.0417 9.24257 32.6456 8.15946C34.7844 7.65593 36.9403 8.92509 37.5379 11.0395C38.825 15.5906 38.1957 20.4704 35.7962 24.5464L24.8307 43.1734Z" fill="url(#paint2_linear)"/>
<path d="M33.7989 27.9408L32.0347 21.1265C31.7876 19.9743 31.078 18.9251 29.9826 18.2803C27.9066 17.0581 25.2329 17.7503 24.0109 19.8261C23.3659 20.9217 23.2546 22.1835 23.598 23.311L27.5464 38.5619L33.7989 27.9408Z" fill="url(#paint3_linear)"/>
<path d="M29.9826 18.2803C27.9066 17.0581 25.2329 17.7503 24.0109 19.8261C22.7888 21.9021 23.481 24.5758 25.557 25.7979C27.6328 27.0199 30.3068 26.3279 31.5289 24.2518C32.7509 22.1761 32.0583 19.5022 29.9826 18.2803Z" fill="url(#paint4_linear)"/>
<path d="M26.2715 24.5826C27.6763 25.4096 29.4856 24.9412 30.3126 23.5364C31.1396 22.1316 30.6711 20.3222 29.2663 19.4952C27.8615 18.6682 26.0522 19.1367 25.2252 20.5415C24.3982 21.9463 24.8666 23.7556 26.2715 24.5826Z" fill="url(#paint5_linear)"/>
<path d="M28.8602 20.1858C27.8366 19.5832 26.5184 19.9245 25.916 20.9478C25.3134 21.9714 25.6547 23.2895 26.6783 23.8921C27.7016 24.4945 29.0201 24.1535 29.6227 23.1298C30.2251 22.1065 29.8835 20.7882 28.8602 20.1858Z" fill="url(#paint6_linear)"/>
<path d="M24.0217 28.4058C21.9456 27.1836 19.272 27.8758 18.05 29.9515C16.8279 32.0276 17.5201 34.7013 19.5961 35.9234C21.6718 37.1454 24.3458 36.4533 25.568 34.3773C26.7899 32.3016 26.0974 29.6277 24.0217 28.4058Z" fill="url(#paint7_linear)"/>
<path d="M24.7245 32.1746C24.7245 32.1746 24.0648 32.5158 23.86 32.4779C23.6553 32.44 22.8651 31.6518 22.7088 31.6692C22.5524 31.6867 22.7226 32.0912 22.5861 32.0609C22.2737 31.9977 22.1207 31.7628 22.0142 31.4843C21.9077 31.2059 21.7921 31.1326 21.677 31.1255C21.5618 31.1184 21.5443 31.6513 21.479 31.6969C21.4138 31.7425 21.2079 31.6177 21.1712 31.4051C21.1183 31.0986 21.0553 30.7107 20.9718 30.6879C20.8884 30.6652 20.8497 30.931 20.7056 30.9159C20.5615 30.9007 20.0775 30.5786 19.9865 30.5938C19.8956 30.6089 19.9322 30.7035 19.8108 30.7263C19.6895 30.749 19.1436 30.6656 19.1436 30.6656C19.1436 30.6656 19.6213 30.9462 19.8867 31.1813C20.1521 31.4163 21.2971 32.4627 21.934 32.6523C22.571 32.8419 23.1018 32.8722 23.3823 32.7964C23.6629 32.7206 24.6335 32.2656 24.6335 32.2656L24.7245 32.1746Z" fill="white"/>
<path d="M24.5085 32.5196C24.5085 32.5196 24.1418 32.8451 23.4431 33.1187C22.7445 33.3922 22.4384 33.3152 22.1381 33.4093C21.8379 33.5034 21.6757 33.7708 21.592 33.7032C21.5023 33.6307 21.7781 33.3306 21.6337 33.2027C21.4894 33.0748 20.7898 33.6135 20.6988 33.4694C20.6078 33.3253 20.9257 33.0732 20.7968 32.948C20.6679 32.8229 19.8792 32.9594 19.9209 32.7964C19.9627 32.6334 20.2675 32.7321 20.2205 32.531C20.1734 32.3299 19.5681 32.2841 19.6103 32.1147C19.6526 31.9453 19.7291 31.7087 19.6098 31.5158C19.4905 31.3229 19.273 31.0001 19.2764 30.9993C19.2764 30.9993 20.0916 31.5793 20.5693 31.9812C21.047 32.3831 21.4716 32.7547 21.9948 32.895C22.518 33.0352 23.1057 33.0618 23.4659 32.9632C23.8261 32.8646 24.5085 32.5196 24.5085 32.5196H24.5085Z" fill="white"/>
<path d="M37.5382 11.0396C36.9406 8.92517 34.7847 7.65601 32.6459 8.15954C30.1764 8.74077 27.8918 9.85019 25.9338 11.3829C27.509 12.8412 29.4243 14.2682 31.5925 15.5446C33.7603 16.8208 35.9375 17.803 37.9769 18.4726C38.3669 16.0168 38.2287 13.4811 37.5382 11.0396Z" fill="url(#paint8_linear)"/>
<path d="M9.82812 38.0984L11.4328 42.9204C11.2092 43.3003 11.2994 43.7681 11.6342 43.9652L16.0266 46.5242C16.3616 46.7215 16.8144 46.5734 17.0381 46.1935L22.2763 45.4265L9.82812 38.0984Z" fill="url(#paint9_linear)"/>
<path d="M11.3486 33.79L9.40515 37.0914C9.18148 37.4713 9.30812 37.9605 9.68775 38.184L22.4275 45.6837C22.8074 45.9074 23.2966 45.7808 23.5202 45.4008L25.4637 42.0995L11.3486 33.79Z" fill="url(#paint10_linear)"/>
<defs>
<linearGradient id="paint0_linear" x1="3.47532" y1="24.8908" x2="18.8085" y2="26.158" gradientUnits="userSpaceOnUse">
<stop stop-color="#49FF5B"/>
<stop offset="1" stop-color="#329305"/>
</linearGradient>
<linearGradient id="paint1_linear" x1="34.0041" y1="38.0053" x2="22.6538" y2="36.9337" gradientUnits="userSpaceOnUse">
<stop stop-color="#49FF5B"/>
<stop offset="1" stop-color="#329305"/>
</linearGradient>
<linearGradient id="paint2_linear" x1="18.0529" y1="18.7152" x2="38.8928" y2="30.9834" gradientUnits="userSpaceOnUse">
<stop stop-color="#FFFCF8"/>
<stop offset="0.1875" stop-color="#FAF8F6"/>
<stop offset="0.4041" stop-color="#ECEEF2"/>
<stop offset="0.6353" stop-color="#D5DCEA"/>
<stop offset="0.875" stop-color="#B5C4DF"/>
<stop offset="1" stop-color="#A1B5D8"/>
</linearGradient>
<linearGradient id="paint3_linear" x1="30.8915" y1="34.0964" x2="25.1618" y2="11.9656" gradientUnits="userSpaceOnUse">
<stop stop-color="#A1B5D8" stop-opacity="0"/>
<stop offset="0.3862" stop-color="#8C9DB6" stop-opacity="0.384314"/>
<stop offset="0.7742" stop-color="#7A899A" stop-opacity="0.772549"/>
<stop offset="1" stop-color="#748290"/>
</linearGradient>
<linearGradient id="paint4_linear" x1="26.2133" y1="16.0271" x2="28.3998" y2="24.4724" gradientUnits="userSpaceOnUse">
<stop stop-color="#E0E0E0"/>
<stop offset="0.2378" stop-color="#F1F1F1"/>
<stop offset="0.5353" stop-color="#E0E0E0"/>
<stop offset="0.8632" stop-color="#F7F7F7"/>
<stop offset="1" stop-color="#DCDCDC"/>
</linearGradient>
<linearGradient id="paint5_linear" x1="28.822" y1="26.1073" x2="27.3425" y2="20.3923" gradientUnits="userSpaceOnUse">
<stop stop-color="#C5C5C5"/>
<stop offset="1" stop-color="#D0D0D0"/>
</linearGradient>
<linearGradient id="paint6_linear" x1="27.0018" y1="19.0748" x2="28.0798" y2="23.2386" gradientUnits="userSpaceOnUse">
<stop stop-color="#445EA0"/>
<stop offset="0.3216" stop-color="#7C98E0"/>
<stop offset="0.6926" stop-color="#516DBB"/>
<stop offset="1" stop-color="#2A3D7C"/>
</linearGradient>
<linearGradient id="paint7_linear" x1="20.2524" y1="26.1526" x2="22.4389" y2="34.5979" gradientUnits="userSpaceOnUse">
<stop stop-color="#83EC72"/>
<stop offset="1" stop-color="#51DB6F"/>
</linearGradient>
<linearGradient id="paint8_linear" x1="25.057" y1="7.03353" x2="40.7184" y2="16.2533" gradientUnits="userSpaceOnUse">
<stop stop-color="#F9F9F9"/>
<stop offset="0.65625" stop-color="#D1D1D1"/>
<stop offset="1" stop-color="#B7B7B7"/>
</linearGradient>
<linearGradient id="paint9_linear" x1="6.13959" y1="38.3287" x2="22.3278" y2="47.8586" gradientUnits="userSpaceOnUse">
<stop stop-color="#F9F9F9"/>
<stop offset="0.65625" stop-color="#D1D1D1"/>
<stop offset="1" stop-color="#B7B7B7"/>
</linearGradient>
<linearGradient id="paint10_linear" x1="9.93837" y1="36.0423" x2="25.3983" y2="44.5326" gradientUnits="userSpaceOnUse">
<stop stop-color="#3DCB3E"/>
<stop offset="0.625" stop-color="#89F38A"/>
<stop offset="1" stop-color="#3DCB3E"/>
</linearGradient>
</defs>
</svg>
