<svg width="34" height="28" viewBox="0 0 34 28" fill="none" xmlns="http://www.w3.org/2000/svg">
    <path fill-rule="evenodd" clip-rule="evenodd" d="M5 15H2C1.44772 15 1 15.4477 1 16V26C1 26.5523 1.44772 27 2 27H5C5.55228 27 6 26.5523 6 26V16C6 15.4477 5.55228 15 5 15ZM2 14C0.895431 14 0 14.8954 0 16V26C0 27.1046 0.89543 28 2 28H5C6.10457 28 7 27.1046 7 26V16C7 14.8954 6.10457 14 5 14H2Z" fill="#979797"></path>
    <path fill-rule="evenodd" clip-rule="evenodd" d="M14 9H11C10.4477 9 10 9.44772 10 10V26C10 26.5523 10.4477 27 11 27H14C14.5523 27 15 26.5523 15 26V10C15 9.44772 14.5523 9 14 9ZM11 8C9.89543 8 9 8.89543 9 10V26C9 27.1046 9.89543 28 11 28H14C15.1046 28 16 27.1046 16 26V10C16 8.89543 15.1046 8 14 8H11Z" fill="#979797"></path>
    <path fill-rule="evenodd" clip-rule="evenodd" d="M23 1H20C19.4477 1 19 1.44772 19 2V26C19 26.5523 19.4477 27 20 27H23C23.5523 27 24 26.5523 24 26V2C24 1.44772 23.5523 1 23 1ZM20 0C18.8954 0 18 0.895431 18 2V26C18 27.1046 18.8954 28 20 28H23C24.1046 28 25 27.1046 25 26V2C25 0.895431 24.1046 0 23 0H20Z" fill="#979797"></path>
    <path fill-rule="evenodd" clip-rule="evenodd" d="M32 15H29C28.4477 15 28 15.4477 28 16V26C28 26.5523 28.4477 27 29 27H32C32.5523 27 33 26.5523 33 26V16C33 15.4477 32.5523 15 32 15ZM29 14C27.8954 14 27 14.8954 27 16V26C27 27.1046 27.8954 28 29 28H32C33.1046 28 34 27.1046 34 26V16C34 14.8954 33.1046 14 32 14H29Z" fill="#979797"></path>
</svg>
