<svg width="13" height="14" viewBox="0 0 13 14" fill="none" xmlns="http://www.w3.org/2000/svg">
<g clip-path="url(#clip0)">
<path d="M11.3987 11.9264C11.3987 11.524 11.073 11.1983 10.6705 11.1983H2.32822C1.92573 11.1983 1.60004 11.524 1.60004 11.9264C1.60004 12.3289 1.92573 12.6546 2.32822 12.6546H10.6705C11.073 12.6546 11.3987 12.3276 11.3987 11.9264Z" fill="white"/>
<path d="M0.865906 6.03204C0.877822 6.03204 0.888413 6.03204 0.900329 6.03072L2.05482 10.2091H6.50069H10.9452L12.0997 6.03072C12.1116 6.03072 12.1222 6.03204 12.1342 6.03204C12.6121 6.03204 13 5.64412 13 5.16617C13 4.68822 12.6121 4.3003 12.1342 4.3003C11.6562 4.3003 11.2683 4.68822 11.2683 5.16617C11.2683 5.25885 11.2829 5.34888 11.3106 5.43229L9.22276 6.65298L6.97864 2.93265C7.21167 2.77774 7.36657 2.51163 7.36657 2.21109C7.36657 1.73314 6.97864 1.34521 6.5007 1.34521C6.02277 1.34521 5.63483 1.73314 5.63483 2.21109C5.63483 2.51295 5.78842 2.77774 6.02277 2.93265L3.77865 6.65298L1.69076 5.43229C1.71724 5.34888 1.73313 5.25885 1.73313 5.16617C1.73313 4.68822 1.34521 4.3003 0.867256 4.3003C0.387982 4.3003 6.10352e-05 4.68822 6.10352e-05 5.16617C6.10352e-05 5.64412 0.387956 6.03204 0.865906 6.03204Z" fill="white"/>
</g>
<defs>
<clipPath id="clip0">
<rect width="13" height="13" fill="white" transform="translate(0 0.5)"/>
</clipPath>
</defs>
</svg>
