<svg width="40" height="38" viewBox="0 0 40 38" fill="none" xmlns="http://www.w3.org/2000/svg">
<path fill-rule="evenodd" clip-rule="evenodd" d="M5.20216 13.5864C5.28363 13.3228 5.33252 13.0383 5.33252 12.7454C5.33252 11.6896 4.74919 10.7727 3.89569 10.3166C3.52829 10.1202 3.11084 10.0092 2.6683 10.0092C1.1936 10.0092 0 11.2351 0 12.7454C0 12.9371 0.0192206 13.1242 0.055789 13.3048C0.307383 14.5472 1.38015 15.4817 2.66414 15.4817C2.7008 15.4817 2.73339 15.4817 2.77006 15.4775L5.24467 30.9454C5.86558 34.8265 9.2138 37.6816 13.1442 37.6816H26.8556C30.786 37.6816 34.1343 34.8265 34.7552 30.9454L37.2298 15.4775C37.2481 15.4775 37.2654 15.4785 37.2827 15.4796C37.3 15.4806 37.3173 15.4817 37.3357 15.4817C38.6348 15.4817 39.7178 14.525 39.9527 13.2607C39.9837 13.0938 39.9999 12.9215 39.9999 12.7454C39.9999 11.2351 38.8063 10.0092 37.3357 10.0092C36.7838 10.0092 36.2708 10.1819 35.8454 10.4775C35.1373 10.9695 34.6715 11.8019 34.6715 12.7454C34.6715 13.0383 34.7163 13.3228 34.8018 13.5864L28.3776 17.4439L21.4726 5.68731C22.1896 5.1978 22.6662 4.35685 22.6662 3.40712C22.6662 3.01131 22.5842 2.63504 22.4368 2.29525C22.0216 1.33844 21.0872 0.670898 20.002 0.670898C18.9146 0.670898 17.9786 1.34119 17.5646 2.30117C17.4188 2.63941 17.3378 3.01361 17.3378 3.40712C17.3378 4.36104 17.8104 5.1978 18.5314 5.68731L11.6264 17.4439L5.20216 13.5864ZM20.002 13.0563L13.3809 24.3295L8.8108 21.5853L10.1819 30.1556C10.4147 31.611 11.6703 32.6816 13.1442 32.6816H26.8556C28.3295 32.6816 29.5851 31.611 29.8179 30.1556L31.1886 21.5881L26.6231 24.3295L20.002 13.0563ZM37.5842 10.4887L37.5773 10.4883L37.5842 10.4887Z" fill="url(#paint0_linear)"/>
<defs>
<linearGradient id="paint0_linear" x1="20" y1="0.670898" x2="20" y2="37.6816" gradientUnits="userSpaceOnUse">
<stop stop-color="#FE4E4E"/>
<stop offset="1" stop-color="#D31A68"/>
</linearGradient>
</defs>
</svg>
