<svg width="41" height="39" viewBox="0 0 41 39" fill="none" xmlns="http://www.w3.org/2000/svg">
<path fill-rule="evenodd" clip-rule="evenodd" d="M20.9902 7.98827L19.4578 10.8074C17.8397 13.7843 14.9653 15.8727 11.6341 16.4917L8.47938 17.0779L10.687 19.4065C13.0182 21.8654 14.1161 25.2444 13.6754 28.6039L13.2581 31.7853L16.1549 30.4053C19.2138 28.9481 22.7667 28.9481 25.8256 30.4053L28.7224 31.7853L28.3051 28.6039C27.8644 25.2444 28.9623 21.8654 31.2935 19.4065L33.5011 17.0779L30.3464 16.4917C27.0152 15.8727 24.1408 13.7843 22.5226 10.8074L20.9902 7.98827ZM25.3804 2.98619C23.4884 -0.494423 18.492 -0.49442 16.6001 2.9862L13.9701 7.82446C13.251 9.14752 11.9735 10.0757 10.4929 10.3508L5.07875 11.3569C1.18384 12.0807 -0.360132 16.8326 2.36548 19.7075L6.15425 23.7038C7.19032 24.7967 7.67828 26.2985 7.48243 27.7916L6.76624 33.2516C6.25101 37.1796 10.2932 40.1164 13.8697 38.4126L18.8412 36.0442C20.2007 35.3965 21.7798 35.3965 23.1393 36.0442L28.1108 38.4126C31.6873 40.1164 35.7295 37.1796 35.2142 33.2516L34.498 27.7916C34.3022 26.2985 34.7902 24.7967 35.8262 23.7038L39.615 19.7075C42.3406 16.8326 40.7966 12.0807 36.9017 11.3569L31.4876 10.3508C30.007 10.0757 28.7295 9.14752 28.0103 7.82446L25.3804 2.98619Z" fill="url(#paint0_linear)"/>
<defs>
<linearGradient id="paint0_linear" x1="20.9902" y1="0.375732" x2="20.9902" y2="38.9072" gradientUnits="userSpaceOnUse">
<stop stop-color="#FFCF52"/>
<stop offset="1" stop-color="#FFA36F"/>
</linearGradient>
</defs>
</svg>
