<svg width="13" height="14" viewBox="0 0 13 14" fill="none" xmlns="http://www.w3.org/2000/svg">
<g clip-path="url(#clip0)">
<path fill-rule="evenodd" clip-rule="evenodd" d="M6.5 3.47383L6.00197 4.39005C5.47607 5.35754 4.54189 6.03626 3.45925 6.23745L2.43397 6.42797L3.15145 7.18475C3.90907 7.98389 4.2659 9.08208 4.12268 10.1739L3.98706 11.2079L4.92851 10.7594C5.92265 10.2858 7.07735 10.2858 8.07149 10.7594L9.01294 11.2079L8.87732 10.1739C8.7341 9.08208 9.09093 7.98388 9.84855 7.18475L10.566 6.42797L9.54075 6.23745C8.4581 6.03626 7.52393 5.35754 6.99803 4.39005L6.5 3.47383ZM7.9268 1.84816C7.31192 0.716955 5.68808 0.716956 5.0732 1.84816L4.21847 3.42059C3.98474 3.85059 3.56955 4.15224 3.08837 4.24166L1.32877 4.56864C0.0629223 4.80387 -0.438869 6.34823 0.446956 7.28258L1.6783 8.58139C2.01503 8.93656 2.17362 9.42464 2.10996 9.9099L1.8772 11.6844C1.70975 12.961 3.02346 13.9155 4.18581 13.3617L5.80156 12.592C6.2434 12.3815 6.7566 12.3815 7.19844 12.592L8.81419 13.3617C9.97654 13.9155 11.2902 12.961 11.1228 11.6844L10.89 9.9099C10.8264 9.42464 10.985 8.93656 11.3217 8.58139L12.553 7.28258C13.4389 6.34823 12.9371 4.80387 11.6712 4.56864L9.91163 4.24166C9.43045 4.15224 9.01526 3.85059 8.78153 3.42059L7.9268 1.84816Z" fill="white"/>
</g>
<defs>
<clipPath id="clip0">
<rect width="13" height="13" fill="white" transform="translate(0 0.5)"/>
</clipPath>
</defs>
</svg>
