<svg width="45" height="45" viewBox="0 0 45 45" fill="none" xmlns="http://www.w3.org/2000/svg">
<g clip-path="url(#clip0_1601_999)">
<path d="M44.5989 30.5633C44.4779 30.3608 43.7298 28.7351 40.1295 25.3936C36.3605 21.8946 36.8667 22.4627 41.4065 16.4126C44.1713 12.7279 45.2767 10.4778 44.9308 9.51583C44.6017 8.59889 42.5681 8.84078 42.5681 8.84078L35.8064 8.88016C35.8064 8.88016 35.3057 8.81265 34.9316 9.03486C34.5688 9.25425 34.3353 9.76054 34.3353 9.76054C34.3353 9.76054 33.2637 12.6126 31.8348 15.0372C28.8224 20.1535 27.6158 20.4235 27.1235 20.1057C25.9788 19.3659 26.2657 17.1298 26.2657 15.5435C26.2657 10.5847 27.0166 8.51732 24.8002 7.9829C24.0633 7.8057 23.5233 7.68757 21.6416 7.66788C19.2283 7.64257 17.1834 7.67632 16.0274 8.24167C15.2567 8.61858 14.6632 9.45958 15.0261 9.50739C15.4733 9.56646 16.4859 9.78023 17.0231 10.5115C17.7178 11.4538 17.6925 13.5746 17.6925 13.5746C17.6925 13.5746 18.0919 19.4109 16.7615 20.1366C15.8474 20.6345 14.5957 19.6191 11.9096 14.9753C10.5342 12.5986 9.49348 9.96868 9.49348 9.96868C9.49348 9.96868 9.29378 9.47927 8.93657 9.21768C8.50341 8.89985 7.89587 8.79859 7.89587 8.79859L1.46602 8.83797C1.46602 8.83797 0.501259 8.8661 0.146858 9.28519C-0.168165 9.65928 0.121544 10.43 0.121544 10.43C0.121544 10.43 5.15629 22.2068 10.8548 28.1444C16.0837 33.587 22.0185 33.2298 22.0185 33.2298H24.7074C24.7074 33.2298 25.5203 33.1398 25.9338 32.6926C26.3163 32.2819 26.3022 31.5112 26.3022 31.5112C26.3022 31.5112 26.2488 27.9025 27.9252 27.3709C29.5762 26.8477 31.697 30.8587 33.9443 32.4028C35.6432 33.5701 36.9343 33.3142 36.9343 33.3142L42.945 33.2298C42.945 33.2298 46.0896 33.0357 44.5989 30.5633Z" fill="url(#paint0_linear_1601_999)"/>
</g>
<defs>
<linearGradient id="paint0_linear_1601_999" x1="22.5" y1="7.66202" x2="22.5" y2="33.3379" gradientUnits="userSpaceOnUse">
<stop stop-color="#2C80FF"/>
<stop offset="1" stop-color="#1665DC"/>
</linearGradient>
<clipPath id="clip0_1601_999">
<rect width="45" height="45" fill="white"/>
</clipPath>
</defs>
</svg>
