<svg width="20" height="20" viewBox="0 0 20 20" fill="none" xmlns="http://www.w3.org/2000/svg">
<path d="M10.0156 9.57422C12.5352 9.57422 14.5859 7.52344 14.5859 5.00391C14.5859 2.48438 12.5352 0.433594 10.0156 0.433594C7.49609 0.433594 5.44531 2.48438 5.44531 5.00391C5.44531 7.52344 7.49219 9.57422 10.0156 9.57422ZM10.0156 2.02344C11.6562 2.02344 12.9922 3.35938 12.9922 5C12.9922 6.64062 11.6562 7.97656 10.0156 7.97656C8.375 7.97656 7.03906 6.64062 7.03906 5C7.03906 3.35938 8.375 2.02344 10.0156 2.02344Z" fill="white"/>
<path d="M14.3789 9.79308C14.0625 9.62121 13.6758 9.68371 13.4258 9.94152L10 13.4884L6.57422 9.94152C6.32422 9.68371 5.9336 9.62512 5.6211 9.79699C2.46485 11.5157 0.425787 15.0392 0.429693 18.7735C0.429693 19.2149 0.785162 19.5704 1.22657 19.5704H18.7734C19.4531 19.5314 19.5703 18.9845 19.5703 18.7735C19.5703 15.0275 17.5313 11.504 14.3789 9.79308ZM2.0586 17.9767C2.29688 15.3282 3.72266 12.8985 5.86329 11.504L9.42188 15.1876C9.72266 15.5001 10.2695 15.5001 10.5703 15.1876L14.1328 11.504C16.2695 12.8907 17.6953 15.3243 17.9375 17.9767H2.0586Z" fill="white"/>
</svg>
