<svg width="20" height="20" viewBox="0 0 20 20" fill="none" xmlns="http://www.w3.org/2000/svg">
<path d="M10 5C10.4315 5 10.7812 4.65022 10.7812 4.21875C10.7812 3.78728 10.4315 3.4375 10 3.4375C9.56853 3.4375 9.21875 3.78728 9.21875 4.21875C9.21875 4.65022 9.56853 5 10 5Z" fill="white"/>
<path d="M19.2188 18.3594H0.78125C0.349766 18.3594 0 18.7091 0 19.1406C0 19.5721 0.349766 19.9219 0.78125 19.9219H19.2188C19.6502 19.9219 20 19.5721 20 19.1406C20 18.7091 19.6502 18.3594 19.2188 18.3594Z" fill="white"/>
<path d="M20 4.96097C20 4.6521 19.818 4.37226 19.5357 4.2469L10.2975 0.145342C10.0952 0.0554984 9.86438 0.0557718 9.6623 0.14585L0.463086 4.24741C0.181445 4.373 0 4.65257 0 4.96097V7.03128C0 7.03788 0.000820313 7.04425 0.000976562 7.05081C0.000820313 7.05737 0 7.06374 0 7.07034C0 7.50183 0.349766 7.85159 0.78125 7.85159C1.23996 7.85159 1.44531 8.24397 1.44531 8.63284V15.9186C1.44531 15.935 1.4468 15.951 1.44777 15.9671C1.44676 15.9833 1.44531 15.9993 1.44531 16.0157C1.44531 16.4471 1.79508 16.7969 2.22656 16.7969H17.8516C18.283 16.7969 18.6328 16.4471 18.6328 16.0157C18.6328 15.5842 18.283 15.2344 17.8516 15.2344H15.5078V8.63284C15.5078 8.20206 15.8583 7.85159 16.2891 7.85159C16.7198 7.85159 17.0703 8.20206 17.0703 8.63284V12.0905C17.0703 12.522 17.4201 12.8718 17.8516 12.8718C18.283 12.8718 18.6328 12.522 18.6328 12.0905V8.63284C18.6328 8.44956 18.6751 7.85159 19.2188 7.85159C19.6502 7.85159 20 7.50183 20 7.07034C20 7.06374 19.9992 7.05737 19.999 7.05081C19.9992 7.04425 20 7.03788 20 7.03128V4.96097ZM4.57031 15.2344H3.00781V8.63284C3.00781 8.20206 3.35828 7.85159 3.78906 7.85159C4.21984 7.85159 4.57031 8.20206 4.57031 8.63284V15.2344ZM7.69531 15.2344H6.13281V8.63284C6.13281 8.20206 6.48328 7.85159 6.91406 7.85159C7.34484 7.85159 7.69531 8.20206 7.69531 8.63284V15.2344ZM10.8203 15.2344H9.25781V8.63284C9.25781 8.20206 9.60828 7.85159 10.0391 7.85159C10.4698 7.85159 10.8203 8.20206 10.8203 8.63284V15.2344ZM13.9453 15.2344H12.3828V8.63284C12.3828 8.20206 12.7333 7.85159 13.1641 7.85159C13.5948 7.85159 13.9453 8.20206 13.9453 8.63284V15.2344ZM18.4375 6.25003H1.5625V5.46804L9.98117 1.71448L18.4375 5.4689V6.25003Z" fill="white"/>
</svg>
