<svg width="20" height="14" viewBox="0 0 20 14" fill="none" xmlns="http://www.w3.org/2000/svg">
<path d="M12.7087 0C8.81172 0 5.71191 3.14558 5.71191 7C5.71191 10.8987 8.85603 14 12.7087 14C16.5613 14 19.7054 10.8544 19.7054 7C19.7497 3.14558 16.5613 0 12.7087 0ZM12.7087 9.61391C11.2916 9.61391 10.0959 8.41772 10.0959 7C10.0959 5.58228 11.2916 4.38609 12.7087 4.38609C14.1257 4.38609 15.3214 5.58228 15.3214 7C15.3214 8.41772 14.17 9.61391 12.7087 9.61391Z" fill="white"/>
<path d="M5.71253 2.03809V12.228H3.18839L0 2.03809H5.71253Z" fill="white"/>
</svg>
