<svg width="20" height="20" viewBox="0 0 20 20" fill="none" xmlns="http://www.w3.org/2000/svg">
<path d="M14.7445 9.91179L13.2236 11.2859L14.5969 12.8058L16.1177 11.4317L14.7445 9.91179Z" fill="white"/>
<path d="M11.7128 11.1482L9.68457 12.9739L11.5111 15.003L13.5393 13.1773L11.7128 11.1482Z" fill="white"/>
<path d="M17.4877 9.42821L16.4746 10.3413L17.3877 11.3544L18.4008 10.4413L17.4877 9.42821Z" fill="white"/>
<path d="M12.0399 3.64331L10.5176 5.01367L11.8879 6.53603L13.4103 5.16566L12.0399 3.64331Z" fill="white"/>
<path d="M16.1902 6.40075L15.1792 7.31421L16.0935 8.32619L17.1045 7.41273L16.1902 6.40075Z" fill="white"/>
<path d="M10.2733 7.63276L8.24316 9.46021L10.0697 11.4894L12.0999 9.66193L10.2733 7.63276Z" fill="white"/>
<path d="M8.82311 4.17513L6.79395 6.00171L8.62052 8.03087L10.6497 6.2043L8.82311 4.17513Z" fill="white"/>
<path d="M13.4385 6.70452L11.9199 8.0752L13.2932 9.59667L14.8118 8.226L13.4385 6.70452Z" fill="white"/>
<path d="M14.8881 3.39183L13.875 4.30493L14.7881 5.318L15.8012 4.4049L14.8881 3.39183Z" fill="white"/>
<path d="M16.0842 12.9875L14.5625 14.3586L15.9346 15.8813L17.4563 14.5102L16.0842 12.9875Z" fill="white"/>
<path d="M13.4152 14.7124L11.4317 16.5412L8.08313 12.8146L9.01445 11.995L6.66992 9.36994L7.60643 8.54903L5.22683 5.92653L8.94041 2.58313L10.1198 3.87425L12.1111 2.09734L13.2879 3.31702L14.0724 2.61431C13.897 2.51299 13.7217 2.41947 13.5437 2.33504C12.4124 1.78171 11.1421 1.46997 9.80419 1.46997C5.10603 1.46997 1.27295 5.30175 1.27295 10.0012C1.27295 14.6994 5.10603 18.5311 9.80419 18.5311C11.3304 18.5311 12.7683 18.1272 14.0088 17.4193C14.4179 17.1881 14.7907 16.9374 15.131 16.6737L13.4152 14.7124Z" fill="white"/>
</svg>
