<svg width="20" height="20" viewBox="0 0 20 20" fill="none" xmlns="http://www.w3.org/2000/svg">
<path d="M19.2172 5.50996C19.6486 5.50996 19.9983 5.16025 19.9983 4.72883V3.90864C19.9983 1.75341 18.2449 0 16.0896 0C16.0896 0 3.84504 0.00183566 3.81485 0.00538982C2.78418 0.0414001 1.79414 0.483678 1.08049 1.23146C0.348998 1.99791 -0.0323513 2.99479 0.00354184 4.04366C0.00205768 4.06354 0.00127655 15.3102 0.00127655 15.3102C0.00127655 17.8962 2.10511 20 4.69105 20H16.0897C18.2449 20 19.9983 18.2466 19.9983 16.0914V10.1607C19.9983 8.00545 18.2449 6.25204 16.0897 6.25204H3.90691C2.65276 6.25204 1.62455 5.2718 1.56608 4.02042C1.53636 3.38411 1.76527 2.7767 2.2106 2.31005C2.66237 1.83668 3.29684 1.56524 3.95128 1.56524C3.97436 1.56524 16.0896 1.56227 16.0896 1.56227C17.3834 1.56227 18.436 2.61485 18.436 3.90864V4.72883C18.436 5.16025 18.7858 5.50996 19.2172 5.50996ZM3.90691 7.81431H16.0896C17.3834 7.81431 18.436 8.86689 18.436 10.1607V16.0914C18.436 17.3852 17.3834 18.4377 16.0896 18.4377H4.69105C2.96654 18.4377 1.56354 17.0347 1.56354 15.3102V7.03634C2.21689 7.52572 3.02868 7.81431 3.90691 7.81431ZM16.8738 13.126C16.8738 13.6653 16.4366 14.1024 15.8974 14.1024C14.6022 14.051 14.6025 12.2008 15.8974 12.1496C16.4366 12.1496 16.8738 12.5868 16.8738 13.126ZM16.8738 3.90864C16.8738 3.47722 16.5241 3.1275 16.0926 3.1275H3.90695C2.87054 3.16875 2.87132 4.64888 3.90695 4.68977H16.0926C16.524 4.68977 16.8738 4.34006 16.8738 3.90864Z" fill="#74C85D"/>
</svg>
