<svg width="33" height="42" viewBox="0 0 33 42" fill="none" xmlns="http://www.w3.org/2000/svg">
<line x1="17" y1="28" x2="17" y2="40" stroke="white" stroke-width="2"/>
<line x1="16.2226" y1="41.2929" x2="21.6871" y2="35.8284" stroke="white" stroke-width="2"/>
<line y1="-1" x2="7.72794" y2="-1" transform="matrix(-0.707107 -0.707107 -0.707107 0.707107 16.9297 42)" stroke="white" stroke-width="2"/>
<path fill-rule="evenodd" clip-rule="evenodd" d="M32.9962 7.80257C32.9962 8.51441 32.4192 9.09144 31.7073 9.09144C30.9955 9.09144 30.4184 8.51441 30.4183 7.80257V6.44925C30.4183 4.3145 28.6816 2.57774 26.5468 2.57774L6.51857 2.58264C5.43875 2.58264 4.39187 3.03052 3.64645 3.81158C2.91166 4.58155 2.53396 5.58378 2.583 6.63369C2.67947 8.69846 4.37601 10.3159 6.44536 10.3159H26.5469C30.1031 10.3159 32.9962 13.209 32.9962 16.7651V26.5507C32.9962 30.1069 30.1031 33 26.5469 33H22V30.4223H26.5469C28.6816 30.4223 30.4184 28.6855 30.4184 26.5507V16.7651C30.4184 14.6304 28.6816 12.8936 26.5469 12.8936H6.44536C4.99628 12.8936 3.65682 12.4174 2.57881 11.61V25.2619C2.57881 28.1073 4.89375 30.4223 7.7392 30.4223H12V33H7.7392C3.47239 33 0.00106871 29.5287 0.00106871 25.2619C0.00106871 25.2619 0.00235758 6.70484 0.00480643 6.67203C-0.0544172 4.9414 0.57481 3.29655 1.78177 2.03191C2.95929 0.798069 4.59287 0.0683102 6.29347 0.00889321C6.34328 0.00302885 26.5469 0 26.5469 0C30.103 0 32.9962 2.89313 32.9962 6.44925V7.80257ZM26.2296 23.269C27.1194 23.269 27.8407 22.5477 27.8407 21.6579C27.8407 20.7682 27.1194 20.0468 26.2296 20.0468C24.0931 20.1314 24.0925 23.1841 26.2296 23.269ZM26.5518 5.16038C27.2637 5.16038 27.8407 5.73741 27.8407 6.44925C27.8407 7.1611 27.2636 7.73812 26.5518 7.73812H6.44543C4.73664 7.67065 4.73535 5.22843 6.44543 5.16038H26.5518Z" fill="white"/>
</svg>
