<svg width="33" height="33" viewBox="0 0 33 33" fill="none" xmlns="http://www.w3.org/2000/svg">
<path d="M31.7073 9.09144C32.4192 9.09144 32.9962 8.51441 32.9962 7.80257V6.44925C32.9962 2.89313 30.103 0 26.5469 0C26.5469 0 6.34328 0.00302885 6.29347 0.00889321C4.59287 0.0683102 2.95929 0.798069 1.78177 2.03191C0.57481 3.29655 -0.0544172 4.9414 0.00480643 6.67203C0.00235758 6.70484 0.00106871 25.2619 0.00106871 25.2619C0.00106871 29.5287 3.47239 33 7.7392 33H26.5469C30.1031 33 32.9962 30.1069 32.9962 26.5507V16.7651C32.9962 13.209 30.1031 10.3159 26.5469 10.3159H6.44536C4.37601 10.3159 2.67947 8.69846 2.583 6.63369C2.53396 5.58378 2.91166 4.58155 3.64645 3.81158C4.39187 3.03052 5.43875 2.58264 6.51857 2.58264C6.55666 2.58264 26.5468 2.57774 26.5468 2.57774C28.6816 2.57774 30.4183 4.3145 30.4183 6.44925V7.80257C30.4184 8.51441 30.9955 9.09144 31.7073 9.09144ZM6.44536 12.8936H26.5469C28.6816 12.8936 30.4184 14.6304 30.4184 16.7651V26.5507C30.4184 28.6855 28.6816 30.4223 26.5469 30.4223H7.7392C4.89375 30.4223 2.57881 28.1073 2.57881 25.2619V11.61C3.65682 12.4174 4.99628 12.8936 6.44536 12.8936ZM27.8407 21.6579C27.8407 22.5477 27.1194 23.269 26.2296 23.269C24.0925 23.1841 24.0931 20.1314 26.2296 20.0468C27.1194 20.0468 27.8407 20.7682 27.8407 21.6579ZM27.8407 6.44925C27.8407 5.73741 27.2637 5.16038 26.5518 5.16038H6.44543C4.73535 5.22843 4.73664 7.67065 6.44543 7.73812H26.5518C27.2636 7.73812 27.8407 7.1611 27.8407 6.44925Z" fill="white"/>
</svg>
