<svg width="19" height="20" viewBox="0 0 19 20" fill="none" xmlns="http://www.w3.org/2000/svg">
    <path fill-rule="evenodd" clip-rule="evenodd" d="M7 1.00391H2C1.44772 1.00391 1 1.45162 1 2.00391V7.00391C1 7.55619 1.44772 8.00391 2 8.00391H7C7.55228 8.00391 8 7.55619 8 7.00391V2.00391C8 1.45162 7.55228 1.00391 7 1.00391ZM2 0.00390625C0.895431 0.00390625 0 0.899337 0 2.00391V7.00391C0 8.10848 0.89543 9.00391 2 9.00391H7C8.10457 9.00391 9 8.10848 9 7.00391V2.00391C9 0.899337 8.10457 0.00390625 7 0.00390625H2Z" fill="white"></path>
    <path fill-rule="evenodd" clip-rule="evenodd" d="M14 4.00391H12C11.4477 4.00391 11 4.45162 11 5.00391V7.00391C11 7.55619 11.4477 8.00391 12 8.00391H14C14.5523 8.00391 15 7.55619 15 7.00391V5.00391C15 4.45162 14.5523 4.00391 14 4.00391ZM12 3.00391C10.8954 3.00391 10 3.89934 10 5.00391V7.00391C10 8.10848 10.8954 9.00391 12 9.00391H14C15.1046 9.00391 16 8.10848 16 7.00391V5.00391C16 3.89934 15.1046 3.00391 14 3.00391H12Z" fill="white"></path>
    <path fill-rule="evenodd" clip-rule="evenodd" d="M7 11.0039H5C4.44772 11.0039 4 11.4516 4 12.0039V14.0039C4 14.5562 4.44772 15.0039 5 15.0039H7C7.55228 15.0039 8 14.5562 8 14.0039V12.0039C8 11.4516 7.55228 11.0039 7 11.0039ZM5 10.0039C3.89543 10.0039 3 10.8993 3 12.0039V14.0039C3 15.1085 3.89543 16.0039 5 16.0039H7C8.10457 16.0039 9 15.1085 9 14.0039V12.0039C9 10.8993 8.10457 10.0039 7 10.0039H5Z" fill="white"></path>
    <path fill-rule="evenodd" clip-rule="evenodd" d="M17 11.0039H12C11.4477 11.0039 11 11.4516 11 12.0039V17.0039C11 17.5562 11.4477 18.0039 12 18.0039H17C17.5523 18.0039 18 17.5562 18 17.0039V12.0039C18 11.4516 17.5523 11.0039 17 11.0039ZM12 10.0039C10.8954 10.0039 10 10.8993 10 12.0039V17.0039C10 18.1085 10.8954 19.0039 12 19.0039H17C18.1046 19.0039 19 18.1085 19 17.0039V12.0039C19 10.8993 18.1046 10.0039 17 10.0039H12Z" fill="white"></path>
</svg>
