<svg width="45" height="45" viewBox="0 0 45 45" fill="none" xmlns="http://www.w3.org/2000/svg">
<path fill-rule="evenodd" clip-rule="evenodd" d="M9.78878 16.8419C0.766019 28.2278 8.87489 45 23.4024 45C37.9299 45 46.0387 28.2278 37.016 16.8419L23.8355 0.209391C23.6142 -0.0697971 23.1905 -0.0697967 22.9693 0.209391L9.78878 16.8419ZM23.4024 6.54938L13.1409 19.4984C6.33989 28.0806 12.4521 40.7229 23.4024 40.7229C34.3527 40.7229 40.4649 28.0806 33.6638 19.4983L23.4024 6.54938Z" fill="#1E2831"/>
<path d="M24.5752 17.8338V19.9155H22.9914V17.8338H24.5752ZM24.3747 33.3483V35.1894H22.7909V33.3483H24.3747ZM25.2569 30.0302C25.2569 29.6559 25.1934 29.3418 25.0664 29.0879C24.9461 28.8339 24.7457 28.6101 24.465 28.4163C24.1843 28.2224 23.8134 28.032 23.3523 27.8449C22.4701 27.4973 21.6949 27.1365 21.0266 26.7622C20.3583 26.3813 19.837 25.9068 19.4628 25.3388C19.0885 24.7707 18.9014 24.0423 18.9014 23.1534C18.9014 22.3247 19.1019 21.6063 19.5029 20.9982C19.9039 20.3833 20.4585 19.9089 21.1669 19.5747C21.882 19.2406 22.7074 19.0735 23.643 19.0735C24.358 19.0735 25.0096 19.1804 25.5977 19.3943C26.1858 19.6081 26.6904 19.9155 27.1114 20.3165C27.5391 20.7175 27.8666 21.212 28.0938 21.8001C28.321 22.3815 28.4346 23.0465 28.4346 23.795H25.297C25.297 23.4007 25.2569 23.0599 25.1767 22.7725C25.0965 22.4785 24.9796 22.2379 24.8258 22.0507C24.6721 21.8569 24.4917 21.7133 24.2845 21.6197C24.084 21.5261 23.8568 21.4794 23.6029 21.4794C23.2353 21.4794 22.9346 21.5562 22.7007 21.7099C22.4668 21.8569 22.2964 22.0574 22.1894 22.3114C22.0825 22.5653 22.029 22.8494 22.029 23.1635C22.029 23.4842 22.0858 23.7649 22.1994 24.0055C22.3197 24.2461 22.5202 24.4666 22.8009 24.6671C23.0816 24.8676 23.4659 25.0714 23.9537 25.2786C24.8225 25.6328 25.591 26.0071 26.2593 26.4013C26.9276 26.789 27.4489 27.2668 27.8232 27.8348C28.2041 28.3962 28.3945 29.1213 28.3945 30.0101C28.3945 30.8789 28.1907 31.6174 27.7831 32.2255C27.3821 32.8337 26.8174 33.2982 26.0889 33.6189C25.3672 33.933 24.5318 34.0901 23.5828 34.0901C22.9479 34.0901 22.3197 34.0099 21.6982 33.8495C21.0834 33.6824 20.522 33.4118 20.0141 33.0375C19.5062 32.6633 19.1019 32.1654 18.8012 31.5439C18.5004 30.9224 18.3501 30.1605 18.3501 29.2583H21.4877C21.4877 29.7261 21.5445 30.1171 21.6581 30.4312C21.7784 30.7386 21.9355 30.9858 22.1293 31.173C22.3298 31.3534 22.5536 31.4837 22.8009 31.5639C23.0549 31.6441 23.3155 31.6842 23.5828 31.6842C23.9637 31.6842 24.2778 31.6107 24.5251 31.4637C24.7724 31.3167 24.9562 31.1195 25.0765 30.8722C25.1968 30.6183 25.2569 30.3376 25.2569 30.0302Z" fill="#57A4D0"/>
</svg>
