<svg width="80" height="80" viewBox="0 0 80 80" fill="none" xmlns="http://www.w3.org/2000/svg">
<g clip-path="url(#clip0)">
<path d="M64.6346 9.01247V76.2366C64.6346 78.3147 62.9493 80 60.8713 80H9.97066C7.89259 80 6.20728 78.3147 6.20728 76.2366V9.01247C6.20728 6.9344 7.89259 5.24908 9.97066 5.24908H11.0185L35.4218 6.89898L59.825 5.24908H60.8713C62.9495 5.24908 64.6346 6.9344 64.6346 9.01247Z" fill="url(#paint0_linear)"/>
<path d="M59.825 5.24908V73.6772C59.825 74.5127 59.1473 75.1887 58.3135 75.1887H12.53C11.6946 75.1887 11.0186 74.5127 11.0186 73.6772V5.24908L18.2831 5.24941L35.4218 5.99259L52.5593 5.24941L59.825 5.24908Z" fill="#FBFBFB"/>
<path d="M59.8251 27.596L59.8244 27.5967V5.24945H56.0078V29.6477C56.0078 30.7783 55.5587 31.8627 54.7592 32.6622L35.4774 51.9453L35.038 52.3831C34.1382 53.2829 33.4879 54.4016 33.1482 55.6282L32.552 60.2164C32.4828 60.7487 32.8973 61.2205 33.4341 61.2205H36.3043C37.5308 60.8841 39.7544 58.899 40.6542 57.9992L41.0936 57.5614L56.0079 42.6458V73.6776C56.0079 74.5124 55.3312 75.1891 54.4965 75.1891H58.313C59.1477 75.1891 59.8244 74.5124 59.8244 73.6776V38.8288L59.8251 38.8282V27.596Z" fill="url(#paint1_linear)"/>
<path d="M50.4594 27.9321H35.3437C34.677 27.9321 34.1365 27.3915 34.1365 26.7248C34.1365 26.0581 34.677 25.5176 35.3437 25.5176H50.4594C51.1263 25.5176 51.6666 26.0581 51.6666 26.7248C51.6666 27.3915 51.1263 27.9321 50.4594 27.9321Z" fill="#A5B4D0"/>
<path d="M51.6659 44.1175C51.6659 44.7839 51.1266 45.3248 50.4586 45.3248H35.344C34.6776 45.3248 34.1367 44.7839 34.1367 44.1175C34.1367 43.4511 34.6776 42.9103 35.344 42.9103H50.4586C51.1266 42.9103 51.6659 43.4511 51.6659 44.1175Z" fill="#A5B4D0"/>
<path d="M51.6659 44.1175C51.6659 44.7839 51.1267 45.3248 50.4587 45.3248H42.0981L44.5126 42.9103H50.4587C51.1267 42.9103 51.6659 43.4511 51.6659 44.1175Z" fill="#8B9EC1"/>
<path d="M48.1768 5.24942L35.4217 5.9926L22.6653 5.24942V1.6697C22.6654 0.747525 23.413 0 24.3351 0H46.5071C47.4292 0 48.1768 0.747525 48.1768 1.6697V5.24942Z" fill="url(#paint2_linear)"/>
<path d="M26.6997 32.2995H19.5332C18.4333 32.2995 17.5417 31.408 17.5417 30.3081V23.1416C17.5417 22.0417 18.4333 21.1501 19.5332 21.1501H26.6997C27.7996 21.1501 28.6912 22.0417 28.6912 23.1416V30.3081C28.6912 31.408 27.7996 32.2995 26.6997 32.2995Z" fill="url(#paint3_linear)"/>
<path d="M26.6997 49.6918H19.5332C18.4333 49.6918 17.5417 48.8002 17.5417 47.7003V40.5338C17.5417 39.4339 18.4333 38.5423 19.5332 38.5423H26.6997C27.7996 38.5423 28.6912 39.4339 28.6912 40.5338V47.7003C28.6912 48.8002 27.7996 49.6918 26.6997 49.6918Z" fill="url(#paint4_linear)"/>
<path d="M26.6997 67.084H19.5332C18.4333 67.084 17.5417 66.1924 17.5417 65.0925V57.926C17.5417 56.8261 18.4333 55.9345 19.5332 55.9345H26.6997C27.7996 55.9345 28.6912 56.8261 28.6912 57.926V65.0925C28.6912 66.1924 27.7996 67.084 26.6997 67.084Z" fill="#A5B4D0"/>
<path d="M68.2096 34.26L44.9098 57.5614L42.175 56.4797L40.7923 55.934L39.2937 51.9453L62.5919 28.6439L66.7158 30.0588L67.2084 31.4447L68.2096 34.26Z" fill="url(#paint5_linear)"/>
<path d="M72.6299 29.8408L68.2096 34.2611L62.593 28.6445L67.0133 24.2242C68.5645 22.673 71.0787 22.6741 72.6288 24.2242C73.4044 24.9999 73.7922 26.0159 73.7933 27.0331C73.7933 28.0491 73.4054 29.0651 72.6299 29.8408Z" fill="#0593FC"/>
<path d="M72.6288 24.2242C71.3515 22.9469 69.421 22.724 67.9128 23.552C68.235 23.7289 68.5393 23.9512 68.8123 24.2242C69.5879 24.9999 69.9757 26.0159 69.9768 27.033C69.9768 28.0491 69.5891 29.0651 68.8134 29.8408L66.3015 32.3526L68.2098 34.2609L72.63 29.8406C73.4057 29.0649 73.7935 28.0489 73.7935 27.0329C73.7922 26.0159 73.4043 24.9999 72.6288 24.2242Z" fill="#0181FA"/>
<path d="M44.9102 57.5614L44.4708 57.9992C43.5711 58.8988 42.4518 59.5515 41.2249 59.8883L36.483 61.1956C35.9811 61.3341 35.5198 60.8727 35.6582 60.3709L36.9656 55.629C37.3039 54.4021 37.955 53.2827 38.8547 52.3831L39.2941 51.9453L44.9102 57.5614Z" fill="#FFF3BE"/>
<path d="M41.0934 57.5614L40.654 57.9992C39.7544 58.8988 38.635 59.5515 37.4081 59.8883L35.658 60.3709C35.5195 60.8728 35.9809 61.3341 36.4827 61.1957L41.2246 59.8883C42.4515 59.5515 43.5709 58.8988 44.4705 57.9992L44.9099 57.5614L43.0015 55.653L41.0934 57.5614Z" fill="#FFEC9C"/>
<path d="M48.677 15.276C48.3794 15.276 48.08 15.2499 47.7815 15.1968L36.6187 13.2136C35.8165 13.0711 35.0025 13.0711 34.1997 13.2139L23.0617 15.1955C21.5742 15.46 20.0566 15.0553 18.8981 14.085C17.74 13.1147 17.0757 11.6916 17.0757 10.1806V6.45669C17.0757 5.78997 17.6162 5.24945 18.2829 5.24945H52.559C53.2259 5.24945 53.7662 5.78997 53.7662 6.45669V10.1816C53.7662 11.6924 53.1021 13.1154 51.9441 14.0857C51.0187 14.8615 49.8631 15.276 48.677 15.276ZM35.41 10.6922C35.955 10.6922 36.4999 10.7403 37.0411 10.8364L48.2039 12.8197C48.987 12.9589 49.7844 12.7458 50.3937 12.2352C51.0028 11.7248 51.3521 10.9763 51.3521 10.1818V7.66394H19.4905V10.1805C19.4905 10.9753 19.8398 11.7238 20.449 12.2342C21.0583 12.7445 21.8564 12.9575 22.639 12.8182L33.7769 10.8366C34.3187 10.7403 34.8643 10.6922 35.41 10.6922Z" fill="url(#paint6_linear)"/>
<path d="M23.4421 29.0351C23.1332 29.0351 22.8241 28.9173 22.5885 28.6815L20.879 26.972C20.4075 26.5006 20.4075 25.7361 20.879 25.2648C21.3505 24.7934 22.1149 24.7934 22.5862 25.2648L23.4419 26.1205L29.3133 20.2493C29.7847 19.7778 30.5492 19.7777 31.0205 20.2493C31.492 20.7208 31.492 21.4852 31.0205 21.9565L24.2955 28.6813C24.06 28.9173 23.7509 29.0351 23.4421 29.0351Z" fill="white"/>
<path d="M23.4421 46.5235C23.1332 46.5235 22.8241 46.4056 22.5885 46.1698L20.879 44.4604C20.4075 43.9889 20.4075 43.2245 20.879 42.7532C21.3505 42.2817 22.1149 42.2817 22.5862 42.7532L23.4419 43.6089L29.3133 37.7376C29.7847 37.2662 30.5492 37.266 31.0205 37.7376C31.492 38.2091 31.492 38.9735 31.0205 39.4448L24.2955 46.1697C24.06 46.4057 23.7509 46.5235 23.4421 46.5235Z" fill="white"/>
</g>
<defs>
<linearGradient id="paint0_linear" x1="56.0786" y1="12.4424" x2="6.69141" y2="51.7597" gradientUnits="userSpaceOnUse">
<stop stop-color="#7DC855"/>
<stop offset="1" stop-color="#13BD80"/>
</linearGradient>
<linearGradient id="paint1_linear" x1="38.8168" y1="59.1011" x2="74.7238" y2="45.0953" gradientUnits="userSpaceOnUse">
<stop stop-color="#B8D1E3"/>
<stop offset="0.5028" stop-color="#EAF6FF"/>
<stop offset="1" stop-color="#EAF6FF"/>
</linearGradient>
<linearGradient id="paint2_linear" x1="24.1272" y1="2.05978" x2="47.6698" y2="9.27805" gradientUnits="userSpaceOnUse">
<stop stop-color="#464689"/>
<stop offset="1" stop-color="#8781DD"/>
</linearGradient>
<linearGradient id="paint3_linear" x1="27.0585" y1="22.223" x2="19.5011" y2="29.9204" gradientUnits="userSpaceOnUse">
<stop stop-color="#7DC855"/>
<stop offset="1" stop-color="#13BD80"/>
</linearGradient>
<linearGradient id="paint4_linear" x1="27.0585" y1="39.6152" x2="19.5011" y2="47.3126" gradientUnits="userSpaceOnUse">
<stop stop-color="#7DC855"/>
<stop offset="1" stop-color="#13BD80"/>
</linearGradient>
<linearGradient id="paint5_linear" x1="61.0002" y1="40.5" x2="56.875" y2="35.5177" gradientUnits="userSpaceOnUse">
<stop stop-color="#3A3A73"/>
<stop offset="1" stop-color="#8781DD"/>
</linearGradient>
<linearGradient id="paint6_linear" x1="19.1783" y1="8.69579" x2="53.8143" y2="17.8241" gradientUnits="userSpaceOnUse">
<stop stop-color="#6363B4"/>
<stop offset="1" stop-color="#8781DD"/>
</linearGradient>
<clipPath id="clip0">
<rect width="80" height="80" fill="white"/>
</clipPath>
</defs>
</svg>
