<svg width="82" height="82" viewBox="0 0 82 82" fill="none" xmlns="http://www.w3.org/2000/svg">
<g clip-path="url(#clip0)">
<path d="M47.0855 34.915H30.0983L21.6048 50.2034L19.9062 51.902C17.0863 54.7219 17.0863 59.2743 19.9062 62.0944C22.7259 64.9141 27.2785 64.9142 30.0985 62.0944L31.7971 60.3957L47.0855 51.9022V34.915ZM18.6568 45.7695C19.4398 45.6202 20.095 45.0944 20.4118 44.3627C22.1901 40.2553 26.1433 34.1987 30.989 28.1619C31.48 27.548 31.641 26.7336 31.4169 25.9788C30.9584 24.4251 29.466 24.3056 29.1592 24.1425C28.6864 23.9849 17.4308 20.4033 6.3161 31.518C-2.08121 39.9153 2.7113 44.9003 2.9187 45.1077C3.8577 46.0467 5.37726 46.0467 6.3161 45.1077C9.12636 42.2976 13.6982 42.2976 16.5084 45.1077C17.0708 45.6699 17.8754 45.9171 18.6568 45.7695ZM56.0219 50.5836C55.2671 50.3597 54.4525 50.5205 53.8388 51.0115C47.5914 56.0248 41.6956 59.8767 37.6579 61.5787C36.9213 61.8905 36.3872 62.5474 36.2328 63.332C36.0818 64.1166 36.3275 64.9262 36.8931 65.4919C39.7032 68.302 39.7032 72.874 36.8931 75.6843C35.9541 76.6233 35.9541 78.1428 36.8931 79.0816C37.1005 79.2889 42.0856 84.0816 50.4829 75.6843C61.5976 64.5696 58.016 53.3139 57.8584 52.8445C57.7026 52.5519 57.572 51.0388 56.0219 50.5836ZM81.7391 2.29986C81.5694 1.24667 80.754 0.431317 79.7005 0.261231C79.0892 0.193165 70.0179 -0.995835 58.6705 2.33349L65.6948 16.1526L79.6667 23.3297C82.9962 11.9824 81.807 2.91118 81.7391 2.29986ZM50.4829 17.9279C46.7456 21.6652 46.7456 27.7804 50.4829 31.5176C54.2539 35.2887 60.3354 35.2549 64.0726 31.5176C67.8437 27.7466 67.8437 21.6989 64.0726 17.9279C60.3354 14.1907 54.2541 14.1569 50.4829 17.9279Z" fill="url(#paint0_linear)"/>
<path d="M58.6706 2.33368C51.2303 4.47433 42.8387 8.58506 35.1945 16.2293C32.6803 18.7434 29.9282 21.8351 27.2443 25.1303C22.1481 31.5175 17.9354 37.9728 16.0329 42.4573C15.6251 43.3407 15.7951 44.3939 16.5085 45.1074L21.6047 50.2036L33.4957 38.3125C36.3156 35.4926 40.868 35.4926 43.688 38.3125C46.5417 41.1661 46.5417 45.651 43.688 48.5048L31.7971 60.3958L36.8932 65.4919C37.5726 66.1713 38.6258 66.4091 39.5091 66.0016C43.9596 64.133 50.2791 60.0559 56.87 54.756C60.1652 52.0721 63.2572 49.3202 65.7712 46.8062C73.4154 39.1619 77.5262 30.7704 79.6665 23.3298L58.6706 2.33368ZM64.0726 31.5177C60.3353 35.2549 54.254 35.2887 50.4828 31.5177C46.7456 27.7804 46.7456 21.6652 50.4828 17.9279C54.2539 14.1569 60.3353 14.1907 64.0726 17.9279C67.8436 21.699 67.8436 27.7466 64.0726 31.5177ZM16.5399 65.4939C15.6009 64.555 14.0815 64.555 13.1425 65.4939L0.704491 77.8984C-0.234505 78.8374 -0.234505 80.357 0.704491 81.2958C1.64349 82.2347 3.16305 82.2348 4.10189 81.2958L16.5399 68.8913C17.4789 67.9523 17.4789 66.4327 16.5399 65.4939ZM19.9373 72.2887L16.5399 75.686C15.6009 76.625 15.6009 78.1446 16.5399 79.0834C17.4789 80.0224 18.9985 80.0224 19.9373 79.0834L23.3347 75.686C24.2737 74.7472 24.2737 73.2275 23.3347 72.2887C22.3957 71.3498 20.8763 71.3498 19.9373 72.2887ZM6.3476 65.4939L9.74499 62.0965C10.684 61.1575 10.684 59.6379 9.74499 58.6991C8.806 57.7601 7.28643 57.7601 6.3476 58.6991L2.9502 62.0965C2.01121 63.0353 2.01121 64.555 2.9502 65.4939C3.8892 66.4327 5.40876 66.4327 6.3476 65.4939Z" fill="url(#paint1_linear)"/>
</g>
<defs>
<linearGradient id="paint0_linear" x1="5.99106" y1="27.7142" x2="86.9727" y2="33.5465" gradientUnits="userSpaceOnUse">
<stop stop-color="#3A3A73"/>
<stop offset="1" stop-color="#8781DD"/>
</linearGradient>
<linearGradient id="paint1_linear" x1="68.0002" y1="10" x2="14.0002" y2="65" gradientUnits="userSpaceOnUse">
<stop stop-color="#7DC855"/>
<stop offset="1" stop-color="#13BD80"/>
</linearGradient>
<clipPath id="clip0">
<rect width="82" height="82" fill="white"/>
</clipPath>
</defs>
</svg>
