<svg width="108" height="108" viewBox="0 0 108 108" fill="none" xmlns="http://www.w3.org/2000/svg">
<g clip-path="url(#clip0)">
<path d="M79.1439 64.6523L48.4449 35.1L28.5813 34.425L21.2474 31.9292L15.0746 29.3541L4.92847 53.8734C4.92847 53.8734 18.1112 56.6342 21.4246 61.2377C24.738 65.8412 47.4071 80.611 53.8769 82.6512C60.3468 84.6914 61.3686 80.1562 61.3686 80.1562C67.8047 84.0797 68.6594 77.1576 68.6594 77.1576C77.4969 79.7167 76.5443 73.1185 76.5443 73.1185C79.6889 72.8198 80.6913 71.0437 80.9081 69.3419C80.9981 68.4769 80.8856 67.6029 80.5794 66.7889C80.2731 65.975 79.7817 65.2435 79.1439 64.6523Z" fill="#F0C191"/>
<path d="M79.1439 64.6532L78.6832 64.2102C79.188 65.1565 79.3881 66.2357 79.2561 67.3C79.0393 69.001 78.0411 70.7712 74.8905 71.075C74.8905 71.075 75.8457 77.6714 67.0108 75.1106C67.0108 75.1106 66.151 82.037 59.7199 78.1135C59.7199 78.1135 58.6956 82.6445 52.23 80.6043C49.9822 79.8964 45.7803 77.6511 41.1152 74.8322V75.8691C46.4216 79.1539 51.3685 81.8598 53.8795 82.6529C60.3443 84.6922 61.3686 80.1562 61.3686 80.1562C67.8081 84.0788 68.6586 77.1618 68.6586 77.1618C77.4935 79.7133 76.5477 73.1177 76.5477 73.1177C79.6898 72.8224 80.6879 71.0429 80.9048 69.3419C80.9972 68.4772 80.8861 67.6028 80.5803 66.7887C80.2746 65.9746 79.7827 65.2433 79.1439 64.6532Z" fill="#DDB087"/>
<path d="M26.0332 65.4995C26.0332 65.4995 28.1628 61.9254 30.9025 62.1245C33.3249 62.3 35.5431 64.5427 34.2707 67.5599C34.2707 67.5599 38.1267 63.4711 41.3329 66.2808C41.3329 66.2808 43.8017 68.3902 42.6171 70.8539C42.6171 70.8539 44.8952 67.9008 47.2898 69.4381C50.1341 71.2631 48.2179 74.5301 48.2179 74.5301C48.2179 74.5301 52.2316 73.1025 53.4121 76.8083C54.1647 79.1708 52.2426 81.1958 52.2426 81.1958C52.2426 81.1958 47.634 84.8104 45.1905 79.2425C45.1905 79.2425 38.6937 80.3967 38.8624 75.3612C38.8624 75.3612 32.9216 77.6714 32.358 71.3298C31.4588 71.4036 30.5541 71.2932 29.6991 71.0052C28.8441 70.7172 28.057 70.2578 27.3857 69.6549C26.8157 69.1418 26.3906 68.4876 26.1532 67.7583C25.9158 67.0289 25.8744 66.2499 26.0332 65.4995Z" fill="#DDB087"/>
<path d="M82.6033 32.7215L76.2929 35.7902C75.9006 35.9809 75.4703 36.0804 75.0342 36.0813C74.598 36.0821 74.1673 35.9844 73.7743 35.7953C70.4955 34.22 61.6986 30.1573 58.6206 30.3683C54.8077 30.6298 48.1851 36.0813 45.2049 36.2863C42.4332 36.4762 44.1747 43.8252 40.8613 49.1206C40.6025 49.5102 40.4673 49.9689 40.4733 50.4366C40.4794 50.9043 40.6263 51.3593 40.8951 51.7421C42.3294 53.6937 45.4243 56.5296 49.6701 52.8044C55.6404 47.5639 55.3907 43.9164 55.3907 43.9164L79.9084 65.5872L86.4508 62.1085L97.9157 56.8249L82.6033 32.7215Z" fill="#DDB087"/>
<path d="M96.1706 54.0818L85.8777 58.8203L79.3336 62.3008L77.344 63.3251L79.9065 65.5898L86.4497 62.1101L97.9146 56.824L96.1706 54.0818Z" fill="#C49B7A"/>
<path d="M91.442 25.0673L77.4198 32.5151C76.4528 33.0287 76.0853 34.2289 76.5989 35.1959L90.2227 60.8458C90.7363 61.8128 91.9365 62.1803 92.9035 61.6667L106.926 54.2189C107.893 53.7053 108.26 52.5051 107.747 51.5381L94.1228 25.8882C93.6092 24.9212 92.409 24.5537 91.442 25.0673Z" fill="#2F3A5A"/>
<path d="M91.442 25.0673L77.4198 32.5151C76.4528 33.0287 76.0853 34.2289 76.5989 35.1959L90.2227 60.8458C90.7363 61.8128 91.9365 62.1803 92.9035 61.6667L106.926 54.2189C107.893 53.7053 108.26 52.5051 107.747 51.5381L94.1228 25.8882C93.6092 24.9212 92.409 24.5537 91.442 25.0673Z" fill="url(#paint0_linear)"/>
<path d="M10.1184 26.2914L0.125691 53.5681C-0.251016 54.5963 0.277186 55.7353 1.30546 56.112L16.217 61.5748C17.2453 61.9515 18.3842 61.4233 18.7609 60.395L28.7537 33.1184C29.1304 32.0901 28.6022 30.9511 27.5739 30.5744L12.6624 25.1116C11.6341 24.7349 10.4951 25.2631 10.1184 26.2914Z" fill="url(#paint1_linear)"/>
<path d="M28.7525 33.1307L18.7549 60.4125C18.5726 60.9051 18.203 61.3057 17.7267 61.5269C17.2503 61.7482 16.7058 61.7722 16.2118 61.5938L1.30107 56.1212C0.826919 55.9479 0.437392 55.5991 0.212877 55.147C-0.0116379 54.6948 -0.0540078 54.1737 0.094511 53.6912C0.232155 53.794 0.384275 53.8759 0.545917 53.9342L15.4567 59.3932C15.7012 59.4833 15.961 59.5243 16.2214 59.5136C16.4817 59.503 16.7374 59.441 16.9737 59.3312C17.21 59.2214 17.4223 59.066 17.5984 58.874C17.7745 58.6819 17.9109 58.4569 17.9997 58.212L27.9973 30.9437C28.0144 30.9084 28.0234 30.8698 28.0235 30.8306C28.3848 31.0772 28.653 31.4378 28.7851 31.8548C28.9173 32.2718 28.9058 32.721 28.7525 33.1307Z" fill="url(#paint2_linear)"/>
<path d="M64.1116 61.3979C64.1116 61.3979 71.0219 68.7386 75.8717 71.8402L64.1116 61.3979Z" fill="#DDB087"/>
<path d="M56.8569 65.9813C56.8569 65.9813 63.7672 73.3219 68.6171 76.4235L56.8569 65.9813Z" fill="#DDB087"/>
<path d="M49.7812 69.0896C49.7812 69.0896 56.6916 76.4302 61.5414 79.5318L49.7812 69.0896Z" fill="#DDB087"/>
<path d="M48.2185 74.5293C46.9177 75.8949 45.8902 77.4967 45.1912 79.2484C46.3157 77.7525 47.3276 76.1751 48.2185 74.5293Z" fill="#C49B7A"/>
<path d="M42.4101 70.9788C41.0152 72.1972 39.8444 73.6504 38.9507 75.2726C38.9507 75.2726 41.6465 72.6528 42.4101 70.9788Z" fill="#C49B7A"/>
<path d="M34.2705 67.559C33.4761 68.7025 32.8401 69.9482 32.3796 71.2622C33.2209 70.1475 33.8609 68.8942 34.2705 67.559Z" fill="#C49B7A"/>
</g>
<defs>
<linearGradient id="paint0_linear" x1="92.1167" y1="28.3056" x2="80.2388" y2="48.4319" gradientUnits="userSpaceOnUse">
<stop stop-color="#7DC855"/>
<stop offset="1" stop-color="#13BD80"/>
</linearGradient>
<linearGradient id="paint1_linear" x1="6.49976" y1="56" x2="21.4998" y2="26.5" gradientUnits="userSpaceOnUse">
<stop stop-color="#3A3A73"/>
<stop offset="1" stop-color="#8781DD"/>
</linearGradient>
<linearGradient id="paint2_linear" x1="1.6617" y1="41.4453" x2="30.6757" y2="43.3987" gradientUnits="userSpaceOnUse">
<stop stop-color="#3A3A73"/>
<stop offset="1" stop-color="#8781DD"/>
</linearGradient>
<clipPath id="clip0">
<rect width="108" height="108" fill="white"/>
</clipPath>
</defs>
</svg>
