<svg width="60" height="60" viewBox="0 0 60 60" fill="none" xmlns="http://www.w3.org/2000/svg">
<g clip-path="url(#clip0)">
<path d="M54.228 26.1736C54.8112 25.6926 54.5649 24.6218 53.8301 24.4439C48.079 22.8182 42.3024 21.4585 36.3602 21.2644C35.4986 21.2891 34.8834 22.3847 35.5481 23.0123C37.0803 24.3944 38.8027 25.4725 40.7343 26.3291C29.1269 28.6524 16.8234 29.835 6.08181 35.1681C5.29602 35.5223 5.78285 36.8845 6.58772 36.6126C18.0254 32.4205 29.987 30.8829 41.8036 28.3379C40.8902 30.0224 39.9768 31.7069 39.0445 33.309C38.6005 34.0182 39.2143 35.1781 40.1837 34.8683C45.4683 32.9587 50.1583 29.9718 54.228 26.1736ZM44.2177 27.5225C44.8454 26.8577 44.3585 25.4954 43.2053 25.7606C43.123 25.7796 43.0406 25.7985 43.0406 25.7985C41.8248 25.0375 40.6279 24.3588 39.3932 23.5154C43.4853 23.9617 47.4061 24.7943 51.3838 25.8738C48.5504 28.2602 45.5398 30.2537 42.1496 31.7274C42.7648 30.6319 43.3611 29.4539 44.0587 28.3393C44.3504 28.0991 44.3569 27.7505 44.2177 27.5225Z" fill="#CFCFCF"/>
</g>
<defs>
<clipPath id="clip0">
<rect x="48.7273" width="50" height="50" transform="rotate(77.0447 48.7273 0)" fill="white"/>
</clipPath>
</defs>
</svg>
