<svg width="66" height="66" viewBox="0 0 66 66" fill="none" xmlns="http://www.w3.org/2000/svg">
<path d="M33 0C14.8027 0 0 14.8041 0 33C0 51.1959 14.8027 66 33 66C51.1973 66 66 51.1959 66 33C66 14.8041 51.1973 0 33 0ZM33 63.25C16.32 63.25 2.74996 49.68 2.74996 33C2.74996 16.32 16.32 2.74996 33 2.74996C49.68 2.74996 63.25 16.32 63.25 33C63.25 49.68 49.68 63.25 33 63.25Z" fill="#FFCD9E"/>
<path d="M33 10.9999C32.24 10.9999 31.625 11.615 31.625 12.375V45.375C31.625 46.135 32.24 46.75 33 46.75C33.7601 46.75 34.3751 46.135 34.3751 45.375V12.375C34.3751 11.615 33.7601 10.9999 33 10.9999Z" fill="#FFCD9E"/>
<path d="M33 55C33.7595 55 34.3751 54.3844 34.3751 53.625C34.3751 52.8656 33.7595 52.2499 33 52.2499C32.2406 52.2499 31.625 52.8656 31.625 53.625C31.625 54.3844 32.2406 55 33 55Z" fill="#FFCD9E"/>
</svg>
