<svg width="20" height="20" viewBox="0 0 20 20" fill="none" xmlns="http://www.w3.org/2000/svg">
<path d="M17.0711 2.92988C15.1823 1.04117 12.6711 0.000976562 10 0.000976562C7.32887 0.000976562 4.81766 1.04117 2.92891 2.92988C1.0402 4.81863 0 7.32988 0 10.001C0 12.6721 1.0402 15.1833 2.92891 17.072C4.81766 18.9608 7.32891 20.001 10 20.001C12.6711 20.001 15.1823 18.9608 17.0711 17.0721C18.9598 15.1833 20 12.6721 20 10.001C20 7.32988 18.9598 4.81867 17.0711 2.92988ZM14.7776 7.62102L9.1891 13.2095C9.07469 13.3239 8.92473 13.3811 8.7748 13.3811C8.62484 13.3811 8.47488 13.3239 8.36047 13.2095L5.22242 10.0715C4.99359 9.84273 4.99359 9.47176 5.22242 9.24289C5.45121 9.01406 5.82223 9.01406 6.05105 9.24289L8.7748 11.9666L13.9489 6.79238C14.1777 6.56355 14.5487 6.56355 14.7776 6.79238C15.0064 7.02121 15.0064 7.39219 14.7776 7.62102Z" fill="#7DC84B"/>
</svg>
