<svg width="13" height="13" viewBox="0 0 13 13" fill="none" xmlns="http://www.w3.org/2000/svg">
<path d="M12.4583 5.95833C12.1593 5.95833 11.9167 6.201 11.9167 6.5C11.9167 9.48675 9.48675 11.9167 6.5 11.9167C3.51325 11.9167 1.08333 9.48675 1.08333 6.5C1.08333 3.51325 3.51325 1.08333 6.5 1.08333C7.9541 1.08333 9.31911 1.65154 10.3437 2.68342C10.5544 2.89548 10.8975 2.89683 11.1096 2.68613C11.3219 2.47542 11.323 2.13227 11.1123 1.91994C9.88298 0.681958 8.24471 0 6.5 0C2.91579 0 0 2.91579 0 6.5C0 10.0842 2.91579 13 6.5 13C10.0839 13 13 10.0842 13 6.5C13 6.201 12.7573 5.95833 12.4583 5.95833Z" fill="#0085FF"/>
<path d="M7.26601 6.49998L8.50805 5.25793C8.71957 5.04641 8.71957 4.70354 8.50805 4.49201C8.29653 4.28049 7.95365 4.28049 7.74213 4.49201L6.50009 5.73406L5.25805 4.49201C5.0468 4.28049 4.70339 4.28049 4.49214 4.49201C4.28062 4.70354 4.28062 5.04641 4.49214 5.25793L5.73418 6.49998L4.49214 7.74202C4.28062 7.95354 4.28062 8.29642 4.49214 8.50794C4.59776 8.61383 4.73643 8.66665 4.87509 8.66665C5.01376 8.66665 5.15243 8.61383 5.25805 8.50794L6.50009 7.26589L7.74213 8.50794C7.84803 8.61383 7.98642 8.66665 8.12509 8.66665C8.26375 8.66665 8.40215 8.61383 8.50805 8.50794C8.71957 8.29642 8.71957 7.95354 8.50805 7.74202L7.26601 6.49998Z" fill="#0085FF"/>
</svg>
