<svg width="13" height="13" viewBox="0 0 13 13" fill="none" xmlns="http://www.w3.org/2000/svg">
<path d="M9.32055 4.76289C9.1093 4.55137 8.76589 4.55137 8.55464 4.76289L6.22926 7.08799L5.25805 6.11706C5.0468 5.90553 4.70339 5.90553 4.49214 6.11706C4.28062 6.32858 4.28062 6.67145 4.49214 6.88297L5.8463 8.23714C5.95193 8.34303 6.0906 8.39585 6.22926 8.39585C6.36793 8.39585 6.50659 8.34303 6.61222 8.23714L9.32055 5.52881C9.53207 5.31728 9.53207 4.97441 9.32055 4.76289Z" fill="#7DC84B"/>
<path d="M12.4583 5.95833C12.1593 5.95833 11.9167 6.201 11.9167 6.5C11.9167 9.48675 9.48675 11.9167 6.5 11.9167C3.51325 11.9167 1.08333 9.48675 1.08333 6.5C1.08333 3.51325 3.51325 1.08333 6.5 1.08333C7.9541 1.08333 9.31911 1.65154 10.3439 2.68342C10.5544 2.89602 10.8975 2.8971 11.1099 2.68613C11.3222 2.47542 11.3233 2.13254 11.1126 1.92021C9.88298 0.681958 8.24471 0 6.5 0C2.91579 0 0 2.91579 0 6.5C0 10.0842 2.91579 13 6.5 13C10.0842 13 13 10.0842 13 6.5C13 6.201 12.7573 5.95833 12.4583 5.95833Z" fill="#7DC84B"/>
</svg>
