<?xml version="1.0" encoding="UTF-8" standalone="no"?>
<svg
   xmlns:dc="http://purl.org/dc/elements/1.1/"
   xmlns:cc="http://creativecommons.org/ns#"
   xmlns:rdf="http://www.w3.org/1999/02/22-rdf-syntax-ns#"
   xmlns:svg="http://www.w3.org/2000/svg"
   xmlns="http://www.w3.org/2000/svg"
   id="svg4"
   version="1.1"
   fill="none"
   viewBox="0 0 20 20"
   height="20"
   width="20">
  <metadata
     id="metadata10">
    <rdf:RDF>
      <cc:Work
         rdf:about="">
        <dc:format>image/svg+xml</dc:format>
        <dc:type
           rdf:resource="http://purl.org/dc/dcmitype/StillImage" />
        <dc:title></dc:title>
      </cc:Work>
    </rdf:RDF>
  </metadata>
  <defs
     id="defs8" />
  <path
     id="path2"
     d="M 10 0 C 7.32887 0 4.8184375 1.0409775 2.9296875 2.9296875 C 1.0409775 4.8184375 0 7.3308331 0 10.001953 C 0 12.673053 1.0409775 15.183566 2.9296875 17.072266 C 4.8184375 18.961066 7.32891 20.001953 10 20.001953 C 12.6711 20.001953 15.181512 18.960966 17.070312 17.072266 C 18.959013 15.183466 20 12.673053 20 10.001953 C 20 7.3308331 18.959013 4.8184775 17.070312 2.9296875 C 15.181512 1.0409775 12.6711 -5.9211895e-16 10 0 z M 6.6269531 6.0429688 C 6.7772651 6.0429688 6.9285537 6.1004439 7.0429688 6.2148438 L 7.7851562 6.9570312 L 8.6132812 7.7851562 L 10 9.171875 L 11.800781 7.3710938 L 12.957031 6.2148438 C 13.071431 6.1004287 13.223084 6.0429688 13.373047 6.0429688 C 13.523009 6.0429688 13.672659 6.1004277 13.787109 6.2148438 C 14.015909 6.4436738 14.015909 6.8141387 13.787109 7.0429688 L 13.042969 7.7851562 L 12.214844 8.6132812 L 10.828125 10 L 12.630859 11.802734 L 13.787109 12.958984 C 13.901524 13.073384 13.958984 13.225038 13.958984 13.375 C 13.958984 13.524963 13.901525 13.674613 13.787109 13.789062 C 13.558279 14.017862 13.187814 14.017862 12.958984 13.789062 L 12.216797 13.044922 L 11.388672 12.216797 L 10 10.828125 L 8.1972656 12.630859 L 7.0410156 13.789062 C 6.8122156 14.017893 6.4417906 14.017893 6.2128906 13.789062 C 5.9840906 13.560232 5.9840906 13.187814 6.2128906 12.958984 L 6.9550781 12.216797 L 7.7832031 11.388672 L 9.171875 10 L 7.3710938 8.1992188 L 6.2128906 7.0429688 C 5.9840606 6.8141688 5.9840606 6.4437438 6.2128906 6.2148438 C 6.3273056 6.1004438 6.4766411 6.0429688 6.6269531 6.0429688 z "
     style="fill:#ff5555" />
</svg>
