<svg width="20" height="12" viewBox="0 0 20 12" fill="none" xmlns="http://www.w3.org/2000/svg">
<path d="M19.8217 10.4728C19.768 10.3828 19.4354 9.66024 17.8353 8.17513C16.1602 6.62001 16.3852 6.87253 18.4029 4.18358C19.6317 2.54596 20.123 1.54588 19.9692 1.11835C19.823 0.710821 18.9192 0.818328 18.9192 0.818328L15.9139 0.83583C15.9139 0.83583 15.6914 0.805828 15.5252 0.904585C15.3639 1.00209 15.2601 1.22711 15.2601 1.22711C15.2601 1.22711 14.7839 2.4947 14.1488 3.57228C12.81 5.8462 12.2737 5.96621 12.0549 5.82495C11.5461 5.49618 11.6736 4.50235 11.6736 3.7973C11.6736 1.59339 12.0074 0.674568 11.0223 0.43705C10.6948 0.358294 10.4548 0.30579 9.61848 0.29704C8.5459 0.285789 7.63708 0.30079 7.1233 0.552059C6.78077 0.719571 6.517 1.09335 6.67827 1.1146C6.87703 1.14085 7.32706 1.23586 7.56583 1.56088C7.8746 1.97966 7.86335 2.92223 7.86335 2.92223C7.86335 2.92223 8.04086 5.51618 7.44957 5.8387C7.04329 6.05997 6.487 5.60868 5.29316 3.54478C4.68187 2.48845 4.21934 1.31962 4.21934 1.31962C4.21934 1.31962 4.13058 1.1021 3.97182 0.985841C3.7793 0.844581 3.50928 0.799577 3.50928 0.799577L0.651577 0.817078C0.651577 0.817078 0.222795 0.82958 0.0652838 1.01584C-0.0747264 1.18211 0.054033 1.52463 0.054033 1.52463C0.054033 1.52463 2.2917 6.75877 4.82438 9.39772C7.1483 11.8166 9.78599 11.6579 9.78599 11.6579H10.9811C10.9811 11.6579 11.3424 11.6179 11.5261 11.4191C11.6961 11.2366 11.6899 10.8941 11.6899 10.8941C11.6899 10.8941 11.6661 9.29021 12.4112 9.05394C13.145 8.82142 14.0876 10.6041 15.0864 11.2904C15.8414 11.8091 16.4152 11.6954 16.4152 11.6954L19.0867 11.6579C19.0867 11.6579 20.4843 11.5716 19.8217 10.4728Z" fill="#4A83B8"/>
</svg>
