<svg width="17" height="13" viewBox="0 0 17 13" fill="none" xmlns="http://www.w3.org/2000/svg">
<g clip-path="url(#clip0)">
<path d="M14.6708 6.50006C14.6708 2.91556 11.7794 0.00927734 8.21246 0.00927734C5.95245 0.00927734 3.96679 1.17803 2.8125 2.9447L3.67754 3.81408C4.59698 2.24998 6.27376 1.18942 8.21246 1.18942C11.1309 1.18942 13.4965 3.56662 13.4965 6.50006H11.7352L14.0837 8.86034L16.4322 6.50006H14.6708Z" fill="#76B6DB"/>
<path d="M12.7468 9.18607C11.8274 10.7501 10.1506 11.8107 8.21189 11.8107C5.29348 11.8107 2.92779 9.43349 2.92779 6.50005H4.68916L2.34067 4.13977L-0.0078125 6.50005H1.75355C1.75355 10.0845 4.64494 12.9908 8.21189 12.9908C10.4719 12.9908 12.4576 11.8221 13.6118 10.0554L12.7468 9.18607Z" fill="#76B6DB"/>
</g>
<defs>
<clipPath id="clip0">
<rect width="16.4211" height="13" fill="white"/>
</clipPath>
</defs>
</svg>
