<svg width="627" height="504" viewBox="0 0 627 504" fill="none" xmlns="http://www.w3.org/2000/svg">
<line x1="190.5" y1="11" x2="190.5" y2="501" stroke="url(#paint0_linear)"/>
<line opacity="0.09" x1="162.5" y1="14" x2="162.5" y2="504" stroke="white"/>
<line opacity="0.09" x1="104.5" y1="13" x2="104.5" y2="503" stroke="white"/>
<line x1="442.5" y1="11" x2="442.5" y2="501" stroke="url(#paint1_linear)"/>
<line opacity="0.09" x1="472.5" y1="11" x2="472.5" y2="501" stroke="white"/>
<line opacity="0.09" x1="570.5" y1="2.18557e-08" x2="570.5" y2="490" stroke="white"/>
<line opacity="0.09" x1="246.5" y1="14" x2="246.5" y2="504" stroke="white"/>
<line opacity="0.09" x1="414.5" y1="11" x2="414.5" y2="501" stroke="white"/>
<line opacity="0.09" x1="512.5" y1="2.18557e-08" x2="512.5" y2="490" stroke="white"/>
<line x1="5" y1="377.5" x2="627" y2="377.5" stroke="url(#paint2_linear)"/>
<line y1="151.5" x2="622" y2="151.5" stroke="url(#paint3_linear)"/>
<line y1="94.5" x2="622" y2="94.5" stroke="url(#paint4_linear)"/>
<line x1="5" y1="125.5" x2="627" y2="125.5" stroke="url(#paint5_linear)"/>
<g filter="url(#filter0_f)">
<ellipse cx="325" cy="268.5" rx="123" ry="116.5" fill="#2B7B79" fill-opacity="0.2"/>
</g>
<g filter="url(#filter1_i)">
<path d="M426.847 216.078H421.167C419.391 211.299 417.311 206.666 414.931 202.218L419.3 197.845C424.831 192.31 424.831 183.335 419.3 177.799L389.253 147.728C383.723 142.192 374.755 142.192 369.224 147.728L363.589 153.367C359.523 151.448 355.32 149.773 351.006 148.342V140.175C351.006 132.346 344.665 126 336.843 126H294.352C286.53 126 280.189 132.346 280.189 140.175V148.342C275.875 149.772 271.672 151.447 267.606 153.367L261.971 147.728C256.44 142.192 247.473 142.192 241.942 147.728L211.895 177.799C206.364 183.335 206.364 192.31 211.895 197.845L216.264 202.218C213.884 206.667 211.805 211.299 210.028 216.078H204.348C196.528 216.078 190.188 222.424 190.188 230.253V272.779C190.188 280.608 196.528 286.954 204.35 286.954H207.487C209.141 292.626 211.222 298.116 213.703 303.379L211.896 305.187C206.365 310.723 206.365 319.697 211.896 325.233L241.943 355.305C247.474 360.841 256.441 360.841 261.972 355.305L262.512 354.764C268.135 357.778 274.048 360.318 280.19 362.354V362.858C280.19 370.687 286.531 377.033 294.353 377.033H336.844C344.666 377.033 351.007 370.687 351.007 362.858V362.354C357.148 360.318 363.062 357.778 368.684 354.764L369.225 355.305C374.756 360.841 383.723 360.841 389.254 355.305L419.301 325.233C424.832 319.697 424.832 310.723 419.301 305.187L417.494 303.379C419.975 298.115 422.055 292.626 423.71 286.954H426.847C434.67 286.954 441.01 280.608 441.01 272.779V230.253C441.009 222.424 434.669 216.078 426.847 216.078ZM315.598 300.658C290.593 300.658 270.326 280.374 270.326 255.348C270.326 230.321 290.593 210.038 315.598 210.038C340.604 210.038 360.87 230.322 360.87 255.348C360.87 280.374 340.604 300.658 315.598 300.658Z" fill="url(#paint6_linear)"/>
</g>
<path d="M373.887 197.012C341.692 164.791 289.507 164.791 257.313 197.012C225.12 229.233 225.119 281.462 257.313 313.682C289.508 345.903 341.693 345.904 373.887 313.682C406.08 281.461 406.081 229.233 373.887 197.012ZM283.588 287.386C265.906 269.69 265.906 241.005 283.588 223.309C301.269 205.613 329.931 205.613 347.613 223.309C365.294 241.005 365.294 269.69 347.613 287.386C329.931 305.083 301.27 305.083 283.588 287.386Z" fill="url(#paint7_linear)"/>
<path d="M346.059 254.52C346.059 254.52 339.445 257.869 337.392 257.497C335.34 257.125 327.417 249.389 325.85 249.56C324.282 249.731 325.989 253.701 324.62 253.404C321.488 252.784 319.954 250.478 318.886 247.745C317.818 245.013 316.659 244.293 315.505 244.224C314.351 244.154 314.175 249.384 313.521 249.831C312.866 250.279 310.803 249.054 310.435 246.968C309.904 243.96 309.272 240.152 308.436 239.929C307.599 239.706 307.211 242.315 305.766 242.166C304.322 242.017 299.469 238.856 298.557 239.005C297.645 239.154 298.012 240.082 296.796 240.306C295.579 240.529 290.105 239.71 290.105 239.71C290.105 239.71 294.895 242.464 297.556 244.771C300.217 247.078 311.696 257.348 318.082 259.208C324.468 261.069 329.79 261.367 332.603 260.622C335.416 259.878 345.147 255.413 345.147 255.413L346.059 254.52Z" fill="#8CEAFF"/>
<path d="M344.058 258.121C344.058 258.121 340.417 261.358 333.479 264.079C326.541 266.799 323.501 266.033 320.52 266.969C317.539 267.906 315.928 270.565 315.097 269.892C314.206 269.171 316.944 266.187 315.511 264.915C314.078 263.643 307.131 269 306.227 267.567C305.323 266.134 308.48 263.626 307.199 262.382C305.919 261.138 298.088 262.495 298.502 260.874C298.917 259.252 301.944 260.234 301.477 258.234C301.009 256.234 294.998 255.779 295.418 254.094C295.837 252.409 296.597 250.056 295.412 248.137C294.228 246.218 292.068 243.008 292.102 243C292.102 243 300.197 248.769 304.94 252.766C309.684 256.763 313.901 260.459 319.097 261.854C324.292 263.249 330.128 263.513 333.705 262.533C337.281 261.552 344.058 258.121 344.058 258.121H344.058Z" fill="#72DEF6"/>
<g filter="url(#filter2_f)">
<circle cx="135" cy="139" r="18" fill="#3F7B0D"/>
</g>
<circle cx="132.5" cy="123.5" r="35" stroke="#C8F361" stroke-opacity="0.5"/>
<circle cx="132.5" cy="123.5" r="28.5" fill="url(#paint8_linear)"/>
<path d="M129.853 114.193C129.853 113.534 129.319 113 128.661 113H125.881C123.321 113 121.246 115.077 121.246 117.639V130.361C121.246 132.923 123.321 135 125.881 135H138.593C141.153 135 143.228 132.923 143.228 130.361V127.312C143.228 126.654 142.694 126.12 142.036 126.12C141.378 126.12 140.844 126.654 140.844 127.312V130.361C140.844 131.606 139.836 132.614 138.593 132.614H125.881C124.638 132.614 123.63 131.606 123.63 130.361V117.639C123.63 116.394 124.638 115.386 125.881 115.386H128.661C129.319 115.386 129.853 114.852 129.853 114.193Z" fill="white"/>
<path d="M128.409 131C128.874 131 128.775 130.355 128.667 130.032C128.366 128.634 128.202 125.31 129.958 123.194C131.439 121.409 135.137 121.12 137.588 121.228C138.281 121.259 138.801 121.846 138.801 122.54C138.801 123.757 140.274 124.367 141.135 123.507L144.049 120.594C145.251 119.393 145.251 117.446 144.049 116.245L141.175 113.372C140.299 112.497 138.801 113.117 138.801 114.356C138.801 115.159 138.123 115.803 137.32 115.791C136.236 115.774 134.661 115.777 132.669 115.839C128.538 115.968 125.698 119.387 125.311 122.161C124.923 124.935 126.279 128.355 126.924 129.452L126.949 129.494C127.576 130.56 127.835 131 128.409 131Z" fill="white"/>
<circle cx="576" cy="435" r="14.25" stroke="#C8F361" stroke-width="1.5"/>
<path d="M573.878 430.101C573.878 429.755 573.597 429.474 573.25 429.474H571.787C570.44 429.474 569.348 430.567 569.348 431.915V438.611C569.348 439.96 570.44 441.053 571.787 441.053H578.478C579.825 441.053 580.917 439.96 580.917 438.611V437.006C580.917 436.66 580.636 436.379 580.29 436.379C579.943 436.379 579.662 436.66 579.662 437.006V438.611C579.662 439.266 579.132 439.797 578.478 439.797H571.787C571.133 439.797 570.602 439.266 570.602 438.611V431.915C570.602 431.26 571.133 430.729 571.787 430.729H573.25C573.597 430.729 573.878 430.448 573.878 430.101Z" fill="white"/>
<path d="M573.116 438.947C573.361 438.947 573.308 438.608 573.252 438.438C573.093 437.702 573.007 435.953 573.931 434.839C574.711 433.899 576.657 433.747 577.947 433.804C578.312 433.821 578.586 434.129 578.586 434.495C578.586 435.136 579.36 435.457 579.814 435.004L581.348 433.47C581.98 432.839 581.98 431.814 581.348 431.182L579.835 429.67C579.374 429.209 578.586 429.535 578.586 430.187C578.586 430.61 578.229 430.949 577.806 430.943C577.235 430.934 576.406 430.935 575.358 430.968C573.184 431.036 571.689 432.835 571.485 434.295C571.281 435.756 571.995 437.555 572.335 438.133L572.348 438.155C572.678 438.716 572.814 438.947 573.116 438.947Z" fill="white"/>
<g filter="url(#filter3_f)">
<circle cx="223" cy="66" r="10.25" stroke="#C8F361" stroke-width="1.5"/>
<path d="M221.435 62.4076C221.435 62.1534 221.229 61.9473 220.975 61.9473H219.902C218.914 61.9473 218.113 62.7488 218.113 63.7376V68.6482C218.113 69.6369 218.914 70.4385 219.902 70.4385H224.809C225.797 70.4385 226.597 69.6369 226.597 68.6482V67.4713C226.597 67.2173 226.391 67.0113 226.137 67.0113C225.883 67.0113 225.677 67.2173 225.677 67.4713V68.6482C225.677 69.1284 225.288 69.5178 224.809 69.5178H219.902C219.422 69.5178 219.033 69.1284 219.033 68.6482V63.7376C219.033 63.2573 219.422 62.868 219.902 62.868H220.975C221.229 62.868 221.435 62.6619 221.435 62.4076Z" fill="white"/>
<path d="M220.879 68.8948C221.058 68.8948 221.02 68.6458 220.978 68.5213C220.862 67.9818 220.799 66.6986 221.476 65.8818C222.048 65.1929 223.475 65.0815 224.421 65.1233C224.689 65.1352 224.89 65.3617 224.89 65.6294C224.89 66.0994 225.458 66.3349 225.79 66.0026L226.915 64.8784C227.379 64.415 227.379 63.6633 226.915 63.1999L225.806 62.0911C225.468 61.7532 224.89 61.9926 224.89 62.4707C224.89 62.7807 224.628 63.0294 224.318 63.0245C223.9 63.018 223.291 63.0191 222.523 63.0431C220.928 63.0929 219.832 64.4127 219.683 65.4834C219.533 66.5541 220.056 67.8739 220.305 68.2972L220.315 68.3134C220.557 68.725 220.657 68.8948 220.879 68.8948Z" fill="white"/>
</g>
<g filter="url(#filter4_f)">
<circle cx="543" cy="277" r="18" fill="#0F0D7B" fill-opacity="0.62"/>
</g>
<circle cx="540.5" cy="261.5" r="28.5" fill="#6055DE"/>
<circle cx="540.5" cy="261.5" r="35" stroke="#5445FF" stroke-opacity="0.42"/>
<path d="M537.049 256.516C534.459 259.197 535.025 263.648 537.991 265.62C538.089 265.685 538.219 265.672 538.303 265.59C538.928 264.979 539.456 264.387 539.919 263.635C539.99 263.52 539.946 263.371 539.827 263.306C539.374 263.061 538.924 262.601 538.67 262.115L538.67 262.115C538.366 261.51 538.263 260.831 538.424 260.131C538.424 260.131 538.424 260.131 538.424 260.131C538.609 259.234 539.571 258.4 540.306 257.628C540.305 257.627 540.303 257.627 540.302 257.626L543.055 254.814C544.152 253.693 545.957 253.684 547.066 254.793C548.185 255.891 548.204 257.707 547.107 258.828L545.439 260.544C545.362 260.623 545.337 260.739 545.373 260.844C545.757 261.958 545.851 263.53 545.594 264.717C545.587 264.75 545.628 264.772 545.652 264.748L549.201 261.122C551.468 258.806 551.449 255.035 549.158 252.742C546.82 250.402 543.014 250.422 540.7 252.785L537.064 256.5C537.059 256.505 537.054 256.511 537.049 256.516Z" fill="white"/>
<path d="M543.683 266.13C543.683 266.131 543.683 266.131 543.683 266.131C543.685 266.13 543.687 266.129 543.689 266.128C544.414 264.802 544.556 263.282 544.217 261.8L544.215 261.801L544.213 261.801C543.891 260.481 543.007 259.17 541.805 258.363C541.702 258.293 541.537 258.301 541.44 258.38C540.832 258.872 540.236 259.504 539.843 260.309C539.781 260.436 539.828 260.588 539.949 260.658C540.405 260.923 540.817 261.311 541.093 261.827L541.094 261.826C541.308 262.19 541.52 262.881 541.383 263.622C541.383 263.622 541.383 263.622 541.383 263.622C541.255 264.606 540.262 265.508 539.473 266.321L539.474 266.322C538.873 266.936 537.347 268.494 536.735 269.119C535.638 270.239 533.824 270.258 532.705 269.16C531.585 268.062 531.566 266.246 532.663 265.126L534.336 263.404C534.412 263.326 534.438 263.213 534.404 263.109C534.033 261.969 533.931 260.433 534.165 259.247C534.172 259.214 534.131 259.193 534.108 259.217L530.612 262.788C528.321 265.128 528.34 268.937 530.655 271.254C532.993 273.546 536.779 273.508 539.07 271.168C539.866 270.277 543.272 267.121 543.683 266.13Z" fill="white"/>
<circle cx="71" cy="428" r="13.25" stroke="#6055DE" stroke-width="1.5"/>
<path d="M69.1352 425.551C67.8629 426.869 68.1405 429.055 69.5979 430.024C69.6459 430.056 69.7098 430.049 69.7511 430.009C70.0579 429.709 70.3174 429.418 70.5447 429.049C70.5795 428.992 70.5579 428.919 70.4995 428.887C70.2772 428.767 70.056 428.541 69.9315 428.302L69.9314 428.302C69.7822 428.005 69.7314 427.671 69.8104 427.327C69.8105 427.327 69.8105 427.327 69.8106 427.327C69.9015 426.887 70.3741 426.477 70.7351 426.098C70.7343 426.098 70.7336 426.097 70.7328 426.097L72.0853 424.716C72.6243 424.165 73.5109 424.16 74.0554 424.705C74.6055 425.245 74.6146 426.137 74.0756 426.687L73.2564 427.53C73.2185 427.569 73.2062 427.626 73.224 427.678C73.4126 428.225 73.459 428.997 73.3326 429.58C73.329 429.597 73.3492 429.607 73.3608 429.595L75.1044 427.814C76.2182 426.677 76.2087 424.824 75.0834 423.698C73.9349 422.548 72.0653 422.558 70.9286 423.719L69.1422 425.544C69.1398 425.546 69.1376 425.549 69.1352 425.551Z" fill="white"/>
<path d="M72.3954 430.275C72.3953 430.275 72.3953 430.275 72.3953 430.275C72.3964 430.274 72.3974 430.274 72.3986 430.273C72.7544 429.622 72.8244 428.875 72.6577 428.147L72.6569 428.148L72.6561 428.148C72.4977 427.499 72.0633 426.855 71.4732 426.459C71.4224 426.425 71.3413 426.429 71.2938 426.467C70.9949 426.709 70.7023 427.019 70.5093 427.415C70.479 427.477 70.5017 427.552 70.5614 427.586C70.7855 427.717 70.9878 427.907 71.1233 428.16L71.1235 428.16C71.229 428.339 71.3331 428.678 71.2657 429.042C71.2657 429.042 71.2656 429.042 71.2656 429.042C71.2027 429.526 70.7152 429.969 70.3276 430.368L70.3278 430.368C70.0328 430.67 69.2829 431.435 68.9827 431.742C68.4437 432.293 67.5527 432.302 67.0026 431.763C66.4525 431.223 66.4434 430.331 66.9824 429.781L67.804 428.935C67.8413 428.897 67.8539 428.841 67.8374 428.79C67.6549 428.23 67.6049 427.476 67.7201 426.893C67.7233 426.877 67.7033 426.867 67.6918 426.878L65.9744 428.633C64.8492 429.782 64.8588 431.653 65.9957 432.791C67.1441 433.917 69.0042 433.898 70.1294 432.749C70.5203 432.311 72.1936 430.761 72.3954 430.275Z" fill="white"/>
<g filter="url(#filter5_f)">
<circle cx="495" cy="187" r="11.25" stroke="#6055DE" stroke-width="1.5"/>
<path d="M492.949 184.901C491.858 186.03 492.096 187.904 493.346 188.735C493.387 188.762 493.442 188.757 493.477 188.722C493.74 188.465 493.962 188.216 494.157 187.899C494.187 187.85 494.168 187.788 494.118 187.76C493.928 187.657 493.738 187.463 493.632 187.259L493.631 187.259C493.504 187.004 493.46 186.718 493.528 186.423C493.528 186.423 493.528 186.423 493.528 186.423C493.606 186.046 494.011 185.694 494.32 185.37C494.32 185.369 494.319 185.369 494.318 185.369L495.478 184.185C495.94 183.713 496.7 183.709 497.166 184.176C497.638 184.638 497.646 185.403 497.184 185.875L496.482 186.597C496.449 186.631 496.438 186.68 496.454 186.724C496.615 187.193 496.655 187.855 496.547 188.354C496.544 188.368 496.561 188.378 496.571 188.367L498.065 186.841C499.02 185.866 499.012 184.278 498.047 183.312C497.063 182.327 495.461 182.335 494.486 183.331L492.955 184.895C492.953 184.897 492.951 184.899 492.949 184.901Z" fill="white"/>
<path d="M495.741 188.949C495.741 188.95 495.741 188.95 495.741 188.95C495.742 188.949 495.743 188.949 495.744 188.948C496.049 188.39 496.109 187.75 495.966 187.126L495.966 187.127L495.965 187.126C495.829 186.571 495.457 186.019 494.951 185.679C494.907 185.65 494.838 185.653 494.797 185.686C494.541 185.893 494.29 186.159 494.125 186.498C494.099 186.552 494.118 186.616 494.169 186.645C494.361 186.757 494.535 186.92 494.651 187.137L494.651 187.137C494.742 187.29 494.831 187.581 494.773 187.893C494.773 187.893 494.773 187.893 494.773 187.893C494.719 188.308 494.301 188.687 493.969 189.03L493.969 189.03C493.716 189.289 493.074 189.945 492.816 190.208C492.354 190.68 491.59 190.687 491.119 190.225C490.647 189.763 490.64 188.998 491.102 188.526L491.806 187.802C491.838 187.769 491.849 187.721 491.834 187.677C491.678 187.197 491.635 186.55 491.734 186.051C491.737 186.037 491.72 186.028 491.71 186.039L490.238 187.542C489.273 188.527 489.281 190.131 490.256 191.107C491.24 192.072 492.835 192.056 493.799 191.07C494.134 190.695 495.568 189.366 495.741 188.949Z" fill="white"/>
</g>
<circle cx="545" cy="127" r="13.25" stroke="#D5D955" stroke-width="1.5"/>
<path d="M549.343 121H544.983C544.682 121 544.438 121.244 544.438 121.545C544.438 121.847 544.682 122.091 544.983 122.091H548.027L542.417 127.705C542.205 127.918 542.205 128.264 542.417 128.477C542.524 128.583 542.663 128.636 542.803 128.636C542.942 128.636 543.082 128.583 543.188 128.477L548.798 122.862V125.909C548.798 126.21 549.042 126.455 549.343 126.455C549.644 126.455 549.888 126.21 549.888 125.909V121.545C549.888 121.244 549.644 121 549.343 121Z" fill="white"/>
<path d="M547.163 126.455C546.862 126.455 546.618 126.699 546.618 127V131.909H538.988V124.273H543.893C544.194 124.273 544.438 124.029 544.438 123.727C544.438 123.426 544.194 123.182 543.893 123.182H538.443C538.142 123.182 537.898 123.426 537.898 123.727V132.455C537.898 132.756 538.142 133 538.443 133H547.163C547.464 133 547.708 132.756 547.708 132.455V127C547.708 126.699 547.464 126.455 547.163 126.455Z" fill="white"/>
<g filter="url(#filter6_f)">
<circle cx="220" cy="365" r="18" fill="#BFA033" fill-opacity="0.62"/>
</g>
<circle cx="217.5" cy="349.5" r="28.5" fill="url(#paint9_linear)"/>
<g clip-path="url(#clip0)">
<path d="M229.908 336H221.181C220.579 336 220.09 336.488 220.09 337.091C220.09 337.693 220.579 338.182 221.181 338.182H227.275L216.046 349.41C215.62 349.837 215.62 350.527 216.046 350.953C216.259 351.166 216.538 351.273 216.817 351.273C217.097 351.273 217.376 351.166 217.589 350.953L228.817 339.725V345.818C228.817 346.421 229.306 346.909 229.908 346.909C230.511 346.909 230.999 346.421 230.999 345.818V337.091C230.999 336.488 230.511 336 229.908 336Z" fill="white"/>
<path d="M225.545 346.909C224.943 346.909 224.455 347.397 224.455 348V357.818H209.182V342.545H219C219.602 342.545 220.091 342.057 220.091 341.454C220.091 340.852 219.602 340.364 219 340.364H208.091C207.488 340.364 207 340.852 207 341.454V358.909C207 359.511 207.488 360 208.091 360H225.545C226.148 360 226.636 359.511 226.636 358.909V348C226.636 347.397 226.148 346.909 225.545 346.909Z" fill="white"/>
</g>
<circle cx="217.5" cy="349.5" r="35" stroke="#D4DC55" stroke-opacity="0.62"/>
<g filter="url(#filter7_f)">
<ellipse cx="443.889" cy="112.632" rx="17.3539" ry="17.3684" fill="#2996B8" fill-opacity="0.62"/>
</g>
<ellipse cx="442.477" cy="96.6753" rx="27.4771" ry="27.5" fill="url(#paint10_linear)"/>
<circle cx="443.5" cy="96.5" r="35" stroke="#67E2F7" stroke-opacity="0.6"/>
<path fill-rule="evenodd" clip-rule="evenodd" d="M455.59 92.1213L440.148 107.576L431.367 98.788L435.606 94.5453L440.148 99.0907L451.351 87.8787L455.59 92.1213Z" fill="white"/>
<g filter="url(#filter8_f)">
<ellipse cx="106.487" cy="258.982" rx="8.83475" ry="8.8421" fill="#2996B8" fill-opacity="0.62"/>
</g>
<path d="M118.5 251.368C118.5 258.687 112.572 264.618 105.262 264.618C97.951 264.618 92.0234 258.687 92.0234 251.368C92.0234 244.05 97.951 238.118 105.262 238.118C112.572 238.118 118.5 244.05 118.5 251.368Z" stroke="#67E3F8" stroke-width="1.5"/>
<path fill-rule="evenodd" clip-rule="evenodd" d="M111.937 249.05L104.076 256.918L99.6055 252.444L101.764 250.284L104.076 252.598L109.779 246.89L111.937 249.05Z" fill="white"/>
<g filter="url(#filter9_f)">
<ellipse cx="264.918" cy="77.3331" rx="5.6795" ry="5.68421" fill="#2996B8" fill-opacity="0.62"/>
</g>
<path d="M272.372 72.4385C272.372 76.9954 268.681 80.6885 264.129 80.6885C259.578 80.6885 255.887 76.9954 255.887 72.4385C255.887 67.8815 259.578 64.1885 264.129 64.1885C268.681 64.1885 272.372 67.8815 272.372 72.4385Z" stroke="#67E3F8" stroke-width="1.5"/>
<path fill-rule="evenodd" clip-rule="evenodd" d="M268.42 70.9481L263.366 76.006L260.492 73.1299L261.88 71.7414L263.366 73.229L267.032 69.5596L268.42 70.9481Z" fill="white"/>
<g filter="url(#filter10_f)">
<g filter="url(#filter11_f)">
<ellipse cx="471.742" cy="419.895" rx="5.67938" ry="5.68422" fill="#2996B8" fill-opacity="0.62"/>
</g>
<path d="M479.196 415C479.196 419.557 475.505 423.25 470.953 423.25C466.402 423.25 462.711 419.557 462.711 415C462.711 410.443 466.402 406.75 470.953 406.75C475.505 406.75 479.196 410.443 479.196 415Z" stroke="#67E3F8" stroke-width="1.5"/>
<path fill-rule="evenodd" clip-rule="evenodd" d="M475.244 413.51L470.19 418.567L467.316 415.691L468.704 414.303L470.19 415.79L473.857 412.121L475.244 413.51Z" fill="white"/>
</g>
<defs>
<filter id="filter0_f" x="172" y="122" width="306" height="293" filterUnits="userSpaceOnUse" color-interpolation-filters="sRGB">
<feFlood flood-opacity="0" result="BackgroundImageFix"/>
<feBlend mode="normal" in="SourceGraphic" in2="BackgroundImageFix" result="shape"/>
<feGaussianBlur stdDeviation="15" result="effect1_foregroundBlur"/>
</filter>
<filter id="filter1_i" x="190.188" y="126" width="250.823" height="251.033" filterUnits="userSpaceOnUse" color-interpolation-filters="sRGB">
<feFlood flood-opacity="0" result="BackgroundImageFix"/>
<feBlend mode="normal" in="SourceGraphic" in2="BackgroundImageFix" result="shape"/>
<feColorMatrix in="SourceAlpha" type="matrix" values="0 0 0 0 0 0 0 0 0 0 0 0 0 0 0 0 0 0 127 0" result="hardAlpha"/>
<feOffset dy="1"/>
<feComposite in2="hardAlpha" operator="arithmetic" k2="-1" k3="1"/>
<feColorMatrix type="matrix" values="0 0 0 0 0.545833 0 0 0 0 0.909167 0 0 0 0 1 0 0 0 1 0"/>
<feBlend mode="normal" in2="shape" result="effect1_innerShadow"/>
</filter>
<filter id="filter2_f" x="87" y="91" width="96" height="96" filterUnits="userSpaceOnUse" color-interpolation-filters="sRGB">
<feFlood flood-opacity="0" result="BackgroundImageFix"/>
<feBlend mode="normal" in="SourceGraphic" in2="BackgroundImageFix" result="shape"/>
<feGaussianBlur stdDeviation="15" result="effect1_foregroundBlur"/>
</filter>
<filter id="filter3_f" x="209" y="52" width="28" height="28" filterUnits="userSpaceOnUse" color-interpolation-filters="sRGB">
<feFlood flood-opacity="0" result="BackgroundImageFix"/>
<feBlend mode="normal" in="SourceGraphic" in2="BackgroundImageFix" result="shape"/>
<feGaussianBlur stdDeviation="1.5" result="effect1_foregroundBlur"/>
</filter>
<filter id="filter4_f" x="495" y="229" width="96" height="96" filterUnits="userSpaceOnUse" color-interpolation-filters="sRGB">
<feFlood flood-opacity="0" result="BackgroundImageFix"/>
<feBlend mode="normal" in="SourceGraphic" in2="BackgroundImageFix" result="shape"/>
<feGaussianBlur stdDeviation="15" result="effect1_foregroundBlur"/>
</filter>
<filter id="filter5_f" x="480" y="172" width="30" height="30" filterUnits="userSpaceOnUse" color-interpolation-filters="sRGB">
<feFlood flood-opacity="0" result="BackgroundImageFix"/>
<feBlend mode="normal" in="SourceGraphic" in2="BackgroundImageFix" result="shape"/>
<feGaussianBlur stdDeviation="1.5" result="effect1_foregroundBlur"/>
</filter>
<filter id="filter6_f" x="172" y="317" width="96" height="96" filterUnits="userSpaceOnUse" color-interpolation-filters="sRGB">
<feFlood flood-opacity="0" result="BackgroundImageFix"/>
<feBlend mode="normal" in="SourceGraphic" in2="BackgroundImageFix" result="shape"/>
<feGaussianBlur stdDeviation="15" result="effect1_foregroundBlur"/>
</filter>
<filter id="filter7_f" x="396.535" y="65.2632" width="94.7079" height="94.7368" filterUnits="userSpaceOnUse" color-interpolation-filters="sRGB">
<feFlood flood-opacity="0" result="BackgroundImageFix"/>
<feBlend mode="normal" in="SourceGraphic" in2="BackgroundImageFix" result="shape"/>
<feGaussianBlur stdDeviation="15" result="effect1_foregroundBlur"/>
</filter>
<filter id="filter8_f" x="67.6523" y="220.14" width="77.6695" height="77.6842" filterUnits="userSpaceOnUse" color-interpolation-filters="sRGB">
<feFlood flood-opacity="0" result="BackgroundImageFix"/>
<feBlend mode="normal" in="SourceGraphic" in2="BackgroundImageFix" result="shape"/>
<feGaussianBlur stdDeviation="15" result="effect1_foregroundBlur"/>
</filter>
<filter id="filter9_f" x="229.238" y="41.6489" width="71.359" height="71.3684" filterUnits="userSpaceOnUse" color-interpolation-filters="sRGB">
<feFlood flood-opacity="0" result="BackgroundImageFix"/>
<feBlend mode="normal" in="SourceGraphic" in2="BackgroundImageFix" result="shape"/>
<feGaussianBlur stdDeviation="15" result="effect1_foregroundBlur"/>
</filter>
<filter id="filter10_f" x="458.961" y="403" width="23.985" height="25.5789" filterUnits="userSpaceOnUse" color-interpolation-filters="sRGB">
<feFlood flood-opacity="0" result="BackgroundImageFix"/>
<feBlend mode="normal" in="SourceGraphic" in2="BackgroundImageFix" result="shape"/>
<feGaussianBlur stdDeviation="1.5" result="effect1_foregroundBlur"/>
</filter>
<filter id="filter11_f" x="436.062" y="384.21" width="71.3588" height="71.3684" filterUnits="userSpaceOnUse" color-interpolation-filters="sRGB">
<feFlood flood-opacity="0" result="BackgroundImageFix"/>
<feBlend mode="normal" in="SourceGraphic" in2="BackgroundImageFix" result="shape"/>
<feGaussianBlur stdDeviation="15" result="effect1_foregroundBlur"/>
</filter>
<linearGradient id="paint0_linear" x1="190" y1="11" x2="190" y2="501" gradientUnits="userSpaceOnUse">
<stop stop-color="white" stop-opacity="0.26"/>
<stop offset="1" stop-color="white" stop-opacity="0.28"/>
</linearGradient>
<linearGradient id="paint1_linear" x1="442" y1="11" x2="442" y2="501" gradientUnits="userSpaceOnUse">
<stop stop-color="white" stop-opacity="0.26"/>
<stop offset="1" stop-color="white" stop-opacity="0.28"/>
</linearGradient>
<linearGradient id="paint2_linear" x1="5" y1="378" x2="627" y2="378" gradientUnits="userSpaceOnUse">
<stop stop-color="white" stop-opacity="0.05"/>
<stop offset="1" stop-color="white" stop-opacity="0.28"/>
</linearGradient>
<linearGradient id="paint3_linear" x1="0" y1="152" x2="622" y2="152" gradientUnits="userSpaceOnUse">
<stop stop-color="white" stop-opacity="0.04"/>
<stop offset="1" stop-color="white" stop-opacity="0.13"/>
</linearGradient>
<linearGradient id="paint4_linear" x1="0" y1="95" x2="622" y2="95" gradientUnits="userSpaceOnUse">
<stop stop-color="white" stop-opacity="0.04"/>
<stop offset="1" stop-color="white" stop-opacity="0.13"/>
</linearGradient>
<linearGradient id="paint5_linear" x1="5" y1="126" x2="627" y2="126" gradientUnits="userSpaceOnUse">
<stop stop-color="white" stop-opacity="0.05"/>
<stop offset="1" stop-color="white" stop-opacity="0.28"/>
</linearGradient>
<linearGradient id="paint6_linear" x1="225.376" y1="161.219" x2="418.454" y2="354.136" gradientUnits="userSpaceOnUse">
<stop stop-color="#76E2F8"/>
<stop offset="1" stop-color="#48B2E3"/>
</linearGradient>
<linearGradient id="paint7_linear" x1="315.6" y1="339.343" x2="315.6" y2="159.893" gradientUnits="userSpaceOnUse">
<stop stop-color="#6FDCFF"/>
<stop offset="1" stop-color="#7694FF"/>
</linearGradient>
<linearGradient id="paint8_linear" x1="132.5" y1="95" x2="132.5" y2="152" gradientUnits="userSpaceOnUse">
<stop stop-color="#D0F763"/>
<stop offset="1" stop-color="#93DE55"/>
</linearGradient>
<linearGradient id="paint9_linear" x1="217.5" y1="321" x2="217.5" y2="378" gradientUnits="userSpaceOnUse">
<stop stop-color="#D3DE55"/>
<stop offset="1" stop-color="#DEC055"/>
</linearGradient>
<linearGradient id="paint10_linear" x1="442.477" y1="69.1753" x2="442.477" y2="124.175" gradientUnits="userSpaceOnUse">
<stop stop-color="#6AEAFC"/>
<stop offset="1" stop-color="#55B5DE"/>
</linearGradient>
<clipPath id="clip0">
<rect width="24" height="24" fill="white" transform="translate(207 336)"/>
</clipPath>
</defs>
</svg>
