<svg width="15" height="15" viewBox="0 0 15 15" fill="none" xmlns="http://www.w3.org/2000/svg">
<path d="M13.6215 3.17551C13.5073 3.01428 13.3882 2.85704 13.2615 2.70565C11.8848 1.05358 9.81302 0 7.5 0C7.49569 0 7.49231 0.000307705 7.48861 0.000307705C7.48615 0.000307705 7.48431 0 7.48185 0C7.47354 0 7.46492 0.000923115 7.456 0.000923115C5.16052 0.0141544 3.1069 1.06466 1.73823 2.70565C1.61207 2.85735 1.49237 3.01428 1.37821 3.17551C0.511713 4.39864 0 5.89009 0 7.5C0 9.1096 0.511406 10.6017 1.37821 11.8245C1.49237 11.9857 1.61207 12.143 1.73823 12.2944C3.10659 13.9353 5.16021 14.9858 7.456 14.9991C7.46492 14.9991 7.47354 15 7.48185 15C7.48431 15 7.48615 14.9997 7.48831 14.9997C7.492 14.9997 7.49538 15 7.49969 15C9.81302 15 11.8845 13.9467 13.2615 12.2947C13.3876 12.1433 13.5073 11.9857 13.6215 11.8245C14.488 10.6014 14.9997 9.10991 14.9997 7.49969C14.9997 5.8904 14.488 4.39864 13.6215 3.17551ZM5.3076 0.975425C4.61834 1.64038 4.0454 2.61241 3.65061 3.77892C3.12167 3.58138 2.64565 3.34352 2.23517 3.07459C3.03982 2.11886 4.09801 1.38283 5.3076 0.975425ZM1.87392 3.54507C2.3404 3.85647 2.8795 4.12878 3.47553 4.3531C3.21829 5.29283 3.07059 6.33595 3.06505 7.43661H0.616641C0.629872 5.98886 1.09604 4.64911 1.87392 3.54507ZM0.639719 8.05202H3.07705C3.11674 8.97329 3.25675 9.84748 3.47491 10.6472C2.87858 10.8715 2.33979 11.1438 1.87392 11.4555C1.18436 10.4767 0.739723 9.313 0.639719 8.05202ZM2.23701 11.9242C2.64749 11.6559 3.12228 11.4186 3.65 11.2211C4.04478 12.3879 4.61804 13.3593 5.3076 14.0243C4.09801 13.6172 3.04197 12.8796 2.23701 11.9242ZM7.1923 14.3624C5.92947 14.1895 4.83958 12.8944 4.22171 11.0291C5.11252 10.762 6.12087 10.6001 7.1923 10.574V14.3624ZM7.1923 9.95918C6.0624 9.98626 4.99744 10.1607 4.04909 10.4518C3.85493 9.71455 3.73061 8.9056 3.69338 8.05233H7.1923V9.95918ZM7.1923 7.43661H3.68046C3.686 6.40303 3.82046 5.42668 4.05186 4.54911C4.99897 4.83928 6.06333 5.01405 7.19199 5.04082V7.43661H7.1923ZM7.1923 4.42603C6.12148 4.39987 5.11344 4.23864 4.22356 3.97155C4.84112 2.10716 5.93009 0.810803 7.1923 0.637565V4.42603ZM14.3824 7.43661H11.8986C11.8931 6.34057 11.7473 5.30176 11.4919 4.36541C12.1011 4.13894 12.6516 3.86231 13.1258 3.54538C13.9033 4.64942 14.3692 5.98886 14.3824 7.43661ZM12.7639 3.0752C12.3451 3.34937 11.8583 3.59092 11.3168 3.79062C10.9183 2.60811 10.337 1.62437 9.63701 0.956962C10.8691 1.36036 11.9466 2.1047 12.7639 3.0752ZM7.8077 0.64218C9.05668 0.835111 10.1324 2.12901 10.7435 3.98078C9.86194 4.24202 8.86529 4.40018 7.8077 4.42603V0.64218ZM7.8077 5.04113C8.92314 5.01467 9.97549 4.84358 10.9143 4.55957C11.1445 5.43468 11.278 6.40734 11.2832 7.43692H7.8077V5.04113ZM7.8077 8.05202H11.2706C11.2334 8.90129 11.1097 9.70655 10.9174 10.4417C9.97733 10.1567 8.92375 9.98595 7.80832 9.95918L7.8077 8.05202ZM7.8077 14.3578V10.5743C8.8659 10.6001 9.86256 10.7583 10.7454 11.0195C10.1333 12.8719 9.05637 14.1649 7.8077 14.3578ZM9.63701 14.0433C10.337 13.3762 10.9195 12.3931 11.318 11.2103C11.8583 11.4097 12.3445 11.6509 12.7627 11.9245C11.9454 12.8947 10.8691 13.6396 9.63701 14.0433ZM13.1258 11.4555C12.6516 11.1386 12.1011 10.8614 11.4915 10.6352C11.7076 9.83887 11.8463 8.96868 11.8854 8.05233H14.3597C14.2597 9.313 13.8163 10.477 13.1258 11.4555Z" fill="#767676"/>
</svg>
