<svg width="59" height="22" viewBox="0 0 59 22" fill="none" xmlns="http://www.w3.org/2000/svg">
<path d="M0.292892 10.2929C-0.0976295 10.6834 -0.0976295 11.3166 0.292892 11.7071L6.65685 18.0711C7.04738 18.4616 7.68054 18.4616 8.07107 18.0711C8.46159 17.6805 8.46159 17.0474 8.07107 16.6569L2.41422 11L8.07107 5.34315C8.46159 4.95262 8.46159 4.31946 8.07107 3.92893C7.68054 3.53841 7.04738 3.53841 6.65685 3.92893L0.292892 10.2929ZM53 10H1V12H53V10Z" fill="url(#paint0_linear)"/>
<circle cx="48" cy="11" r="11" fill="#7EB2FB"/>
<path d="M40.0029 18.5526C40.0619 16.9937 41.1379 15.6591 42.6616 15.2794L45.056 14.6806L45.2735 13.81C44.6697 13.1863 44.2535 12.3431 44.1241 11.4838C43.7329 11.4075 43.4235 11.0869 43.3722 10.6794L43.216 9.42938C43.1829 9.16252 43.2654 8.89439 43.4435 8.69251C43.5573 8.56314 43.7029 8.46939 43.8635 8.41876C43.8185 8.03752 43.7504 7.40564 43.7504 7.12501C43.7504 5.91874 44.1129 4.68188 46.7754 4.62625C47.7079 4 48.7091 4 49.1441 4C50.2466 4 51.0429 4.36313 51.5116 5.07871C52.1216 6.00997 51.8298 6.65184 51.4779 7.02622L51.2441 7.2606L51.1866 8.43748C51.3297 8.49186 51.4591 8.5806 51.5616 8.6981C51.7366 8.89812 51.8179 9.16498 51.7847 9.42874L51.6285 10.6788C51.581 11.0606 51.306 11.365 50.951 11.465C50.821 12.3588 50.3823 13.23 49.7416 13.8644L49.9454 14.6794L52.3398 15.2781C53.9066 15.67 55.5004 17.385 55.5004 19C55.5004 19.0172 55.499 19.0341 55.4963 19.0506C55.4005 19.1399 55.303 19.2275 55.204 19.3133C55.1987 19.3136 55.1933 19.3137 55.1879 19.3137C55.1879 19.3137 55.1789 19.3268 55.1601 19.3512C53.735 20.5741 51.9933 21.4386 50.0748 21.8047C49.3935 21.9148 48.6318 21.9851 47.7825 21.9979C44.7188 21.9384 41.962 20.6263 40.0029 18.5526Z" fill="white"/>
<defs>
<linearGradient id="paint0_linear" x1="1" y1="11" x2="53" y2="11" gradientUnits="userSpaceOnUse">
<stop stop-color="#7AAEFD"/>
<stop offset="1" stop-color="#C1FFA0" stop-opacity="0"/>
</linearGradient>
</defs>
</svg>
