<svg width="88" height="84" viewBox="0 0 88 84" fill="none" xmlns="http://www.w3.org/2000/svg">
<g filter="url(#filter0_f)">
<path d="M35.6079 70.4215L29.5613 70.4215L15.4526 35.4857L50.3884 30.7828L63.1534 63.703L35.6079 54.2973L35.6079 70.4215Z" fill="#369263"/>
</g>
<path d="M24.4494 50.7104L12.6973 54.0625L16.4295 59.3055C18.4388 62.1281 19.9512 65.273 20.9016 68.6049L21.0764 69.2177C22.002 72.463 25.3832 74.3435 28.6286 73.4178C31.8739 72.4921 33.7544 69.111 32.8287 65.8656L32.6539 65.2527C31.7035 61.9208 30.1911 58.7759 28.1818 55.9533L24.4494 50.7104Z" fill="url(#paint0_linear)"/>
<path d="M20.6812 59.8541C22.2161 62.0103 23.3713 64.4128 24.0973 66.958L24.2449 67.4756C24.6188 68.7864 25.9847 69.546 27.2955 69.1721C28.6062 68.7982 29.3659 67.4324 28.992 66.1216L28.8443 65.604C28.1184 63.0588 26.963 60.6563 25.4283 58.5L24.225 57.126C23.7324 56.5637 22.9598 56.3356 22.2408 56.5407L21.6051 56.722C20.2415 57.1111 19.7469 58.7874 20.6812 59.8541Z" fill="url(#paint1_linear)"/>
<path d="M24.4494 50.7104L12.6973 54.0625L12.9757 54.4535L32.7027 65.4244L32.6538 65.2531C31.7035 61.9212 30.1911 58.7763 28.1818 55.9537L24.4494 50.7104Z" fill="url(#paint2_linear)"/>
<path d="M8.8058 50.7029L5.5415 39.2587C4.73709 36.4385 6.37111 33.5001 9.19141 32.6957L25.2865 28.1048C28.1066 27.3004 31.045 28.9344 31.8495 31.7547L35.1138 43.199C35.9182 46.0191 34.2842 48.9575 31.4639 49.762L15.3688 54.3528C12.5485 55.1573 9.61025 53.5232 8.8058 50.7029Z" fill="url(#paint3_linear)"/>
<path d="M62.8557 54.4108C51.5114 52.3843 40.0895 51.0205 28.5796 50.3375C27.0257 50.2454 25.7 49.1827 25.273 47.6858L21.1224 33.1344C20.6955 31.6375 21.2614 30.0352 22.5325 29.1373C31.9504 22.4851 40.9341 15.3009 49.5021 7.59459C51.378 5.90738 54.3559 6.56455 55.3369 8.88881C60.9466 22.1795 64.8838 35.9835 67.1298 50.2333C67.5226 52.7254 65.3392 54.8544 62.8557 54.4108Z" fill="url(#paint4_linear)"/>
<path d="M66.8513 52.3114L23.6946 28.3104C23.3078 28.5865 22.9215 28.8631 22.533 29.1373C21.2616 30.0353 20.6959 31.6375 21.1229 33.1344L25.2735 47.6858C25.7004 49.1827 27.0265 50.2453 28.5801 50.3375C40.0901 51.0203 51.512 52.3841 62.8562 54.4108C64.5974 54.7218 66.1894 53.7677 66.8513 52.3114Z" fill="url(#paint5_linear)"/>
<path d="M54.7761 6.98421C53.9521 5.06315 51.4828 4.52002 49.923 5.91145C48.9263 6.80055 48.6926 8.23746 49.2806 9.43675C49.313 9.50298 49.344 9.57059 49.3732 9.63971C55.2213 23.4953 59.3259 37.8858 61.6673 52.7413C61.679 52.8154 61.6883 52.8892 61.6957 52.9624C61.8287 54.2915 62.7854 55.389 64.1012 55.6183C66.1603 55.9775 67.9716 54.2133 67.658 52.1468C65.2931 36.5574 60.9916 21.4761 54.7761 6.98421Z" fill="url(#paint6_linear)"/>
<path d="M27.6495 52.775C25.8378 53.2917 23.9503 52.242 23.4336 50.4303L18.1119 31.7732C17.5952 29.9615 18.6449 28.074 20.4566 27.5573C22.2683 27.0405 24.1558 28.0902 24.6725 29.9019L29.9942 48.559C30.5112 50.3706 29.4612 52.2582 27.6495 52.775Z" fill="url(#paint7_linear)"/>
<path d="M68.6699 36.4672C68.5297 36.5072 68.3846 36.5357 68.2348 36.5517C66.8209 36.7032 65.552 35.6798 65.4006 34.2658C65.268 33.0281 65.0508 31.7375 64.7547 30.4297C64.1767 27.8757 63.3322 25.4557 62.3771 23.6153C61.722 22.3532 62.214 20.799 63.4761 20.1439C64.7392 19.4891 66.2925 19.9808 66.9475 21.243C68.1164 23.4949 69.0948 26.2783 69.7771 29.2925C70.1169 30.7936 70.3672 32.2823 70.5207 33.7171C70.6561 34.9814 69.8522 36.1299 68.6699 36.4672Z" fill="url(#paint8_linear)"/>
<path d="M75.7629 39.4215C75.4696 39.5051 75.1566 39.5378 74.8346 39.5099C73.4179 39.3872 72.369 38.1391 72.4918 36.7224C72.7619 33.6067 72.4802 30.0855 71.6773 26.5388C70.8749 22.9949 69.6183 19.7173 68.0435 17.0602C67.3184 15.837 67.7221 14.2574 68.9455 13.5324C70.168 12.807 71.748 13.2111 72.4732 14.4344C74.3189 17.5478 75.7803 21.3405 76.6997 25.4018C77.6185 29.4602 77.9374 33.5285 77.6221 37.1671C77.5273 38.2617 76.7603 39.137 75.7629 39.4215Z" fill="url(#paint9_linear)"/>
<defs>
<filter id="filter0_f" x="5.45264" y="20.7828" width="67.7007" height="59.6386" filterUnits="userSpaceOnUse" color-interpolation-filters="sRGB">
<feFlood flood-opacity="0" result="BackgroundImageFix"/>
<feBlend mode="normal" in="SourceGraphic" in2="BackgroundImageFix" result="shape"/>
<feGaussianBlur stdDeviation="5" result="effect1_foregroundBlur"/>
</filter>
<linearGradient id="paint0_linear" x1="20.066" y1="63.9109" x2="34.9713" y2="59.6594" gradientUnits="userSpaceOnUse">
<stop stop-color="#FF4C54"/>
<stop offset="1" stop-color="#BE3F45"/>
</linearGradient>
<linearGradient id="paint1_linear" x1="26.727" y1="62.2983" x2="19.5827" y2="64.3361" gradientUnits="userSpaceOnUse">
<stop stop-color="#FF4C54"/>
<stop offset="1" stop-color="#BE3F45"/>
</linearGradient>
<linearGradient id="paint2_linear" x1="31.754" y1="59.8355" x2="3.60595" y2="44.1813" gradientUnits="userSpaceOnUse">
<stop stop-color="#BE3F45" stop-opacity="0"/>
<stop offset="1" stop-color="#BE3F45"/>
</linearGradient>
<linearGradient id="paint3_linear" x1="19.6184" y1="38.7437" x2="22.6952" y2="49.5304" gradientUnits="userSpaceOnUse">
<stop stop-color="#FFB92D"/>
<stop offset="1" stop-color="#F59500"/>
</linearGradient>
<linearGradient id="paint4_linear" x1="41.6273" y1="30.5357" x2="47.8196" y2="52.2451" gradientUnits="userSpaceOnUse">
<stop stop-color="#FFB92D"/>
<stop offset="1" stop-color="#F59500"/>
</linearGradient>
<linearGradient id="paint5_linear" x1="39.0099" y1="46.6912" x2="-18.7804" y2="14.5524" gradientUnits="userSpaceOnUse">
<stop stop-color="#BE3F45" stop-opacity="0"/>
<stop offset="1" stop-color="#BE3F45"/>
</linearGradient>
<linearGradient id="paint6_linear" x1="58.2202" y1="30.4214" x2="61.8173" y2="29.3954" gradientUnits="userSpaceOnUse">
<stop stop-color="#FFF465"/>
<stop offset="1" stop-color="#FFE600"/>
</linearGradient>
<linearGradient id="paint7_linear" x1="23.3004" y1="40.3818" x2="26.5667" y2="39.4501" gradientUnits="userSpaceOnUse">
<stop stop-color="#FFF465"/>
<stop offset="1" stop-color="#FFE600"/>
</linearGradient>
<linearGradient id="paint8_linear" x1="64.2078" y1="19.881" x2="68.9186" y2="36.3962" gradientUnits="userSpaceOnUse">
<stop stop-color="white"/>
<stop offset="1" stop-color="white" stop-opacity="0"/>
</linearGradient>
<linearGradient id="paint9_linear" x1="69.4738" y1="13.2927" x2="76.8391" y2="39.1145" gradientUnits="userSpaceOnUse">
<stop stop-color="white"/>
<stop offset="1" stop-color="white" stop-opacity="0"/>
</linearGradient>
</defs>
</svg>
