<svg width="130" height="128" viewBox="0 0 130 128" fill="none" xmlns="http://www.w3.org/2000/svg">
<circle cx="36" cy="16" r="36" fill="#3FC086"/>
<path d="M42.4023 4.32422H45.3906L27.4414 32.3125H24.4336L42.4023 4.32422ZM41.4258 20.125C43.0924 20.125 44.5247 20.724 45.7227 21.9219C46.9206 23.1068 47.5195 24.5326 47.5195 26.1992C47.5195 27.8659 46.9206 29.2852 45.7227 30.457C44.5378 31.6159 43.1055 32.1953 41.4258 32.1953C39.7331 32.1953 38.2878 31.6159 37.0898 30.457C35.9049 29.2852 35.3125 27.8659 35.3125 26.1992C35.3125 24.5195 35.9115 23.0872 37.1094 21.9023C38.3073 20.7174 39.7461 20.125 41.4258 20.125ZM41.3867 23.0742C40.5273 23.0742 39.7917 23.3802 39.1797 23.9922C38.5807 24.6042 38.2812 25.3398 38.2812 26.1992C38.2812 27.0716 38.5807 27.8203 39.1797 28.4453C39.7917 29.0573 40.5273 29.3633 41.3867 29.3633C42.2721 29.3633 43.0208 29.0573 43.6328 28.4453C44.2448 27.8333 44.5508 27.0846 44.5508 26.1992C44.5508 25.3268 44.2448 24.5911 43.6328 23.9922C43.0208 23.3802 42.2721 23.0742 41.3867 23.0742ZM28.5547 4.40234C30.2344 4.40234 31.6667 5.0013 32.8516 6.19922C34.0365 7.39714 34.6289 8.83594 34.6289 10.5156C34.6289 12.1823 34.0299 13.6146 32.832 14.8125C31.6471 16.0104 30.2214 16.6094 28.5547 16.6094C26.888 16.6094 25.4557 16.0104 24.2578 14.8125C23.0729 13.6146 22.4805 12.1823 22.4805 10.5156C22.4805 8.83594 23.0729 7.39714 24.2578 6.19922C25.4427 5.0013 26.875 4.40234 28.5547 4.40234ZM28.5156 7.35156C27.6432 7.35156 26.8945 7.66406 26.2695 8.28906C25.6576 8.90104 25.3516 9.64323 25.3516 10.5156C25.3516 11.375 25.6641 12.1107 26.2891 12.7227C26.9141 13.3346 27.6562 13.6406 28.5156 13.6406C29.388 13.6406 30.1302 13.3346 30.7422 12.7227C31.3672 12.1107 31.6797 11.375 31.6797 10.5156C31.6797 9.63021 31.3737 8.88151 30.7617 8.26953C30.1497 7.65755 29.401 7.35156 28.5156 7.35156Z" fill="white"/>
<circle cx="107" cy="92" r="36" fill="#3FC086"/>
<path d="M112.753 100.247C110.691 100.247 109.013 101.925 109.013 103.988C109.013 106.05 110.691 107.728 112.753 107.728C114.816 107.728 116.494 106.05 116.494 103.988C116.494 101.925 114.816 100.247 112.753 100.247ZM112.753 105.484C111.928 105.484 111.257 104.813 111.257 103.988C111.257 103.162 111.928 102.491 112.753 102.491C113.579 102.491 114.25 103.162 114.25 103.988C114.25 104.813 113.579 105.484 112.753 105.484Z" fill="white"/>
<path d="M118.762 85.7895C118.549 85.5176 118.223 85.359 117.878 85.359H95.927L94.917 81.1332C94.7962 80.6282 94.3447 80.2717 93.8255 80.2717H90.1222C89.5024 80.2717 89 80.7741 89 81.3939C89 82.0137 89.5024 82.5161 90.1222 82.5161H92.9397L96.5868 97.7765C96.7076 98.2818 97.1592 98.6379 97.6784 98.6379H115.147C115.663 98.6379 116.113 98.2863 116.237 97.7858L118.967 86.7508C119.05 86.4157 118.974 86.0615 118.762 85.7895ZM114.269 96.3936H98.5641L96.4634 87.6034H116.444L114.269 96.3936Z" fill="white"/>
<path d="M99.1742 100.247C97.1116 100.247 95.4336 101.925 95.4336 103.988C95.4336 106.05 97.1117 107.728 99.1742 107.728C101.237 107.728 102.915 106.05 102.915 103.988C102.915 101.925 101.237 100.247 99.1742 100.247ZM99.1742 105.484C98.3491 105.484 97.678 104.813 97.678 103.988C97.678 103.162 98.3491 102.491 99.1742 102.491C99.9994 102.491 100.671 103.162 100.671 103.988C100.671 104.813 99.9994 105.484 99.1742 105.484Z" fill="white"/>
<circle cx="97" cy="34" r="44" fill="#39D690"/>
<path d="M85.7383 44.1641L89.957 42.2109C91.6497 44.8672 93.9414 46.1953 96.832 46.1953C98.0299 46.1953 99.0586 45.8438 99.918 45.1406C100.777 44.4375 101.207 43.4609 101.207 42.2109C101.207 41.5339 101.064 40.9609 100.777 40.4922C100.517 39.9974 100.074 39.5547 99.4492 39.1641C98.8242 38.7734 98.1992 38.4479 97.5742 38.1875C96.9492 37.901 96.0508 37.5104 94.8789 37.0156C93.7331 36.5208 92.7174 36.0521 91.832 35.6094C88.4727 33.8906 86.793 31.3385 86.793 27.9531C86.793 26.2344 87.3919 24.5807 88.5898 22.9922C89.7878 21.4036 91.5977 20.375 94.0195 19.9062V16.4297H99.293V19.9453C100.829 20.1016 102.301 20.7786 103.707 21.9766C105.113 23.1745 106.09 24.4115 106.637 25.6875L102.301 27.7578C100.816 25.5182 98.9284 24.3984 96.6367 24.3984C95.4128 24.3984 94.4232 24.737 93.668 25.4141C92.9128 26.0911 92.5352 26.9505 92.5352 27.9922C92.5352 28.487 92.6263 28.9427 92.8086 29.3594C93.0169 29.75 93.2513 30.0885 93.5117 30.375C93.7721 30.6354 94.1888 30.9349 94.7617 31.2734C95.3607 31.5859 95.8945 31.8464 96.3633 32.0547C96.832 32.237 97.5482 32.5234 98.5117 32.9141C99.4753 33.3047 100.296 33.6432 100.973 33.9297C105.009 35.7005 107.027 38.2917 107.027 41.7031C107.027 44.0729 106.324 46.0651 104.918 47.6797C103.512 49.2682 101.637 50.2969 99.293 50.7656V54.0078H94.0195V50.6484C92.4049 50.4661 90.7904 49.75 89.1758 48.5C87.5872 47.224 86.4414 45.7786 85.7383 44.1641Z" fill="white"/>
</svg>
