<svg width="120" height="79" viewBox="0 0 120 79" fill="none" xmlns="http://www.w3.org/2000/svg">
<g filter="url(#filter0_f)">
<path d="M36.2091 64H18.7901L15.1611 24.8073H79.0307L104.433 64H79.0307L58.7086 36.4199H49.2733L36.2091 64Z" fill="#2D66CA"/>
</g>
<path d="M39.5659 0C37.1299 0 34.9456 1.54358 34.134 3.8404C33.8681 4.59005 34.2605 5.41351 35.0116 5.67869C35.5037 5.85548 36.0187 5.72208 36.397 5.40846L42.4463 12.6729V14.4024C42.4463 15.1978 43.0905 15.8427 43.8866 15.8427C44.6827 15.8427 45.3268 15.1978 45.3268 14.4024V5.76096C45.3268 2.58433 42.743 0 39.5659 0Z" fill="#B9BBC1"/>
<path d="M35.2451 2.88049C32.6052 2.88049 30.1101 3.89388 28.1649 5.79266L9.69922 25.9517L11.823 27.8969L12.3219 27.352L42.4463 35.611V36.006C42.4463 36.8014 43.0905 37.4463 43.8866 37.4463C44.6827 37.4463 45.3268 36.8014 45.3268 36.006V12.9622C45.3268 7.40303 40.8036 2.88049 35.2451 2.88049Z" fill="#8B8996"/>
<path d="M62.6096 0C65.0456 0 67.2299 1.54358 68.0415 3.8404C68.3074 4.59005 67.9149 5.41351 67.1638 5.67869C66.6718 5.85548 66.1567 5.72208 65.7785 5.40846L59.7291 12.6729V14.4024C59.7291 15.1978 59.085 15.8427 58.2889 15.8427C57.4928 15.8427 56.8486 15.1978 56.8486 14.4024V5.76096C56.8486 2.58433 59.4322 0 62.6096 0Z" fill="#B9BBC1"/>
<path d="M66.9303 2.88049C69.5703 2.88049 72.0653 3.89388 74.0105 5.79266L92.4762 25.9519L90.3524 27.8971L89.8536 27.3522L59.7291 35.611V36.006C59.7291 36.8014 59.085 37.4463 58.2889 37.4463C57.4928 37.4463 56.8486 36.8014 56.8486 36.006V12.9622C56.8486 7.40303 61.3719 2.88049 66.9303 2.88049Z" fill="#8B8996"/>
<path d="M25.163 54.7291C33.9126 54.7291 41.0056 47.6361 41.0056 38.8865C41.0056 30.1368 33.9126 23.0438 25.163 23.0438C16.4133 23.0438 9.32031 30.1368 9.32031 38.8865C9.32031 47.6361 16.4133 54.7291 25.163 54.7291Z" fill="url(#paint0_linear)"/>
<path d="M25.1634 18.7231C14.0451 18.7231 5 27.7682 5 38.8865C5 50.0048 14.0451 59.0499 25.1634 59.0499C36.2817 59.0499 45.3267 50.0048 45.3267 38.8865C45.3267 27.7682 36.2817 18.7231 25.1634 18.7231ZM25.1634 53.2889C17.2221 53.2889 10.761 46.8278 10.761 38.8865C10.761 30.9452 17.2221 24.4841 25.1634 24.4841C33.1047 24.4841 39.5658 30.9452 39.5658 38.8865C39.5658 46.8278 33.1047 53.2889 25.1634 53.2889Z" fill="#5C546A"/>
<path d="M39.5662 20.1633H62.61L62.8315 20.1603C60.0286 22.9052 58.2893 26.7321 58.2893 30.9651V36.006H43.8869V30.9651C43.8869 26.7321 42.1476 22.9052 39.3447 20.1603" fill="#5C546A"/>
<path d="M28.0442 41.767C31.2259 41.767 33.8051 39.1878 33.8051 36.0061C33.8051 32.8244 31.2259 30.2451 28.0442 30.2451C24.8625 30.2451 22.2832 32.8244 22.2832 36.0061C22.2832 39.1878 24.8625 41.767 28.0442 41.767Z" fill="white"/>
<path d="M77.0116 54.7291C85.7613 54.7291 92.8542 47.6361 92.8542 38.8865C92.8542 30.1368 85.7613 23.0438 77.0116 23.0438C68.2619 23.0438 61.1689 30.1368 61.1689 38.8865C61.1689 47.6361 68.2619 54.7291 77.0116 54.7291Z" fill="url(#paint1_linear)"/>
<path d="M77.012 18.7231C65.8937 18.7231 56.8486 27.7682 56.8486 38.8865C56.8486 50.0048 65.8937 59.0499 77.012 59.0499C88.1303 59.0499 97.1754 50.0048 97.1754 38.8865C97.1754 27.7682 88.1303 18.7231 77.012 18.7231ZM77.012 53.2889C69.0707 53.2889 62.6096 46.8278 62.6096 38.8865C62.6096 30.9452 69.0707 24.4841 77.012 24.4841C84.9533 24.4841 91.4144 30.9452 91.4144 38.8865C91.4144 46.8278 84.9533 53.2889 77.012 53.2889Z" fill="#5C546A"/>
<path d="M79.8928 41.767C83.0745 41.767 85.6538 39.1878 85.6538 36.0061C85.6538 32.8244 83.0745 30.2451 79.8928 30.2451C76.7111 30.2451 74.1318 32.8244 74.1318 36.0061C74.1318 39.1878 76.7111 41.767 79.8928 41.767Z" fill="white"/>
<path d="M62.6093 17.2828H39.5654V20.1633H62.6093V17.2828Z" fill="#8B8996"/>
<defs>
<filter id="filter0_f" x="0.161133" y="9.80725" width="119.272" height="69.1927" filterUnits="userSpaceOnUse" color-interpolation-filters="sRGB">
<feFlood flood-opacity="0" result="BackgroundImageFix"/>
<feBlend mode="normal" in="SourceGraphic" in2="BackgroundImageFix" result="shape"/>
<feGaussianBlur stdDeviation="7.5" result="effect1_foregroundBlur"/>
</filter>
<linearGradient id="paint0_linear" x1="25.163" y1="23.0438" x2="25.163" y2="54.7291" gradientUnits="userSpaceOnUse">
<stop stop-color="#B0CEFF"/>
<stop offset="1" stop-color="#0075FF"/>
</linearGradient>
<linearGradient id="paint1_linear" x1="77.0116" y1="23.0438" x2="77.0116" y2="54.7291" gradientUnits="userSpaceOnUse">
<stop stop-color="#B0CEFF"/>
<stop offset="1" stop-color="#0075FF"/>
</linearGradient>
</defs>
</svg>
