<svg width="127" height="123" viewBox="0 0 127 123" fill="none" xmlns="http://www.w3.org/2000/svg">
<circle cx="36" cy="17" r="36" fill="#5290F3"/>
<path d="M36.3507 34.48C31.2841 34.48 27.0441 32.7734 23.6307 29.36C20.2174 25.9734 18.5107 21.8667 18.5107 17.04C18.5107 12.24 20.2041 8.12002 23.5907 4.68002C27.0041 1.24002 31.1507 -0.47998 36.0307 -0.47998C40.8307 -0.47998 44.9374 1.12002 48.3507 4.32002C51.7641 7.49335 53.4707 11.1734 53.4707 15.36C53.4707 18.56 52.7241 21.04 51.2307 22.8C49.7374 24.5334 47.8307 25.4 45.5107 25.4C42.8174 25.4 40.7774 24.6 39.3907 23C37.6307 24.6 35.6574 25.4 33.4707 25.4C31.3907 25.4 29.6441 24.6934 28.2307 23.28C26.8441 21.8667 26.1507 20 26.1507 17.68C26.1507 14.9067 27.0441 12.5467 28.8307 10.6C30.6441 8.62669 32.7374 7.64002 35.1107 7.64002C37.4574 7.64002 39.2974 8.54669 40.6307 10.36L41.0707 8.24002L45.7907 9.00002L43.9107 19.76C43.8307 20.16 43.7907 20.5734 43.7907 21C43.7907 21.7467 44.0441 22.36 44.5507 22.84C45.0841 23.2934 45.8041 23.52 46.7107 23.52C48.1774 23.52 49.3907 22.8 50.3507 21.36C51.3107 19.92 51.7907 17.92 51.7907 15.36C51.7907 11.5734 50.2574 8.25335 47.1907 5.40002C44.1507 2.54669 40.4307 1.12002 36.0307 1.12002C31.5507 1.12002 27.7907 2.66668 24.7507 5.76002C21.7107 8.85335 20.1907 12.6134 20.1907 17.04C20.1907 21.4934 21.7107 25.24 24.7507 28.28C27.8174 31.3467 31.6841 32.88 36.3507 32.88C39.8441 32.88 43.1107 31.9867 46.1507 30.2L46.9507 31.48C43.6707 33.48 40.1374 34.48 36.3507 34.48ZM34.8707 21.28C36.1507 21.28 37.2574 20.7334 38.1907 19.64C39.1507 18.52 39.6307 17.1467 39.6307 15.52C39.6307 14.4 39.2841 13.4934 38.5907 12.8C37.8974 12.1067 37.0041 11.76 35.9107 11.76C34.6041 11.76 33.4707 12.3067 32.5107 13.4C31.5774 14.4934 31.1107 15.8267 31.1107 17.4C31.1107 18.6267 31.4574 19.5867 32.1507 20.28C32.8441 20.9467 33.7507 21.28 34.8707 21.28Z" fill="white"/>
<circle cx="107" cy="87" r="36" fill="#5290F3"/>
<path d="M101.124 105V88.76H98.6035V83.76H101.124V82.4C101.124 80.08 101.697 78.3467 102.844 77.2C103.964 76.08 105.604 75.52 107.764 75.52C109.39 75.52 110.83 75.72 112.084 76.12V81.16C111.124 80.8134 110.204 80.64 109.324 80.64C107.857 80.64 107.124 81.4134 107.124 82.96V83.8H112.044V88.76H107.204V105H101.124Z" fill="white"/>
<circle cx="97" cy="35" r="44" fill="#67A1FF"/>
<path d="M100.152 28.1522C98.5495 26.5496 96.4188 25.6669 94.1522 25.667C93.148 25.667 92.334 26.4811 92.334 27.4852C92.3341 28.4894 93.148 29.3034 94.1523 29.3034C95.4474 29.3034 96.665 29.8076 97.5809 30.7236C98.4967 31.6394 99.001 32.857 99.001 34.1521C99.0009 35.1562 99.8149 35.9704 100.819 35.9704C100.819 35.9704 100.819 35.9704 100.819 35.9704C101.823 35.9704 102.637 35.1564 102.637 34.1523C102.638 31.8858 101.755 29.7549 100.152 28.1522Z" fill="white"/>
<path d="M113.286 50.8963L106.07 43.4989C108.095 40.9224 109.304 37.6758 109.304 34.1521C109.304 25.7973 102.507 19 94.152 19C90.1049 19 86.2995 20.5762 83.438 23.4378C80.576 26.2998 79 30.1048 79 34.1521C79 42.507 85.7972 49.3042 94.152 49.3042C97.6757 49.3042 100.922 48.0952 103.499 46.0702L110.714 53.4675C111.069 53.8225 111.535 54 112 54C112.465 54 112.931 53.8226 113.286 53.4674C113.996 52.7575 113.996 51.6062 113.286 50.8963ZM94.152 45.6679C87.8023 45.6679 82.6364 40.502 82.6364 34.1521C82.6364 31.0761 83.8342 28.1842 86.0092 26.0092C88.1842 23.8341 91.076 22.6364 94.152 22.6364C100.502 22.6364 105.668 27.8023 105.668 34.1522C105.668 40.502 100.502 45.6679 94.152 45.6679Z" fill="white"/>
</svg>
