<svg width="58" height="22" viewBox="0 0 58 22" fill="none" xmlns="http://www.w3.org/2000/svg">
<path d="M57.7071 11.7071C58.0976 11.3166 58.0976 10.6834 57.7071 10.2929L51.3431 3.92893C50.9526 3.53841 50.3195 3.53841 49.9289 3.92893C49.5384 4.31946 49.5384 4.95262 49.9289 5.34315L55.5858 11L49.9289 16.6569C49.5384 17.0474 49.5384 17.6805 49.9289 18.0711C50.3195 18.4616 50.9526 18.4616 51.3431 18.0711L57.7071 11.7071ZM5 12H57V10H5V12Z" fill="url(#paint0_linear)"/>
<circle cx="11" cy="11" r="11" fill="#7BBF56"/>
<path d="M7.60938 13.9053L8.82812 13.3213C9.08203 13.7275 9.40365 14.0449 9.79297 14.2734C10.1908 14.502 10.6182 14.6162 11.0752 14.6162C11.5068 14.6162 11.8708 14.4977 12.167 14.2607C12.4632 14.0238 12.6113 13.6852 12.6113 13.2451C12.6113 13.0166 12.569 12.8219 12.4844 12.6611C12.3997 12.4919 12.2516 12.3395 12.04 12.2041C11.8369 12.0687 11.638 11.9587 11.4434 11.874C11.2487 11.7809 10.9609 11.654 10.5801 11.4932C10.2077 11.3324 9.8903 11.1885 9.62793 11.0615C8.49382 10.5114 7.92676 9.69043 7.92676 8.59863C7.92676 8.04004 8.12142 7.51107 8.51074 7.01172C8.90853 6.50391 9.49251 6.18229 10.2627 6.04688V4.94238H11.7861V6.07227C12.277 6.12305 12.7425 6.3304 13.1826 6.69434C13.6312 7.0498 13.9443 7.43066 14.1221 7.83691L12.8779 8.43359C12.3955 7.71419 11.7777 7.35449 11.0244 7.35449C10.5928 7.35449 10.2415 7.47298 9.9707 7.70996C9.70833 7.94694 9.57715 8.2474 9.57715 8.61133C9.57715 8.75521 9.59408 8.88639 9.62793 9.00488C9.66178 9.12337 9.72526 9.2334 9.81836 9.33496C9.91146 9.42806 10.0003 9.5127 10.085 9.58887C10.1781 9.65658 10.3177 9.73698 10.5039 9.83008C10.6901 9.91471 10.8467 9.98665 10.9736 10.0459C11.1006 10.0967 11.2952 10.1771 11.5576 10.2871C11.8285 10.3971 12.0485 10.486 12.2178 10.5537C13.5973 11.1377 14.2871 11.9883 14.2871 13.1055C14.2871 13.8672 14.0544 14.4977 13.5889 14.9971C13.1318 15.488 12.5309 15.8011 11.7861 15.9365V16.9775H10.2627V15.9111C9.74642 15.8604 9.23438 15.6445 8.72656 15.2637C8.21875 14.8743 7.84635 14.4215 7.60938 13.9053Z" fill="white"/>
<defs>
<linearGradient id="paint0_linear" x1="57" y1="11" x2="5" y2="11" gradientUnits="userSpaceOnUse">
<stop stop-color="#79BE54"/>
<stop offset="1" stop-color="#C1FFA0" stop-opacity="0"/>
</linearGradient>
</defs>
</svg>
