<svg width="134" height="129" viewBox="0 0 134 129" fill="none" xmlns="http://www.w3.org/2000/svg">
<g filter="url(#filter0_d)">
<circle cx="39" cy="17" r="36" fill="url(#paint0_linear)"/>
</g>
<path fill-rule="evenodd" clip-rule="evenodd" d="M38.5505 26.0319L34.1496 29.9954C33.3394 30.7251 33.2742 31.9734 34.0038 32.7835L35.325 34.2505C36.0547 35.0607 37.3029 35.126 38.1131 34.3963L42.514 30.4328C43.3242 29.7031 43.3895 28.4548 42.6598 27.6447L41.3386 26.1777C40.609 25.3675 39.3607 25.3022 38.5505 26.0319ZM32.8285 28.5284C31.2081 29.9878 31.0775 32.4843 32.5369 34.1047L33.858 35.5717C35.3174 37.192 37.8139 37.3226 39.4343 35.8633L43.8352 31.8998C45.4556 30.4404 45.5861 27.9439 44.1268 26.3235L42.8056 24.8565C41.3463 23.2362 38.8497 23.1056 37.2293 24.5649L32.8285 28.5284Z" fill="white"/>
<path fill-rule="evenodd" clip-rule="evenodd" d="M50.2868 15.4624L45.886 19.4259C45.0758 20.1556 45.0105 21.4039 45.7402 22.2141L47.0613 23.681C47.791 24.4912 49.0393 24.5565 49.8495 23.8268L54.2503 19.8633C55.0605 19.1337 55.1258 17.8854 54.3961 17.0752L53.075 15.6082C52.3453 14.7981 51.097 14.7328 50.2868 15.4624ZM44.5648 17.959C42.9444 19.4183 42.8139 21.9149 44.2732 23.5352L45.5944 25.0022C47.0537 26.6226 49.5503 26.7531 51.1706 25.2938L55.5715 21.3303C57.1919 19.871 57.3224 17.3744 55.8631 15.754L54.5419 14.2871C53.0826 12.6667 50.586 12.5362 48.9657 13.9955L44.5648 17.959Z" fill="white"/>
<path fill-rule="evenodd" clip-rule="evenodd" d="M37.0763 0.792639L20.9397 15.3255C20.1295 16.0551 20.0642 17.3034 20.7939 18.1136L27.3997 25.4484C28.1294 26.2586 29.3777 26.3239 30.1878 25.5942L46.3244 11.0614C47.1346 10.3317 47.1999 9.08343 46.4702 8.27325L39.8644 0.938435C39.1347 0.128253 37.8864 0.0629778 37.0763 0.792639ZM19.6185 13.8585C17.9981 15.3178 17.8676 17.8144 19.3269 19.4348L25.9327 26.7696C27.3921 28.39 29.8886 28.5205 31.509 27.0612L47.6456 12.5283C49.266 11.069 49.3965 8.57245 47.9372 6.95208L41.3314 -0.382734C39.872 -2.0031 37.3755 -2.13365 35.7551 -0.674325L19.6185 13.8585Z" fill="white"/>
<g filter="url(#filter1_d)">
<circle cx="110" cy="87" r="36" fill="url(#paint1_linear)"/>
</g>
<path fill-rule="evenodd" clip-rule="evenodd" d="M98.5361 94.5647C99.5015 95.1137 100.729 94.7761 101.278 93.8107C101.827 92.8452 101.49 91.6175 100.524 91.0685C99.5587 90.5195 98.331 90.8571 97.782 91.8226C97.233 92.788 97.5706 94.0157 98.5361 94.5647ZM97.7408 95.9632C99.4787 96.9514 101.689 96.3437 102.677 94.6059C103.665 92.8681 103.057 90.6582 101.319 89.67C99.5816 88.6818 97.3718 89.2895 96.3836 91.0273C95.3954 92.7651 96.003 94.975 97.7408 95.9632Z" fill="white"/>
<path fill-rule="evenodd" clip-rule="evenodd" d="M111.821 102.12C112.787 102.669 114.014 102.331 114.563 101.365C115.112 100.4 114.775 99.1723 113.809 98.6233C112.844 98.0743 111.616 98.4119 111.067 99.3774C110.518 100.343 110.856 101.571 111.821 102.12ZM111.026 103.518C112.764 104.506 114.974 103.899 115.962 102.161C116.95 100.423 116.342 98.213 114.605 97.2248C112.867 96.2366 110.657 96.8443 109.669 98.5821C108.681 100.32 109.288 102.53 111.026 103.518Z" fill="white"/>
<path fill-rule="evenodd" clip-rule="evenodd" d="M106.09 81.2792C107.055 81.8282 108.283 81.4906 108.832 80.5251C109.381 79.5597 109.043 78.332 108.078 77.783C107.112 77.234 105.885 77.5716 105.336 78.537C104.787 79.5025 105.124 80.7302 106.09 81.2792ZM105.295 82.6777C107.032 83.6659 109.242 83.0582 110.23 81.3204C111.219 79.5826 110.611 77.3727 108.873 76.3845C107.135 75.3963 104.925 76.004 103.937 77.7418C102.949 79.4796 103.557 81.6895 105.295 82.6777Z" fill="white"/>
<path fill-rule="evenodd" clip-rule="evenodd" d="M119.377 88.834C120.342 89.383 121.57 89.0454 122.119 88.0799C122.668 87.1145 122.33 85.8868 121.365 85.3378C120.4 84.7888 119.172 85.1264 118.623 86.0918C118.074 87.0573 118.411 88.285 119.377 88.834ZM118.582 90.2325C120.319 91.2207 122.529 90.613 123.518 88.8752C124.506 87.1374 123.898 84.9275 122.16 83.9393C120.422 82.9511 118.213 83.5588 117.224 85.2966C116.236 87.0344 116.844 89.2443 118.582 90.2325Z" fill="white"/>
<path fill-rule="evenodd" clip-rule="evenodd" d="M117.126 87.0925L109.531 80.9225L110.545 79.6738L118.141 85.8437L117.126 87.0925Z" fill="white"/>
<path fill-rule="evenodd" clip-rule="evenodd" d="M109.175 101.077L101.579 94.9074L102.594 93.6587L110.189 99.8286L109.175 101.077Z" fill="white"/>
<path fill-rule="evenodd" clip-rule="evenodd" d="M119.13 90.0817L101.772 91.3154L101.658 89.7107L119.016 88.477L119.13 90.0817Z" fill="white"/>
<g filter="url(#filter2_d)">
<circle cx="100" cy="35" r="44" fill="url(#paint2_linear)"/>
</g>
<path fill-rule="evenodd" clip-rule="evenodd" d="M94.2356 48.7099L94.3595 41.2708C94.3823 39.9013 93.2906 38.7726 91.9211 38.7497L84.482 38.6258C83.1125 38.603 81.9838 39.6947 81.9609 41.0642L81.837 48.5033C81.8142 49.8729 82.9059 51.0016 84.2754 51.0244L91.7145 51.1483C93.0841 51.1711 94.2128 50.0794 94.2356 48.7099ZM96.8392 41.3121C96.8849 38.5731 94.7015 36.3157 91.9624 36.27L84.5233 36.1461C81.7843 36.1004 79.5269 38.2839 79.4812 41.0229L79.3573 48.462C79.3116 51.201 81.4951 53.4585 84.2341 53.5041L91.6732 53.628C94.4122 53.6737 96.6697 51.4903 96.7153 48.7512L96.8392 41.3121Z" fill="white"/>
<path fill-rule="evenodd" clip-rule="evenodd" d="M94.1999 29.4629L94.2825 24.5035C94.2939 23.8187 93.7481 23.2543 93.0633 23.2429L88.1039 23.1603C87.4191 23.1489 86.8548 23.6947 86.8434 24.3795L86.7607 29.3389C86.7493 30.0237 87.2952 30.588 87.9799 30.5995L92.9394 30.6821C93.6241 30.6935 94.1885 30.1476 94.1999 29.4629ZM96.7622 24.5448C96.7965 22.4905 95.1589 20.7974 93.1046 20.7632L88.1452 20.6806C86.091 20.6464 84.3979 22.2839 84.3637 24.3382L84.281 29.2976C84.2468 31.3519 85.8844 33.0449 87.9386 33.0792L92.8981 33.1618C94.9523 33.196 96.6454 31.5585 96.6796 29.5042L96.7622 24.5448Z" fill="white"/>
<path fill-rule="evenodd" clip-rule="evenodd" d="M109.826 44.891L109.909 39.9316C109.92 39.2468 109.374 38.6824 108.689 38.671L103.73 38.5884C103.045 38.577 102.481 39.1229 102.469 39.8076L102.387 44.767C102.375 45.4518 102.921 46.0161 103.606 46.0276L108.565 46.1102C109.25 46.1216 109.814 45.5757 109.826 44.891ZM112.388 39.9729C112.422 37.9186 110.785 36.2255 108.731 36.1913L103.771 36.1087C101.717 36.0745 100.024 37.712 99.9896 39.7663L99.907 44.7257C99.8728 46.78 101.51 48.473 103.565 48.5073L108.524 48.5899C110.578 48.6241 112.271 46.9866 112.306 44.9323L112.388 39.9729Z" fill="white"/>
<path fill-rule="evenodd" clip-rule="evenodd" d="M114.706 28.2065L114.83 20.7674C114.853 19.3978 113.761 18.2691 112.392 18.2463L104.953 18.1224C103.583 18.0996 102.454 19.1913 102.432 20.5608L102.308 27.9999C102.285 29.3694 103.377 30.4981 104.746 30.521L112.185 30.6449C113.555 30.6677 114.683 29.576 114.706 28.2065ZM117.31 20.8087C117.356 18.0697 115.172 15.8122 112.433 15.7666L104.994 15.6427C102.255 15.597 99.9976 17.7804 99.9519 20.5195L99.828 27.9586C99.7824 30.6976 101.966 32.955 104.705 33.0007L112.144 33.1246C114.883 33.1703 117.14 30.9868 117.186 28.2478L117.31 20.8087Z" fill="white"/>
<defs>
<filter id="filter0_d" x="0" y="-19" width="78" height="78" filterUnits="userSpaceOnUse" color-interpolation-filters="sRGB">
<feFlood flood-opacity="0" result="BackgroundImageFix"/>
<feColorMatrix in="SourceAlpha" type="matrix" values="0 0 0 0 0 0 0 0 0 0 0 0 0 0 0 0 0 0 127 0"/>
<feOffset dy="3"/>
<feGaussianBlur stdDeviation="1.5"/>
<feColorMatrix type="matrix" values="0 0 0 0 0 0 0 0 0 0 0 0 0 0 0 0 0 0 0.08 0"/>
<feBlend mode="normal" in2="BackgroundImageFix" result="effect1_dropShadow"/>
<feBlend mode="normal" in="SourceGraphic" in2="effect1_dropShadow" result="shape"/>
</filter>
<filter id="filter1_d" x="71" y="51" width="78" height="78" filterUnits="userSpaceOnUse" color-interpolation-filters="sRGB">
<feFlood flood-opacity="0" result="BackgroundImageFix"/>
<feColorMatrix in="SourceAlpha" type="matrix" values="0 0 0 0 0 0 0 0 0 0 0 0 0 0 0 0 0 0 127 0"/>
<feOffset dy="3"/>
<feGaussianBlur stdDeviation="1.5"/>
<feColorMatrix type="matrix" values="0 0 0 0 0 0 0 0 0 0 0 0 0 0 0 0 0 0 0.08 0"/>
<feBlend mode="normal" in2="BackgroundImageFix" result="effect1_dropShadow"/>
<feBlend mode="normal" in="SourceGraphic" in2="effect1_dropShadow" result="shape"/>
</filter>
<filter id="filter2_d" x="53" y="-9" width="94" height="94" filterUnits="userSpaceOnUse" color-interpolation-filters="sRGB">
<feFlood flood-opacity="0" result="BackgroundImageFix"/>
<feColorMatrix in="SourceAlpha" type="matrix" values="0 0 0 0 0 0 0 0 0 0 0 0 0 0 0 0 0 0 127 0"/>
<feOffset dy="3"/>
<feGaussianBlur stdDeviation="1.5"/>
<feColorMatrix type="matrix" values="0 0 0 0 0 0 0 0 0 0 0 0 0 0 0 0 0 0 0.08 0"/>
<feBlend mode="normal" in2="BackgroundImageFix" result="effect1_dropShadow"/>
<feBlend mode="normal" in="SourceGraphic" in2="effect1_dropShadow" result="shape"/>
</filter>
<linearGradient id="paint0_linear" x1="20.8467" y1="-19" x2="39" y2="53" gradientUnits="userSpaceOnUse">
<stop stop-color="#E6479C"/>
<stop offset="1" stop-color="#CB4B53"/>
</linearGradient>
<linearGradient id="paint1_linear" x1="91.8467" y1="51" x2="110" y2="123" gradientUnits="userSpaceOnUse">
<stop stop-color="#75CDFF"/>
<stop offset="1" stop-color="#3AD2F3"/>
</linearGradient>
<linearGradient id="paint2_linear" x1="77.8126" y1="-9" x2="100" y2="79" gradientUnits="userSpaceOnUse">
<stop stop-color="#F49944"/>
<stop offset="1" stop-color="#D27B15"/>
</linearGradient>
</defs>
</svg>
