<svg width="16" height="18" viewBox="0 0 16 18" fill="none" xmlns="http://www.w3.org/2000/svg">
<path fill-rule="evenodd" clip-rule="evenodd" d="M12.8788 8.29297L7.00008 2.41429C6.60955 2.02376 6.60955 1.3906 7.00008 1.00008C7.3906 0.609551 8.02376 0.60955 8.41429 1.00007L14.293 6.87876C15.4645 8.05033 15.4645 9.94982 14.293 11.1214L8.41429 17.0001C8.02377 17.3906 7.3906 17.3906 7.00008 17.0001C6.60955 16.6096 6.60955 15.9764 7.00007 15.5859L12.8788 9.70718C13.2693 9.31666 13.2693 8.68349 12.8788 8.29297Z" fill="white"/>
<path fill-rule="evenodd" clip-rule="evenodd" d="M5.19227 8.43153L0.54661 3.69432C0.243016 3.38475 0.243016 2.88914 0.54661 2.57956C0.858699 2.26133 1.37125 2.26133 1.68334 2.57956L6.30724 7.29458C7.23092 8.23646 7.23092 9.76354 6.30724 10.7054L1.68334 15.4204C1.37125 15.7387 0.858698 15.7387 0.546609 15.4204C0.243015 15.1109 0.243015 14.6153 0.54661 14.3057L5.19227 9.56847C5.50016 9.25451 5.50016 8.74549 5.19227 8.43153Z" fill="white"/>
</svg>
