<svg width="17" height="17" viewBox="0 0 17 17" fill="none" xmlns="http://www.w3.org/2000/svg">
<g clip-path="url(#clip0)">
<path d="M16.9756 6.54951C16.917 6.36918 16.7612 6.2378 16.5736 6.21054L11.3035 5.44471L8.94663 0.669212C8.86272 0.499213 8.6896 0.391602 8.50001 0.391602C8.31046 0.391602 8.1373 0.499246 8.0534 0.669212L5.69638 5.44474L0.426423 6.21054C0.238826 6.2378 0.0829708 6.36922 0.0244006 6.54951C-0.0342028 6.7298 0.0146721 6.92772 0.150406 7.06004L3.96371 10.7773L3.06364 16.0261C3.0316 16.213 3.10843 16.4018 3.2618 16.5132C3.41513 16.6246 3.6184 16.6393 3.78631 16.5511L8.49998 14.073L13.2135 16.5512C13.2864 16.5895 13.366 16.6084 13.4452 16.6084C13.5485 16.6084 13.6513 16.5763 13.738 16.5132C13.8914 16.4018 13.9682 16.213 13.9362 16.0261L13.0358 10.7773L16.8496 7.06007C16.9853 6.92772 17.0342 6.7298 16.9756 6.54951ZM12.1531 10.2467C12.0357 10.3612 11.9821 10.526 12.0098 10.6876L12.7838 15.1998L8.7318 13.0695C8.58671 12.9932 8.41335 12.9932 8.26826 13.0695L4.21599 15.1999L4.98975 10.6876C5.01744 10.526 4.96389 10.3612 4.84655 10.2468L1.56838 7.05117L6.09877 6.39279C6.261 6.36922 6.40118 6.26735 6.47376 6.12036L8.49998 2.01493L10.5261 6.12033C10.5987 6.26731 10.7389 6.36922 10.9011 6.39279L15.4316 7.05114L12.1531 10.2467Z" fill="#969696"/>
</g>
<defs>
<clipPath id="clip0">
<rect width="17" height="17" fill="white"/>
</clipPath>
</defs>
</svg>
