<svg width="166" height="133" viewBox="0 0 166 133" fill="none" xmlns="http://www.w3.org/2000/svg">
<g opacity="0.3" filter="url(#filter0_f)">
<path d="M27.7382 114.659C29.5186 111.543 32.8321 109.62 36.4206 109.62H127.25C131.163 109.62 134.717 111.903 136.344 115.463L136.517 115.841C139.545 122.464 134.705 129.999 127.423 129.999H36.2044C28.5262 129.999 23.7126 121.704 27.522 115.037L27.7382 114.659Z" fill="#1B592A"/>
</g>
<path d="M30.6582 84.6818V121.5C30.6582 123.801 32.5235 125.666 34.8245 125.666H129.766C132.067 125.666 133.933 123.801 133.933 121.5V84.6477L30.6582 84.6818Z" fill="url(#paint0_linear)"/>
<path d="M131.606 86.907H32.9865C31.3139 86.907 30.1885 85.1954 30.8511 83.6594L37.4519 68.3747C38.0262 67.0445 39.3373 66.1831 40.7859 66.1831H124.006C125.47 66.1831 126.79 67.0615 127.355 68.4118L133.75 83.6834C134.392 85.2154 133.266 86.907 131.606 86.907Z" fill="url(#paint1_linear)"/>
<path d="M114.069 78.9209H50.4295C49.3061 78.9209 48.3945 78.0114 48.3945 76.887C48.3945 75.7636 49.3051 74.853 50.4295 74.853H114.069C115.192 74.853 116.103 75.7636 116.103 76.887C116.103 78.0114 115.192 78.9209 114.069 78.9209Z" fill="url(#paint2_linear)"/>
<g opacity="0.7" filter="url(#filter1_f)">
<path d="M129.83 21.2305C133.181 25.6204 132.339 31.8958 127.949 35.247L127.179 35.8347C122.789 39.1859 116.514 38.3438 113.162 33.9539L109.419 29.05C108.985 28.4813 109.132 27.6395 109.747 27.1696L113.178 24.5504L118.552 20.4484L124.186 16.1473C124.801 15.6776 125.652 15.7579 126.086 16.3266L129.83 21.2305Z" fill="url(#paint3_linear)"/>
<path d="M123.972 33.322C123.818 33.4394 123.619 33.4969 123.41 33.4665L119.419 32.8854C119.002 32.8246 118.705 32.4359 118.757 32.0173C118.808 31.5987 119.188 31.3085 119.606 31.3693L122.84 31.8401L123.835 23.7357C123.887 23.3171 124.267 23.027 124.684 23.0875C125.102 23.1483 125.398 23.537 125.347 23.9556L124.259 32.8185C124.233 33.0278 124.125 33.2049 123.972 33.322Z" fill="#69D44B"/>
</g>
<g opacity="0.7" filter="url(#filter2_f)">
<path d="M58.6424 35.4919C57.8376 40.9558 52.7559 44.7328 47.292 43.9281L46.3337 43.7869C40.8698 42.9822 37.0928 37.9004 37.8976 32.4365L38.7966 26.3329C38.9008 25.6251 39.6062 25.1427 40.3724 25.2556L44.6427 25.8845L51.3309 26.8696L58.3435 27.9025C59.1093 28.0153 59.6456 28.6805 59.5414 29.3884L58.6424 35.4919Z" fill="url(#paint4_linear)"/>
<path d="M45.8967 39.7391C45.7053 39.7109 45.5253 39.6084 45.4012 39.4376L43.0321 36.1742C42.7844 35.833 42.8556 35.3491 43.1913 35.0938C43.5269 34.8385 44 34.9081 44.2477 35.2494L46.1684 37.8946L52.6666 32.9504C53.0022 32.6951 53.4753 32.7648 53.7234 33.1061C53.9712 33.4473 53.8999 33.9312 53.5643 34.1865L46.4577 39.5932C46.2901 39.7211 46.0877 39.7672 45.8967 39.7391Z" fill="#69D44B"/>
</g>
<path opacity="0.1" d="M43.7029 14.1855C44.9697 15.9953 44.5296 18.4895 42.7197 19.7563L30.8107 28.0923C29.0009 29.3592 26.5068 28.919 25.2399 27.1092L17.4522 15.9835C17.0062 15.3462 17.1971 14.4428 17.879 13.9655L21.6796 11.3052L27.6322 7.13854L33.8734 2.76981C34.555 2.29271 35.4692 2.42258 35.9152 3.05987L43.7029 14.1855Z" fill="url(#paint5_linear)"/>
<path opacity="0.3" d="M47.5858 17.4078C48.8526 19.2177 48.4125 21.7118 46.6026 22.9786L32.2512 33.0243C30.4414 34.2911 27.9472 33.8509 26.6804 32.0411L17.5591 19.0102C17.054 18.2886 17.2702 17.2657 18.0423 16.7252L22.3457 13.713L29.0857 8.99514L36.1525 4.04848C36.9243 3.50828 37.9594 3.65533 38.4645 4.37692L47.5858 17.4078Z" fill="url(#paint6_linear)"/>
<path d="M53.0093 21.6854C54.2761 23.4952 53.836 25.9893 52.0261 27.2561L35.3621 38.9205C33.5523 40.1873 31.0582 39.7472 29.7914 37.9373L19.4073 23.1025C18.8464 22.3011 19.0864 21.165 19.944 20.5647L24.7234 17.2193L32.209 11.9796L40.0576 6.48572C40.9147 5.88576 42.0643 6.04907 42.6253 6.85049L53.0093 21.6854Z" fill="url(#paint7_linear)"/>
<path d="M38.9354 29.84C38.7212 29.9899 38.4486 30.0554 38.1668 30.0008L32.7843 28.9563C32.2215 28.847 31.838 28.2992 31.9281 27.733C32.0181 27.1667 32.5476 26.7961 33.1105 26.9053L37.4737 27.7516L39.2168 16.7877C39.3069 16.2214 39.8364 15.8508 40.3997 15.9597C40.9625 16.0689 41.346 16.6167 41.2559 17.183L39.3492 29.1731C39.3046 29.4563 39.1492 29.6903 38.9354 29.84Z" fill="#69D44B"/>
<path d="M110.383 77.0149H53.9062V34.4299C53.9062 32.5456 55.5964 31.0181 57.6823 31.0181H69.3082L87.5167 31.0181L106.608 31.0181C108.693 31.0181 110.383 32.5456 110.383 34.4299V77.0149Z" fill="url(#paint8_linear)"/>
<circle cx="82.4359" cy="54.8895" r="8.81581" stroke="#74C85D" stroke-opacity="0.2"/>
<circle cx="82.4381" cy="54.8896" r="12.3092" stroke="#74C85D" stroke-opacity="0.3"/>
<circle cx="82.4365" cy="54.8893" r="15.8027" stroke="#74C85D"/>
<path d="M79.9931 61.2941C79.6841 61.2941 79.3758 61.1728 79.1401 60.9289L74.6373 56.2709C74.1665 55.7837 74.1665 54.9936 74.6373 54.5065C75.1082 54.0194 75.8719 54.0194 76.3428 54.5065L79.9931 58.2821L89.1099 48.8502C89.5807 48.3631 90.3445 48.3631 90.8159 48.8502C91.2868 49.3373 91.2868 50.1274 90.8159 50.6145L80.8455 60.9289C80.6104 61.1728 80.3015 61.2941 79.9931 61.2941Z" fill="#69D44B"/>
<path opacity="0.1" d="M143.575 41.4765C142.659 43.487 140.287 44.3748 138.277 43.4593L126.619 38.1511C124.608 37.2357 123.72 34.8637 124.636 32.8532L129.705 21.7198C130.003 21.0661 130.811 20.7942 131.51 21.1127L135.409 22.8878L141.515 25.668L147.917 28.5831C148.616 28.9014 148.942 29.6894 148.644 30.3431L143.575 41.4765Z" fill="url(#paint9_linear)"/>
<path opacity="0.3" d="M142.833 46.0761C141.917 48.0866 139.545 48.9744 137.535 48.0589L123.371 41.61C121.361 40.6945 120.473 38.3225 121.389 36.312L127.348 23.2243C127.685 22.4841 128.6 22.1762 129.392 22.5369L133.806 24.5468L140.72 27.6948L147.969 30.9955C148.76 31.3559 149.129 32.2482 148.792 32.9884L142.833 46.0761Z" fill="url(#paint10_linear)"/>
<path d="M142.278 49.0806C141.37 51.0946 139.002 51.9914 136.988 51.0836L121.598 44.147C119.584 43.2392 118.687 40.8706 119.595 38.8566L125.661 25.3999C126.002 24.6431 126.957 24.3355 127.795 24.7131L132.464 26.8177L139.777 30.114L147.445 33.5701C148.282 33.9475 148.685 34.867 148.344 35.6238L142.278 49.0806Z" fill="url(#paint11_linear)"/>
<path d="M132.281 39.6352C132.778 39.4825 133.31 39.7369 133.503 40.2203L134.568 42.8873C134.747 43.3353 135.255 43.5533 135.703 43.3744C136.151 43.1955 136.369 42.6873 136.19 42.2394L135.24 39.859C135.023 39.316 135.316 38.7036 135.875 38.5321L138.324 37.7801C138.785 37.6386 139.045 37.1501 138.903 36.6889C138.761 36.2278 138.273 35.9688 137.812 36.1103L135.067 36.9528C134.57 37.1055 134.038 36.8511 133.845 36.3678L132.78 33.7012C132.601 33.2533 132.093 33.0352 131.645 33.2141C131.197 33.393 130.979 33.9012 131.158 34.3491L132.108 36.7291C132.325 37.272 132.032 37.8844 131.473 38.056L129.022 38.8083C128.561 38.9498 128.302 39.4383 128.444 39.8994C128.585 40.3606 129.074 40.6196 129.535 40.4781L132.281 39.6352Z" fill="#DA7F7F"/>
<g opacity="0.7" filter="url(#filter3_f)">
<path d="M23.7288 72.9682C20.4979 76.5245 14.9958 76.7883 11.4396 73.5574C7.8833 70.3265 7.61952 64.8244 10.8504 61.2681L13.8225 57.9968C14.2128 57.5671 14.9147 57.5689 15.3904 58.001L18.0414 60.4095L22.1934 64.1817L26.5469 68.1368C27.0223 68.5687 27.0912 69.2671 26.7009 69.6968L23.7288 72.9682Z" fill="url(#paint12_linear)"/>
<path d="M15.5041 69.1362C16.0016 68.9835 16.5331 69.2379 16.7262 69.7212L17.3698 71.3327C17.4951 71.6463 17.851 71.7991 18.1647 71.6738C18.4784 71.5485 18.6311 71.1926 18.5058 70.8789L17.9606 69.5141C17.7438 68.9711 18.0369 68.3587 18.5959 68.1871L20.0003 67.756C20.3232 67.6569 20.5046 67.3148 20.4055 66.9919C20.3064 66.669 19.9643 66.4875 19.6413 66.5867L17.9831 67.0957C17.4855 67.2484 16.954 66.994 16.761 66.5106L16.1174 64.8995C15.9921 64.5858 15.6363 64.4331 15.3226 64.5584C15.0089 64.6837 14.8562 65.0396 14.9815 65.3533L15.5265 66.7178C15.7434 67.2607 15.4502 67.8731 14.8913 68.0447L13.4861 68.476C13.1631 68.5752 12.9817 68.9173 13.0808 69.2402C13.18 69.5631 13.5221 69.7446 13.845 69.6454L15.5041 69.1362Z" fill="#DA7F7F"/>
</g>
<g opacity="0.7" filter="url(#filter4_f)">
<path d="M156.598 73.8905C158.784 77.2827 157.807 81.8051 154.415 83.9916C151.023 86.1782 146.501 85.2009 144.314 81.8088L142.303 78.6884C142.038 78.2785 142.192 77.7093 142.646 77.4169L145.174 75.7869L149.135 73.234L153.287 70.5573C153.741 70.265 154.322 70.3603 154.587 70.7702L156.598 73.8905Z" fill="url(#paint13_linear)"/>
<path d="M152.077 82.3019C151.964 82.3749 151.823 82.4048 151.681 82.3741L148.965 81.7871C148.681 81.7257 148.5 81.4456 148.562 81.1615C148.623 80.8774 148.903 80.6969 149.187 80.7582L151.389 81.2339L152.577 75.7339C152.639 75.4499 152.919 75.2693 153.203 75.3305C153.487 75.3919 153.668 75.6721 153.606 75.9561L152.307 81.9708C152.276 82.1129 152.191 82.229 152.077 82.3019Z" fill="#69D44B"/>
</g>
<path d="M114.669 111.744H49.9267C48.3837 111.744 47.1328 110.494 47.1328 108.951V102.244C47.1328 100.701 48.3837 99.4504 49.9267 99.4504H114.669C116.212 99.4504 117.463 100.701 117.463 102.244V108.951C117.463 110.494 116.212 111.744 114.669 111.744Z" fill="url(#paint14_linear)"/>
<defs>
<filter id="filter0_f" x="23.1895" y="106.62" width="117.245" height="26.3783" filterUnits="userSpaceOnUse" color-interpolation-filters="sRGB">
<feFlood flood-opacity="0" result="BackgroundImageFix"/>
<feBlend mode="normal" in="SourceGraphic" in2="BackgroundImageFix" result="shape"/>
<feGaussianBlur stdDeviation="1.5" result="effect1_foregroundBlur"/>
</filter>
<filter id="filter1_f" x="103.633" y="10.2969" width="37.2647" height="36.6057" filterUnits="userSpaceOnUse" color-interpolation-filters="sRGB">
<feFlood flood-opacity="0" result="BackgroundImageFix"/>
<feBlend mode="normal" in="SourceGraphic" in2="BackgroundImageFix" result="shape"/>
<feGaussianBlur stdDeviation="2.5" result="effect1_foregroundBlur"/>
</filter>
<filter id="filter2_f" x="31.4404" y="20.0513" width="33.2897" height="30.3339" filterUnits="userSpaceOnUse" color-interpolation-filters="sRGB">
<feFlood flood-opacity="0" result="BackgroundImageFix"/>
<feBlend mode="normal" in="SourceGraphic" in2="BackgroundImageFix" result="shape"/>
<feGaussianBlur stdDeviation="2.5" result="effect1_foregroundBlur"/>
</filter>
<filter id="filter3_f" x="0" y="52.2188" width="32.4073" height="32.1887" filterUnits="userSpaceOnUse" color-interpolation-filters="sRGB">
<feFlood flood-opacity="0" result="BackgroundImageFix"/>
<feBlend mode="normal" in="SourceGraphic" in2="BackgroundImageFix" result="shape"/>
<feGaussianBlur stdDeviation="2.5" result="effect1_foregroundBlur"/>
</filter>
<filter id="filter4_f" x="136.824" y="65.0281" width="28.7328" height="27.9227" filterUnits="userSpaceOnUse" color-interpolation-filters="sRGB">
<feFlood flood-opacity="0" result="BackgroundImageFix"/>
<feBlend mode="normal" in="SourceGraphic" in2="BackgroundImageFix" result="shape"/>
<feGaussianBlur stdDeviation="2.5" result="effect1_foregroundBlur"/>
</filter>
<linearGradient id="paint0_linear" x1="30.6173" y1="104.962" x2="133.673" y2="104.962" gradientUnits="userSpaceOnUse">
<stop stop-color="#28A96B"/>
<stop offset="0.0833333" stop-color="#69D54B"/>
<stop offset="0.911458" stop-color="#69D44B"/>
<stop offset="1" stop-color="#28A96B"/>
</linearGradient>
<linearGradient id="paint1_linear" x1="82.2956" y1="66.1831" x2="82.2956" y2="86.907" gradientUnits="userSpaceOnUse">
<stop stop-color="#4BC05A"/>
<stop offset="1" stop-color="#A2F18A"/>
</linearGradient>
<linearGradient id="paint2_linear" x1="82.2488" y1="74.853" x2="82.2488" y2="78.9209" gradientUnits="userSpaceOnUse">
<stop stop-color="#378421"/>
<stop offset="0.328125" stop-color="#358D1C"/>
<stop offset="1" stop-color="#3EAC1F"/>
</linearGradient>
<linearGradient id="paint3_linear" x1="116.966" y1="21.6586" x2="127.564" y2="35.5408" gradientUnits="userSpaceOnUse">
<stop stop-color="white"/>
<stop offset="0.53125" stop-color="#EFF2FA"/>
<stop offset="0.911458" stop-color="#EBEFF8"/>
<stop offset="1" stop-color="#EFF2FA"/>
</linearGradient>
<linearGradient id="paint4_linear" x1="49.3577" y1="26.579" x2="46.8129" y2="43.8575" gradientUnits="userSpaceOnUse">
<stop stop-color="white"/>
<stop offset="0.53125" stop-color="#EFF2FA"/>
<stop offset="0.911458" stop-color="#EBEFF8"/>
<stop offset="1" stop-color="#EFF2FA"/>
</linearGradient>
<linearGradient id="paint5_linear" x1="25.876" y1="8.36777" x2="36.7652" y2="23.9243" gradientUnits="userSpaceOnUse">
<stop stop-color="#CBEAF1"/>
<stop offset="0.53125" stop-color="#D8F7FF"/>
<stop offset="1" stop-color="#D8F7FF"/>
</linearGradient>
<linearGradient id="paint6_linear" x1="27.0972" y1="10.387" x2="39.4269" y2="28.0014" gradientUnits="userSpaceOnUse">
<stop stop-color="#CBEAF1"/>
<stop offset="0.53125" stop-color="#D8F7FF"/>
<stop offset="1" stop-color="#D8F7FF"/>
</linearGradient>
<linearGradient id="paint7_linear" x1="30.0006" y1="13.5254" x2="43.6941" y2="33.0883" gradientUnits="userSpaceOnUse">
<stop stop-color="white"/>
<stop offset="0.53125" stop-color="#D8F7FF"/>
<stop offset="1" stop-color="#D8F7FF"/>
</linearGradient>
<linearGradient id="paint8_linear" x1="82.1448" y1="31.0181" x2="82.1448" y2="77.0149" gradientUnits="userSpaceOnUse">
<stop stop-color="white"/>
<stop offset="0.53125" stop-color="#EFF2FA"/>
<stop offset="0.911458" stop-color="#EBEFF8"/>
<stop offset="1" stop-color="#B5BCCD"/>
</linearGradient>
<linearGradient id="paint9_linear" x1="139.714" y1="24.8478" x2="132.448" y2="40.8052" gradientUnits="userSpaceOnUse">
<stop stop-color="#CBEAF1"/>
<stop offset="0.53125" stop-color="#D8F7FF"/>
<stop offset="1" stop-color="#D8F7FF"/>
</linearGradient>
<linearGradient id="paint10_linear" x1="138.68" y1="26.7661" x2="130.453" y2="44.8344" gradientUnits="userSpaceOnUse">
<stop stop-color="#CBEAF1"/>
<stop offset="0.53125" stop-color="#D8F7FF"/>
<stop offset="1" stop-color="#D8F7FF"/>
</linearGradient>
<linearGradient id="paint11_linear" x1="137.62" y1="29.1415" x2="129.293" y2="47.6153" gradientUnits="userSpaceOnUse">
<stop stop-color="white"/>
<stop offset="0.53125" stop-color="#D8F7FF"/>
<stop offset="1" stop-color="#D8F7FF"/>
</linearGradient>
<linearGradient id="paint12_linear" x1="20.9685" y1="63.0688" x2="11.4396" y2="73.5574" gradientUnits="userSpaceOnUse">
<stop stop-color="white"/>
<stop offset="0.53125" stop-color="#EFF2FA"/>
<stop offset="0.911458" stop-color="#EBEFF8"/>
<stop offset="1" stop-color="#EFF2FA"/>
</linearGradient>
<linearGradient id="paint13_linear" x1="147.966" y1="73.9872" x2="154.415" y2="83.9916" gradientUnits="userSpaceOnUse">
<stop stop-color="white"/>
<stop offset="0.53125" stop-color="#EFF2FA"/>
<stop offset="0.911458" stop-color="#EBEFF8"/>
<stop offset="1" stop-color="#EFF2FA"/>
</linearGradient>
<linearGradient id="paint14_linear" x1="82.2977" y1="99.4504" x2="82.2977" y2="111.744" gradientUnits="userSpaceOnUse">
<stop stop-color="#378421"/>
<stop offset="0.328125" stop-color="#358D1C"/>
<stop offset="1" stop-color="#3EAC1F"/>
</linearGradient>
</defs>
</svg>
