<svg width="121" height="31" viewBox="0 0 121 31" fill="none" xmlns="http://www.w3.org/2000/svg">
<rect x="1" y="1" width="83" height="29" rx="4" fill="#F6F9FC" stroke="#616D85" stroke-width="2"/>
<path d="M10.4062 20V11.48H12.0502V17.672L16.1783 11.48H17.7143V20H16.0703V13.88L11.9902 20H10.4062Z" fill="#616D85"/>
<path d="M26.7095 11.48V20H25.0655V16.364H21.2015V20H19.5455V11.48H21.2015V14.924H25.0655V11.48H26.7095Z" fill="#616D85"/>
<path d="M35.6509 11.48V20H34.0069V16.364H30.1429V20H28.4869V11.48H30.1429V14.924H34.0069V11.48H35.6509Z" fill="#616D85"/>
<rect x="91" y="1" width="29" height="29" rx="4" stroke="#616D85" stroke-width="2"/>
<path d="M103 11L108 16L103 21" stroke="#616D85" stroke-width="2"/>
</svg>
