<svg width="100" height="39" viewBox="0 0 100 39" fill="none" xmlns="http://www.w3.org/2000/svg">
<circle cx="15.5" cy="20.5" r="14.5" stroke="#616D85" stroke-width="2"/>
<path d="M18.9633 18.7244C18.9633 18.1562 18.7771 17.696 18.4047 17.3438C18.0323 16.9915 17.5424 16.8153 16.9352 16.8153H14.1852V20.6335H16.9352C17.5424 20.6335 18.0323 20.4574 18.4047 20.1051C18.7771 19.7528 18.9633 19.2926 18.9633 18.7244ZM21 18.7244C21 19.821 20.6376 20.7159 19.9129 21.4091C19.1882 22.1023 18.2529 22.4489 17.107 22.4489H14.1852V23.4545H18.525C18.6052 23.4545 18.6711 23.4801 18.7227 23.5312C18.7742 23.5824 18.8 23.6477 18.8 23.7273V24.8182C18.8 24.8977 18.7742 24.9631 18.7227 25.0142C18.6711 25.0653 18.6052 25.0909 18.525 25.0909H14.1852V26.7273C14.1852 26.8068 14.1579 26.8722 14.1035 26.9233C14.0491 26.9744 13.9846 27 13.9102 27H12.475C12.3948 27 12.3289 26.9744 12.2773 26.9233C12.2258 26.8722 12.2 26.8068 12.2 26.7273V25.0909H10.275C10.1948 25.0909 10.1289 25.0653 10.0773 25.0142C10.0258 24.9631 10 24.8977 10 24.8182V23.7273C10 23.6477 10.0258 23.5824 10.0773 23.5312C10.1289 23.4801 10.1948 23.4545 10.275 23.4545H12.2V22.4489H10.275C10.1948 22.4489 10.1289 22.4233 10.0773 22.3722C10.0258 22.321 10 22.2557 10 22.1761V20.9062C10 20.8324 10.0258 20.7685 10.0773 20.7145C10.1289 20.6605 10.1948 20.6335 10.275 20.6335H12.2V15.2727C12.2 15.1932 12.2258 15.1278 12.2773 15.0767C12.3289 15.0256 12.3948 15 12.475 15H17.107C18.2529 15 19.1882 15.3466 19.9129 16.0398C20.6376 16.733 21 17.6278 21 18.7244Z" fill="#616D85"/>
<path fill-rule="evenodd" clip-rule="evenodd" d="M39.3431 12.9289L45.7071 19.2928C46.0976 19.6834 46.0976 20.3165 45.7071 20.7071L39.3431 27.071C38.9526 27.4615 38.3195 27.4615 37.9289 27.071C37.5384 26.6805 37.5384 26.0473 37.9289 25.6568L42.5858 20.9999L30 20.9999L30 18.9999L42.5858 18.9999L37.9289 14.3431C37.5384 13.9526 37.5384 13.3194 37.9289 12.9289C38.3195 12.5384 38.9526 12.5384 39.3431 12.9289Z" fill="#616D85"/>
<rect x="44" y="1" width="55" height="37" rx="4" fill="#F6F9FC" stroke="#616D85" stroke-width="2"/>
<rect x="49" y="7" width="13" height="8" rx="3" fill="#616D85"/>
<rect x="49" y="28" width="9" height="2" rx="1" fill="#616D85"/>
<rect x="61" y="28" width="9" height="2" rx="1" fill="#616D85"/>
<rect x="73" y="28" width="9" height="2" rx="1" fill="#616D85"/>
<rect x="85" y="28" width="9" height="2" rx="1" fill="#616D85"/>
</svg>
