<svg width="16" height="15" viewBox="0 0 16 15" fill="none" xmlns="http://www.w3.org/2000/svg">
    <path d="M7.7392 1.47436C7.85412 1.27157 8.1463 1.27157 8.26122 1.47436L9.37426 3.4386C9.64162 3.91044 10.1738 4.16672 10.7094 4.08158L12.9391 3.7271C13.1693 3.6905 13.3515 3.91894 13.2645 4.13523L12.4228 6.23012C12.2206 6.73334 12.3521 7.30921 12.7526 7.67487L14.4199 9.19708C14.592 9.35425 14.527 9.6391 14.3037 9.70601L12.1411 10.3541C11.6216 10.5097 11.2533 10.9715 11.2171 11.5127L11.0665 13.7653C11.051 13.9979 10.7878 14.1247 10.5962 13.9918L8.74116 12.705C8.29555 12.3959 7.70487 12.3959 7.25926 12.705L5.4042 13.9918C5.21267 14.1247 4.94942 13.9979 4.93387 13.7653L4.78331 11.5127C4.74715 10.9715 4.37886 10.5097 3.85936 10.3541L1.6967 9.70601C1.47341 9.6391 1.4084 9.35425 1.58054 9.19708L3.24785 7.67487C3.64837 7.30921 3.7798 6.73334 3.57761 6.23012L2.73587 4.13523C2.64897 3.91894 2.83114 3.6905 3.06135 3.7271L5.29102 4.08158C5.82661 4.16672 6.3588 3.91044 6.62616 3.4386L7.7392 1.47436Z" stroke="#979797"></path>
</svg>
