<svg width="16" height="15" viewBox="0 0 16 15" fill="none" xmlns="http://www.w3.org/2000/svg">
    <path d="M7.30419 1.22786C7.61063 0.687066 8.38979 0.687066 8.69623 1.22786L9.80927 3.1921C9.9738 3.48246 10.3013 3.64018 10.6309 3.58778L12.8606 3.2333C13.4744 3.13571 13.9602 3.74488 13.7285 4.32165L12.8868 6.41654C12.7623 6.72621 12.8432 7.08059 13.0897 7.30561L14.757 8.82783C15.216 9.24693 15.0427 10.0065 14.4472 10.185L12.2846 10.833C11.9649 10.9288 11.7382 11.213 11.716 11.546L11.5654 13.7986C11.524 14.4188 10.822 14.7569 10.3112 14.4026L8.45618 13.1158C8.18196 12.9256 7.81846 12.9256 7.54424 13.1158L5.68918 14.4026C5.17844 14.7569 4.47644 14.4188 4.43499 13.7986L4.28443 11.546C4.26217 11.213 4.03553 10.9288 3.71584 10.833L1.55318 10.185C0.957749 10.0065 0.78437 9.24693 1.24342 8.82783L2.91073 7.30561C3.1572 7.08059 3.23809 6.72621 3.11366 6.41654L2.27192 4.32165C2.04018 3.74488 2.52597 3.13571 3.13985 3.2333L5.36952 3.58778C5.69912 3.64018 6.02662 3.48246 6.19115 3.1921L7.30419 1.22786Z" fill="#7098FF"></path>
</svg>
