<svg width="31" height="12" viewBox="0 0 31 12" fill="none" xmlns="http://www.w3.org/2000/svg">
<path d="M30.483 5.93621C30.873 5.69834 30.8316 5.00319 30.4162 4.81328C27.1871 3.18104 23.9172 1.71222 20.4371 0.953541C19.9274 0.87657 19.459 1.49475 19.7897 1.95802C20.5581 2.98552 21.4679 3.8436 22.5224 4.58575C15.4627 4.79151 8.10349 4.21016 1.26224 6.38843C0.765257 6.52536 0.920055 7.42832 1.42031 7.34486C8.561 5.95379 15.7533 6.27676 22.9576 5.95497C22.2567 6.90897 21.5558 7.86298 20.8517 8.76351C20.5217 9.1588 20.7708 9.949 21.3716 9.85956C24.6682 9.23385 27.719 7.8716 30.483 5.93621ZM24.4581 5.70472C24.892 5.3569 24.7372 4.45385 24.0325 4.49582C23.9821 4.49882 23.9318 4.50181 23.9318 4.50181C23.2896 3.89611 22.6505 3.34388 22.0051 2.6847C24.3715 3.40238 26.5996 4.34295 28.8373 5.44384C26.9379 6.63021 24.9722 7.55221 22.8332 8.10888C23.3016 7.49071 23.7667 6.81905 24.2854 6.19779C24.4804 6.07903 24.5179 5.86205 24.4581 5.70472Z" fill="#C2D1DE"/>
</svg>
