<svg width="58" height="56" viewBox="0 0 58 56" fill="none" xmlns="http://www.w3.org/2000/svg">
<path fill-rule="evenodd" clip-rule="evenodd" d="M35.5171 12.7849L31.2036 5.47531C30.0427 3.50823 27.197 3.50823 26.0362 5.47532L21.7227 12.7849C20.1753 15.4069 17.6105 17.2704 14.6387 17.9317L6.35389 19.7754C4.12436 20.2715 3.245 22.9779 4.75709 24.6898L10.3759 31.051C12.3915 33.3328 13.3712 36.348 13.0818 39.3788L12.2751 47.8278C12.058 50.1015 14.3602 51.7741 16.4555 50.865L24.2417 47.4869C27.0347 46.2751 30.205 46.2751 32.998 47.4869L40.7842 50.865C42.8796 51.7741 45.1818 50.1015 44.9647 47.8277L44.158 39.3788C43.8686 36.348 44.8483 33.3328 46.8638 31.051L52.4827 24.6898C53.9948 22.9779 53.1154 20.2715 50.8859 19.7754L42.6011 17.9317C39.6293 17.2704 37.0644 15.4069 35.5171 12.7849ZM34.6484 3.4424C31.9398 -1.14747 25.2999 -1.14747 22.5913 3.44241L18.2778 10.752C17.2931 12.4205 15.6609 13.6064 13.7698 14.0272L5.48501 15.8709C0.282776 17.0285 -1.76908 23.3435 1.75915 27.3379L7.378 33.6991C8.66062 35.1512 9.28405 37.0699 9.0999 38.9986L8.29318 47.4476C7.78662 52.7529 13.1584 56.6558 18.0476 54.5345L25.8338 51.1564C27.6111 50.3853 29.6286 50.3853 31.406 51.1564L39.1922 54.5346C44.0813 56.6558 49.4531 52.7529 48.9466 47.4476L48.1399 38.9986C47.9557 37.0699 48.5791 35.1512 49.8618 33.6991L55.4806 27.3379C59.0088 23.3435 56.957 17.0285 51.7548 15.8709L43.47 14.0272C41.5788 13.6064 39.9466 12.4205 38.962 10.752L34.6484 3.4424Z" fill="url(#paint0_linear)"/>
<defs>
<linearGradient id="paint0_linear" x1="28.6199" y1="0" x2="28.6199" y2="55.1229" gradientUnits="userSpaceOnUse">
<stop stop-color="#FF9191"/>
<stop offset="1" stop-color="#BD6389"/>
</linearGradient>
</defs>
</svg>
