<svg width="60" height="60" viewBox="0 0 60 60" fill="none" xmlns="http://www.w3.org/2000/svg">
<g clip-path="url(#clip0)">
<path d="M34.9227 53.2909C34.4518 53.4179 33.9713 53.5312 33.4944 53.6292C32.2468 53.8834 31.4417 55.1009 31.6965 56.3486C31.7108 56.4199 31.7286 56.4876 31.749 56.5558C32.0894 57.6835 33.2397 58.3871 34.4166 58.147C34.9858 58.0305 35.5594 57.8949 36.1217 57.7435C37.3516 57.4128 38.08 56.1474 37.7491 54.9175C37.4178 53.686 36.1527 52.9598 34.9227 53.2909Z" fill="#7DC855"/>
<path d="M18.8508 52.007C18.4055 51.8089 17.9613 51.5943 17.5303 51.3689C16.4009 50.7801 15.0086 51.2177 14.4196 52.347C14.1289 52.9024 14.0881 53.5222 14.256 54.0783C14.4295 54.652 14.8241 55.1584 15.3965 55.4571C15.911 55.7251 16.4397 55.9813 16.9702 56.2178C18.1326 56.7368 19.4963 56.2157 20.0157 55.0534C20.5351 53.8901 20.0134 52.5273 18.8508 52.007Z" fill="#7DC855"/>
<path d="M26.7801 54.034C26.2952 53.995 25.8032 53.94 25.3204 53.8722C24.0594 53.6925 22.8927 54.5699 22.7135 55.8308C22.6649 56.1735 22.6947 56.5085 22.7883 56.8191C23.0396 57.6519 23.7546 58.3066 24.6729 58.4377C25.2474 58.5188 25.8322 58.5839 26.4101 58.6299C27.6798 58.7328 28.7916 57.7866 28.8937 56.5176C28.9958 55.2479 28.0501 54.1362 26.7801 54.034Z" fill="#7DC855"/>
<path d="M42.35 49.8517C41.9495 50.1273 41.534 50.3949 41.1157 50.6474C40.1941 51.2027 39.8006 52.301 40.0973 53.2858C40.1519 53.4663 40.2299 53.6431 40.3316 53.8125C40.9884 54.9032 42.4057 55.2534 43.4965 54.5969C43.9938 54.2969 44.4878 53.9779 44.9641 53.6504C46.0127 52.9284 46.2785 51.4927 45.5564 50.4442C44.8347 49.3946 43.3986 49.1299 42.35 49.8517Z" fill="#7DC855"/>
<path d="M51.4136 43.6163C50.3807 42.8716 48.9397 43.1052 48.1948 44.1374C47.9104 44.5322 47.6093 44.9239 47.301 45.2998C46.7953 45.9174 46.664 46.718 46.8778 47.4287C47.0059 47.8518 47.2563 48.2438 47.6236 48.5449C48.6087 49.3516 50.0613 49.2068 50.868 48.2216C51.2361 47.773 51.5954 47.3059 51.9344 46.8351C52.6793 45.8023 52.4462 44.3616 51.4136 43.6163Z" fill="#7DC855"/>
<path d="M54.6406 35.218C53.4185 34.8609 52.1383 35.563 51.7818 36.7854C51.6447 37.2536 51.4921 37.7237 51.3287 38.1824C51.1552 38.6651 51.1526 39.1685 51.2907 39.6244C51.4946 40.3009 52.0051 40.8744 52.7201 41.1305C53.919 41.5604 55.2385 40.9377 55.6691 39.7394C55.8646 39.1928 56.0463 38.6332 56.2081 38.0763C56.5645 36.8545 55.8627 35.5738 54.6406 35.218Z" fill="#7DC855"/>
<path d="M58.967 20.1957L55.9369 21.1372C53.6372 14.09 48.7953 8.29907 42.2418 4.78199C41.5821 4.42771 40.913 4.10216 40.2356 3.803C40.2307 3.80066 40.2268 3.79871 40.2222 3.79572C40.1939 3.78376 40.1641 3.77258 40.1365 3.76036C34.1616 1.14596 27.5496 0.650351 21.2114 2.36677C21.1616 2.37652 21.1118 2.38588 21.0627 2.39979C20.851 2.45751 20.6374 2.52005 20.4266 2.58297C20.0807 2.6875 19.7326 2.80009 19.3912 2.91723C19.3508 2.93115 19.3127 2.94844 19.2734 2.96404C13.6156 4.92396 8.79749 8.53751 5.36025 13.3656C5.34802 13.3823 5.33424 13.3966 5.32267 13.4131C4.98672 13.8849 4.6613 14.3741 4.35395 14.8676C4.33471 14.8992 4.31872 14.9321 4.30039 14.9648C3.99382 15.4619 3.69922 15.9705 3.42021 16.4893C0.571395 21.7984 -0.515372 27.7305 0.226084 33.5901C0.227774 33.6035 0.229335 33.616 0.230505 33.6292C0.231675 33.6386 0.233755 33.6484 0.235965 33.6581C0.437483 35.2234 0.768493 36.7837 1.23328 38.3249C2.45383 42.3715 4.49047 46.0101 7.28624 49.1403C8.13431 50.0896 9.592 50.1715 10.5419 49.3235C11.4912 48.4751 11.574 47.0171 10.7253 46.068C9.32963 44.5061 8.16161 42.7906 7.22669 40.9424C7.21668 40.9196 7.20784 40.8964 7.19692 40.8745C6.97707 40.4385 6.76814 39.9915 6.57468 39.5441C6.57364 39.5406 6.57247 39.5385 6.57091 39.5357C6.21884 38.7122 5.91189 37.8645 5.64874 36.9936C2.62688 26.9741 6.48069 16.4897 14.4781 10.6277C14.5964 10.5416 14.7146 10.4548 14.8341 10.3713C16.8872 8.92325 19.203 7.77499 21.7374 7.01078C24.288 6.24189 26.8673 5.91894 29.3934 5.99461C29.4342 5.99643 29.4739 5.9976 29.5143 5.99877C29.6685 6.00345 29.8222 6.01164 29.9756 6.02022C30.0376 6.02347 30.0994 6.02685 30.1613 6.03075C38.0383 6.5235 45.3019 10.8984 49.3796 17.7715C49.3818 17.7754 49.3834 17.7798 49.3861 17.7837C49.4466 17.8857 49.5056 17.9877 49.5649 18.0909C49.5719 18.1025 49.5796 18.1127 49.5863 18.1246C50.3665 19.4927 51.0229 20.9567 51.5335 22.5061L48.5034 23.4482C47.6619 23.7096 47.5791 24.3151 48.3177 24.7938L54.9117 29.0649C55.651 29.544 56.5327 29.2697 56.8698 28.457L59.8823 21.1997C60.2191 20.3864 59.808 19.9343 58.967 20.1957Z" fill="url(#paint0_angular)"/>
<path fill-rule="evenodd" clip-rule="evenodd" d="M25.5004 15C26.5385 14.6225 27.686 15.158 28.0635 16.1961L33.7977 31.9652L21.3269 45.3953C20.5753 46.2047 19.3099 46.2516 18.5004 45.5C17.691 44.7484 17.6441 43.4829 18.3957 42.6735L29.2031 31.0348L24.3043 17.5631C23.9269 16.525 24.4624 15.3775 25.5004 15Z" fill="url(#paint1_angular)"/>
</g>
<defs>
<radialGradient id="paint0_angular" cx="0" cy="0" r="1" gradientUnits="userSpaceOnUse" gradientTransform="translate(30 25.636) rotate(90) scale(24.2736 30)">
<stop stop-color="#91A9FF"/>
<stop offset="1" stop-color="#91A9FF"/>
</radialGradient>
<radialGradient id="paint1_angular" cx="0" cy="0" r="1" gradientUnits="userSpaceOnUse" gradientTransform="translate(25.8295 30.4567) rotate(90) scale(15.5777 7.9682)">
<stop stop-color="#91A9FF"/>
<stop offset="1" stop-color="#91A9FF"/>
</radialGradient>
<clipPath id="clip0">
<rect width="60" height="60" fill="white"/>
</clipPath>
</defs>
</svg>
