<svg width="60" height="60" viewBox="0 0 60 60" fill="none" xmlns="http://www.w3.org/2000/svg">
<path d="M54.7266 3.39844H5.27344C2.36566 3.39844 0 5.7641 0 8.67188V40.0781C0 42.9859 2.36566 45.3516 5.27344 45.3516H22.6172V53.0859H11.25C10.2792 53.0859 9.49219 53.873 9.49219 54.8438C9.49219 55.8145 10.2792 56.6016 11.25 56.6016H48.75C49.7208 56.6016 50.5078 55.8145 50.5078 54.8438C50.5078 53.873 49.7208 53.0859 48.75 53.0859H37.3828V45.3516H54.7266C57.6343 45.3516 60 42.9859 60 40.0781V8.67188C60 5.7641 57.6343 3.39844 54.7266 3.39844ZM33.8672 53.0859H26.1328V45.3516H33.8672V53.0859ZM56.4844 40.0781C56.4844 41.0474 55.6958 41.8359 54.7266 41.8359C52.9385 41.8359 8.09977 41.8359 5.27344 41.8359C4.30418 41.8359 3.51562 41.0474 3.51562 40.0781V8.67188C3.51562 7.70262 4.30418 6.91406 5.27344 6.91406H54.7266C55.6958 6.91406 56.4844 7.70262 56.4844 8.67188V40.0781Z" fill="url(#paint0_linear)"/>
<path d="M11.0991 13.2503C10.8959 12.2769 9.98172 11.6921 9.03191 11.8699C8.0841 12.0665 7.46804 12.9637 7.65144 13.9371C7.84679 14.8794 8.73859 15.5011 9.71863 15.3176C10.6693 15.1183 11.2812 14.224 11.0991 13.2503Z" fill="url(#paint1_linear)"/>
<path d="M26.25 11.8359H16.875C15.9042 11.8359 15.1172 12.623 15.1172 13.5938C15.1172 14.5645 15.9042 15.3516 16.875 15.3516H26.25C27.2208 15.3516 28.0078 14.5645 28.0078 13.5938C28.0078 12.623 27.2208 11.8359 26.25 11.8359Z" fill="url(#paint2_linear)"/>
<path d="M11.0992 20.7502C10.8756 19.6789 9.79541 19.1155 8.86447 19.4133C7.95205 19.6903 7.41006 20.6536 7.69377 21.6045C8.02529 22.6217 9.0515 23.0394 9.88634 22.7741C10.7129 22.5232 11.2749 21.6901 11.0992 20.7502Z" fill="url(#paint3_linear)"/>
<path d="M26.25 19.3359H16.875C15.9042 19.3359 15.1172 20.123 15.1172 21.0938C15.1172 22.0645 15.9042 22.8516 16.875 22.8516H26.25C27.2208 22.8516 28.0078 22.0645 28.0078 21.0938C28.0078 20.123 27.2208 19.3359 26.25 19.3359Z" fill="url(#paint4_linear)"/>
<path d="M9.03215 26.8699C7.5918 27.1689 7.1077 28.9806 8.26105 29.9531C9.0823 30.6013 10.1603 30.4133 10.7349 29.7082C11.7689 28.4412 10.6701 26.5634 9.03215 26.8699Z" fill="url(#paint5_linear)"/>
<path d="M26.25 26.8359H16.875C15.9042 26.8359 15.1172 27.623 15.1172 28.5938C15.1172 29.5645 15.9042 30.3516 16.875 30.3516H26.25C27.2208 30.3516 28.0078 29.5645 28.0078 28.5938C28.0078 27.623 27.2208 26.8359 26.25 26.8359Z" fill="url(#paint6_linear)"/>
<path d="M42.1875 10.8984C36.5658 10.8984 31.9922 15.472 31.9922 21.0938C31.9922 26.7155 36.5658 31.2891 42.1875 31.2891C47.8092 31.2891 52.3828 26.7155 52.3828 21.0938C52.3828 15.472 47.8092 10.8984 42.1875 10.8984ZM48.6308 19.3359H43.9453V14.6505C46.2177 15.2711 48.0101 17.0636 48.6308 19.3359ZM42.1875 27.7734C38.5043 27.7734 35.5078 24.777 35.5078 21.0938C35.5078 18.019 37.5968 15.4242 40.4297 14.6505V21.0938C40.4297 22.0645 41.2167 22.8516 42.1875 22.8516H48.6308C47.857 25.6845 45.2623 27.7734 42.1875 27.7734Z" fill="url(#paint7_linear)"/>
<path d="M19.6875 34.3359H16.875C15.9042 34.3359 15.1172 35.123 15.1172 36.0938C15.1172 37.0645 15.9042 37.8516 16.875 37.8516H19.6875C20.6583 37.8516 21.4453 37.0645 21.4453 36.0938C21.4453 35.123 20.6583 34.3359 19.6875 34.3359Z" fill="url(#paint8_linear)"/>
<path d="M36.5625 34.3359H33.75C32.7792 34.3359 31.9922 35.123 31.9922 36.0938C31.9922 37.0645 32.7792 37.8516 33.75 37.8516H36.5625C37.5333 37.8516 38.3203 37.0645 38.3203 36.0938C38.3203 35.123 37.5333 34.3359 36.5625 34.3359Z" fill="url(#paint9_linear)"/>
<defs>
<linearGradient id="paint0_linear" x1="30" y1="3.39844" x2="30" y2="56.6016" gradientUnits="userSpaceOnUse">
<stop stop-color="#91A9FF"/>
<stop offset="1" stop-color="#839EFF"/>
</linearGradient>
<linearGradient id="paint1_linear" x1="9.37514" y1="11.8382" x2="9.37514" y2="15.3497" gradientUnits="userSpaceOnUse">
<stop stop-color="#91A9FF"/>
<stop offset="1" stop-color="#839EFF"/>
</linearGradient>
<linearGradient id="paint2_linear" x1="21.5625" y1="11.8359" x2="21.5625" y2="15.3516" gradientUnits="userSpaceOnUse">
<stop stop-color="#91A9FF"/>
<stop offset="1" stop-color="#839EFF"/>
</linearGradient>
<linearGradient id="paint3_linear" x1="9.37481" y1="19.3341" x2="9.37481" y2="22.852" gradientUnits="userSpaceOnUse">
<stop stop-color="#91A9FF"/>
<stop offset="1" stop-color="#839EFF"/>
</linearGradient>
<linearGradient id="paint4_linear" x1="21.5625" y1="19.3359" x2="21.5625" y2="22.8516" gradientUnits="userSpaceOnUse">
<stop stop-color="#91A9FF"/>
<stop offset="1" stop-color="#839EFF"/>
</linearGradient>
<linearGradient id="paint5_linear" x1="9.37777" y1="26.8366" x2="9.37777" y2="30.351" gradientUnits="userSpaceOnUse">
<stop stop-color="#91A9FF"/>
<stop offset="1" stop-color="#839EFF"/>
</linearGradient>
<linearGradient id="paint6_linear" x1="21.5625" y1="26.8359" x2="21.5625" y2="30.3516" gradientUnits="userSpaceOnUse">
<stop stop-color="#91A9FF"/>
<stop offset="1" stop-color="#839EFF"/>
</linearGradient>
<linearGradient id="paint7_linear" x1="42.1875" y1="10.8984" x2="42.1875" y2="31.2891" gradientUnits="userSpaceOnUse">
<stop stop-color="#FFAB91"/>
<stop offset="1" stop-color="#F4E55A"/>
</linearGradient>
<linearGradient id="paint8_linear" x1="18.2812" y1="34.3359" x2="18.2812" y2="37.8516" gradientUnits="userSpaceOnUse">
<stop stop-color="#91A9FF"/>
<stop offset="1" stop-color="#839EFF"/>
</linearGradient>
<linearGradient id="paint9_linear" x1="35.1562" y1="34.3359" x2="35.1562" y2="37.8516" gradientUnits="userSpaceOnUse">
<stop stop-color="#91A9FF"/>
<stop offset="1" stop-color="#839EFF"/>
</linearGradient>
</defs>
</svg>
