<svg width="57" height="70" viewBox="0 0 57 70" fill="none" xmlns="http://www.w3.org/2000/svg">
<path fill-rule="evenodd" clip-rule="evenodd" d="M18 30C20.7614 30 23 27.7614 23 25C23 22.2386 20.7614 20 18 20C15.2386 20 13 22.2386 13 25C13 27.7614 15.2386 30 18 30ZM18 34C22.9706 34 27 29.9706 27 25C27 20.0294 22.9706 16 18 16C13.0294 16 9 20.0294 9 25C9 29.9706 13.0294 34 18 34Z" fill="url(#paint0_linear)"/>
<path fill-rule="evenodd" clip-rule="evenodd" d="M38.5 11C40.433 11 42 9.433 42 7.5C42 5.567 40.433 4 38.5 4C36.567 4 35 5.567 35 7.5C35 9.433 36.567 11 38.5 11ZM38.5 15C42.6421 15 46 11.6421 46 7.5C46 3.35786 42.6421 0 38.5 0C34.3579 0 31 3.35786 31 7.5C31 11.6421 34.3579 15 38.5 15Z" fill="url(#paint1_linear)"/>
<path d="M40 70H48C52.9706 70 57 65.9706 57 61V39C57 34.0294 52.9706 30 48 30H40V34H48C50.7614 34 53 36.2386 53 39V61C53 63.7614 50.7614 66 48 66H40V70Z" fill="url(#paint2_linear)"/>
<path fill-rule="evenodd" clip-rule="evenodd" d="M41 34H9C6.23858 34 4 36.2386 4 39V61C4 63.7614 6.23858 66 9 66H41C43.7614 66 46 63.7614 46 61V39C46 36.2386 43.7614 34 41 34ZM9 30C4.02944 30 0 34.0294 0 39V61C0 65.9706 4.02944 70 9 70H41C45.9706 70 50 65.9706 50 61V39C50 34.0294 45.9706 30 41 30H9Z" fill="url(#paint3_linear)"/>
<path fill-rule="evenodd" clip-rule="evenodd" d="M22 14C20.8954 14 20 13.1046 20 12L20 3C20 1.89543 20.8954 1 22 1C23.1046 1 24 1.89543 24 3L24 12C24 13.1046 23.1046 14 22 14Z" fill="#EFD83B"/>
<path fill-rule="evenodd" clip-rule="evenodd" d="M14 9C12.8954 9 12 8.10457 12 7L12 3C12 1.89543 12.8954 1 14 1C15.1046 1 16 1.89543 16 3L16 7C16 8.10457 15.1046 9 14 9Z" fill="#EFD83B"/>
<path fill-rule="evenodd" clip-rule="evenodd" d="M39 49C38.4477 49 38 49.4477 38 50C38 50.5523 38.4477 51 39 51C39.5523 51 40 50.5523 40 50C40 49.4477 39.5523 49 39 49ZM39 53C40.6569 53 42 51.6569 42 50C42 48.3431 40.6569 47 39 47C37.3431 47 36 48.3431 36 50C36 51.6569 37.3431 53 39 53Z" fill="url(#paint4_linear)"/>
<defs>
<linearGradient id="paint0_linear" x1="18" y1="16" x2="18" y2="34" gradientUnits="userSpaceOnUse">
<stop stop-color="#EEC01B"/>
<stop offset="1" stop-color="#EEE851"/>
</linearGradient>
<linearGradient id="paint1_linear" x1="38.5" y1="0" x2="38.5" y2="15" gradientUnits="userSpaceOnUse">
<stop stop-color="#EEC01B"/>
<stop offset="1" stop-color="#EEE851"/>
</linearGradient>
<linearGradient id="paint2_linear" x1="30" y1="30" x2="30" y2="70" gradientUnits="userSpaceOnUse">
<stop stop-color="#CFF4E0"/>
<stop offset="1" stop-color="#C3F7CE"/>
</linearGradient>
<linearGradient id="paint3_linear" x1="25" y1="30" x2="25" y2="70" gradientUnits="userSpaceOnUse">
<stop stop-color="#7ED8A7"/>
<stop offset="1" stop-color="#5CCD49"/>
</linearGradient>
<linearGradient id="paint4_linear" x1="39" y1="47" x2="39" y2="53" gradientUnits="userSpaceOnUse">
<stop stop-color="#7ED8A7"/>
<stop offset="1" stop-color="#5CCD49"/>
</linearGradient>
</defs>
</svg>
