<svg width="62" height="62" viewBox="0 0 62 62" fill="none" xmlns="http://www.w3.org/2000/svg">
<g clip-path="url(#clip0)">
<path d="M47.5442 33.6783L42.921 34.0814C39.9422 34.3412 30.0396 35.2795 27.6787 36.4494C24.5477 38.0009 23.2626 41.8104 24.8141 44.9414C26.3655 48.0724 30.1751 49.3575 33.3061 47.806C35.667 46.6361 42.4121 39.3253 44.423 37.1126L47.5442 33.6783ZM28.0692 43.3285C27.4071 41.9922 27.9556 40.3666 29.2917 39.7045C30.1634 39.2726 34.1299 38.6699 38.4593 38.1801C35.4474 41.3281 32.5652 44.1189 31.6932 44.551C30.3569 45.213 28.7313 44.6647 28.0692 43.3285Z" fill="#95ACFB"/>
<path d="M52.9204 16.0425C47.0651 10.1875 39.2804 6.96289 31 6.96289C22.7196 6.96289 14.9349 10.1875 9.07961 16.0425C3.22461 21.8977 0 29.6825 0 37.9629C0 43.4125 1.43532 48.7734 4.15061 53.4664L5.05942 55.0371L15.3054 49.1216L14.3949 47.5478C12.7169 44.6478 11.8299 41.3333 11.8299 37.9629C11.8299 27.3924 20.4296 18.7928 31 18.7928C41.5704 18.7928 50.1701 27.3924 50.1701 37.9629C50.1701 41.3333 49.2832 44.6479 47.6051 47.5478L46.6946 49.1216L56.9406 55.0371L57.8494 53.4664C60.5647 48.7734 62 43.4125 62 37.9629C62 29.6825 58.7754 21.8977 52.9204 16.0425ZM53.7305 36.1465C53.506 33.312 52.7609 30.6221 51.5911 28.172L55.5528 25.8846C57.0996 29.0161 58.0642 32.4839 58.3054 36.1465H53.7305ZM29.1836 15.2323C26.3492 15.4568 23.6592 16.2019 21.2091 17.3716L18.9219 13.4099C22.0534 11.8632 25.5211 10.8986 29.1837 10.6575V15.2323H29.1836ZM32.8164 10.6575C36.479 10.8987 39.9467 11.8632 43.0783 13.4099L40.791 17.3716C38.3408 16.2019 35.651 15.4568 32.8165 15.2323V10.6575H32.8164ZM8.26949 36.1465H3.69457C3.93579 32.4839 4.9003 29.0161 6.44715 25.8846L10.4089 28.172C9.23909 30.6221 8.49388 33.312 8.26949 36.1465ZM6.43904 50.0457C4.86458 46.8465 3.93264 43.3529 3.69542 39.7793H8.27046C8.49146 42.5492 9.21463 45.2564 10.4035 47.7568L6.43904 50.0457ZM12.2308 25.0291L8.26768 22.741C10.2589 19.7769 12.8139 17.222 15.778 15.2307L18.0661 19.1938C15.7865 20.7696 13.8067 22.7494 12.2308 25.0291ZM43.9338 19.1937L46.2218 15.2306C49.186 17.2218 51.7409 19.7768 53.7322 22.7409L49.769 25.029C48.1933 22.7494 46.2135 20.7696 43.9338 19.1937ZM55.561 50.0457L51.5964 47.7568C52.7853 45.2564 53.5084 42.5492 53.7294 39.7793H58.3045C58.0674 43.3529 57.1354 46.8465 55.561 50.0457Z" fill="url(#paint0_angular)"/>
</g>
<defs>
<radialGradient id="paint0_angular" cx="0" cy="0" r="1" gradientUnits="userSpaceOnUse" gradientTransform="translate(31 31) rotate(90) scale(24.0371 31)">
<stop stop-color="#FFD644"/>
<stop offset="1" stop-color="#FF5353"/>
</radialGradient>
<clipPath id="clip0">
<rect width="62" height="62" fill="white"/>
</clipPath>
</defs>
</svg>
