<svg width="66" height="52" viewBox="0 0 66 52" fill="none" xmlns="http://www.w3.org/2000/svg">
<path fill-rule="evenodd" clip-rule="evenodd" d="M23.7908 34.4118C23.7908 35.6788 22.76 36.7059 21.4885 36.7059H3.0699C1.79836 36.7059 0.767578 35.6788 0.767578 34.4118C0.767578 33.1448 1.79836 32.1177 3.0699 32.1177H21.4885C22.76 32.1177 23.7908 33.1448 23.7908 34.4118Z" fill="#95ACFB"/>
<path d="M23.7512 30.1086C22.7808 29.1687 22.7808 27.6448 23.7512 26.7049C24.7217 25.765 26.295 25.765 27.2654 26.7049L33.0392 32.297C33.6328 32.8719 33.8633 33.6654 33.7307 34.41C33.8646 35.1556 33.6344 35.9507 33.0398 36.5265L27.2661 42.1186C26.2957 43.0585 24.7223 43.0585 23.7519 42.1186C22.7815 41.1787 22.7815 39.6549 23.7519 38.715L28.1946 34.4121L23.7512 30.1086Z" fill="#95ACFB"/>
<path d="M65.9968 12.295C65.9968 13.4166 65.0843 14.3259 63.9586 14.3259C62.8329 14.3259 61.9204 13.4166 61.9202 12.295V10.1625C61.9202 6.7986 59.1737 4.0619 55.7978 4.0619L24.1252 4.06961C22.4176 4.06961 20.7621 4.77537 19.5833 6.00612C18.4213 7.21941 17.824 8.79868 17.9016 10.4531C18.0541 13.7067 20.737 16.2553 24.0095 16.2553H55.798C61.4216 16.2553 65.9968 20.8142 65.9968 26.4178V41.8375C65.9968 47.4411 61.4216 52 55.798 52H26.0555C20.3527 52 15.5484 48.0926 14.1975 42.8235H18.4772C19.6821 45.8179 22.625 47.9381 26.0555 47.9381H55.7979C59.1738 47.9381 61.9203 45.2014 61.9203 41.8375V26.4178C61.9203 23.0539 59.1738 20.3172 55.7979 20.3172H24.0095C21.7179 20.3172 19.5997 19.5669 17.8949 18.2945V26H13.8199C13.8209 18.4206 13.8224 10.5403 13.8244 10.5135C13.7308 7.78645 14.7258 5.19456 16.6345 3.20179C18.4966 1.25756 21.08 0.10764 23.7693 0.0140135C23.8481 0.00477273 55.7979 0 55.7979 0C61.4215 0 65.9968 4.55887 65.9968 10.1625V12.295Z" fill="url(#paint0_linear)"/>
<path d="M55.2962 36.6663C56.7033 36.6663 57.8439 35.5297 57.8439 34.1277C57.8439 32.7256 56.7033 31.589 55.2962 31.589C51.9175 31.7222 51.9166 36.5326 55.2962 36.6663Z" fill="url(#paint1_linear)"/>
<path d="M55.8057 8.13151C56.9314 8.13151 57.8439 9.04077 57.8439 10.1625C57.8439 11.2842 56.9313 12.1934 55.8057 12.1934H24.0096C21.3073 12.0871 21.3053 8.23875 24.0096 8.13151H55.8057Z" fill="url(#paint2_linear)"/>
<defs>
<linearGradient id="paint0_linear" x1="39.9076" y1="0" x2="39.9076" y2="52" gradientUnits="userSpaceOnUse">
<stop stop-color="#71E3AC"/>
<stop offset="1" stop-color="#87D164"/>
</linearGradient>
<linearGradient id="paint1_linear" x1="39.9076" y1="0" x2="39.9076" y2="52" gradientUnits="userSpaceOnUse">
<stop stop-color="#71E3AC"/>
<stop offset="1" stop-color="#87D164"/>
</linearGradient>
<linearGradient id="paint2_linear" x1="39.9076" y1="0" x2="39.9076" y2="52" gradientUnits="userSpaceOnUse">
<stop stop-color="#71E3AC"/>
<stop offset="1" stop-color="#87D164"/>
</linearGradient>
</defs>
</svg>
