<svg width="56" height="56" viewBox="0 0 56 56" fill="none" xmlns="http://www.w3.org/2000/svg">
<path d="M30.6733 10.9836C30.6733 6.23523 27.9487 1.99481 23.6818 0.00854492L20.8483 1.95294V8.25012L18.5438 9.7865L16.2776 8.33984V1.95294L13.4442 0.00854492C9.17725 1.99438 6.45312 6.23523 6.45312 10.9836C6.45312 15.2565 8.65173 19.1299 12.256 21.3221V40.3192C10.544 42.0038 9.57629 44.2956 9.57629 46.7215C9.57629 51.6767 13.6078 55.7086 18.563 55.7086C23.5186 55.7086 27.5501 51.6767 27.5501 46.7215C27.5501 44.2956 26.5824 42.0038 24.8704 40.3192V21.3221C28.4747 19.1299 30.6733 15.2565 30.6733 10.9836ZM12.8571 46.7215C12.8571 45.0099 13.6159 43.4039 14.9391 42.314L15.5368 41.8218V19.3406L14.6285 18.8873C11.6096 17.3812 9.73438 14.3525 9.73438 10.9836C9.73438 8.26208 10.961 5.7691 12.9964 4.12335V10.1377L18.5822 13.7043L24.1296 10.0061V4.12335C26.1654 5.7691 27.3916 8.26251 27.3916 10.9836C27.3916 14.3525 25.5164 17.3812 22.4971 18.8873L21.5892 19.3406V41.8218L22.1869 42.314C23.5096 43.4039 24.2689 45.0099 24.2689 46.7215C24.2689 49.8677 21.7092 52.4274 18.563 52.4274C15.4167 52.4274 12.8571 49.8677 12.8571 46.7215Z" fill="url(#paint0_linear)"/>
<path d="M16.9219 45.0808H20.2031V48.3621H16.9219V45.0808Z" fill="#91A9FF"/>
<path d="M49.458 33.9028V26.3594H45.7393V12.1171L47.2073 9.64465L45.4701 0H36.1647L34.4275 9.64465L35.8955 12.1171V26.3594H32.1768V33.9028L34.5099 35.8716V37.1277L32.1768 39.4609V47.3594C32.1768 52.124 36.0532 56 40.8174 56C45.582 56 49.458 52.124 49.458 47.3594V39.4609L47.1248 37.1277V35.8716L49.458 33.9028ZM46.1768 47.3594C46.1768 50.3146 43.7726 52.7188 40.8174 52.7188C37.8621 52.7188 35.458 50.3146 35.458 47.3594V40.8204L37.7912 38.4868V34.3472L35.458 32.3784V29.6406H46.1768V32.3784L43.8436 34.3472V38.4868L46.1768 40.8204V47.3594ZM37.8737 9.02173L38.9076 3.28125H42.7272L43.7611 9.02173L42.458 11.2165V26.3594H39.1768V11.2165L37.8737 9.02173Z" fill="url(#paint1_linear)"/>
<defs>
<linearGradient id="paint0_linear" x1="18.5632" y1="0.00854492" x2="18.5632" y2="55.7086" gradientUnits="userSpaceOnUse">
<stop stop-color="#91A9FF"/>
<stop offset="1" stop-color="#91A9FF"/>
</linearGradient>
<linearGradient id="paint1_linear" x1="40.8174" y1="0" x2="40.8174" y2="56" gradientUnits="userSpaceOnUse">
<stop stop-color="#DEC879"/>
<stop offset="1" stop-color="#E27648"/>
</linearGradient>
</defs>
</svg>
