<svg width="66" height="67" viewBox="0 0 66 67" fill="none" xmlns="http://www.w3.org/2000/svg">
<path fill-rule="evenodd" clip-rule="evenodd" d="M14 4H43C48.5228 4 53 8.47715 53 14V33.104C54.3829 33.2487 55.7216 33.5417 57 33.9668V14C57 6.26801 50.732 0 43 0H14C6.26801 0 0 6.26801 0 14V43C0 50.732 6.26801 57 14 57H32.6648C32.3153 55.7157 32.0973 54.3772 32.0259 53H14C8.47715 53 4 48.5228 4 43V14C4 8.47715 8.47715 4 14 4Z" fill="url(#paint0_linear)"/>
<path d="M49.2718 39.9672C50.0432 38.6426 51.9568 38.6426 52.7282 39.9672L55.4057 44.564C55.6883 45.0492 56.1618 45.3933 56.7106 45.5121L61.9098 46.638C63.408 46.9624 63.9993 48.7823 62.9779 49.9253L59.4334 53.8922C59.0593 54.3109 58.8784 54.8676 58.935 55.4262L59.4709 60.7189C59.6253 62.244 58.0772 63.3687 56.6746 62.7506L51.8065 60.6054C51.2927 60.379 50.7073 60.379 50.1935 60.6054L45.3254 62.7506C43.9228 63.3687 42.3747 62.244 42.5291 60.7189L43.065 55.4262C43.1216 54.8676 42.9407 54.3109 42.5666 53.8922L39.0221 49.9253C38.0007 48.7823 38.5921 46.9624 40.0902 46.638L45.2894 45.5121C45.8382 45.3933 46.3117 45.0492 46.5943 44.564L49.2718 39.9672Z" fill="#FFC531"/>
<rect x="13" y="15" width="32" height="4" rx="2" fill="#95ACFB"/>
<rect x="13" y="23" width="20" height="4" rx="2" fill="#95ACFB"/>
<rect x="13" y="31" width="25" height="4" rx="2" fill="#95ACFB"/>
<defs>
<linearGradient id="paint0_linear" x1="28.5" y1="0" x2="28.5" y2="57" gradientUnits="userSpaceOnUse">
<stop stop-color="#91A9FF"/>
<stop offset="1" stop-color="#839EFF"/>
</linearGradient>
</defs>
</svg>
