<svg
   xmlns="http://www.w3.org/2000/svg"
   viewBox="0 0 27 30"
   fill="black"
   height="15"
   width="15">
        <path d="M4.235 25.883c-1.3 0-2.353-1.053-2.353-2.353s1.053-2.353 2.353-2.353 2.353 1.054 2.353 2.353c0 1.3-1.053 2.353-2.353 2.353zM4.235 27.765c2.339 0 4.235-1.896 4.235-4.235s-1.896-4.235-4.235-4.235-4.235 1.896-4.235 4.235c0 2.339 1.896 4.235 4.235 4.235z"></path>
        <path d="M22.118 25.883c-1.3 0-2.353-1.053-2.353-2.353s1.053-2.353 2.353-2.353 2.353 1.054 2.353 2.353c0 1.3-1.053 2.353-2.353 2.353zM22.118 27.765c2.339 0 4.235-1.896 4.235-4.235s-1.896-4.235-4.235-4.235-4.235 1.896-4.235 4.235c0 2.339 1.896 4.235 4.235 4.235z"></path>
        <path d="M4.235 8c-1.3 0-2.353-1.053-2.353-2.353s1.053-2.353 2.353-2.353c1.3 0 2.353 1.053 2.353 2.353s-1.053 2.353-2.353 2.353zM4.235 9.883c2.339 0 4.235-1.896 4.235-4.235s-1.896-4.235-4.235-4.235c-2.339 0-4.235 1.896-4.235 4.235s1.896 4.235 4.235 4.235z"></path>
        <path d="M22.118 8c-1.3 0-2.353-1.053-2.353-2.353s1.053-2.353 2.353-2.353c1.3 0 2.353 1.053 2.353 2.353s-1.053 2.353-2.353 2.353zM22.118 9.883c2.339 0 4.235-1.896 4.235-4.235s-1.896-4.235-4.235-4.235c-2.339 0-4.235 1.896-4.235 4.235s1.896 4.235 4.235 4.235z"></path>
        <path d="M18.823 7.529l-11.294-1.882 0.309-1.857 11.294 1.882-0.31 1.857z"></path>
        <path d="M18.823 26.353l-11.294-1.882 0.309-1.857 11.294 1.882-0.31 1.857z"></path>
        <path d="M22.588 9.412l-16.941 11.294-1.044-1.566 16.941-11.294 1.044 1.566z"></path>
</svg>
