<svg
   xmlns="http://www.w3.org/2000/svg"
   viewBox="0 0 32 32"
   fill="black"
   height="15"
   width="15">
        <path d="M28.229 20.334c0.359 1.45-1.078 2.695-2.462 2.134l-9.446-3.829c-0.937-0.38-1.961-0.494-2.958-0.328l-5.716 0.948c-2.224 0.369-3.015-2.828-0.876-3.539l5.558-1.847c0.903-0.3 1.713-0.83 2.349-1.538l6.769-7.526c0.981-1.091 2.782-0.64 3.135 0.784l3.648 14.743zM6.194 13.983c-4.279 1.422-2.697 7.816 1.752 7.079l5.716-0.948c0.665-0.11 1.348-0.035 1.972 0.219l9.446 3.83c2.768 1.122 5.642-1.368 4.924-4.268l-3.648-14.743c-0.705-2.848-4.308-3.749-6.27-1.567l-6.769 7.526c-0.424 0.472-0.964 0.825-1.566 1.025l-5.558 1.847z"></path>
        <path d="M10.486 24.461c-0.209-0.46-0.005-1.002 0.455-1.21s1.002-0.005 1.21 0.455l2.268 4.995c0.209 0.46 0.005 1.002-0.455 1.21s-1.002 0.005-1.21-0.455l-2.268-4.995z"></path>
</svg>
