<svg width="16" height="15" viewBox="0 0 16 15" fill="none" xmlns="http://www.w3.org/2000/svg">
<path fill-rule="evenodd" clip-rule="evenodd" d="M12.2065 1.25H7.99934H3.79218C2.1758 1.25 1.34387 2.32572 1.34387 4.16667V10.8333C1.34387 12.6743 2.1758 13.75 3.79218 13.75H12.2065C13.8229 13.75 14.6548 12.6743 14.6548 10.8333V4.16667C14.6548 2.32572 13.8229 1.25 12.2065 1.25ZM3.79218 0C1.77171 0 0.133789 1.86548 0.133789 4.16667V10.8333C0.133789 13.1345 1.77171 15 3.79218 15H12.2065C14.227 15 15.8649 13.1345 15.8649 10.8333V4.16667C15.8649 1.86548 14.227 0 12.2065 0H3.79218Z" fill="#979797"/>
<path d="M10.956 9.23077C10.8114 10.8111 9.54316 12.0469 7.99997 12.0469C6.45677 12.0469 5.1885 10.8111 5.04395 9.23077H6.18549C6.32631 10.3658 6.88114 11.0339 8.00062 11.0339C9.12009 11.0339 9.67492 10.3658 9.81574 9.23077H10.956Z" fill="#979797"/>
<path fill-rule="evenodd" clip-rule="evenodd" d="M8 7C6.96451 7 7 7 6 7C5 7 4 6.36623 4 5.5C4 4.48651 4.47017 4 5.5 4H8H10.5C11.5298 4 12 4.48651 12 5.5C12 6.36623 11 7 10 7C9 7 9.03549 7 8 7ZM4.97595 7.78047C3.81345 7.6252 3 6.62453 3 5.47C3 4.10586 4.12369 3 5.50984 3H10.4902C11.8763 3 13 4.10586 13 5.47C13 6.62453 12.1865 7.6252 11.0241 7.78047C10.1482 7.89745 9.07411 8 8 8C6.92589 8 5.85178 7.89745 4.97595 7.78047Z" fill="#979797"/>
</svg>
