<svg
   xmlns="http://www.w3.org/2000/svg"
   viewBox="0 0 32 32"
   fill="black"
   height="15"
   width="15">
        <path d="M31.911 16.994c-0.166-0.783-1.013-1.414-2.548-1.879-1.287-0.389-2.904-0.618-4.688-0.656l-0.172-7.248c-0.236-0.713-1.083-1.293-2.516-1.726s-3.299-0.669-5.267-0.669c-1.962 0-3.815 0.236-5.217 0.669-1.153 0.357-2.535 1.019-2.535 2.159 0 0.070 0.006 0.14 0.019 0.21l0.070 2.904c-0.471-0.089-0.949-0.134-1.433-0.134-4.204 0-7.624 3.42-7.624 7.624 0 4.21 3.408 7.624 7.618 7.624 1.752 0 3.452-0.605 4.809-1.707 1.197 0.28 2.605 0.433 4.096 0.446 0.325 1.764 4.153 2.573 7.72 2.573 1.962 0 3.809-0.242 5.223-0.675 1.166-0.357 2.535-1.026 2.535-2.166l-0.089-7.35zM11.86 6.707c1.287-0.395 3.013-0.618 4.847-0.618 1.815 0 3.605 0.223 4.904 0.618 1.388 0.42 1.688 0.854 1.688 0.943s-0.299 0.522-1.688 0.943c-1.293 0.389-3.083 0.618-4.898 0.618-1.758 0-3.427-0.204-4.694-0.573-1.369-0.395-1.758-0.834-1.79-0.974 0-0.006-0.006-0.013-0.013-0.019 0-0.134 0.427-0.561 1.643-0.936zM23.401 9.223v1.592c-0.070 0.108-0.102 0.229-0.102 0.357 0 0.083-0.299 0.522-1.681 0.943-1.293 0.395-3.083 0.618-4.898 0.618-1.573 0-3.115-0.166-4.338-0.478-0.019-0.006-0.038-0.006-0.051-0.013-0.599-0.478-1.274-0.86-1.987-1.127l-0.045-1.796c0.44 0.223 0.898 0.401 1.376 0.529 1.382 0.401 3.172 0.618 5.051 0.618 1.968 0 3.834-0.236 5.261-0.669 0.484-0.127 0.962-0.325 1.414-0.573zM11.892 22.943c-2.592 2.363-6.611 2.172-8.968-0.42s-2.172-6.612 0.42-8.968c1.172-1.064 2.694-1.656 4.274-1.656 0.637 0 1.268 0.096 1.879 0.28 0.828 0.255 1.599 0.682 2.255 1.255 1.070 0.911 1.803 2.159 2.089 3.535 0.083 0.42 0.127 0.854 0.127 1.28 0.006 1.79-0.752 3.497-2.076 4.694zM13.51 23.083c0.516-0.631 0.93-1.338 1.223-2.095 0.548 0.045 1.121 0.076 1.713 0.083-0.013 0.076-0.013 0.146 0 0.223l0.026 2.051c-0.987-0.013-1.975-0.096-2.962-0.261zM15.21 17.49c0.376 0.025 0.764 0.038 1.166 0.045 0.006 0.045 0.019 0.089 0.032 0.134l0.026 2.121c-0.459-0.006-0.911-0.025-1.338-0.057 0.096-0.491 0.146-0.994 0.146-1.491 0-0.248-0.013-0.497-0.032-0.752zM16.764 16.267c-0.019 0-0.032 0-0.051 0-0.618 0-1.204-0.025-1.752-0.070-0.236-0.847-0.624-1.65-1.134-2.369 0.955 0.121 1.924 0.185 2.885 0.185 1.968 0 3.834-0.236 5.261-0.669 0.497-0.14 0.968-0.338 1.42-0.586v1.701c-1.592 0.045-3.089 0.248-4.28 0.586-1.121 0.318-1.905 0.726-2.35 1.223zM17.643 17.217c0.108-0.197 0.586-0.586 1.828-0.93 1.249-0.35 2.873-0.541 4.58-0.541h0.051c1.822 0 3.605 0.21 4.898 0.605 1.338 0.408 1.663 0.815 1.682 0.924v0.006c-0.006 0.096-0.319 0.535-1.733 0.955-1.306 0.389-3.032 0.599-4.847 0.599-1.688 0-3.312-0.191-4.56-0.529-1.198-0.325-1.713-0.701-1.866-0.917 0-0.057-0.013-0.115-0.032-0.172zM30.726 24.337c0 0.089-0.28 0.529-1.637 0.949-1.299 0.401-3.019 0.624-4.853 0.624-1.841 0-3.554-0.216-4.834-0.605-1.216-0.376-1.624-0.796-1.624-0.936 0-0.006 0-0.006 0-0.013l-0.006-0.389-0.019-1.44c0.51 0.248 1.038 0.44 1.586 0.573 1.338 0.35 3.026 0.541 4.764 0.541 1.968 0 3.815-0.236 5.242-0.669 0.465-0.14 1-0.331 1.382-0.58v1.943zM30.643 20.809c0 0.089-0.293 0.522-1.663 0.943-1.306 0.395-3.038 0.612-4.885 0.612-3.465 0-5.822-0.771-6.37-1.382l-0.026-2.013c1.503 0.783 4.032 1.14 6.401 1.14 1.936 0 3.777-0.229 5.198-0.65 0.497-0.14 0.974-0.331 1.433-0.58v1.592c-0.006 0.095-0.089 0.21-0.089 0.337z"></path>
        <path d="M7.623 14.038c-2.325 0-4.204 1.885-4.204 4.204s1.885 4.204 4.204 4.204 4.204-1.885 4.204-4.204c-0.006-2.318-1.885-4.197-4.204-4.204zM7.623 21.178c-1.618 0-2.93-1.312-2.93-2.93s1.312-2.93 2.93-2.93c1.618 0 2.93 1.312 2.93 2.93s-1.312 2.93-2.93 2.93z"></path>
</svg>
