<svg width="15" height="15" fill="black" xmlns="http://www.w3.org/2000/svg" viewBox="0 0 32 32">
    <path d="M24.5 31.997h-17c-4.136 0-7.5-3.364-7.5-7.5v-10.517c0-2.324 1.103-4.554 2.952-5.963l8.5-6.483c2.678-2.043 6.419-2.043 9.097 0l2.702 2.059v-1.595c0.066-1.659 2.435-1.657 2.5 0v4.119c0 0.475-0.269 0.909-0.695 1.12s-0.934 0.162-1.312-0.126l-4.71-3.589c-1.786-1.362-4.28-1.362-6.065-0l-8.5 6.483c-1.232 0.94-1.968 2.426-1.968 3.976v10.517c0 2.757 2.243 5 5 5h17c2.757 0 5-2.243 5-5v-10.517c0-1.569-0.727-3.060-1.946-3.989-0.549-0.419-0.654-1.203-0.236-1.752s1.203-0.654 1.752-0.236c1.834 1.399 2.93 3.633 2.93 5.977v10.517c0 4.135-3.364 7.5-7.5 7.5zM13.5 14.434c-0.863 0-1.563 0.7-1.563 1.563 0.083 2.073 3.043 2.072 3.125 0 0-0.863-0.7-1.563-1.563-1.563zM20.063 15.997c-0.083 2.073-3.043 2.072-3.125 0 0.083-2.073 3.043-2.072 3.125 0zM15.063 20.997c-0.083 2.073-3.043 2.072-3.125 0 0.083-2.073 3.043-2.072 3.125 0zM20.063 20.997c-0.083 2.073-3.043 2.072-3.125 0 0.083-2.073 3.043-2.072 3.125 0z"></path>
</svg>
