<svg
   xmlns="http://www.w3.org/2000/svg"
   viewBox="0 0 41 32"
   fill="black"
   height="15"
   width="15">
        <path d="M19.316 17.043h20.174c0.576 0 1.043-0.467 1.043-1.043s-0.467-1.043-1.043-1.043h-20.174c-0.576 0-1.043 0.467-1.043 1.043s0.467 1.043 1.043 1.043z"></path>
        <path d="M33.925 22.609c0.267 0 0.534-0.101 0.737-0.306l5.565-5.565c0.408-0.408 0.408-1.069 0-1.476l-5.565-5.565c-0.407-0.408-1.068-0.408-1.476 0s-0.407 1.068 0 1.476l4.828 4.828-4.828 4.828c-0.407 0.408-0.407 1.068 0 1.476 0.205 0.203 0.472 0.305 0.739 0.305z"></path>
        <path d="M15.304 31.305c-8.438 0-15.304-6.866-15.304-15.305s6.866-15.304 15.304-15.304c6.332 0 11.922 3.809 14.244 9.706 0.211 0.536-0.053 1.141-0.589 1.354-0.536 0.209-1.141-0.051-1.354-0.59-2.005-5.092-6.834-8.383-12.302-8.383-7.288 0-13.217 5.93-13.217 13.217s5.93 13.217 13.217 13.217c5.468 0 10.297-3.29 12.302-8.381 0.211-0.539 0.817-0.799 1.354-0.59 0.536 0.211 0.8 0.818 0.589 1.354-2.322 5.895-7.913 9.705-14.244 9.705z"></path>
</svg>
