<svg
   xmlns="http://www.w3.org/2000/svg"
   viewBox="0 0 32 32"
   fill="black"
   height="15"
   width="15">
  <path
     d="M18.743 3.572c0.945 0.741 2.096 1.165 3.291 1.212l1.988 0.078c0.872 0.034 1.61 0.661 1.794 1.523l0.421 1.967c0.253 1.183 0.865 2.255 1.751 3.069l1.473 1.352c0.646 0.593 0.813 1.553 0.407 2.333l-0.927 1.781c-0.557 1.070-0.77 2.291-0.608 3.489l0.269 1.994c0.118 0.874-0.364 1.718-1.171 2.052l-1.842 0.761c-1.107 0.458-2.045 1.254-2.683 2.278l-1.061 1.703c-0.465 0.746-1.37 1.080-2.201 0.81l-1.894-0.615c-1.139-0.37-2.363-0.37-3.502 0l-1.894 0.615c-0.83 0.269-1.736-0.064-2.201-0.81l-1.061-1.703c-0.638-1.024-1.576-1.82-2.683-2.278l-1.842-0.761c-0.807-0.334-1.289-1.178-1.171-2.052l0.269-1.994c0.162-1.199-0.051-2.419-0.608-3.489l-0.927-1.781c-0.406-0.781-0.239-1.74 0.407-2.333l1.473-1.352c0.886-0.813 1.498-1.886 1.751-3.069l0.421-1.967c0.185-0.862 0.923-1.489 1.794-1.523l1.988-0.078c1.195-0.047 2.346-0.471 3.291-1.212l1.572-1.233c0.689-0.541 1.653-0.541 2.342 0l1.572 1.233zM18.342 0.811c-1.378-1.081-3.305-1.081-4.684 0l-1.572 1.233c-0.63 0.494-1.397 0.777-2.194 0.808l-1.988 0.078c-1.743 0.068-3.219 1.321-3.588 3.046l-0.421 1.967c-0.169 0.788-0.577 1.504-1.167 2.046l-1.473 1.352c-1.292 1.186-1.626 3.106-0.813 4.667l0.927 1.781c0.372 0.714 0.513 1.527 0.405 2.326l-0.269 1.994c-0.236 1.748 0.727 3.437 2.342 4.104l1.842 0.761c0.738 0.305 1.363 0.836 1.789 1.518l1.061 1.703c0.93 1.493 2.741 2.16 4.401 1.621l1.894-0.615c0.759-0.246 1.576-0.246 2.335 0l1.894 0.615c1.661 0.539 3.471-0.128 4.402-1.621l1.061-1.703c0.425-0.682 1.050-1.213 1.789-1.518l1.842-0.761c1.615-0.667 2.578-2.355 2.342-4.104l-0.269-1.994c-0.108-0.799 0.034-1.613 0.405-2.326l0.927-1.781c0.813-1.561 0.478-3.481-0.813-4.667l-1.473-1.352c-0.591-0.542-0.999-1.257-1.167-2.046l-0.421-1.967c-0.369-1.725-1.845-2.978-3.588-3.046l-1.988-0.078c-0.797-0.031-1.564-0.314-2.194-0.808l-1.572-1.233z" />
  <path
     d="m 9.6015623,12.367188 v 2.066406 H 22.402346 v -2.066406 z"/>
  <path
     d="m 9.6015623,18.765625 v 2.068359 h 8.0000037 v -2.068359 z"/>
</svg>
