<svg
   xmlns="http://www.w3.org/2000/svg"
   viewBox="0 0 43 32"
   fill="black"
   height="15"
   width="15">
        <path d="M16.843 0.069c-0.368-0.046-0.743-0.069-1.124-0.069-5.011 0-9.088 4.077-9.088 9.088 0 3.104 1.565 5.849 3.946 7.489-2.223 0.767-4.261 2.035-5.973 3.747-2.969 2.969-4.604 6.916-4.604 11.115h2.456c0-6.745 5.062-12.331 11.586-13.158 0.581-0.569 1.203-1.096 1.862-1.577-0.226-0.323-0.439-0.657-0.637-1-3.447-0.233-6.18-3.111-6.18-6.616 0-3.463 2.668-6.314 6.056-6.607 0.478-0.867 1.049-1.675 1.7-2.412z"></path>
        <path d="M38.064 20.323c-1.712-1.712-3.75-2.98-5.973-3.747 2.381-1.64 3.946-4.385 3.946-7.489 0-5.011-4.077-9.088-9.088-9.088s-9.088 4.077-9.088 9.088c0 3.104 1.564 5.849 3.946 7.489-2.223 0.767-4.261 2.035-5.973 3.747-2.969 2.969-4.604 6.916-4.604 11.115h2.456c0-7.313 5.95-13.263 13.263-13.263s13.263 5.95 13.263 13.263h2.456c0-4.199-1.635-8.146-4.604-11.115zM26.949 15.719c-3.657 0-6.632-2.975-6.632-6.632s2.975-6.632 6.632-6.632c3.657 0 6.631 2.975 6.631 6.632s-2.975 6.632-6.631 6.632z"></path>
</svg>
