<svg  width="15" height="15" fill="black" xmlns="http://www.w3.org/2000/svg" viewBox="0 0 32 32" >
    <path d="M10.667 23.467c1.178 0 2.133 0.955 2.133 2.133v2.133c0 1.178-0.955 2.133-2.133 2.133h-6.4c-1.178 0-2.133-0.955-2.133-2.133v-2.133c0-1.178 0.955-2.133 2.133-2.133h6.4zM4.267 21.333c-2.356 0-4.267 1.91-4.267 4.267v2.133c0 2.356 1.91 4.267 4.267 4.267h6.4c2.356 0 4.267-1.91 4.267-4.267v-2.133c0-2.356-1.91-4.267-4.267-4.267h-6.4z"></path>
    <path d="M27.733 23.467c1.178 0 2.133 0.955 2.133 2.133v2.133c0 1.178-0.955 2.133-2.133 2.133h-6.4c-1.178 0-2.133-0.955-2.133-2.133v-2.133c0-1.178 0.955-2.133 2.133-2.133h6.4zM21.333 21.333c-2.356 0-4.267 1.91-4.267 4.267v2.133c0 2.356 1.91 4.267 4.267 4.267h6.4c2.356 0 4.267-1.91 4.267-4.267v-2.133c0-2.356-1.91-4.267-4.267-4.267h-6.4z"></path>
    <path d="M27.733 2.133c1.178 0 2.133 0.955 2.133 2.133v10.667c0 1.178-0.955 2.133-2.133 2.133h-23.467c-1.178 0-2.133-0.955-2.133-2.133v-10.667c0-1.178 0.955-2.133 2.133-2.133h23.467zM4.267 0c-2.356 0-4.267 1.91-4.267 4.267v10.667c0 2.356 1.91 4.267 4.267 4.267h23.467c2.356 0 4.267-1.91 4.267-4.267v-10.667c0-2.356-1.91-4.267-4.267-4.267h-23.467z"></path>
</svg>
