<svg
   xmlns="http://www.w3.org/2000/svg"
   viewBox="0 0 40 32"
   fill="black"
   height="15"
   width="15">
        <path d="M6 27.334c-1.841 0-3.333-1.492-3.333-3.333s1.492-3.333 3.333-3.333c1.841 0 3.333 1.492 3.333 3.333s-1.492 3.333-3.333 3.333zM6 30c3.314 0 6-2.686 6-6s-2.686-6-6-6-6 2.686-6 6c0 3.314 2.686 6 6 6z"></path>
        <path d="M19.995 27.334c-1.841 0-3.333-1.492-3.333-3.333s1.492-3.333 3.333-3.333c1.841 0 3.333 1.492 3.333 3.333s-1.492 3.333-3.333 3.333zM19.995 30c3.314 0 6-2.686 6-6s-2.686-6-6-6-6 2.686-6 6c0 3.314 2.686 6 6 6z"></path>
        <path d="M25.995 6c0 3.314-2.686 6-6 6s-6-2.686-6-6c0-3.314 2.686-6 6-6s6 2.686 6 6z"></path>
        <path d="M34 27.334c-1.841 0-3.333-1.492-3.333-3.333s1.492-3.333 3.333-3.333c1.841 0 3.333 1.492 3.333 3.333s-1.492 3.333-3.333 3.333zM34 30c3.314 0 6-2.686 6-6s-2.686-6-6-6-6 2.686-6 6c0 3.314 2.686 6 6 6z"></path>
</svg>
