<svg
   xmlns="http://www.w3.org/2000/svg"
   viewBox="0 0 32 32"
   fill="black"
   height="15"
   width="15">
        <path d="M16.076 0c-0.009 0.009-0.026 0.009-0.051 0.009-8.677 0-15.733 7.056-15.733 15.733 0 3.541 1.209 6.979 3.421 9.748l-2.289 5.316c-0.189 0.437 0.017 0.943 0.446 1.123 0.154 0.069 0.326 0.086 0.489 0.060l8.394-1.475c1.68 0.609 3.447 0.917 5.23 0.909 8.677 0 15.733-7.056 15.733-15.733 0.017-8.651-6.988-15.681-15.639-15.69zM15.99 29.716c-1.655 0-3.292-0.3-4.844-0.883-0.146-0.060-0.3-0.069-0.454-0.043l-7.065 1.235 1.869-4.347c0.129-0.3 0.077-0.652-0.137-0.9-1.012-1.175-1.818-2.512-2.384-3.961-0.634-1.62-0.96-3.344-0.96-5.084 0-7.734 6.293-14.018 14.018-14.018 7.708-0.017 13.967 6.216 13.975 13.924 0 0.017 0 0.034 0 0.051 0 7.742-6.293 14.027-14.018 14.027z"></path>
        <path d="M15.316 12.578h-4.63c-0.472 0-0.857 0.386-0.857 0.857s0.386 0.857 0.857 0.857h4.63c0.472 0 0.857-0.386 0.857-0.857s-0.386-0.857-0.857-0.857z"></path>
        <path d="M21.318 16.865h-10.632c-0.472 0-0.857 0.386-0.857 0.857s0.386 0.857 0.857 0.857h10.632c0.472 0 0.857-0.386 0.857-0.857s-0.386-0.857-0.857-0.857z"></path>
</svg>
