<svg
   xmlns="http://www.w3.org/2000/svg"
   viewBox="0 0 32 32"
   fill="black"
   height="15"
   width="15">
        <path d="M16 22.667c-3.676 0-6.667-2.991-6.667-6.667s2.991-6.667 6.667-6.667c3.676 0 6.667 2.991 6.667 6.667s-2.991 6.667-6.667 6.667zM16 10.667c-2.941 0-5.333 2.392-5.333 5.333s2.392 5.333 5.333 5.333c2.941 0 5.333-2.392 5.333-5.333s-2.392-5.333-5.333-5.333z"></path>
        <path d="M18.267 32h-4.533c-0.925 0-1.743-0.657-1.944-1.563l-0.615-2.731c-1.024-0.416-1.997-0.98-2.9-1.684l-2.661 0.84c-0.905 0.28-1.889-0.101-2.341-0.911l-2.263-3.912c-0.461-0.82-0.305-1.833 0.373-2.472l2.056-1.889c-0.069-0.568-0.105-1.131-0.105-1.679s0.036-1.111 0.105-1.679l-2.049-1.884c-0.685-0.644-0.84-1.657-0.384-2.471l2.272-3.928c0.449-0.8 1.435-1.181 2.335-0.903l2.664 0.84c0.901-0.701 1.875-1.267 2.899-1.683l0.615-2.733c0.201-0.903 1.019-1.56 1.944-1.56h4.533c0.925 0 1.743 0.657 1.944 1.561l0.615 2.732c1.024 0.416 1.997 0.98 2.9 1.684l2.661-0.84c0.905-0.28 1.888 0.103 2.341 0.909l2.263 3.912c0.46 0.821 0.305 1.835-0.373 2.473l-2.056 1.889c0.069 0.568 0.105 1.131 0.105 1.679s-0.036 1.111-0.105 1.679l2.051 1.884c0.001 0.001 0.004 0.004 0.005 0.005 0.679 0.639 0.833 1.652 0.377 2.465l-2.272 3.928c-0.448 0.8-1.433 1.184-2.335 0.903l-2.664-0.84c-0.903 0.703-1.876 1.268-2.9 1.684l-0.615 2.733c-0.2 0.901-1.017 1.559-1.943 1.559zM8.414 24.613c0.153 0 0.303 0.053 0.424 0.152 0.965 0.796 2.021 1.41 3.14 1.823 0.213 0.079 0.371 0.259 0.42 0.479l0.693 3.080c0.067 0.301 0.337 0.52 0.643 0.52h4.533c0.305 0 0.576-0.219 0.641-0.519l0.695-3.081c0.049-0.22 0.207-0.4 0.419-0.479 1.119-0.415 2.176-1.028 3.14-1.823 0.173-0.142 0.411-0.187 0.624-0.121l3 0.947c0.305 0.098 0.629-0.023 0.777-0.291l2.272-3.928c0.151-0.269 0.099-0.613-0.131-0.832l-2.304-2.116c-0.163-0.149-0.241-0.371-0.208-0.588 0.095-0.623 0.141-1.24 0.141-1.836s-0.047-1.213-0.139-1.836c-0.032-0.219 0.045-0.439 0.208-0.588l2.307-2.12c0.225-0.212 0.279-0.559 0.123-0.836l-2.263-3.913c-0.155-0.275-0.479-0.396-0.785-0.297l-2.997 0.947c-0.213 0.068-0.449 0.023-0.624-0.121-0.965-0.796-2.021-1.409-3.14-1.823-0.213-0.079-0.371-0.259-0.42-0.479l-0.693-3.080c-0.067-0.301-0.337-0.52-0.643-0.52h-4.533c-0.305 0-0.576 0.219-0.641 0.517l-0.695 3.083c-0.049 0.22-0.207 0.4-0.42 0.479-1.119 0.413-2.175 1.027-3.14 1.823-0.172 0.144-0.407 0.189-0.624 0.121l-3-0.947c-0.307-0.096-0.628 0.024-0.779 0.289l-2.271 3.928c-0.151 0.271-0.099 0.616 0.133 0.833l2.301 2.115c0.163 0.149 0.241 0.371 0.208 0.588-0.093 0.624-0.14 1.241-0.14 1.837s0.047 1.213 0.139 1.836c0.032 0.219-0.045 0.439-0.208 0.588l-2.307 2.12c-0.225 0.212-0.279 0.559-0.123 0.836l2.263 3.912c0.155 0.275 0.475 0.393 0.785 0.297l2.997-0.945c0.065-0.020 0.133-0.031 0.2-0.031z"></path>
</svg>
