<?xml version="1.0" encoding="UTF-8" standalone="no"?>
<svg
   xmlns:dc="http://purl.org/dc/elements/1.1/"
   xmlns:cc="http://creativecommons.org/ns#"
   xmlns:rdf="http://www.w3.org/1999/02/22-rdf-syntax-ns#"
   xmlns:svg="http://www.w3.org/2000/svg"
   xmlns="http://www.w3.org/2000/svg"
   xmlns:sodipodi="http://sodipodi.sourceforge.net/DTD/sodipodi-0.dtd"
   xmlns:inkscape="http://www.inkscape.org/namespaces/inkscape"
   viewBox="0 0 32 32"
   fill="black"
   height="15"
   width="15"
   version="1.1"
   id="svg4"
   sodipodi:docname="vk-logo.svg"
   inkscape:version="0.92.5 (2060ec1f9f, 2020-04-08)">
  <metadata
     id="metadata10">
    <rdf:RDF>
      <cc:Work
         rdf:about="">
        <dc:format>image/svg+xml</dc:format>
        <dc:type
           rdf:resource="http://purl.org/dc/dcmitype/StillImage" />
        <dc:title></dc:title>
      </cc:Work>
    </rdf:RDF>
  </metadata>
  <defs
     id="defs8" />
  <sodipodi:namedview
     pagecolor="#ffffff"
     bordercolor="#666666"
     borderopacity="1"
     objecttolerance="10"
     gridtolerance="10"
     guidetolerance="10"
     inkscape:pageopacity="0"
     inkscape:pageshadow="2"
     inkscape:window-width="2560"
     inkscape:window-height="1355"
     id="namedview6"
     showgrid="false"
     inkscape:zoom="73.565625"
     inkscape:cx="6.9942211"
     inkscape:cy="7.435062"
     inkscape:window-x="0"
     inkscape:window-y="0"
     inkscape:window-maximized="1"
     inkscape:current-layer="svg4" />
  <path
     style="color:#000000;font-style:normal;font-variant:normal;font-weight:normal;font-stretch:normal;font-size:medium;line-height:normal;font-family:sans-serif;font-variant-ligatures:normal;font-variant-position:normal;font-variant-caps:normal;font-variant-numeric:normal;font-variant-alternates:normal;font-feature-settings:normal;text-indent:0;text-align:start;text-decoration:none;text-decoration-line:none;text-decoration-style:solid;text-decoration-color:#000000;letter-spacing:normal;word-spacing:normal;text-transform:none;writing-mode:lr-tb;direction:ltr;text-orientation:mixed;dominant-baseline:auto;baseline-shift:baseline;text-anchor:start;white-space:normal;shape-padding:0;clip-rule:nonzero;display:inline;overflow:visible;visibility:visible;opacity:1;isolation:auto;mix-blend-mode:normal;color-interpolation:sRGB;color-interpolation-filters:linearRGB;solid-color:#000000;solid-opacity:1;vector-effect:none;fill:#000000;fill-opacity:1;fill-rule:nonzero;stroke:none;stroke-width:2.04755783;stroke-linecap:butt;stroke-linejoin:miter;stroke-miterlimit:4;stroke-dasharray:none;stroke-dashoffset:0;stroke-opacity:1;color-rendering:auto;image-rendering:auto;shape-rendering:auto;text-rendering:auto;enable-background:accumulate"
     d="m 15.466716,6.7179601 c -1.616601,-0.01696 -3.003114,-0.09293 -4.183594,0.484375 -0.432425,0.211483 -0.740235,0.48282 -0.982422,0.802735 -0.121093,0.159957 -0.244939,0.303899 -0.3105471,0.664062 -0.0328,0.180082 -0.04944,0.47175 0.1386721,0.785157 0.18811,0.3134063 0.563972,0.4917213 0.804688,0.5234373 0.177729,0.02347 0.585454,0.1887266 0.634765,0.2558586 v 0.002 c 0.0092,0.01247 0.158949,0.41398 0.203125,0.769531 0.04418,0.355551 0.04102,0.642578 0.04102,0.642578 v 0.04101 l 0.002,0.04102 c 0,0 0.06251,0.926002 0.02148,1.882813 -0.01818,0.42392 -0.0676,0.822576 -0.128906,1.140625 -0.38142,-0.404207 -0.981252,-1.225158 -1.8203591,-2.675827 -0.860615,-1.487098 -1.53711,-3.1855459 -1.53711,-3.1855459 l -0.002,-0.0059 -0.0019,-0.0059 c 0,0 -0.131543,-0.509841 -0.71289,-0.935547 -0.571878,-0.419543 -1.12696,-0.46281 -1.12696,-0.46281 l -0.08594,-0.01367 -4.3652342,0.02539 -0.011719,0.002 c 0,0 -0.2430616,0.0049 -0.5292969,0.06445 -0.2862353,0.05957 -0.69163061,0.113606 -1.09765631,0.59375 h -0.00195 v 0.002 c -0.4272148,0.507329 -0.3578151,0.985647 -0.3183597,1.271491 0.039455,0.2858433 0.1269532,0.5078123 0.1269532,0.5078123 l 0.00781,0.02149 0.00781,0.01953 c 0,0 3.28406261,7.8489226 7.32421891,12.0585936 3.7524751,3.905872 8.2050781,3.6875 8.2050781,3.6875 l -0.06055,0.002 h 1.839844 l 0.05664,-0.0078 c 0,0 0.768279,0.05726 1.449218,-0.675781 0.697677,-0.749063 0.519532,-1.5 0.519532,-1.5 -2e-5,-0.0038 -0.0019,-0.508955 0.101562,-1.019531 0.0519,-0.256257 0.133385,-0.499011 0.207031,-0.63086 0.06917,-0.123834 0.08274,-0.108037 0.05078,-0.0957 -0.124984,0.02923 -0.188668,-0.03198 -0.01758,0.08789 0.182799,0.128073 0.478957,0.414186 0.798828,0.769531 0.63974,0.710689 1.363612,1.682365 2.326172,2.34375 0.69206,0.475508 1.343203,0.684025 1.83789,0.759766 0.494687,0.07574 0.923828,0.0039 0.923828,0.0039 l -0.183594,0.01953 4.011719,-0.05664 h 0.02344 c 0,0 0.679958,0.0057 1.380859,-0.41211 0.350451,-0.208909 0.762266,-0.603097 0.896484,-1.179687 0.134219,-0.576591 -0.0347,-1.177087 -0.367187,-1.728516 l 0.0039,0.0039 c 0.05083,0.08512 -0.0565,-0.108602 -0.169922,-0.292968 -0.113422,-0.184367 -0.278717,-0.431684 -0.515625,-0.740235 -0.473814,-0.617101 -1.233899,-1.480429 -2.46289,-2.621094 -0.626854,-0.581948 -1.055435,-0.991391 -1.232422,-1.220703 -0.176987,-0.229311 -0.116877,-0.108288 -0.105469,-0.162109 0.02282,-0.107641 0.780598,-1.177158 2.306641,-3.210938 0.937887,-1.249843 1.608656,-2.266839 2.039062,-3.117187 0.430063,-0.84967 0.762272,-1.5339769 0.445313,-2.4179689 v -0.002 c -0.172946,-0.480192 -0.568143,-0.772987 -0.882802,-0.914119 -0.315007,-0.141287 -0.595746,-0.184357 -0.845703,-0.208984 -0.499913,-0.04925 -0.923828,0.0059 -0.923828,0.0059 l 0.115234,-0.0078 -4.486328,0.02734 0.142578,0.0078 c 0,0 -0.568966,-0.160433 -1.240234,0.238281 l -0.0039,0.0019 -0.002,0.002 c -0.671142,0.405798 -0.796875,0.927735 -0.796875,0.927735 l -0.01563,0.03516 -0.01172,0.0332 c 0,0 -0.700683,1.8429169 -1.583985,3.3417969 -0.87363,1.483759 -1.420981,2.132392 -1.789062,2.507812 -0.0011,-0.01094 -9.98e-4,-0.0023 -0.002,-0.01367 -0.0372,-0.442972 0.0039,-1.050749 0.0039,-1.638672 0,-1.593172 0.135021,-2.706273 0.0625,-3.6835939 -0.03616,-0.488656 -0.128739,-0.990043 -0.447165,-1.447261 -0.318427,-0.457218 -0.844468,-0.753883 -1.371094,-0.88086 h -0.002 c -0.498873,-0.11996 -1.0351,-0.222837 -2.324219,-0.236328 z m -0.02148,2.046875 c 1.207532,0.01264 1.388298,0.06649 1.867187,0.181641 0.208578,0.05029 0.170167,0.05809 0.171875,0.06055 0.0017,0.0025 0.061,0.116038 0.08398,0.425781 0.04597,0.6194859 -0.06836,1.8366629 -0.06836,3.5332029 0,0.464476 -0.05358,1.126002 0.0039,1.810547 0.05749,0.684545 0.225789,1.55441 1.033203,2.076172 0.297246,0.191922 0.775984,0.27185 1.16211,0.169922 0.386126,-0.101928 0.695635,-0.310951 1.015625,-0.599609 0.639979,-0.577318 1.361147,-1.531624 2.386719,-3.273438 0.990453,-1.680707 1.666657,-3.4982909 1.697265,-3.5800779 l 4.603516,-0.02734 0.05859,-0.0059 c 0,0 0.203661,-0.0075 0.386719,-0.002 -0.02886,0.0534 -0.0056,0.09727 -0.25,0.5800779 -0.337442,0.666681 -0.951249,1.619887 -1.847656,2.814453 -1.485645,1.979942 -2.4009,2.727977 -2.673828,4.015625 -0.136464,0.643824 0.119114,1.35763 0.488281,1.835937 0.369167,0.478308 0.837584,0.892004 1.460938,1.470703 1.159475,1.076144 1.840895,1.859213 2.232422,2.369141 0.195763,0.254964 0.319641,0.441498 0.396484,0.566406 0.07684,0.124908 0.06336,0.117244 0.154297,0.269532 v 0.002 h 0.002 c 0.09382,0.155599 0.06784,0.102734 0.07227,0.121094 -0.140712,0.04497 -0.346558,0.09473 -0.351563,0.0957 l -4.037109,0.05859 -0.0918,0.01758 c 0,0 4.61e-4,0.01343 -0.214844,-0.01953 -0.215305,-0.03297 -0.555265,-0.124965 -0.990234,-0.423828 -0.528358,-0.36304 -1.252594,-1.23632 -1.962891,-2.025391 -0.355149,-0.394535 -0.708869,-0.770938 -1.144531,-1.076171 -0.435663,-0.305234 -1.080357,-0.588752 -1.773438,-0.369141 -0.597662,0.189524 -0.990167,0.638466 -1.222656,1.054688 -0.232489,0.416221 -0.349484,0.836318 -0.427734,1.222656 -0.156501,0.772675 -0.140625,1.460937 -0.140625,1.460937 v 0.002 c 0,0 -0.16087,0.272533 0.0293,0.06836 h -0.002 v 0.002 c 0.103627,-0.112063 -0.05908,-0.01497 -0.136718,0.02734 h -1.740235 l -0.03125,0.002 c 0,0 -3.420276,0.254853 -6.6054691,-3.060547 C 5.6676739,17.103639 2.5732043,10.152026 2.3026531,9.5402261 l 3.9062498,-0.02539 c 0.0552,0.02021 0.210483,0.07831 0.212891,0.08008 h 0.0019 c -0.08724,-0.06389 -0.0086,0.01699 0.02148,0.04883 0,0 0.703631,1.7926569 1.667969,3.4589839 0.90931,1.572038 1.572815,2.55348 2.2089841,3.197266 0.318084,0.321892 0.636845,0.577504 1.058593,0.720703 0.421749,0.143199 0.961966,0.092 1.328125,-0.107422 v -0.002 c 0.74601,-0.406904 0.852834,-1.014019 0.976563,-1.550781 0.123728,-0.536763 0.171742,-1.110421 0.195312,-1.660157 0.04657,-1.086238 -0.02178,-2.060087 -0.02344,-2.083984 3.95e-4,-0.04691 0.0041,-0.390124 -0.05469,-0.863281 -0.06258,-0.503703 -0.135446,-1.1184529 -0.585937,-1.7304689 -0.02419,-0.03293 -0.0552,-0.03163 -0.08008,-0.0625 0.609199,-0.09542 1.187201,-0.207077 2.308594,-0.195313 z m 9.390624,0.72461 -0.0293,0.06836 c 0,0 -0.0083,9.77e-4 0,-0.0059 4.17e-4,-0.0011 0.0293,-0.0625 0.0293,-0.0625 z"
     id="path2-7"
     inkscape:connector-curvature="0" />
</svg>
