<svg
   xmlns="http://www.w3.org/2000/svg"
   viewBox="0 0 32 32"
   fill="black"
   height="15"
   width="15">
        <path d="M28 20c1.105 0 2 0.895 2 2v6c0 1.105-0.895 2-2 2h-6c-1.105 0-2-0.895-2-2v-6c0-1.105 0.895-2 2-2h6zM22 18c-2.209 0-4 1.791-4 4v6c0 2.209 1.791 4 4 4h6c2.209 0 4-1.791 4-4v-6c0-2.209-1.791-4-4-4h-6z"></path>
        <path d="M11 20c0.552 0 1 0.448 1 1v4c0 0.552-0.448 1-1 1h-4c-0.552 0-1-0.448-1-1v-4c0-0.552 0.448-1 1-1h4zM7 18c-1.657 0-3 1.343-3 3v4c0 1.657 1.343 3 3 3h4c1.657 0 3-1.343 3-3v-4c0-1.657-1.343-3-3-3h-4z"></path>
        <path d="M25 6c0.552 0 1 0.448 1 1v4c0 0.552-0.448 1-1 1h-4c-0.552 0-1-0.448-1-1v-4c0-0.552 0.448-1 1-1h4zM21 4c-1.657 0-3 1.343-3 3v4c0 1.657 1.343 3 3 3h4c1.657 0 3-1.343 3-3v-4c0-1.657-1.343-3-3-3h-4z"></path>
        <path d="M10 2c1.105 0 2 0.895 2 2v6c0 1.105-0.895 2-2 2h-6c-1.105 0-2-0.895-2-2v-6c0-1.105 0.895-2 2-2h6zM4 0c-2.209 0-4 1.791-4 4v6c0 2.209 1.791 4 4 4h6c2.209 0 4-1.791 4-4v-6c0-2.209-1.791-4-4-4h-6z"></path>
</svg>
