<svg width="15" height="15" viewBox="0 0 15 15" fill="none" xmlns="http://www.w3.org/2000/svg">
<g clip-path="url(#clip0)">
<path d="M2.63672 2.63672C2.87942 2.63672 3.07617 2.43997 3.07617 2.19727C3.07617 1.95456 2.87942 1.75781 2.63672 1.75781C2.39402 1.75781 2.19727 1.95456 2.19727 2.19727C2.19727 2.43997 2.39402 2.63672 2.63672 2.63672Z" fill="#FFFFFF"/>
<path d="M8.05664 0H1.61133C0.722842 0 0 0.722842 0 1.61133V13.3887C0 14.2772 0.722842 15 1.61133 15H8.05664C8.94513 15 9.66797 14.2772 9.66797 13.3887V1.61133C9.66797 0.722842 8.94513 0 8.05664 0ZM8.78906 13.3887C8.78906 13.7925 8.4605 14.1211 8.05664 14.1211H1.61133C1.20747 14.1211 0.878906 13.7925 0.878906 13.3887V13.2422H8.78906V13.3887ZM8.78906 12.3633H0.878906V1.61133C0.878906 1.20747 1.20747 0.878906 1.61133 0.878906H8.05664C8.4605 0.878906 8.78906 1.20747 8.78906 1.61133V12.3633Z" fill="#FFFFFF"/>
<path d="M4.24805 2.63672H5.41992C5.66262 2.63672 5.85938 2.43996 5.85938 2.19727C5.85938 1.95457 5.66262 1.75781 5.41992 1.75781H4.24805C4.00535 1.75781 3.80859 1.95457 3.80859 2.19727C3.80859 2.43996 4.00535 2.63672 4.24805 2.63672Z" fill="#FFFFFF"/>
<path d="M6.05273 6.53077C6.29701 6.24823 6.44531 5.88047 6.44531 5.47852C6.44531 4.59003 5.72247 3.86719 4.83398 3.86719C3.9455 3.86719 3.22266 4.59003 3.22266 5.47852C3.22266 5.88047 3.37096 6.24823 3.61523 6.53077C2.85715 6.95815 2.34375 7.77062 2.34375 8.70117V8.99414C2.34375 9.23684 2.54051 9.43359 2.7832 9.43359H6.88477C7.12746 9.43359 7.32422 9.23684 7.32422 8.99414V8.70117C7.32422 7.77062 6.81082 6.95815 6.05273 6.53077ZM4.83398 4.74609C5.23784 4.74609 5.56641 5.07466 5.56641 5.47852C5.56641 5.88237 5.23784 6.21094 4.83398 6.21094C4.43013 6.21094 4.10156 5.88237 4.10156 5.47852C4.10156 5.07466 4.43013 4.74609 4.83398 4.74609ZM3.22925 8.55469C3.30346 7.73455 3.99483 7.08984 4.83398 7.08984C5.67313 7.08984 6.36451 7.73455 6.43872 8.55469H3.22925Z" fill="#FFFFFF"/>
<path d="M6.88477 10.3125H2.7832C2.54051 10.3125 2.34375 10.5093 2.34375 10.752C2.34375 10.9946 2.54051 11.1914 2.7832 11.1914H6.88477C7.12746 11.1914 7.32422 10.9946 7.32422 10.752C7.32422 10.5093 7.12746 10.3125 6.88477 10.3125Z" fill="#FFFFFF"/>
<path d="M11.0449 3.42334C11.2876 3.42334 11.4844 3.22659 11.4844 2.98389C11.4844 2.74118 11.2876 2.54443 11.0449 2.54443C10.8022 2.54443 10.6055 2.74118 10.6055 2.98389C10.6055 3.22659 10.8022 3.42334 11.0449 3.42334Z" fill="#FFFFFF"/>
<path d="M12.5978 1.43046C12.4263 1.25884 12.148 1.25887 11.9764 1.43046C11.8048 1.60208 11.8048 1.88032 11.9764 2.05194C12.4904 2.56595 12.4904 3.40237 11.9764 3.91639C11.8048 4.08801 11.8048 4.36624 11.9764 4.53786C12.0622 4.62367 12.1747 4.66656 12.2871 4.66656C12.3995 4.66656 12.512 4.62364 12.5978 4.53783C13.4545 3.68113 13.4545 2.28716 12.5978 1.43046Z" fill="#FFFFFF"/>
<path d="M13.842 0.18731C13.6704 0.0156885 13.3921 0.0156885 13.2205 0.18731C13.0489 0.358931 13.0489 0.637163 13.2205 0.808784C13.8015 1.38977 14.1215 2.16227 14.1215 2.98396C14.1215 3.80565 13.8015 4.57815 13.2205 5.15917C13.0489 5.33076 13.0489 5.60902 13.2205 5.78064C13.3063 5.86645 13.4188 5.90937 13.5312 5.90937C13.6437 5.90937 13.7562 5.86645 13.842 5.78064C14.589 5.0336 15.0004 4.04041 15.0004 2.98396C15.0004 1.92751 14.589 0.934321 13.842 0.18731Z" fill="#FFFFFF"/>
</g>
<defs>
<clipPath id="clip0">
<rect width="15" height="15" fill="white"/>
</clipPath>
</defs>
</svg>
