<svg width="13" height="17" viewBox="0 0 13 17" fill="none" xmlns="http://www.w3.org/2000/svg">
<path d="M11.2812 6.375H10.75V4.25C10.75 1.90612 8.84387 0 6.5 0C4.15613 0 2.25 1.90612 2.25 4.25V6.375H1.71875C0.840417 6.375 0.125 7.08971 0.125 7.96875V15.4062C0.125 16.2853 0.840417 17 1.71875 17H11.2812C12.1596 17 12.875 16.2853 12.875 15.4062V7.96875C12.875 7.08971 12.1596 6.375 11.2812 6.375ZM3.66667 4.25C3.66667 2.68742 4.93742 1.41667 6.5 1.41667C8.06258 1.41667 9.33333 2.68742 9.33333 4.25V6.375H3.66667V4.25ZM7.20833 11.8447V13.4583C7.20833 13.8493 6.89171 14.1667 6.5 14.1667C6.10829 14.1667 5.79167 13.8493 5.79167 13.4583V11.8447C5.37021 11.599 5.08333 11.147 5.08333 10.625C5.08333 9.84371 5.71871 9.20833 6.5 9.20833C7.28129 9.20833 7.91667 9.84371 7.91667 10.625C7.91667 11.147 7.62979 11.599 7.20833 11.8447Z" fill="white"/>
</svg>
