<svg width="759" height="402" viewBox="0 0 759 402" fill="none" xmlns="http://www.w3.org/2000/svg">
<g filter="url(#filter0_f)">
<ellipse cx="357.273" cy="256.017" rx="237.779" ry="40.6107" transform="rotate(-1.19234 357.273 256.017)" fill="#28639E"/>
</g>
<g filter="url(#filter1_f)">
<path d="M20.6172 322L106.325 285.509L158.469 247.253L706.879 223.122L676.911 322H20.6172Z" fill="#0C4A9D"/>
</g>
<path d="M196.434 207.329H435.683V215.255H196.434V207.329Z" fill="#3F50E8"/>
<path d="M484.419 157.13L435.541 215.255V207.329L484.419 153.167V157.13Z" fill="#3A48CE"/>
<path d="M24.7373 279.624L364.926 282.566V301.989H24.7373V279.624Z" fill="url(#paint0_linear)"/>
<path d="M443.468 207.329H716.262V215.255H443.468V207.329Z" fill="#3890E6"/>
<path d="M726.17 161.093L716.262 215.255V207.329L726.17 153.827V161.093Z" fill="#2A81D6"/>
<path d="M432.239 215.255L364.866 301.989V282.628L432.239 209.971V215.255Z" fill="#1E68C0"/>
<path d="M713.941 225.476L702.17 297.28V277.858L715.118 210.173L713.941 225.476Z" fill="url(#paint1_linear)"/>
<path d="M374.931 283.155L702.171 277.858V296.989C702.171 299.75 699.932 301.989 697.171 301.989H374.931V283.155Z" fill="url(#paint2_linear)"/>
<path d="M364.971 282.628H24.3485C21.0483 282.628 20.1674 278.076 23.2293 276.845L189.547 209.971H432.899L364.971 282.628Z" fill="#56ACFF"/>
<path d="M374.773 282.628L439.63 209.971H715.601L703.861 274.421C702.995 279.174 698.854 282.628 694.023 282.628H374.773Z" fill="#5667FF"/>
<path d="M716.262 207.329H443.468L491.025 153.167H726.17L716.262 207.329Z" fill="#56ACFF"/>
<path d="M435.653 207.329L484.42 153.167H326.258L196.434 207.329H435.653Z" fill="#5667FF"/>
<ellipse cx="386.663" cy="178.266" rx="5.28415" ry="1.32104" fill="#3243DE"/>
<ellipse cx="366.847" cy="174.303" rx="5.28415" ry="1.32104" fill="#3243DE"/>
<g filter="url(#filter2_f)">
<path d="M366.847 174.303V143.919H267.77V114.856" stroke="white"/>
</g>
<path d="M386.663 178.266V124.104H476.494V101.646" stroke="white"/>
<ellipse cx="269.09" cy="248.282" rx="5.28415" ry="1.32104" fill="#1A83E8"/>
<ellipse cx="249.275" cy="244.318" rx="5.28415" ry="1.32104" fill="#1A83E8"/>
<path d="M249.275 244.318V213.935H97.3555V105.609" stroke="white"/>
<path d="M269.091 248.281V194.119H385.342V132.03" stroke="white"/>
<ellipse cx="604.635" cy="184.872" rx="5.28415" ry="1.32104" fill="#1A83E8"/>
<ellipse cx="584.818" cy="180.909" rx="5.28415" ry="1.32104" fill="#1A83E8"/>
<g filter="url(#filter3_f)">
<path d="M584.819 180.909V150.525H525.372V42.1995" stroke="white"/>
</g>
<g filter="url(#filter4_f)">
<path d="M604.635 184.872V130.709H720.886V68.6204" stroke="white"/>
</g>
<ellipse cx="580.855" cy="250.924" rx="5.28415" ry="1.32104" fill="#3243DE"/>
<ellipse cx="561.04" cy="246.96" rx="5.28415" ry="1.32104" fill="#3243DE"/>
<path d="M561.04 246.961V216.577H501.594V161.093" stroke="white"/>
<path d="M580.855 250.924V196.761H657.476V161.093" stroke="white"/>
<g filter="url(#filter5_f)">
<rect x="491.466" y="3" width="69.4502" height="69.4502" rx="10" fill="url(#paint3_linear)"/>
<path d="M517.412 34.9316C517.362 35.6201 517.107 36.1621 516.647 36.5576C516.19 36.9531 515.586 37.1509 514.836 37.1509C514.016 37.1509 513.37 36.8755 512.898 36.3247C512.43 35.771 512.195 35.0122 512.195 34.0483V33.6572C512.195 33.042 512.304 32.5 512.52 32.0312C512.737 31.5625 513.046 31.2036 513.448 30.9546C513.852 30.7026 514.321 30.5767 514.854 30.5767C515.592 30.5767 516.187 30.7744 516.638 31.1699C517.089 31.5654 517.35 32.1206 517.42 32.8354H516.102C516.07 32.4224 515.954 32.1235 515.755 31.939C515.559 31.7515 515.258 31.6577 514.854 31.6577C514.415 31.6577 514.085 31.8159 513.865 32.1323C513.648 32.4458 513.537 32.9336 513.531 33.5957V34.0791C513.531 34.7705 513.635 35.2759 513.843 35.5952C514.054 35.9146 514.385 36.0742 514.836 36.0742C515.244 36.0742 515.547 35.9819 515.746 35.7974C515.948 35.6099 516.064 35.3213 516.093 34.9316H517.412ZM520.866 33.499C520.693 33.4756 520.54 33.4639 520.409 33.4639C519.928 33.4639 519.613 33.6265 519.464 33.9517V37.063H518.194V32.3081H519.394L519.429 32.875C519.684 32.4385 520.037 32.2202 520.488 32.2202C520.628 32.2202 520.76 32.2393 520.883 32.2773L520.866 33.499ZM523.582 37.1509C522.884 37.1509 522.316 36.937 521.876 36.5093C521.44 36.0815 521.222 35.5117 521.222 34.7998V34.6768C521.222 34.1992 521.314 33.7729 521.499 33.3979C521.683 33.02 521.944 32.73 522.281 32.5278C522.621 32.3228 523.007 32.2202 523.441 32.2202C524.091 32.2202 524.603 32.4253 524.975 32.8354C525.35 33.2456 525.537 33.8271 525.537 34.5801V35.0986H522.509C522.55 35.4092 522.673 35.6582 522.878 35.8457C523.086 36.0332 523.349 36.127 523.665 36.127C524.154 36.127 524.537 35.9497 524.812 35.5952L525.436 36.2939C525.246 36.5635 524.988 36.7744 524.663 36.9268C524.337 37.0762 523.977 37.1509 523.582 37.1509ZM523.436 33.2485C523.185 33.2485 522.979 33.3335 522.821 33.5034C522.666 33.6733 522.566 33.9165 522.522 34.2329H524.289V34.1318C524.283 33.8506 524.207 33.6338 524.061 33.4814C523.914 33.3262 523.706 33.2485 523.436 33.2485ZM526.064 34.6504C526.064 33.9092 526.23 33.3188 526.561 32.8794C526.895 32.4399 527.351 32.2202 527.928 32.2202C528.391 32.2202 528.773 32.3931 529.075 32.7388V30.313H530.349V37.063H529.202L529.141 36.5576C528.824 36.9531 528.417 37.1509 527.919 37.1509C527.359 37.1509 526.91 36.9312 526.57 36.4917C526.233 36.0493 526.064 35.4355 526.064 34.6504ZM527.334 34.7427C527.334 35.188 527.412 35.5293 527.567 35.7666C527.723 36.0039 527.948 36.1226 528.244 36.1226C528.637 36.1226 528.914 35.957 529.075 35.626V33.7495C528.916 33.4185 528.643 33.2529 528.253 33.2529C527.641 33.2529 527.334 33.7495 527.334 34.7427ZM532.674 37.063H531.399V32.3081H532.674V37.063ZM531.325 31.0776C531.325 30.8872 531.388 30.7305 531.514 30.6074C531.643 30.4844 531.817 30.4229 532.037 30.4229C532.253 30.4229 532.426 30.4844 532.555 30.6074C532.684 30.7305 532.749 30.8872 532.749 31.0776C532.749 31.271 532.683 31.4292 532.551 31.5522C532.422 31.6753 532.25 31.7368 532.037 31.7368C531.823 31.7368 531.65 31.6753 531.518 31.5522C531.389 31.4292 531.325 31.271 531.325 31.0776ZM535.245 31.1392V32.3081H536.058V33.2397H535.245V35.6128C535.245 35.7886 535.278 35.9146 535.346 35.9907C535.413 36.0669 535.542 36.105 535.732 36.105C535.873 36.105 535.998 36.0947 536.106 36.0742V37.0366C535.857 37.1128 535.601 37.1509 535.337 37.1509C534.446 37.1509 533.992 36.7012 533.975 35.8018V33.2397H533.28V32.3081H533.975V31.1392H535.245ZM539.34 35.749C539.34 35.5938 539.263 35.4722 539.107 35.3843C538.955 35.2935 538.709 35.2129 538.369 35.1426C537.238 34.9053 536.673 34.4248 536.673 33.7012C536.673 33.2793 536.847 32.9277 537.196 32.6465C537.547 32.3623 538.006 32.2202 538.571 32.2202C539.175 32.2202 539.657 32.3623 540.017 32.6465C540.38 32.9307 540.562 33.2998 540.562 33.7539H539.292C539.292 33.5723 539.233 33.4229 539.116 33.3057C538.999 33.1855 538.816 33.1255 538.567 33.1255C538.353 33.1255 538.187 33.1738 538.07 33.2705C537.953 33.3672 537.895 33.4902 537.895 33.6396C537.895 33.7803 537.96 33.8945 538.092 33.9824C538.227 34.0674 538.453 34.1421 538.769 34.2065C539.085 34.2681 539.352 34.3384 539.569 34.4175C540.24 34.6636 540.575 35.0898 540.575 35.6963C540.575 36.1299 540.389 36.4814 540.017 36.751C539.645 37.0176 539.165 37.1509 538.576 37.1509C538.177 37.1509 537.823 37.0806 537.512 36.9399C537.205 36.7964 536.963 36.6016 536.787 36.3555C536.611 36.1064 536.523 35.8384 536.523 35.5513H537.728C537.739 35.7769 537.823 35.9497 537.978 36.0698C538.133 36.1899 538.341 36.25 538.602 36.25C538.845 36.25 539.028 36.2046 539.151 36.1138C539.277 36.02 539.34 35.8984 539.34 35.749Z" fill="#323232"/>
</g>
<g filter="url(#filter6_f)">
<circle cx="724.188" cy="58.7126" r="31.0444" fill="url(#paint4_linear)"/>
<path d="M715.567 56.0684C715.517 56.7568 715.262 57.2988 714.802 57.6943C714.345 58.0898 713.742 58.2876 712.992 58.2876C712.171 58.2876 711.525 58.0122 711.054 57.4614C710.585 56.9077 710.351 56.1489 710.351 55.1851V54.7939C710.351 54.1787 710.459 53.6367 710.676 53.168C710.893 52.6992 711.202 52.3403 711.603 52.0913C712.007 51.8394 712.476 51.7134 713.009 51.7134C713.748 51.7134 714.342 51.9111 714.793 52.3066C715.245 52.7021 715.505 53.2573 715.576 53.9722H714.257C714.225 53.5591 714.109 53.2603 713.91 53.0757C713.714 52.8882 713.414 52.7944 713.009 52.7944C712.57 52.7944 712.24 52.9526 712.02 53.269C711.804 53.5825 711.692 54.0703 711.686 54.7324V55.2158C711.686 55.9072 711.79 56.4126 711.999 56.7319C712.209 57.0513 712.54 57.2109 712.992 57.2109C713.399 57.2109 713.702 57.1187 713.901 56.9341C714.103 56.7466 714.219 56.458 714.249 56.0684H715.567ZM719.021 54.6357C718.848 54.6123 718.696 54.6006 718.564 54.6006C718.083 54.6006 717.769 54.7632 717.619 55.0884V58.1997H716.349V53.4448H717.549L717.584 54.0117C717.839 53.5752 718.192 53.3569 718.643 53.3569C718.784 53.3569 718.915 53.376 719.039 53.4141L719.021 54.6357ZM721.737 58.2876C721.04 58.2876 720.471 58.0737 720.032 57.646C719.595 57.2183 719.377 56.6484 719.377 55.9365V55.8135C719.377 55.3359 719.469 54.9097 719.654 54.5347C719.838 54.1567 720.099 53.8667 720.436 53.6646C720.776 53.4595 721.163 53.3569 721.596 53.3569C722.247 53.3569 722.758 53.562 723.13 53.9722C723.505 54.3823 723.692 54.9639 723.692 55.7168V56.2354H720.665C720.706 56.5459 720.829 56.7949 721.034 56.9824C721.242 57.1699 721.504 57.2637 721.82 57.2637C722.31 57.2637 722.692 57.0864 722.967 56.7319L723.591 57.4307C723.401 57.7002 723.143 57.9111 722.818 58.0635C722.493 58.2129 722.132 58.2876 721.737 58.2876ZM721.592 54.3853C721.34 54.3853 721.135 54.4702 720.977 54.6401C720.821 54.8101 720.722 55.0532 720.678 55.3696H722.444V55.2686C722.438 54.9873 722.362 54.7705 722.216 54.6182C722.069 54.4629 721.861 54.3853 721.592 54.3853ZM724.22 55.7871C724.22 55.0459 724.385 54.4556 724.716 54.0161C725.05 53.5767 725.506 53.3569 726.083 53.3569C726.546 53.3569 726.928 53.5298 727.23 53.8755V51.4497H728.504V58.1997H727.357L727.296 57.6943C726.979 58.0898 726.572 58.2876 726.074 58.2876C725.515 58.2876 725.065 58.0679 724.725 57.6284C724.388 57.186 724.22 56.5723 724.22 55.7871ZM725.49 55.8794C725.49 56.3247 725.567 56.666 725.723 56.9033C725.878 57.1406 726.103 57.2593 726.399 57.2593C726.792 57.2593 727.069 57.0938 727.23 56.7627V54.8862C727.072 54.5552 726.798 54.3896 726.408 54.3896C725.796 54.3896 725.49 54.8862 725.49 55.8794ZM730.829 58.1997H729.555V53.4448H730.829V58.1997ZM729.48 52.2144C729.48 52.0239 729.543 51.8672 729.669 51.7441C729.798 51.6211 729.972 51.5596 730.192 51.5596C730.409 51.5596 730.582 51.6211 730.71 51.7441C730.839 51.8672 730.904 52.0239 730.904 52.2144C730.904 52.4077 730.838 52.5659 730.706 52.689C730.577 52.812 730.406 52.8735 730.192 52.8735C729.978 52.8735 729.805 52.812 729.673 52.689C729.544 52.5659 729.48 52.4077 729.48 52.2144ZM733.4 52.2759V53.4448H734.213V54.3765H733.4V56.7495C733.4 56.9253 733.434 57.0513 733.501 57.1274C733.568 57.2036 733.697 57.2417 733.888 57.2417C734.028 57.2417 734.153 57.2314 734.261 57.2109V58.1733C734.012 58.2495 733.756 58.2876 733.492 58.2876C732.602 58.2876 732.147 57.8379 732.13 56.9385V54.3765H731.436V53.4448H732.13V52.2759H733.4ZM737.496 56.8857C737.496 56.7305 737.418 56.6089 737.263 56.521C737.11 56.4302 736.864 56.3496 736.524 56.2793C735.394 56.042 734.828 55.5615 734.828 54.8379C734.828 54.416 735.002 54.0645 735.351 53.7832C735.703 53.499 736.161 53.3569 736.727 53.3569C737.33 53.3569 737.812 53.499 738.172 53.7832C738.536 54.0674 738.717 54.4365 738.717 54.8906H737.447C737.447 54.709 737.389 54.5596 737.271 54.4424C737.154 54.3223 736.971 54.2622 736.722 54.2622C736.508 54.2622 736.343 54.3105 736.226 54.4072C736.108 54.5039 736.05 54.627 736.05 54.7764C736.05 54.917 736.116 55.0312 736.248 55.1191C736.382 55.2041 736.608 55.2788 736.924 55.3433C737.241 55.4048 737.507 55.4751 737.724 55.5542C738.395 55.8003 738.73 56.2266 738.73 56.833C738.73 57.2666 738.544 57.6182 738.172 57.8877C737.8 58.1543 737.32 58.2876 736.731 58.2876C736.332 58.2876 735.978 58.2173 735.667 58.0767C735.36 57.9331 735.118 57.7383 734.942 57.4922C734.767 57.2432 734.679 56.9751 734.679 56.688H735.883C735.895 56.9136 735.978 57.0864 736.133 57.2065C736.289 57.3267 736.497 57.3867 736.757 57.3867C737 57.3867 737.184 57.3413 737.307 57.2505C737.433 57.1567 737.496 57.0352 737.496 56.8857Z" fill="#323232"/>
</g>
<g filter="url(#filter7_f)">
<circle cx="475.172" cy="80.5094" r="33.026" fill="#EFF7FF"/>
<path d="M461.401 80.3899V72.5696H463.807C464.494 72.5696 465.109 72.7253 465.649 73.0369C466.194 73.3448 466.618 73.7852 466.922 74.3582C467.227 74.9275 467.379 75.5756 467.379 76.3025V76.6624C467.379 77.3892 467.228 78.0356 466.928 78.6013C466.63 79.1671 466.21 79.6057 465.665 79.9172C465.121 80.2288 464.507 80.3863 463.823 80.3899H461.401ZM463.012 73.8748V79.0955H463.791C464.421 79.0955 464.903 78.8896 465.236 78.4778C465.569 78.066 465.739 77.477 465.746 76.7107V76.2971C465.746 75.5022 465.581 74.9006 465.252 74.4924C464.922 74.0806 464.441 73.8748 463.807 73.8748H463.012ZM471.128 80.4973C470.276 80.4973 469.581 80.2359 469.044 79.7131C468.51 79.1903 468.243 78.4939 468.243 77.6238V77.4734C468.243 76.8897 468.356 76.3687 468.582 75.9104C468.807 75.4485 469.126 75.094 469.538 74.8469C469.953 74.5963 470.426 74.4709 470.956 74.4709C471.751 74.4709 472.376 74.7216 472.83 75.2229C473.289 75.7242 473.518 76.435 473.518 77.3552V77.989H469.817C469.867 78.3686 470.018 78.6729 470.268 78.9021C470.523 79.1313 470.843 79.2458 471.23 79.2458C471.828 79.2458 472.295 79.0292 472.632 78.5959L473.394 79.45C473.162 79.7794 472.847 80.0372 472.449 80.2234C472.052 80.406 471.611 80.4973 471.128 80.4973ZM470.951 75.7278C470.643 75.7278 470.392 75.8316 470.199 76.0393C470.009 76.247 469.887 76.5442 469.833 76.9309H471.993V76.8074C471.985 76.4636 471.892 76.1986 471.713 76.0125C471.534 75.8227 471.28 75.7278 470.951 75.7278ZM475.833 74.5784L475.881 75.2498C476.297 74.7306 476.853 74.4709 477.552 74.4709C478.167 74.4709 478.626 74.6518 478.927 75.0134C479.227 75.3751 479.381 75.9158 479.389 76.6355V80.3899H477.836V76.6731C477.836 76.3437 477.765 76.1056 477.621 75.9587C477.478 75.8083 477.24 75.7332 476.907 75.7332C476.47 75.7332 476.143 75.9194 475.924 76.2917V80.3899H474.372V74.5784H475.833ZM480.345 77.4412C480.345 76.5496 480.556 75.8316 480.978 75.2874C481.404 74.7431 481.977 74.4709 482.697 74.4709C483.334 74.4709 483.83 74.6894 484.185 75.1262L484.249 74.5784H485.657V80.1965C485.657 80.705 485.54 81.1472 485.307 81.5232C485.078 81.8992 484.754 82.1856 484.335 82.3826C483.916 82.5795 483.426 82.678 482.864 82.678C482.438 82.678 482.022 82.592 481.618 82.4202C481.213 82.2519 480.907 82.0334 480.699 81.7649L481.387 80.8196C481.773 81.2528 482.242 81.4695 482.794 81.4695C483.206 81.4695 483.526 81.3585 483.755 81.1365C483.984 80.9181 484.099 80.6065 484.099 80.2019V79.8904C483.741 80.295 483.27 80.4973 482.686 80.4973C481.988 80.4973 481.422 80.2252 480.989 79.6809C480.559 79.1331 480.345 78.408 480.345 77.5056V77.4412ZM481.897 77.554C481.897 78.0803 482.002 78.4939 482.214 78.7947C482.425 79.0919 482.715 79.2405 483.084 79.2405C483.556 79.2405 483.895 79.0632 484.099 78.7087V76.2649C483.891 75.9104 483.556 75.7332 483.095 75.7332C482.722 75.7332 482.429 75.8853 482.214 76.1897C482.002 76.4941 481.897 76.9488 481.897 77.554ZM488.493 80.3899H486.935V74.5784H488.493V80.3899ZM486.844 73.0745C486.844 72.8417 486.921 72.6501 487.075 72.4998C487.232 72.3494 487.445 72.2742 487.714 72.2742C487.979 72.2742 488.19 72.3494 488.347 72.4998C488.505 72.6501 488.584 72.8417 488.584 73.0745C488.584 73.3108 488.503 73.5042 488.342 73.6545C488.185 73.8049 487.975 73.8801 487.714 73.8801C487.452 73.8801 487.241 73.8049 487.08 73.6545C486.922 73.5042 486.844 73.3108 486.844 73.0745Z" fill="#504D54"/>
</g>
<g filter="url(#filter8_f)">
<g filter="url(#filter9_i)">
<rect x="233.676" y="47.7307" width="69.4502" height="69.4502" rx="10" fill="url(#paint5_linear)"/>
</g>
<path d="M254.092 82.978V73.0249H257.578C258.786 73.0249 259.702 73.2573 260.326 73.7222C260.95 74.1825 261.263 74.8592 261.263 75.7524C261.263 76.2401 261.137 76.6707 260.887 77.0444C260.636 77.4136 260.287 77.6847 259.841 77.8579C260.351 77.9855 260.752 78.243 261.044 78.6304C261.34 79.0177 261.488 79.4917 261.488 80.0522C261.488 81.0093 261.183 81.7339 260.572 82.2261C259.961 82.7183 259.091 82.9689 257.961 82.978H254.092ZM256.142 78.644V81.3306H257.899C258.382 81.3306 258.758 81.2166 259.027 80.9888C259.301 80.7563 259.437 80.4373 259.437 80.0317C259.437 79.1203 258.966 78.6577 258.022 78.644H256.142ZM256.142 77.1948H257.66C258.695 77.1766 259.212 76.7642 259.212 75.9575C259.212 75.5063 259.08 75.1828 258.815 74.9868C258.556 74.7863 258.143 74.686 257.578 74.686H256.142V77.1948ZM267.189 82.978C267.098 82.8003 267.032 82.5793 266.991 82.3149C266.513 82.8481 265.891 83.1147 265.125 83.1147C264.4 83.1147 263.799 82.9051 263.32 82.4858C262.846 82.0666 262.609 81.5379 262.609 80.8999C262.609 80.116 262.899 79.5145 263.477 79.0952C264.061 78.6759 264.902 78.464 266 78.4595H266.909V78.0356C266.909 77.6938 266.82 77.4204 266.642 77.2153C266.469 77.0103 266.194 76.9077 265.815 76.9077C265.483 76.9077 265.221 76.9875 265.029 77.147C264.842 77.3065 264.749 77.5252 264.749 77.8032H262.773C262.773 77.3748 262.905 76.9784 263.17 76.6138C263.434 76.2492 263.808 75.9644 264.291 75.7593C264.774 75.5496 265.316 75.4448 265.918 75.4448C266.829 75.4448 267.552 75.675 268.085 76.1353C268.623 76.591 268.891 77.2336 268.891 78.063V81.269C268.896 81.9709 268.994 82.5018 269.185 82.8618V82.978H267.189ZM265.556 81.604C265.847 81.604 266.116 81.5402 266.362 81.4126C266.608 81.2804 266.791 81.105 266.909 80.8862V79.6147H266.171C265.182 79.6147 264.655 79.9565 264.592 80.6401L264.585 80.7563C264.585 81.0024 264.671 81.2052 264.845 81.3647C265.018 81.5243 265.255 81.604 265.556 81.604ZM272.227 75.5815L272.289 76.436C272.818 75.7752 273.526 75.4448 274.415 75.4448C275.199 75.4448 275.782 75.675 276.165 76.1353C276.548 76.5955 276.744 77.2837 276.753 78.1997V82.978H274.777V78.2476C274.777 77.8283 274.686 77.5252 274.504 77.3384C274.321 77.147 274.018 77.0513 273.595 77.0513C273.039 77.0513 272.622 77.2882 272.344 77.7622V82.978H270.368V75.5815H272.227ZM280.943 80.0112L280.232 80.7222V82.978H278.257V72.478H280.232V78.2954L280.615 77.8032L282.509 75.5815H284.881L282.208 78.6646L285.113 82.978H282.844L280.943 80.0112Z" fill="#4784DE"/>
</g>
<g filter="url(#filter10_i)">
<rect x="44.1592" y="35.9595" width="104.764" height="104.764" rx="20" fill="url(#paint6_linear)"/>
</g>
<path d="M66.5244 103.055V89.0301H72.9663C74.5652 89.0301 75.7742 89.4442 76.5935 90.2724C77.2278 90.9135 77.5449 91.7216 77.5449 92.6967C77.5449 94.0191 76.9371 95.0276 75.7214 95.7222C76.5803 96.0561 77.2278 96.4969 77.6639 97.0446C78.0999 97.5789 78.3179 98.3002 78.3179 99.2085C78.3179 100.464 77.8555 101.419 76.9305 102.074C76.0055 102.728 74.7369 103.055 73.1248 103.055H66.5244ZM69.4976 94.7003H72.3122C73.7789 94.7003 74.5123 94.1928 74.5123 93.1776C74.5123 92.7101 74.3405 92.3561 73.997 92.1157C73.6534 91.8619 73.1579 91.735 72.5104 91.735H69.4976V94.7003ZM69.4976 100.351H73.1248C74.5652 100.351 75.2853 99.8296 75.2853 98.7877C75.2853 97.7725 74.5321 97.265 73.0257 97.265H69.4976V100.351Z" fill="black"/>
<path d="M80.2342 103.055L86.1806 88.9299H88.9952L94.9415 103.055H91.7503L90.4817 99.9097H84.6147L83.3462 103.055H80.2342ZM85.7049 97.1848H89.3916L87.5482 92.6366L85.7049 97.1848Z" fill="black"/>
<path d="M97.6776 103.055V89.0301H100.492L106.993 97.6657V89.0301H110.006V103.055H107.41L100.69 94.1393V103.055H97.6776Z" fill="black"/>
<path d="M113.932 103.055V89.0301H116.984V95.1612L122.613 89.0301H126.3L120.651 94.9808L126.558 103.055H122.891L118.59 97.0846L116.984 98.7677V103.055H113.932Z" fill="black"/>
<path d="M73.6724 84.2214C71.6282 84.2214 69.9225 83.5451 68.5553 82.1923C67.2014 80.8266 66.5244 79.1487 66.5244 77.1587C66.5244 75.1816 67.208 73.5103 68.5752 72.1445C69.9424 70.7788 71.6813 70.0959 73.7919 70.0959C74.9998 70.0959 76.0153 70.2911 76.8382 70.6813C77.6612 71.0585 78.4444 71.6047 79.1877 72.3201L77.3559 74.3882C76.7586 73.8549 76.1945 73.4712 75.6635 73.2371C75.1458 72.99 74.5153 72.8664 73.772 72.8664C72.6039 72.8664 71.6349 73.2826 70.865 74.1151C70.1084 74.9345 69.7301 75.949 69.7301 77.1587C69.7301 78.3553 70.1084 79.3698 70.865 80.2023C71.6349 81.0347 72.6039 81.4509 73.772 81.4509C74.5153 81.4509 75.1591 81.3209 75.7033 81.0607C76.2476 80.8006 76.825 80.3974 77.4356 79.8511L79.3868 81.8997C78.6302 82.6931 77.8072 83.2784 76.9179 83.6556C76.0418 84.0328 74.96 84.2214 73.6724 84.2214Z" fill="#E15E5E"/>
<path d="M82.4388 83.9873V70.3301H88.8103C90.5757 70.3301 91.9296 70.7918 92.8721 71.7153C93.6685 72.4957 94.0667 73.5493 94.0667 74.876C94.0667 76.9701 93.0712 78.3813 91.0801 79.1097L94.4849 83.9873H90.9009L87.8745 79.617H85.5051V83.9873H82.4388ZM85.5051 76.9636H88.6112C89.3545 76.9636 89.9319 76.788 90.3434 76.4368C90.7549 76.0726 90.9606 75.5914 90.9606 74.993C90.9606 74.3557 90.7483 73.8744 90.3235 73.5493C89.8987 73.2111 89.308 73.042 88.5514 73.042H85.5051V76.9636Z" fill="#E15E5E"/>
<path d="M97.4248 83.9873V70.3301H107.938V73.003H100.471V75.7734H107.042V78.4464H100.471V81.3144H108.037V83.9873H97.4248Z" fill="#E15E5E"/>
<path d="M111.361 83.9873V70.3301H116.797C118.973 70.3301 120.752 70.9804 122.133 72.2811C123.513 73.5688 124.203 75.1946 124.203 77.1587C124.203 79.1097 123.506 80.7356 122.113 82.0363C120.732 83.3369 118.96 83.9873 116.797 83.9873H111.361ZM114.427 81.2754H116.797C118.058 81.2754 119.073 80.8982 119.843 80.1438C120.613 79.3764 120.998 78.3813 120.998 77.1587C120.998 75.949 120.606 74.9605 119.823 74.1931C119.053 73.4257 118.044 73.042 116.797 73.042H114.427V81.2754Z" fill="#E15E5E"/>
<circle cx="138.308" cy="129.27" r="23.7787" fill="url(#paint7_linear)"/>
<path d="M140.499 127.191H146.233V131.094H140.499V137.196H136.131V131.094H130.381V127.191H136.131V121.344H140.499V127.191Z" fill="white"/>
<circle cx="384.02" cy="88.4357" r="62.0888" fill="url(#paint8_linear)"/>
<path d="M355.966 90.9043V89.0323L362.126 81.8643H356.158V79.7043H365.294V81.5763L359.134 88.7443H365.294V90.9043H355.966ZM369.806 91.0643C368.963 91.0643 368.259 90.8296 367.694 90.3603C367.139 89.891 366.862 89.2403 366.862 88.4083C366.862 87.5016 367.171 86.819 367.79 86.3603C368.419 85.9016 369.262 85.6723 370.318 85.6723C371.033 85.6723 371.731 85.7896 372.414 86.0243V85.8803C372.414 84.835 371.801 84.3123 370.574 84.3123C369.838 84.3123 369.049 84.467 368.206 84.7763L367.598 82.9203C368.643 82.4616 369.753 82.2323 370.926 82.2323C372.217 82.2323 373.182 82.5523 373.822 83.1923C374.441 83.811 374.75 84.723 374.75 85.9283V90.9043H372.398V89.9763C371.747 90.7016 370.883 91.0643 369.806 91.0643ZM370.542 89.3843C371.107 89.3843 371.566 89.2456 371.918 88.9683C372.27 88.6803 372.446 88.3176 372.446 87.8803V87.4483C371.987 87.235 371.47 87.1283 370.894 87.1283C370.361 87.1283 369.945 87.235 369.646 87.4483C369.358 87.651 369.214 87.9496 369.214 88.3443C369.214 88.6643 369.337 88.9203 369.582 89.1123C369.827 89.2936 370.147 89.3843 370.542 89.3843ZM378.578 93.5123C377.81 93.5123 377.09 93.315 376.418 92.9203L377.234 91.1603C377.608 91.3843 377.954 91.4963 378.274 91.4963C378.658 91.4963 378.941 91.3096 379.122 90.9363L375.762 82.3283H378.338L380.29 88.1683L382.162 82.3283H384.69L381.394 91.1123C381.064 91.9976 380.69 92.6163 380.274 92.9683C379.858 93.331 379.293 93.5123 378.578 93.5123ZM386.124 90.9043V82.3283H388.556V83.5443C389.271 82.627 390.113 82.1683 391.084 82.1683C392.225 82.1683 393.031 82.6216 393.5 83.5283C394.279 82.6216 395.217 82.1683 396.316 82.1683C397.233 82.1683 397.943 82.4403 398.444 82.9843C398.956 83.5176 399.212 84.2963 399.212 85.3203V90.9043H396.78V86.1203C396.78 84.9576 396.305 84.3763 395.356 84.3763C394.897 84.3763 394.535 84.5256 394.268 84.8243C394.012 85.123 393.884 85.555 393.884 86.1203V90.9043H391.452V86.1203C391.452 84.9576 390.977 84.3763 390.028 84.3763C389.569 84.3763 389.207 84.5256 388.94 84.8243C388.684 85.123 388.556 85.555 388.556 86.1203V90.9043H386.124Z" fill="white"/>
<circle cx="427.615" cy="133.351" r="23.7787" fill="url(#paint9_linear)"/>
<path d="M429.807 131.273H435.541V135.176H429.807V141.278H425.439V135.176H419.688V131.273H425.439V125.425H429.807V131.273Z" fill="white"/>
<g filter="url(#filter11_i)">
<rect x="605.646" y="59.502" width="104.764" height="104.764" rx="20" fill="url(#paint10_linear)"/>
</g>
<path d="M630.466 114.875C628.823 114.875 627.453 114.32 626.354 113.211C625.266 112.091 624.722 110.715 624.722 109.083C624.722 107.462 625.271 106.091 626.37 104.971C627.469 103.851 628.866 103.291 630.562 103.291C631.533 103.291 632.349 103.451 633.01 103.771C633.671 104.08 634.301 104.528 634.898 105.115L633.426 106.811C632.946 106.374 632.493 106.059 632.066 105.867C631.65 105.664 631.143 105.563 630.546 105.563C629.607 105.563 628.829 105.904 628.21 106.587C627.602 107.259 627.298 108.091 627.298 109.083C627.298 110.064 627.602 110.896 628.21 111.579C628.829 112.262 629.607 112.603 630.546 112.603C631.143 112.603 631.661 112.496 632.098 112.283C632.535 112.07 632.999 111.739 633.49 111.291L635.058 112.971C634.45 113.622 633.789 114.102 633.074 114.411C632.37 114.72 631.501 114.875 630.466 114.875ZM636.775 114.683V106.107H639.207V107.835C639.761 106.523 640.673 105.894 641.943 105.947V108.491H641.815C640.983 108.491 640.337 108.747 639.879 109.259C639.431 109.76 639.207 110.512 639.207 111.515V114.683H636.775ZM647.292 114.875C645.99 114.875 644.918 114.464 644.076 113.643C643.233 112.811 642.812 111.734 642.812 110.411C642.812 109.163 643.212 108.107 644.012 107.243C644.812 106.379 645.825 105.947 647.052 105.947C648.406 105.947 649.441 106.395 650.156 107.291C650.87 108.187 651.228 109.291 651.228 110.603C651.228 110.731 651.217 110.944 651.196 111.243H645.228C645.345 111.787 645.585 112.203 645.948 112.491C646.31 112.779 646.769 112.923 647.324 112.923C648.081 112.923 648.774 112.63 649.404 112.043L650.796 113.275C649.932 114.342 648.764 114.875 647.292 114.875ZM645.196 109.723H648.86C648.785 109.168 648.588 108.726 648.268 108.395C647.958 108.064 647.553 107.899 647.052 107.899C646.561 107.899 646.15 108.064 645.82 108.395C645.5 108.715 645.292 109.158 645.196 109.723ZM656.56 114.843C655.493 114.843 654.576 114.443 653.808 113.643C653.04 112.843 652.656 111.755 652.656 110.379C652.656 109.014 653.035 107.936 653.792 107.147C654.56 106.347 655.483 105.947 656.56 105.947C657.627 105.947 658.517 106.374 659.232 107.227V103.003H661.664V114.683H659.232V113.451C658.549 114.379 657.659 114.843 656.56 114.843ZM655.696 112.123C656.101 112.56 656.597 112.779 657.184 112.779C657.771 112.779 658.261 112.56 658.656 112.123C659.061 111.675 659.264 111.094 659.264 110.379C659.264 109.686 659.061 109.12 658.656 108.683C658.261 108.235 657.771 108.011 657.184 108.011C656.597 108.011 656.101 108.235 655.696 108.683C655.291 109.12 655.088 109.696 655.088 110.411C655.088 111.104 655.291 111.675 655.696 112.123ZM663.885 105.163V103.003H666.445V105.163H663.885ZM663.949 114.683V106.107H666.381V114.683H663.949ZM671.561 114.827C670.761 114.827 670.142 114.635 669.705 114.251C669.278 113.856 669.065 113.19 669.065 112.251V108.187H668.041V106.107H669.065V103.915H671.497V106.107H673.513V108.187H671.497V111.851C671.497 112.406 671.758 112.683 672.281 112.683C672.708 112.683 673.108 112.582 673.481 112.379V114.331C672.926 114.662 672.286 114.827 671.561 114.827ZM678.314 114.843C676.959 114.843 675.732 114.411 674.634 113.547L675.674 111.947C676.612 112.63 677.514 112.971 678.378 112.971C679.06 112.971 679.402 112.747 679.402 112.299C679.402 112.246 679.391 112.192 679.37 112.139C679.359 112.086 679.332 112.038 679.29 111.995C679.247 111.952 679.199 111.915 679.146 111.883C679.103 111.84 679.039 111.803 678.954 111.771C678.879 111.728 678.81 111.696 678.746 111.675C678.692 111.643 678.612 111.611 678.506 111.579C678.399 111.536 678.308 111.504 678.234 111.483C678.159 111.462 678.058 111.435 677.93 111.403C677.802 111.36 677.7 111.328 677.626 111.307C677.263 111.2 676.954 111.094 676.698 110.987C676.452 110.87 676.191 110.715 675.914 110.523C675.636 110.32 675.423 110.07 675.274 109.771C675.135 109.462 675.066 109.104 675.066 108.699C675.066 107.856 675.364 107.195 675.962 106.715C676.559 106.224 677.306 105.979 678.202 105.979C679.354 105.979 680.42 106.31 681.402 106.971L680.474 108.651C679.567 108.118 678.794 107.851 678.154 107.851C677.556 107.851 677.258 108.059 677.258 108.475C677.258 108.763 677.748 109.072 678.73 109.403C678.847 109.446 678.938 109.478 679.002 109.499C679.29 109.595 679.535 109.686 679.738 109.771C679.94 109.856 680.17 109.974 680.426 110.123C680.682 110.272 680.884 110.432 681.034 110.603C681.194 110.763 681.327 110.971 681.434 111.227C681.54 111.483 681.594 111.766 681.594 112.075C681.594 112.992 681.29 113.686 680.682 114.155C680.084 114.614 679.295 114.843 678.314 114.843Z" fill="white"/>
<g filter="url(#filter12_i)">
<circle cx="502.914" cy="120.141" r="51.5205" fill="url(#paint11_linear)"/>
</g>
<path d="M484.327 109.44C485.447 109.44 486.357 109.705 487.057 110.235C487.767 110.765 488.122 111.44 488.122 112.26C488.122 113.38 487.557 114.185 486.427 114.675C487.737 115.095 488.392 115.92 488.392 117.15C488.392 118.07 488.027 118.825 487.297 119.415C486.577 120.005 485.612 120.3 484.402 120.3C483.332 120.3 482.432 120.155 481.702 119.865C480.982 119.575 480.327 119.135 479.737 118.545L480.967 116.94C481.877 117.83 482.992 118.275 484.312 118.275C484.822 118.275 485.242 118.165 485.572 117.945C485.912 117.715 486.082 117.405 486.082 117.015C486.082 116.595 485.892 116.285 485.512 116.085C485.142 115.885 484.637 115.785 483.997 115.785H482.782V113.865H483.967C485.217 113.865 485.842 113.46 485.842 112.65C485.842 112.29 485.687 112.005 485.377 111.795C485.067 111.585 484.657 111.48 484.147 111.48C483.007 111.48 482.062 111.865 481.312 112.635L480.097 111.165C481.197 110.015 482.607 109.44 484.327 109.44ZM489.507 120.12L494.007 109.545H496.137L500.637 120.12H498.222L497.262 117.765H492.822L491.862 120.12H489.507ZM493.647 115.725H496.437L495.042 112.32L493.647 115.725ZM511.303 109.62V120.12H509.023V113.235L504.433 120.12H502.258V109.62H504.538V116.505L509.158 109.62H511.303ZM508.513 108.225C508.073 108.625 507.508 108.825 506.818 108.825C506.128 108.825 505.558 108.625 505.108 108.225C504.668 107.825 504.398 107.265 504.298 106.545L505.633 106.305C505.843 106.975 506.238 107.31 506.818 107.31C507.398 107.31 507.793 106.975 508.003 106.305L509.338 106.545C509.238 107.265 508.963 107.825 508.513 108.225ZM513.83 120.12V109.62H516.32L519.08 114.06L521.84 109.62H524.33V120.12H522.035V113.265L519.08 117.75H519.02L516.095 113.31V120.12H513.83Z" fill="#4C90DF"/>
<path d="M486.977 132.004C486.129 132.844 485.065 133.264 483.785 133.264C482.505 133.264 481.441 132.844 480.593 132.004C479.753 131.164 479.333 130.136 479.333 128.92C479.333 127.712 479.757 126.688 480.605 125.848C481.461 125 482.529 124.576 483.809 124.576C485.089 124.576 486.149 124.996 486.989 125.836C487.837 126.676 488.261 127.704 488.261 128.92C488.261 130.128 487.833 131.156 486.977 132.004ZM481.985 130.792C482.465 131.304 483.073 131.56 483.809 131.56C484.545 131.56 485.149 131.308 485.621 130.804C486.093 130.292 486.329 129.664 486.329 128.92C486.329 128.184 486.089 127.56 485.609 127.048C485.129 126.536 484.521 126.28 483.785 126.28C483.049 126.28 482.445 126.536 481.973 127.048C481.501 127.552 481.265 128.176 481.265 128.92C481.265 129.656 481.505 130.28 481.985 130.792ZM495.6 126.688V133.12H493.776V130.66H491.532V133.12H489.708V126.688H491.532V129.16H493.776V126.688H495.6ZM497.999 126.688H503.171V133.12H501.347V128.248H499.715C499.715 129.096 499.683 129.812 499.619 130.396C499.555 130.98 499.467 131.456 499.355 131.824C499.243 132.192 499.087 132.476 498.887 132.676C498.687 132.876 498.471 133.012 498.239 133.084C498.007 133.156 497.719 133.192 497.375 133.192C497.047 133.192 496.739 133.156 496.451 133.084L496.571 131.608C496.715 131.632 496.843 131.644 496.955 131.644C497.147 131.644 497.299 131.6 497.411 131.512C497.523 131.416 497.627 131.208 497.723 130.888C497.827 130.56 497.899 130.06 497.939 129.388C497.979 128.708 497.999 127.808 497.999 126.688ZM506.626 133.24C505.994 133.24 505.466 133.064 505.042 132.712C504.626 132.36 504.418 131.872 504.418 131.248C504.418 130.568 504.65 130.056 505.114 129.712C505.586 129.368 506.218 129.196 507.01 129.196C507.546 129.196 508.07 129.284 508.582 129.46V129.352C508.582 128.568 508.122 128.176 507.202 128.176C506.65 128.176 506.058 128.292 505.426 128.524L504.97 127.132C505.754 126.788 506.586 126.616 507.466 126.616C508.434 126.616 509.158 126.856 509.638 127.336C510.102 127.8 510.334 128.484 510.334 129.388V133.12H508.57V132.424C508.082 132.968 507.434 133.24 506.626 133.24ZM507.178 131.98C507.602 131.98 507.946 131.876 508.21 131.668C508.474 131.452 508.606 131.18 508.606 130.852V130.528C508.262 130.368 507.874 130.288 507.442 130.288C507.042 130.288 506.73 130.368 506.506 130.528C506.29 130.68 506.182 130.904 506.182 131.2C506.182 131.44 506.274 131.632 506.458 131.776C506.642 131.912 506.882 131.98 507.178 131.98ZM517.891 126.688V133.12H516.127V129.376L513.619 133.12H511.903V126.688H513.667V130.444L516.175 126.688H517.891ZM516.307 125.596C515.955 125.916 515.503 126.076 514.951 126.076C514.399 126.076 513.943 125.916 513.583 125.596C513.231 125.276 513.015 124.828 512.935 124.252L514.003 124.06C514.171 124.596 514.487 124.864 514.951 124.864C515.415 124.864 515.731 124.596 515.899 124.06L516.967 124.252C516.887 124.828 516.667 125.276 516.307 125.596ZM525.413 126.688V133.12H523.589V130.66H521.345V133.12H519.521V126.688H521.345V129.16H523.589V126.688H525.413Z" fill="#1F1F1F"/>
<defs>
<filter id="filter0_f" x="18.7012" y="110.467" width="677.144" height="291.1" filterUnits="userSpaceOnUse" color-interpolation-filters="sRGB">
<feFlood flood-opacity="0" result="BackgroundImageFix"/>
<feBlend mode="normal" in="SourceGraphic" in2="BackgroundImageFix" result="shape"/>
<feGaussianBlur stdDeviation="50" result="effect1_foregroundBlur"/>
</filter>
<filter id="filter1_f" x="0.617188" y="203.122" width="726.262" height="138.878" filterUnits="userSpaceOnUse" color-interpolation-filters="sRGB">
<feFlood flood-opacity="0" result="BackgroundImageFix"/>
<feBlend mode="normal" in="SourceGraphic" in2="BackgroundImageFix" result="shape"/>
<feGaussianBlur stdDeviation="10" result="effect1_foregroundBlur"/>
</filter>
<filter id="filter2_f" x="265.27" y="112.856" width="104.078" height="63.4467" filterUnits="userSpaceOnUse" color-interpolation-filters="sRGB">
<feFlood flood-opacity="0" result="BackgroundImageFix"/>
<feBlend mode="normal" in="SourceGraphic" in2="BackgroundImageFix" result="shape"/>
<feGaussianBlur stdDeviation="1" result="effect1_foregroundBlur"/>
</filter>
<filter id="filter3_f" x="522.872" y="40.1995" width="64.4467" height="142.709" filterUnits="userSpaceOnUse" color-interpolation-filters="sRGB">
<feFlood flood-opacity="0" result="BackgroundImageFix"/>
<feBlend mode="normal" in="SourceGraphic" in2="BackgroundImageFix" result="shape"/>
<feGaussianBlur stdDeviation="1" result="effect1_foregroundBlur"/>
</filter>
<filter id="filter4_f" x="602.135" y="66.6204" width="121.251" height="120.251" filterUnits="userSpaceOnUse" color-interpolation-filters="sRGB">
<feFlood flood-opacity="0" result="BackgroundImageFix"/>
<feBlend mode="normal" in="SourceGraphic" in2="BackgroundImageFix" result="shape"/>
<feGaussianBlur stdDeviation="1" result="effect1_foregroundBlur"/>
</filter>
<filter id="filter5_f" x="488.466" y="0" width="75.4502" height="75.4502" filterUnits="userSpaceOnUse" color-interpolation-filters="sRGB">
<feFlood flood-opacity="0" result="BackgroundImageFix"/>
<feBlend mode="normal" in="SourceGraphic" in2="BackgroundImageFix" result="shape"/>
<feGaussianBlur stdDeviation="1.5" result="effect1_foregroundBlur"/>
</filter>
<filter id="filter6_f" x="690.144" y="24.6682" width="68.0888" height="68.0888" filterUnits="userSpaceOnUse" color-interpolation-filters="sRGB">
<feFlood flood-opacity="0" result="BackgroundImageFix"/>
<feBlend mode="normal" in="SourceGraphic" in2="BackgroundImageFix" result="shape"/>
<feGaussianBlur stdDeviation="1.5" result="effect1_foregroundBlur"/>
</filter>
<filter id="filter7_f" x="439.146" y="44.4834" width="72.0519" height="72.0519" filterUnits="userSpaceOnUse" color-interpolation-filters="sRGB">
<feFlood flood-opacity="0" result="BackgroundImageFix"/>
<feBlend mode="normal" in="SourceGraphic" in2="BackgroundImageFix" result="shape"/>
<feGaussianBlur stdDeviation="1.5" result="effect1_foregroundBlur"/>
</filter>
<filter id="filter8_f" x="230.676" y="44.7307" width="75.4502" height="75.4502" filterUnits="userSpaceOnUse" color-interpolation-filters="sRGB">
<feFlood flood-opacity="0" result="BackgroundImageFix"/>
<feBlend mode="normal" in="SourceGraphic" in2="BackgroundImageFix" result="shape"/>
<feGaussianBlur stdDeviation="1.5" result="effect1_foregroundBlur"/>
</filter>
<filter id="filter9_i" x="233.676" y="47.7307" width="69.4502" height="69.4502" filterUnits="userSpaceOnUse" color-interpolation-filters="sRGB">
<feFlood flood-opacity="0" result="BackgroundImageFix"/>
<feBlend mode="normal" in="SourceGraphic" in2="BackgroundImageFix" result="shape"/>
<feColorMatrix in="SourceAlpha" type="matrix" values="0 0 0 0 0 0 0 0 0 0 0 0 0 0 0 0 0 0 127 0" result="hardAlpha"/>
<feOffset dy="-2"/>
<feComposite in2="hardAlpha" operator="arithmetic" k2="-1" k3="1"/>
<feColorMatrix type="matrix" values="0 0 0 0 0.875 0 0 0 0 0.875 0 0 0 0 0.875 0 0 0 1 0"/>
<feBlend mode="normal" in2="shape" result="effect1_innerShadow"/>
</filter>
<filter id="filter10_i" x="44.1592" y="35.9595" width="104.764" height="104.764" filterUnits="userSpaceOnUse" color-interpolation-filters="sRGB">
<feFlood flood-opacity="0" result="BackgroundImageFix"/>
<feBlend mode="normal" in="SourceGraphic" in2="BackgroundImageFix" result="shape"/>
<feColorMatrix in="SourceAlpha" type="matrix" values="0 0 0 0 0 0 0 0 0 0 0 0 0 0 0 0 0 0 127 0" result="hardAlpha"/>
<feOffset dy="-2"/>
<feComposite in2="hardAlpha" operator="arithmetic" k2="-1" k3="1"/>
<feColorMatrix type="matrix" values="0 0 0 0 0.875 0 0 0 0 0.875 0 0 0 0 0.875 0 0 0 1 0"/>
<feBlend mode="normal" in2="shape" result="effect1_innerShadow"/>
</filter>
<filter id="filter11_i" x="605.646" y="59.502" width="104.764" height="104.764" filterUnits="userSpaceOnUse" color-interpolation-filters="sRGB">
<feFlood flood-opacity="0" result="BackgroundImageFix"/>
<feBlend mode="normal" in="SourceGraphic" in2="BackgroundImageFix" result="shape"/>
<feColorMatrix in="SourceAlpha" type="matrix" values="0 0 0 0 0 0 0 0 0 0 0 0 0 0 0 0 0 0 127 0" result="hardAlpha"/>
<feOffset dy="-2"/>
<feComposite in2="hardAlpha" operator="arithmetic" k2="-1" k3="1"/>
<feColorMatrix type="matrix" values="0 0 0 0 0.683333 0 0 0 0 0.142361 0 0 0 0 0.38918 0 0 0 1 0"/>
<feBlend mode="normal" in2="shape" result="effect1_innerShadow"/>
</filter>
<filter id="filter12_i" x="451.394" y="68.6201" width="103.041" height="103.041" filterUnits="userSpaceOnUse" color-interpolation-filters="sRGB">
<feFlood flood-opacity="0" result="BackgroundImageFix"/>
<feBlend mode="normal" in="SourceGraphic" in2="BackgroundImageFix" result="shape"/>
<feColorMatrix in="SourceAlpha" type="matrix" values="0 0 0 0 0 0 0 0 0 0 0 0 0 0 0 0 0 0 127 0" result="hardAlpha"/>
<feOffset dy="-2"/>
<feComposite in2="hardAlpha" operator="arithmetic" k2="-1" k3="1"/>
<feColorMatrix type="matrix" values="0 0 0 0 0.875 0 0 0 0 0.875 0 0 0 0 0.875 0 0 0 1 0"/>
<feBlend mode="normal" in2="shape" result="effect1_innerShadow"/>
</filter>
<linearGradient id="paint0_linear" x1="24.7363" y1="301.989" x2="364.337" y2="301.989" gradientUnits="userSpaceOnUse">
<stop stop-color="#0A5FB1"/>
<stop offset="0.046875" stop-color="#3890E6"/>
</linearGradient>
<linearGradient id="paint1_linear" x1="715.118" y1="217.824" x2="702.17" y2="283.743" gradientUnits="userSpaceOnUse">
<stop stop-color="#3F50E8"/>
<stop offset="1" stop-color="#2231BD"/>
</linearGradient>
<linearGradient id="paint2_linear" x1="702.171" y1="291.983" x2="374.931" y2="290.217" gradientUnits="userSpaceOnUse">
<stop stop-color="#1F2EB8"/>
<stop offset="0.0572917" stop-color="#3F50E8"/>
<stop offset="1" stop-color="#3F50E8"/>
</linearGradient>
<linearGradient id="paint3_linear" x1="526.191" y1="3" x2="526.191" y2="72.4502" gradientUnits="userSpaceOnUse">
<stop stop-color="#BCFF66"/>
<stop offset="1" stop-color="#CDE343"/>
</linearGradient>
<linearGradient id="paint4_linear" x1="724.188" y1="27.6682" x2="724.188" y2="89.757" gradientUnits="userSpaceOnUse">
<stop stop-color="#66FFC8"/>
<stop offset="1" stop-color="#43C7E3"/>
</linearGradient>
<linearGradient id="paint5_linear" x1="268.401" y1="47.7307" x2="268.401" y2="117.181" gradientUnits="userSpaceOnUse">
<stop stop-color="white"/>
<stop offset="1" stop-color="#F5F5F5"/>
</linearGradient>
<linearGradient id="paint6_linear" x1="96.5411" y1="35.9595" x2="96.5411" y2="140.723" gradientUnits="userSpaceOnUse">
<stop stop-color="white"/>
<stop offset="1" stop-color="#F5F5F5"/>
</linearGradient>
<linearGradient id="paint7_linear" x1="138.308" y1="105.491" x2="138.308" y2="153.049" gradientUnits="userSpaceOnUse">
<stop stop-color="#B9E671"/>
<stop offset="1" stop-color="#4FB035"/>
</linearGradient>
<linearGradient id="paint8_linear" x1="384.02" y1="26.3469" x2="384.02" y2="150.525" gradientUnits="userSpaceOnUse">
<stop stop-color="#506BFA"/>
<stop offset="1" stop-color="#1F1CB8"/>
</linearGradient>
<linearGradient id="paint9_linear" x1="427.615" y1="109.572" x2="427.615" y2="157.13" gradientUnits="userSpaceOnUse">
<stop stop-color="#B9E671"/>
<stop offset="1" stop-color="#4FB035"/>
</linearGradient>
<linearGradient id="paint10_linear" x1="658.028" y1="59.502" x2="658.028" y2="164.266" gradientUnits="userSpaceOnUse">
<stop stop-color="#FF6694"/>
<stop offset="1" stop-color="#E34390"/>
</linearGradient>
<linearGradient id="paint11_linear" x1="502.914" y1="68.6201" x2="502.914" y2="171.661" gradientUnits="userSpaceOnUse">
<stop stop-color="white"/>
<stop offset="1" stop-color="#F5F5F5"/>
</linearGradient>
</defs>
</svg>
