<svg width="45" height="45" viewBox="0 0 45 45" fill="none" xmlns="http://www.w3.org/2000/svg">
<path d="M28.9174 5.56056C28.4651 2.3907 25.706 0 22.4997 0C20.4377 0 18.4794 0.995025 17.2618 2.66263C17.0131 3.00273 17.0875 3.47979 17.4276 3.72849C17.7665 3.9763 18.2447 3.90278 18.493 3.56225C19.425 2.28701 20.9226 1.5255 22.4994 1.5255C24.9516 1.5255 27.0612 3.35287 27.4071 5.77575C27.4616 6.15628 27.7881 6.4309 28.1615 6.4309C28.197 6.4309 28.2336 6.42822 28.2701 6.4233C28.687 6.36364 28.9768 5.9773 28.9174 5.56056Z" fill="#889DBD"/>
<path d="M8.63037 4.31503L9.86325 14.178H15.103L14.4865 11.4041L22.192 9.24654L21.2674 3.08215L8.63037 4.31503Z" fill="#FF9D9D"/>
<path d="M14.4863 11.0959L15.1028 14.4863H28.048L26.5069 8.01367L14.4863 11.0959Z" fill="#EAEC7D"/>
<path d="M25.2738 5.23975L24.3491 8.32194H26.5067L28.0478 14.1781L33.5957 14.7945L35.1368 7.39728L25.2738 5.23975Z" fill="#C6E3FF"/>
<path d="M39.9331 14.0988L37.6449 10.2852C37.5073 10.0552 37.259 9.91492 36.9909 9.91492H34.7982C34.3772 9.91492 34.0355 10.2566 34.0355 10.6776C34.0355 11.0985 34.3772 11.4402 34.7982 11.4402H36.5592L37.9321 13.7283H7.06663L8.43951 11.4402H9.24728C9.66826 11.4402 10.0099 11.0985 10.0099 10.6776C10.0099 10.2566 9.66826 9.91492 9.24728 9.91492H8.0078C7.73966 9.91492 7.49141 10.0552 7.35376 10.2852L5.06563 14.0988C4.92419 14.3348 4.92083 14.6282 5.05602 14.8672C5.19121 15.1063 5.4446 15.2543 5.71967 15.2543H39.279C39.5541 15.2543 39.8073 15.1063 39.9427 14.8672C40.0781 14.6282 40.0745 14.3343 39.9331 14.0988Z" fill="#889DBD"/>
<path d="M36.1315 7.06613C36.0247 6.89385 35.8542 6.77163 35.6572 6.72559L25.2598 4.29378C25.0629 4.24753 24.8556 4.28194 24.6835 4.3883C24.5119 4.49511 24.3895 4.66561 24.3434 4.86269L23.5593 8.21444C23.4632 8.62448 23.718 9.03473 24.1282 9.13037C24.5383 9.22645 24.949 8.97172 25.0446 8.56146L25.6551 5.95268L34.5669 8.03725L33.1666 14.0246C33.0705 14.4346 33.3252 14.8449 33.7355 14.9405C33.7943 14.9542 33.8526 14.9606 33.9102 14.9606C34.2566 14.9606 34.5701 14.7233 34.6516 14.3718L36.2258 7.64196C36.2723 7.4451 36.2384 7.23774 36.1315 7.06613Z" fill="#889DBD"/>
<path d="M22.903 8.86922L22.208 2.99135C22.1844 2.79047 22.0818 2.60702 21.9227 2.48189C21.7636 2.35675 21.5627 2.29955 21.3609 2.32324L8.60416 3.83108C8.18608 3.88069 7.8871 4.25966 7.93649 4.67818L9.09508 14.4816C9.14111 14.8698 9.47025 15.1551 9.85168 15.1551C9.8814 15.1551 9.91201 15.1531 9.9424 15.1497C10.3603 15.1001 10.6592 14.7212 10.6101 14.3026L9.54086 5.25602L20.7829 3.92739L21.388 9.04775C21.4376 9.46605 21.8148 9.76324 22.2351 9.71587C22.6532 9.66671 22.9521 9.28752 22.903 8.86922Z" fill="#889DBD"/>
<path d="M28.9352 14.2017L27.4213 7.90616C27.3739 7.70975 27.2503 7.53971 27.0781 7.43401C26.9058 7.32922 26.6991 7.29637 26.5013 7.34329L14.2145 10.2982C13.8049 10.3965 13.5528 10.8086 13.6511 11.2181L14.4077 14.3648C14.5061 14.7748 14.9181 15.0271 15.3275 14.9281C15.7371 14.8298 15.9891 14.4177 15.8908 14.0081L15.3123 11.6029L26.1161 9.00509L27.4517 14.5587C27.5355 14.9084 27.8483 15.1431 28.1926 15.1431C28.2518 15.1431 28.3117 15.1361 28.3718 15.1216C28.7814 15.0231 29.0335 14.6112 28.9352 14.2017Z" fill="#889DBD"/>
<path d="M40.0414 14.4525C40.0204 14.0472 39.6857 13.729 39.2794 13.729H5.72011C5.31387 13.729 4.97915 14.047 4.95814 14.4525L3.43265 44.1983C3.42192 44.407 3.49745 44.6112 3.64135 44.7627C3.78547 44.914 3.98524 45 4.19439 45H40.8045C41.0134 45 41.2134 44.9142 41.3582 44.7627C41.5019 44.6112 41.5774 44.4072 41.5669 44.1983L40.0414 14.4525ZM4.99702 43.4745L6.44431 15.2543H38.5544L40.0016 43.4745H4.99702Z" fill="#889DBD"/>
<path d="M28.2198 16.7795C26.9579 16.7795 25.9316 17.8058 25.9316 19.0677C25.9316 20.3295 26.9579 21.3558 28.2198 21.3558C29.4816 21.3558 30.5079 20.3295 30.5079 19.0677C30.5079 17.8058 29.4816 16.7795 28.2198 16.7795ZM28.2198 19.8305C27.799 19.8305 27.4571 19.4884 27.4571 19.0679C27.4571 18.6474 27.7992 18.3053 28.2198 18.3053C28.6403 18.3053 28.9824 18.6474 28.9824 19.0679C28.9824 19.4884 28.6403 19.8305 28.2198 19.8305Z" fill="#889DBD"/>
<path d="M16.7793 16.7795C15.5175 16.7795 14.4912 17.8058 14.4912 19.0677C14.4912 20.3295 15.5175 21.3558 16.7793 21.3558C18.0412 21.3558 19.0675 20.3295 19.0675 19.0677C19.0675 17.8058 18.0412 16.7795 16.7793 16.7795ZM16.7793 19.8305C16.3588 19.8305 16.0167 19.4884 16.0167 19.0679C16.0167 18.6474 16.3588 18.3053 16.7793 18.3053C17.1999 18.3053 17.542 18.6474 17.542 19.0679C17.542 19.4884 17.1999 19.8305 16.7793 19.8305Z" fill="#889DBD"/>
<path d="M28.2199 19.0677H28.1611C27.7401 19.0677 27.3985 19.4094 27.3985 19.8304C27.3985 19.9345 27.4191 20.0339 27.4573 20.1244V24.0252C27.4573 26.7587 25.2333 28.9829 22.4996 28.9829C19.7659 28.9829 17.5419 26.7589 17.5419 24.0252V19.8306C17.5419 19.4096 17.2002 19.068 16.7792 19.068C16.3583 19.068 16.0166 19.4096 16.0166 19.8306V24.0254C16.0166 27.6002 18.9248 30.5084 22.4996 30.5084C26.0743 30.5084 28.9825 27.6002 28.9825 24.0254V19.8306C28.9825 19.4096 28.6409 19.0677 28.2199 19.0677Z" fill="#889DBD"/>
</svg>
