<svg width="45" height="45" viewBox="0 0 45 45" fill="none" xmlns="http://www.w3.org/2000/svg">
<path d="M31.7632 0H13.2372C10.8039 0 8.82373 1.98316 8.82373 4.42037V40.5796C8.82373 43.0169 10.8038 45 13.2372 45H31.7632C34.1965 45 36.1767 43.0168 36.1767 40.5796V4.42037C36.1767 1.98316 34.1965 0 31.7632 0ZM34.4119 40.5796C34.4119 42.0441 33.2237 43.2353 31.7632 43.2353H13.2372C11.7767 43.2353 10.5885 42.0441 10.5885 40.5796V4.42037C10.5885 2.95594 11.7768 1.76467 13.2372 1.76467H31.7632C33.2237 1.76467 34.4119 2.95594 34.4119 4.42037V40.5796Z" fill="#889DBD"/>
<path d="M26.4704 3.52942H21.1763V5.29409H26.4704V3.52942Z" fill="#889DBD"/>
<path d="M19.4117 3.52942H16.7646V5.29409H19.4117V3.52942Z" fill="#889DBD"/>
<path d="M22.4998 36.1765C20.7972 36.1765 19.4116 37.5621 19.4116 39.2647C19.4116 40.9673 20.7972 42.3529 22.4998 42.3529C24.2025 42.3529 25.588 40.9673 25.588 39.2647C25.588 37.562 24.2025 36.1765 22.4998 36.1765ZM22.4998 40.5883C21.77 40.5883 21.1763 39.9946 21.1763 39.2647C21.1763 38.5349 21.77 37.9412 22.4998 37.9412C23.2297 37.9412 23.8234 38.5349 23.8234 39.2647C23.8234 39.9946 23.2297 40.5883 22.4998 40.5883Z" fill="#889DBD"/>
<rect x="14.1431" y="14.1428" width="7.71429" height="7.71429" rx="3" fill="#C4C4C4"/>
<rect x="14.8931" y="14.8928" width="6.21429" height="6.21429" rx="2.25" stroke="#889DBD" stroke-width="1.5"/>
<rect x="23.1431" y="14.1428" width="7.71429" height="7.71429" rx="3" fill="#FFAFAF"/>
<rect x="23.8931" y="14.8928" width="6.21429" height="6.21429" rx="2.25" stroke="#889DBD" stroke-width="1.5"/>
<rect x="14.1431" y="23.1428" width="7.71429" height="7.71429" rx="3" fill="#82FF6D"/>
<rect x="14.8931" y="23.8928" width="6.21429" height="6.21429" rx="2.25" stroke="#889DBD" stroke-width="1.5"/>
<rect x="23.1431" y="23.1428" width="7.71429" height="7.71429" rx="3" fill="#FDFF8F"/>
<rect x="23.8931" y="23.8928" width="6.21429" height="6.21429" rx="2.25" stroke="#889DBD" stroke-width="1.5"/>
</svg>
