<svg width="34" height="45" viewBox="0 0 34 45" fill="none" xmlns="http://www.w3.org/2000/svg">
<path d="M1.18408 9.17759H28.1249V3.55259L26.9407 1.48022H23.9801H8.28935L3.25645 4.1447L1.18408 9.17759Z" fill="#FFE2C0"/>
<path fill-rule="evenodd" clip-rule="evenodd" d="M11.25 1.77632H24.8684C26.5035 1.77632 27.8289 3.10179 27.8289 4.73684V26.8725L29.6053 27.419V4.73684C29.6053 2.12076 27.4845 0 24.8684 0H11.25C5.0368 0 0 5.0368 0 11.25V36.7105C0 39.3266 2.12076 41.4474 4.73684 41.4474H17.8689L17.3297 39.6711H4.73684C3.10179 39.6711 1.77632 38.3456 1.77632 36.7105V11.25C1.77632 6.01783 6.01783 1.77632 11.25 1.77632Z" fill="#889DBD"/>
<path d="M26.6448 45C26.5264 45 26.408 44.9772 26.2967 44.9315C26.0219 44.8185 19.5396 42.0961 19.5396 36.4972V31.9089C19.5396 31.5423 19.7811 31.2168 20.1423 31.0981L26.3594 29.0586C26.5442 28.9981 26.7455 28.9981 26.9302 29.0586L33.1473 31.0981C33.5085 31.2168 33.7501 31.5423 33.7501 31.9089V36.4972C33.7501 42.0961 27.2677 44.8185 26.993 44.9327C26.8817 44.9772 26.7632 45 26.6448 45ZM21.3159 32.5221V36.496C21.3159 40.3021 25.4085 42.5905 26.6448 43.1935C27.8811 42.5905 31.9738 40.3021 31.9738 36.496V32.5221L26.6448 30.7738L21.3159 32.5221Z" fill="#FFF59A"/>
<path d="M26.3489 40.2632C26.1144 40.2632 25.887 40.1708 25.7212 40.0026L23.3525 37.6342C23.0055 37.2872 23.0055 36.7247 23.3525 36.3777C23.6996 36.0307 24.2621 36.0307 24.6091 36.3777L26.2542 38.0226L29.1914 34.1052C29.4827 33.7132 30.0417 33.6327 30.4349 33.9287C30.827 34.2224 30.9063 34.779 30.6114 35.1722L27.0584 39.9091C26.9044 40.1151 26.6687 40.243 26.4105 40.262C26.3904 40.262 26.3703 40.2632 26.3489 40.2632Z" fill="#FFF59A"/>
<path d="M6.51318 16.875C6.51318 16.3845 6.91083 15.9868 7.40134 15.9868H22.204C22.6945 15.9868 23.0921 16.3845 23.0921 16.875C23.0921 17.3655 22.6945 17.7631 22.204 17.7631H7.40134C6.91083 17.7631 6.51318 17.3655 6.51318 16.875Z" fill="#889DBD"/>
<path d="M6.51318 32.8618C6.51318 32.3713 6.91083 31.9736 7.40134 31.9736H10.3619C10.8524 31.9736 11.25 32.3713 11.25 32.8618C11.25 33.3523 10.8524 33.7499 10.3619 33.7499H7.40134C6.91083 33.7499 6.51318 33.3523 6.51318 32.8618Z" fill="#C6E7FF"/>
<path d="M6.51318 21.6118C6.51318 21.1213 6.91083 20.7236 7.40134 20.7236H22.204C22.6945 20.7236 23.0921 21.1213 23.0921 21.6118C23.0921 22.1023 22.6945 22.4999 22.204 22.4999H7.40134C6.91083 22.4999 6.51318 22.1023 6.51318 21.6118Z" fill="#889DBD"/>
<path d="M6.51318 26.3487C6.51318 25.8582 6.91083 25.4606 7.40134 25.4606H22.204C22.6945 25.4606 23.0921 25.8582 23.0921 26.3487C23.0921 26.8392 22.6945 27.2369 22.204 27.2369H7.40134C6.91083 27.2369 6.51318 26.8392 6.51318 26.3487Z" fill="#889DBD"/>
</svg>
