<svg width="45" height="45" viewBox="0 0 45 45" fill="none" xmlns="http://www.w3.org/2000/svg">
<path d="M40.3125 0H4.68747C2.09997 0.00307617 0.00307617 2.09997 0 4.68747V40.3124C0.00307617 42.9 2.09997 44.9969 4.68747 45H40.3124C42.9 44.9969 44.9968 42.9 44.9999 40.3125V4.68747C44.9969 2.09997 42.9 0.00307617 40.3125 0ZM43.125 40.3125C43.125 41.8658 41.8658 43.125 40.3125 43.125H4.68747C3.13418 43.125 1.87497 41.8658 1.87497 40.3125V4.68747C1.87497 3.13418 3.13418 1.87497 4.68747 1.87497H40.3124C41.8657 1.87497 43.1249 3.13418 43.1249 4.68747V40.3125H43.125Z" fill="#889DBD"/>
<path d="M41.25 7.5H3.75V9.37497H41.25V7.5Z" fill="#889DBD"/>
<path d="M6.56247 3.75H4.6875V5.62497H6.56247V3.75Z" fill="#FF9494"/>
<path d="M10.3125 3.75H8.4375V5.62497H10.3125V3.75Z" fill="#9FFF8F"/>
<path d="M40.3125 3.75H38.4375V5.62497H40.3125V3.75Z" fill="#889DBD"/>
<rect x="7.71436" y="14.1429" width="29.5714" height="5.78571" fill="#C4CFFA"/>
<path d="M36.5625 13.125H8.43747C7.40194 13.125 6.5625 13.9644 6.5625 15V18.75C6.5625 19.7855 7.40194 20.625 8.43747 20.625H36.5625C37.598 20.625 38.4375 19.7855 38.4375 18.75V15C38.4375 13.9645 37.598 13.125 36.5625 13.125ZM36.5625 18.75H8.43747V15H36.5625V18.75Z" fill="#889DBD"/>
<rect x="7.71436" y="24.4286" width="29.5714" height="5.78571" fill="#C4CFFA"/>
<path d="M36.5625 23.4375H8.43747C7.40194 23.4375 6.5625 24.2769 6.5625 25.3125V29.0625C6.5625 30.098 7.40194 30.9375 8.43747 30.9375H36.5625C37.598 30.9375 38.4375 30.098 38.4375 29.0625V25.3125C38.4375 24.2769 37.598 23.4375 36.5625 23.4375ZM36.5625 29.0625H8.43747V25.3125H36.5625V29.0625Z" fill="#889DBD"/>
<path d="M15.0001 33.75H7.50003C6.98227 33.75 6.5625 34.1698 6.5625 34.6875V37.5C6.56259 38.5356 7.40203 39.375 8.43756 39.375H14.0626C15.0981 39.375 15.9375 38.5356 15.9375 37.5V34.6875C15.9375 34.1698 15.5179 33.75 15.0001 33.75ZM14.0626 37.5H8.43756V35.6251H14.0626V37.5Z" fill="#889DBD"/>
<path d="M26.25 33.75H18.75C18.2323 33.75 17.8125 34.1698 17.8125 34.6875V37.5C17.8125 38.5356 18.6519 39.375 19.6875 39.375H25.3125C26.348 39.375 27.1874 38.5356 27.1874 37.5V34.6875C27.1874 34.1698 26.7678 33.75 26.25 33.75ZM25.3125 37.5H19.6875V35.6251H25.3125V37.5Z" fill="#889DBD"/>
<path d="M38.4375 33.75H36.5625V35.625H38.4375V33.75Z" fill="#889DBD"/>
<path d="M34.6875 33.75H32.8125V35.625H34.6875V33.75Z" fill="#889DBD"/>
<path d="M38.4375 37.5H30V39.375H38.4375V37.5Z" fill="#889DBD"/>
</svg>
