<svg width="45" height="45" viewBox="0 0 45 45" fill="none" xmlns="http://www.w3.org/2000/svg">
<path d="M3.4375 30.9375L30.625 3.4375L34.6875 7.8125L7.1875 34.6875L3.4375 30.9375Z" fill="#80F58C"/>
<path d="M43.8055 15.4429L29.5561 1.19374C28.7869 0.424609 27.7611 0.000976562 26.6676 0.000976562C25.5742 0.000976562 24.5483 0.424434 23.7791 1.19356L1.19276 23.78C0.423633 24.5492 0 25.5749 0 26.6684C0 27.7619 0.423633 28.7878 1.19276 29.5568L2.94987 31.3139C2.95005 31.314 2.95014 31.3142 2.95031 31.3144C2.95049 31.3146 2.95066 31.3147 2.95084 31.3149L14.7598 43.1239H13.1247C12.607 43.1239 12.1873 43.5436 12.1873 44.0613C12.1873 44.579 12.607 44.9988 13.1247 44.9988H18.3269C18.3281 44.9988 18.3292 44.9989 18.3305 44.9989C18.3317 44.9989 18.3328 44.9988 18.3341 44.9988L31.8739 44.999C32.3916 44.999 32.8113 44.5792 32.8113 44.0615C32.8113 43.5438 32.3916 43.1241 31.8739 43.1241L21.9015 43.1239L43.8056 21.2198C45.3981 19.627 45.3981 17.0355 43.8055 15.4429ZM42.4797 19.8941L19.8933 42.4805C19.479 42.8947 18.9253 43.123 18.3339 43.1239H18.3268C17.7355 43.1229 17.182 42.8947 16.768 42.4805L4.93901 30.6515L26.63 8.96037C26.996 8.59431 26.996 8.00069 26.63 7.63463C26.2638 7.26856 25.6704 7.26856 25.3042 7.63472L3.61318 29.3259L2.51842 28.2311C2.10349 27.8162 1.87497 27.2612 1.87497 26.6685C1.87497 26.0758 2.10349 25.5207 2.51851 25.1057L25.1048 2.51939C25.5198 2.10446 26.0749 1.87595 26.6676 1.87595C27.2603 1.87595 27.8154 2.10446 28.2304 2.51948L33.3019 7.59095L11.6107 29.2824C11.2446 29.6483 11.2446 30.2419 11.6107 30.6082C11.7938 30.7912 12.0337 30.8827 12.2736 30.8827C12.5134 30.8827 12.7534 30.7911 12.9364 30.6081L34.6277 8.91678L42.4797 16.7686C43.3413 17.6303 43.3412 19.0324 42.4797 19.8941Z" fill="#889DBD"/>
<path d="M23.0975 27.0759C22.7314 26.7098 22.138 26.7099 21.7717 27.0759L14.3947 34.4528C14.0286 34.8189 14.0286 35.4124 14.3947 35.7787C14.5777 35.9617 14.8177 36.0532 15.0575 36.0532C15.2974 36.0532 15.5373 35.9616 15.7204 35.7787L23.0974 28.4017C23.4636 28.0355 23.4636 27.442 23.0975 27.0759Z" fill="#FFF735"/>
<path d="M20.0722 34.0788L17.0465 37.1044C16.6805 37.4705 16.6805 38.0641 17.0465 38.4303C17.2296 38.6133 17.4695 38.7048 17.7094 38.7048C17.9494 38.7048 18.1892 38.6133 18.3723 38.4303L21.3979 35.4046C21.764 35.0386 21.764 34.445 21.3979 34.0788C21.0318 33.7127 20.4385 33.7127 20.0722 34.0788Z" fill="#FFF735"/>
<path d="M22.8564 31.2948L22.4587 31.6924C22.0926 32.0584 22.0926 32.652 22.4586 33.0182C22.6416 33.2013 22.8816 33.2929 23.1215 33.2929C23.3613 33.2929 23.6013 33.2013 23.7843 33.0182L24.182 32.6206C24.5481 32.2545 24.5481 31.661 24.1821 31.2949C23.8162 30.9288 23.2225 30.9287 22.8564 31.2948Z" fill="#889DBD"/>
<path d="M35.778 14.3959C35.6022 14.2201 35.3638 14.1213 35.1151 14.1213C34.8665 14.1213 34.6281 14.2201 34.4523 14.3959L30.4748 18.3733C30.299 18.5492 30.2002 18.7875 30.2002 19.0362C30.2002 19.2848 30.299 19.5233 30.4748 19.6991L33.1264 22.3504C33.3095 22.5335 33.5494 22.625 33.7893 22.625C34.0293 22.625 34.2691 22.5334 34.4522 22.3504L38.4295 18.3732C38.7955 18.0072 38.7955 17.4135 38.4295 17.0475L35.778 14.3959ZM33.7892 20.3619L32.4634 19.0362L35.115 16.3846L36.4408 17.7104L33.7892 20.3619Z" fill="#F2FFBF"/>
<path d="M28.1547 7.04757C28.3948 7.04757 28.6347 6.95598 28.8177 6.77282L29.2154 6.37494C29.5814 6.00879 29.5813 5.41517 29.2151 5.0492C28.8491 4.68322 28.2554 4.68331 27.8894 5.04946L27.4917 5.44734C27.1257 5.81349 27.1258 6.40711 27.492 6.77308C27.675 6.95616 27.9148 7.04757 28.1547 7.04757Z" fill="#889DBD"/>
<path d="M9.42323 31.4698L9.02553 31.8675C8.65946 32.2335 8.65946 32.8271 9.02553 33.1933C9.2086 33.3763 9.44854 33.4678 9.6884 33.4678C9.92825 33.4678 10.1682 33.3763 10.3513 33.1933L10.749 32.7956C11.115 32.4295 11.115 31.8359 10.749 31.4698C10.3828 31.1037 9.78938 31.1037 9.42323 31.4698Z" fill="#889DBD"/>
</svg>
