<svg width="156" height="262" viewBox="0 0 156 262" fill="none" xmlns="http://www.w3.org/2000/svg">
<path d="M119.785 262H52.5143C52.2713 260.315 52.1498 258.582 52.1498 256.8C52.1498 247.467 55.4831 239.467 62.1498 232.8C68.8164 226.133 76.8164 222.8 86.1498 222.8C95.4831 222.8 103.483 226.133 110.15 232.8C116.816 239.467 120.15 247.467 120.15 256.8C120.15 258.582 120.028 260.315 119.785 262Z" fill="url(#paint0_linear_1418_167)"/>
<path d="M155.55 22.3123V136.252C149.598 142.397 143.531 148.313 137.35 154C130.95 159.867 125.35 166 120.55 172.4C120.414 172.592 120.28 172.784 120.148 172.976C113.893 182.08 104.795 191.6 93.7498 191.6H78.5498C67.5041 191.6 58.2425 182.396 61.9515 171.992C63.649 167.23 65.9818 162.566 68.9498 158C76.1498 147.333 83.8831 138.8 92.1498 132.4C100.416 125.733 108.016 118 114.95 109.2C122.15 100.4 125.75 91.6 125.75 82.8C125.75 73.4667 122.55 66.2667 116.15 61.2C109.75 56.1333 100.816 53.6 89.3498 53.6C74.4934 53.6 62.511 58.8198 53.4023 69.2594C45.3677 78.4681 32.2326 83.7155 21.6439 77.6136L9.64365 70.6982C0.991978 65.7125 -2.8634 54.9583 2.38423 46.4629C10.0238 34.0953 20.0789 24.0744 32.5498 16.4C50.1498 5.46667 69.7498 0 91.3498 0C115.616 0 136.55 7.06667 154.15 21.2C154.623 21.5671 155.089 21.9378 155.55 22.3123Z" fill="url(#paint1_linear_1418_167)"/>
<defs>
<linearGradient id="paint0_linear_1418_167" x1="87.7498" y1="0" x2="87.7498" y2="290.8" gradientUnits="userSpaceOnUse">
<stop stop-color="#F7FAFF"/>
<stop offset="1" stop-color="#EEF2F8"/>
</linearGradient>
<linearGradient id="paint1_linear_1418_167" x1="87.7498" y1="0" x2="87.7498" y2="290.8" gradientUnits="userSpaceOnUse">
<stop stop-color="#F7FAFF"/>
<stop offset="1" stop-color="#EEF2F8"/>
</linearGradient>
</defs>
</svg>
