<svg width="332" height="44" viewBox="0 0 332 44" fill="none" xmlns="http://www.w3.org/2000/svg">
<path d="M65.5942 18.7889C65.5942 18.7889 57.8626 22.8208 55.4632 22.3728C53.0637 21.9248 43.8025 12.611 41.9704 12.8174C40.1384 13.0239 42.1329 17.8033 40.5333 17.4449C36.8714 16.6985 35.0791 13.9225 33.8304 10.6326C32.5818 7.34267 31.2272 6.47671 29.878 6.39255C28.5288 6.30839 28.3235 12.6053 27.5585 13.1441C26.7935 13.683 24.3811 12.208 23.9508 9.69684C23.3302 6.07531 22.5917 1.49087 21.6142 1.22207C20.6366 0.953272 20.1824 4.09467 18.4939 3.91547C16.8054 3.73628 11.1331 -0.0694302 10.0667 0.109771C9.00024 0.288961 9.42933 1.4067 8.00744 1.6755C6.58554 1.94429 0.187019 0.958707 0.187019 0.958707C0.187019 0.958707 5.78573 4.27386 8.89612 7.05142C12.0065 9.82899 25.4256 22.1936 32.8906 24.4336C40.3555 26.6736 46.5763 27.032 49.8644 26.136C53.1526 25.24 64.5277 19.8641 64.5277 19.8641L65.5942 18.7889Z" fill="url(#paint0_linear)"/>
<path d="M63.0612 22.8657C63.0612 22.8657 58.7637 26.712 50.5752 29.944C42.3866 33.1759 38.7993 32.2658 35.2809 33.3781C31.7624 34.4904 29.8613 37.65 28.8805 36.8508C27.8292 35.994 31.0609 32.4482 29.3693 30.9372C27.6776 29.4262 19.4789 35.7909 18.4124 34.0886C17.346 32.3862 21.0709 29.4064 19.5601 27.928C18.0493 26.4496 8.80702 28.0624 9.29579 26.136C9.78457 24.2096 13.3577 25.3763 12.8061 23.0001C12.2545 20.6238 5.1603 20.083 5.65535 18.0811C6.1504 16.0792 7.04739 13.2836 5.64895 11.0041C4.25059 8.72463 1.70187 4.91118 1.7419 4.90109C1.7419 4.90109 11.2953 11.7554 16.894 16.5041C22.4927 21.2529 27.4693 25.6432 33.6012 27.3008C39.7331 28.9584 46.6204 29.272 50.8417 28.1072C55.0629 26.9424 63.0611 22.8657 63.0611 22.8657H63.0612Z" fill="url(#paint1_linear)"/>
<path d="M82.635 35.585C79.605 35.585 77.025 34.895 74.895 33.515C72.795 32.135 71.325 30.245 70.485 27.845L74.94 25.235C76.2 28.775 78.81 30.545 82.77 30.545C84.72 30.545 86.175 30.17 87.135 29.42C88.125 28.64 88.62 27.635 88.62 26.405C88.62 25.115 88.095 24.14 87.045 23.48C85.995 22.79 84.135 22.04 81.465 21.23C79.965 20.78 78.75 20.36 77.82 19.97C76.89 19.58 75.9 19.04 74.85 18.35C73.83 17.63 73.065 16.745 72.555 15.695C72.045 14.645 71.79 13.415 71.79 12.005C71.79 9.21499 72.78 7.00999 74.76 5.38999C76.74 3.73999 79.125 2.91499 81.915 2.91499C84.435 2.91499 86.64 3.52999 88.53 4.75999C90.42 5.98999 91.875 7.68499 92.895 9.84499L88.53 12.365C87.21 9.42499 85.005 7.95499 81.915 7.95499C80.415 7.95499 79.215 8.31499 78.315 9.03499C77.415 9.72499 76.965 10.67 76.965 11.87C76.965 13.04 77.415 13.97 78.315 14.66C79.245 15.32 80.91 16.025 83.31 16.775C84.51 17.165 85.38 17.465 85.92 17.675C86.49 17.855 87.27 18.155 88.26 18.575C89.28 18.995 90.045 19.415 90.555 19.835C91.065 20.255 91.605 20.78 92.175 21.41C92.775 22.04 93.195 22.76 93.435 23.57C93.675 24.38 93.795 25.295 93.795 26.315C93.795 29.165 92.76 31.43 90.69 33.11C88.65 34.76 85.965 35.585 82.635 35.585Z" fill="#434343"/>
<path d="M117.724 12.5H122.584V35H117.724V31.76C115.894 34.31 113.269 35.585 109.849 35.585C106.759 35.585 104.119 34.445 101.929 32.165C99.7388 29.855 98.6438 27.05 98.6438 23.75C98.6438 20.42 99.7388 17.615 101.929 15.335C104.119 13.055 106.759 11.915 109.849 11.915C113.269 11.915 115.894 13.175 117.724 15.695V12.5ZM105.529 28.925C106.879 30.275 108.574 30.95 110.614 30.95C112.654 30.95 114.349 30.275 115.699 28.925C117.049 27.545 117.724 25.82 117.724 23.75C117.724 21.68 117.049 19.97 115.699 18.62C114.349 17.24 112.654 16.55 110.614 16.55C108.574 16.55 106.879 17.24 105.529 18.62C104.179 19.97 103.504 21.68 103.504 23.75C103.504 25.82 104.179 27.545 105.529 28.925Z" fill="#434343"/>
<path d="M129.598 35V2.14999H134.458V35H129.598Z" fill="#434343"/>
<path d="M145.276 25.82C145.636 27.53 146.461 28.85 147.751 29.78C149.041 30.68 150.616 31.13 152.476 31.13C155.056 31.13 156.991 30.2 158.281 28.34L162.286 30.68C160.066 33.95 156.781 35.585 152.431 35.585C148.771 35.585 145.816 34.475 143.566 32.255C141.316 30.005 140.191 27.17 140.191 23.75C140.191 20.39 141.301 17.585 143.521 15.335C145.741 13.055 148.591 11.915 152.071 11.915C155.371 11.915 158.071 13.07 160.171 15.38C162.301 17.69 163.366 20.495 163.366 23.795C163.366 24.305 163.306 24.98 163.186 25.82H145.276ZM145.231 21.86H158.461C158.131 20.03 157.366 18.65 156.166 17.72C154.996 16.79 153.616 16.325 152.026 16.325C150.226 16.325 148.726 16.82 147.526 17.81C146.326 18.8 145.561 20.15 145.231 21.86Z" fill="#434343"/>
<path d="M186.681 12.5H191.541V35H186.681V31.76C184.851 34.31 182.226 35.585 178.806 35.585C175.716 35.585 173.076 34.445 170.886 32.165C168.696 29.855 167.601 27.05 167.601 23.75C167.601 20.42 168.696 17.615 170.886 15.335C173.076 13.055 175.716 11.915 178.806 11.915C182.226 11.915 184.851 13.175 186.681 15.695V12.5ZM174.486 28.925C175.836 30.275 177.531 30.95 179.571 30.95C181.611 30.95 183.306 30.275 184.656 28.925C186.006 27.545 186.681 25.82 186.681 23.75C186.681 21.68 186.006 19.97 184.656 18.62C183.306 17.24 181.611 16.55 179.571 16.55C177.531 16.55 175.836 17.24 174.486 18.62C173.136 19.97 172.461 21.68 172.461 23.75C172.461 25.82 173.136 27.545 174.486 28.925Z" fill="#434343"/>
<path d="M216.376 2.15H221.236V35H216.376V31.76C214.546 34.31 211.921 35.585 208.501 35.585C205.411 35.585 202.771 34.445 200.581 32.165C198.391 29.855 197.296 27.05 197.296 23.75C197.296 20.42 198.391 17.615 200.581 15.335C202.771 13.055 205.411 11.915 208.501 11.915C211.921 11.915 214.546 13.175 216.376 15.695V2.15ZM204.181 28.925C205.531 30.275 207.226 30.95 209.266 30.95C211.306 30.95 213.001 30.275 214.351 28.925C215.701 27.545 216.376 25.82 216.376 23.75C216.376 21.68 215.701 19.97 214.351 18.62C213.001 17.24 211.306 16.55 209.266 16.55C207.226 16.55 205.531 17.24 204.181 18.62C202.831 19.97 202.156 21.68 202.156 23.75C202.156 25.82 202.831 27.545 204.181 28.925Z" fill="#434343"/>
<path d="M232.484 18.71C232.484 19.46 232.889 20.06 233.699 20.51C234.539 20.93 235.544 21.305 236.714 21.635C237.914 21.935 239.114 22.295 240.314 22.715C241.514 23.135 242.519 23.855 243.329 24.875C244.169 25.865 244.589 27.125 244.589 28.655C244.589 30.815 243.749 32.51 242.069 33.74C240.419 34.97 238.334 35.585 235.814 35.585C233.594 35.585 231.689 35.12 230.099 34.19C228.509 33.26 227.354 31.97 226.634 30.32L230.819 27.89C231.599 30.05 233.264 31.13 235.814 31.13C238.364 31.13 239.639 30.29 239.639 28.61C239.639 27.89 239.219 27.305 238.379 26.855C237.569 26.405 236.564 26.03 235.364 25.73C234.194 25.4 233.009 25.025 231.809 24.605C230.609 24.185 229.589 23.495 228.749 22.535C227.939 21.545 227.534 20.3 227.534 18.8C227.534 16.73 228.314 15.065 229.874 13.805C231.464 12.545 233.429 11.915 235.769 11.915C237.629 11.915 239.279 12.335 240.719 13.175C242.189 13.985 243.314 15.125 244.094 16.595L239.999 18.89C239.219 17.18 237.809 16.325 235.769 16.325C234.839 16.325 234.059 16.535 233.429 16.955C232.799 17.345 232.484 17.93 232.484 18.71Z" fill="#434343"/>
<path d="M256.145 34.55C255.485 35.21 254.69 35.54 253.76 35.54C252.83 35.54 252.035 35.21 251.375 34.55C250.715 33.89 250.385 33.095 250.385 32.165C250.385 31.235 250.7 30.44 251.33 29.78C251.99 29.12 252.8 28.79 253.76 28.79C254.69 28.79 255.485 29.12 256.145 29.78C256.805 30.44 257.135 31.235 257.135 32.165C257.135 33.095 256.805 33.89 256.145 34.55Z" fill="url(#paint2_linear)"/>
<path d="M276.39 11.915C279.48 11.915 282.12 13.07 284.31 15.38C286.5 17.66 287.595 20.45 287.595 23.75C287.595 27.08 286.5 29.885 284.31 32.165C282.12 34.445 279.48 35.585 276.39 35.585C272.97 35.585 270.345 34.325 268.515 31.805V44H263.655V12.5H268.515V15.74C270.345 13.19 272.97 11.915 276.39 11.915ZM270.54 28.925C271.89 30.275 273.585 30.95 275.625 30.95C277.665 30.95 279.36 30.275 280.71 28.925C282.06 27.545 282.735 25.82 282.735 23.75C282.735 21.68 282.06 19.97 280.71 18.62C279.36 17.24 277.665 16.55 275.625 16.55C273.585 16.55 271.89 17.24 270.54 18.62C269.19 19.97 268.515 21.68 268.515 23.75C268.515 25.82 269.19 27.545 270.54 28.925Z" fill="url(#paint3_linear)"/>
<path d="M298.209 16.28C299.439 13.49 301.749 12.095 305.139 12.095V17.36C303.279 17.24 301.659 17.69 300.279 18.71C298.899 19.7 298.209 21.35 298.209 23.66V35H293.349V12.5H298.209V16.28Z" fill="url(#paint4_linear)"/>
<path d="M319.646 35.585C316.346 35.585 313.541 34.445 311.231 32.165C308.921 29.885 307.766 27.08 307.766 23.75C307.766 20.42 308.921 17.615 311.231 15.335C313.541 13.055 316.346 11.915 319.646 11.915C322.976 11.915 325.781 13.055 328.061 15.335C330.371 17.615 331.526 20.42 331.526 23.75C331.526 27.08 330.371 29.885 328.061 32.165C325.781 34.445 322.976 35.585 319.646 35.585ZM314.651 28.835C316.001 30.185 317.666 30.86 319.646 30.86C321.626 30.86 323.291 30.185 324.641 28.835C325.991 27.485 326.666 25.79 326.666 23.75C326.666 21.71 325.991 20.015 324.641 18.665C323.291 17.315 321.626 16.64 319.646 16.64C317.666 16.64 316.001 17.315 314.651 18.665C313.301 20.015 312.626 21.71 312.626 23.75C312.626 25.79 313.301 27.485 314.651 28.835Z" fill="url(#paint5_linear)"/>
<defs>
<linearGradient id="paint0_linear" x1="32.8906" y1="0.103638" x2="32.8906" y2="26.5907" gradientUnits="userSpaceOnUse">
<stop stop-color="#6FBA4F"/>
<stop offset="1" stop-color="#7DC855"/>
</linearGradient>
<linearGradient id="paint1_linear" x1="32.4013" y1="4.90109" x2="32.4013" y2="36.9788" gradientUnits="userSpaceOnUse">
<stop stop-color="#6FBA4F"/>
<stop offset="1" stop-color="#7DC855"/>
</linearGradient>
<linearGradient id="paint2_linear" x1="291" y1="-10" x2="291" y2="50" gradientUnits="userSpaceOnUse">
<stop stop-color="#6FBA4F"/>
<stop offset="1" stop-color="#7DC855"/>
</linearGradient>
<linearGradient id="paint3_linear" x1="291" y1="-10" x2="291" y2="50" gradientUnits="userSpaceOnUse">
<stop stop-color="#6FBA4F"/>
<stop offset="1" stop-color="#7DC855"/>
</linearGradient>
<linearGradient id="paint4_linear" x1="291" y1="-10" x2="291" y2="50" gradientUnits="userSpaceOnUse">
<stop stop-color="#6FBA4F"/>
<stop offset="1" stop-color="#7DC855"/>
</linearGradient>
<linearGradient id="paint5_linear" x1="291" y1="-10" x2="291" y2="50" gradientUnits="userSpaceOnUse">
<stop stop-color="#6FBA4F"/>
<stop offset="1" stop-color="#7DC855"/>
</linearGradient>
</defs>
</svg>
