<svg width="146" height="20" viewBox="0 0 146 20" fill="none" xmlns="http://www.w3.org/2000/svg">
<path d="M34.3594 15.7166C32.9285 15.7166 31.7102 15.3922 30.7044 14.7435C29.7127 14.0948 29.0185 13.2064 28.6218 12.0783L30.7256 10.8514C31.3206 12.5154 32.5531 13.3474 34.4232 13.3474C35.344 13.3474 36.0311 13.1712 36.4844 12.8186C36.9519 12.452 37.1857 11.9796 37.1857 11.4014C37.1857 10.795 36.9378 10.3367 36.4419 10.0264C35.9461 9.7021 35.0677 9.34955 33.8069 8.9688C33.0986 8.75727 32.5248 8.55984 32.0856 8.37652C31.6465 8.1932 31.1789 7.93936 30.6831 7.61502C30.2014 7.27657 29.8402 6.86057 29.5993 6.367C29.3585 5.87344 29.2381 5.29526 29.2381 4.63247C29.2381 3.32099 29.7056 2.2845 30.6406 1.523C31.5756 0.747399 32.7019 0.359597 34.0194 0.359597C35.2094 0.359597 36.2507 0.648686 37.1432 1.22686C38.0357 1.80504 38.7228 2.6018 39.2045 3.61713L37.1432 4.80169C36.5198 3.41971 35.4786 2.72871 34.0194 2.72871C33.3111 2.72871 32.7444 2.89794 32.3194 3.23638C31.8944 3.56073 31.6819 4.00494 31.6819 4.56901C31.6819 5.11898 31.8944 5.55614 32.3194 5.88049C32.7585 6.19073 33.5448 6.52212 34.6782 6.87467C35.2448 7.05799 35.6557 7.19901 35.9107 7.29773C36.1798 7.38234 36.5482 7.52336 37.0157 7.72078C37.4974 7.91821 37.8586 8.11563 38.0995 8.31306C38.3403 8.51049 38.5953 8.75727 38.8645 9.05341C39.1478 9.34955 39.3461 9.68799 39.4595 10.0687C39.5728 10.4495 39.6295 10.8796 39.6295 11.3591C39.6295 12.6987 39.1407 13.7634 38.1632 14.5531C37.1999 15.3287 35.9319 15.7166 34.3594 15.7166Z" fill="white"/>
<path d="M50.2918 4.86515H52.5868V15.4416H50.2918V13.9186C49.4276 15.1172 48.188 15.7166 46.573 15.7166C45.1138 15.7166 43.8671 15.1807 42.833 14.1089C41.7988 13.0231 41.2817 11.7046 41.2817 10.1534C41.2817 8.58805 41.7988 7.26952 42.833 6.19778C43.8671 5.12604 45.1138 4.59016 46.573 4.59016C48.188 4.59016 49.4276 5.18244 50.2918 6.367V4.86515ZM44.533 12.5859C45.1705 13.2205 45.9709 13.5378 46.9343 13.5378C47.8976 13.5378 48.698 13.2205 49.3355 12.5859C49.973 11.9372 50.2918 11.1264 50.2918 10.1534C50.2918 9.18033 49.973 8.37652 49.3355 7.74194C48.698 7.09325 47.8976 6.76891 46.9343 6.76891C45.9709 6.76891 45.1705 7.09325 44.533 7.74194C43.8955 8.37652 43.5767 9.18033 43.5767 10.1534C43.5767 11.1264 43.8955 11.9372 44.533 12.5859Z" fill="white"/>
<path d="M55.2619 15.4416V0H57.5569V15.4416H55.2619Z" fill="white"/>
<path d="M62.0279 11.1264C62.1979 11.9302 62.5875 12.5507 63.1967 12.9878C63.8059 13.4109 64.5496 13.6224 65.428 13.6224C66.6463 13.6224 67.5601 13.1853 68.1693 12.3109L70.0605 13.4109C69.0122 14.948 67.4609 15.7166 65.4067 15.7166C63.6784 15.7166 62.2829 15.1948 61.2204 14.1512C60.1579 13.0936 59.6267 11.761 59.6267 10.1534C59.6267 8.57395 60.1508 7.25542 61.1992 6.19778C62.2475 5.12604 63.5934 4.59016 65.2367 4.59016C66.7951 4.59016 68.0701 5.13309 69.0618 6.21893C70.0676 7.30478 70.5705 8.6233 70.5705 10.1745C70.5705 10.4142 70.5422 10.7315 70.4855 11.1264H62.0279ZM62.0067 9.26494H68.2543C68.0984 8.40472 67.7372 7.75604 67.1705 7.31888C66.618 6.88172 65.9663 6.66314 65.2155 6.66314C64.3655 6.66314 63.6571 6.89582 63.0905 7.36118C62.5238 7.82655 62.1625 8.46113 62.0067 9.26494Z" fill="white"/>
<path d="M80.9428 4.86515H83.2379V15.4416H80.9428V13.9186C80.0787 15.1172 78.8391 15.7166 77.224 15.7166C75.7649 15.7166 74.5182 15.1807 73.484 14.1089C72.4498 13.0231 71.9327 11.7046 71.9327 10.1534C71.9327 8.58805 72.4498 7.26952 73.484 6.19778C74.5182 5.12604 75.7649 4.59016 77.224 4.59016C78.8391 4.59016 80.0787 5.18244 80.9428 6.367V4.86515ZM75.184 12.5859C75.8215 13.2205 76.622 13.5378 77.5853 13.5378C78.5486 13.5378 79.3491 13.2205 79.9866 12.5859C80.6241 11.9372 80.9428 11.1264 80.9428 10.1534C80.9428 9.18033 80.6241 8.37652 79.9866 7.74194C79.3491 7.09325 78.5486 6.76891 77.5853 6.76891C76.622 6.76891 75.8215 7.09325 75.184 7.74194C74.5465 8.37652 74.2278 9.18033 74.2278 10.1534C74.2278 11.1264 74.5465 11.9372 75.184 12.5859Z" fill="white"/>
<path d="M94.328 0.634584H96.6231V15.4416H94.328V13.9186C93.4639 15.1172 92.2243 15.7166 90.6092 15.7166C89.15 15.7166 87.9034 15.1807 86.8692 14.1089C85.835 13.0231 85.3179 11.7046 85.3179 10.1534C85.3179 8.58805 85.835 7.26952 86.8692 6.19778C87.9034 5.12604 89.15 4.59016 90.6092 4.59016C92.2243 4.59016 93.4639 5.18244 94.328 6.367V0.634584ZM88.5692 12.5859C89.2067 13.2205 90.0071 13.5378 90.9705 13.5378C91.9338 13.5378 92.7343 13.2205 93.3718 12.5859C94.0093 11.9372 94.328 11.1264 94.328 10.1534C94.328 9.18033 94.0093 8.37652 93.3718 7.74194C92.7343 7.09325 91.9338 6.76891 90.9705 6.76891C90.0071 6.76891 89.2067 7.09325 88.5692 7.74194C87.9317 8.37652 87.6129 9.18033 87.6129 10.1534C87.6129 11.1264 87.9317 11.9372 88.5692 12.5859Z" fill="white"/>
<path d="M101.297 7.78424C101.297 8.13679 101.488 8.41883 101.871 8.63035C102.268 8.82778 102.742 9.00405 103.295 9.15917C103.861 9.30019 104.428 9.46942 104.995 9.66684C105.561 9.86427 106.036 10.2027 106.418 10.6822C106.815 11.1475 107.013 11.7398 107.013 12.459C107.013 13.4744 106.617 14.2711 105.823 14.8493C105.044 15.4275 104.06 15.7166 102.87 15.7166C101.821 15.7166 100.922 15.498 100.171 15.0608C99.42 14.6237 98.8746 14.0173 98.5346 13.2417L100.511 12.0994C100.879 13.1148 101.665 13.6224 102.87 13.6224C104.074 13.6224 104.676 13.2276 104.676 12.4379C104.676 12.0994 104.478 11.8244 104.081 11.6129C103.698 11.4014 103.224 11.2251 102.657 11.0841C102.105 10.929 101.545 10.7527 100.978 10.5553C100.412 10.3578 99.93 10.0335 99.5334 9.58223C99.1508 9.11687 98.9596 8.53164 98.9596 7.82655C98.9596 6.85352 99.3279 6.07086 100.065 5.47858C100.815 4.8863 101.743 4.59016 102.848 4.59016C103.727 4.59016 104.506 4.78759 105.186 5.18244C105.88 5.56319 106.411 6.09907 106.78 6.79006L104.846 7.86885C104.478 7.06504 103.812 6.66314 102.848 6.66314C102.409 6.66314 102.041 6.76185 101.743 6.95928C101.446 7.1426 101.297 7.41759 101.297 7.78424Z" fill="white"/>
<path d="M26.1199 9.12714C26.1199 9.12714 23.0324 10.717 22.0742 10.5403C21.116 10.3637 17.4176 6.69111 16.6859 6.77251C15.9543 6.85391 16.7508 8.73851 16.112 8.59719C14.6497 8.3029 13.9339 7.20826 13.4353 5.911C12.9366 4.61374 12.3957 4.27227 11.8569 4.23909C11.3181 4.2059 11.2361 6.68888 10.9306 6.90134C10.6251 7.1138 9.66174 6.53221 9.48991 5.54202C9.2421 4.114 8.94718 2.30628 8.5568 2.20029C8.16642 2.0943 7.98504 3.333 7.31074 3.26234C6.63645 3.19168 4.37124 1.69103 3.94537 1.7617C3.51951 1.83235 3.69086 2.27309 3.12304 2.37908C2.55521 2.48507 0 2.09644 0 2.09644C0 2.09644 2.23581 3.40366 3.47793 4.49889C4.72004 5.59413 10.0789 10.4697 13.06 11.3529C16.041 12.2362 18.5253 12.3775 19.8384 12.0242C21.1515 11.6709 25.6941 9.5511 25.6941 9.5511L26.1199 9.12714Z" fill="#82D34C"/>
<path d="M25.1083 10.7347C25.1083 10.7347 23.3921 12.2514 20.1221 13.5258C16.852 14.8002 15.4195 14.4413 14.0144 14.8799C12.6093 15.3185 11.8501 16.5644 11.4584 16.2492C11.0386 15.9114 12.3292 14.5132 11.6536 13.9174C10.9781 13.3216 7.70393 15.8313 7.27807 15.1601C6.8522 14.4888 8.33969 13.3138 7.73638 12.7308C7.13306 12.1479 3.4422 12.7838 3.63739 12.0242C3.83258 11.2646 5.2595 11.7247 5.03921 10.7877C4.81893 9.8507 1.98591 9.63746 2.1836 8.84808C2.3813 8.0587 2.73951 6.95636 2.18105 6.05752C1.62262 5.15868 0.604807 3.65498 0.620792 3.651C0.620792 3.651 4.43587 6.35376 6.67168 8.22625C8.90749 10.0987 10.8949 11.8299 13.3436 12.4835C15.7924 13.1371 18.5428 13.2608 20.2285 12.8015C21.9142 12.3422 25.1082 10.7347 25.1082 10.7347H25.1083Z" fill="#82D34C"/>
<path d="M111.67 15.5578C111.358 15.8681 110.983 16.0232 110.543 16.0232C110.104 16.0232 109.729 15.8681 109.417 15.5578C109.106 15.2476 108.95 14.8739 108.95 14.4367C108.95 13.9996 109.098 13.6259 109.396 13.3156C109.708 13.0054 110.09 12.8503 110.543 12.8503C110.983 12.8503 111.358 13.0054 111.67 13.3156C111.981 13.6259 112.137 13.9996 112.137 14.4367C112.137 14.8739 111.981 15.2476 111.67 15.5578Z" fill="#82D34C"/>
<path d="M120.592 4.91797C122.052 4.91797 123.298 5.46089 124.332 6.54674C125.367 7.61848 125.884 8.92996 125.884 10.4812C125.884 12.0465 125.367 13.365 124.332 14.4367C123.298 15.5085 122.052 16.0444 120.592 16.0444C118.977 16.0444 117.738 15.4521 116.874 14.2675V19.9999H114.579V5.19296H116.874V6.71596C117.738 5.5173 118.977 4.91797 120.592 4.91797ZM117.83 12.9137C118.467 13.5483 119.268 13.8656 120.231 13.8656C121.194 13.8656 121.995 13.5483 122.632 12.9137C123.27 12.2651 123.589 11.4542 123.589 10.4812C123.589 9.50813 123.27 8.70433 122.632 8.06974C121.995 7.42105 121.194 7.09671 120.231 7.09671C119.268 7.09671 118.467 7.42105 117.83 8.06974C117.192 8.70433 116.874 9.50813 116.874 10.4812C116.874 11.4542 117.192 12.2651 117.83 12.9137Z" fill="#82D34C"/>
<path d="M130.259 6.96979C130.84 5.65832 131.93 5.00258 133.531 5.00258V7.47746C132.653 7.42105 131.888 7.63258 131.236 8.11205C130.585 8.57741 130.259 9.35301 130.259 10.4389V15.7694H127.964V5.19296H130.259V6.96979Z" fill="#82D34C"/>
<path d="M139.744 16.0444C138.186 16.0444 136.861 15.5085 135.77 14.4367C134.679 13.365 134.134 12.0465 134.134 10.4812C134.134 8.91585 134.679 7.59733 135.77 6.52558C136.861 5.45384 138.186 4.91797 139.744 4.91797C141.317 4.91797 142.641 5.45384 143.718 6.52558C144.809 7.59733 145.354 8.91585 145.354 10.4812C145.354 12.0465 144.809 13.365 143.718 14.4367C142.641 15.5085 141.317 16.0444 139.744 16.0444ZM137.385 12.8714C138.023 13.506 138.809 13.8233 139.744 13.8233C140.679 13.8233 141.465 13.506 142.103 12.8714C142.74 12.2368 143.059 11.4401 143.059 10.4812C143.059 9.52223 142.74 8.72548 142.103 8.09089C141.465 7.45631 140.679 7.13902 139.744 7.13902C138.809 7.13902 138.023 7.45631 137.385 8.09089C136.748 8.72548 136.429 9.52223 136.429 10.4812C136.429 11.4401 136.748 12.2368 137.385 12.8714Z" fill="#82D34C"/>
</svg>
