<?xml version="1.0" encoding="UTF-8" standalone="no"?>
<svg
    xmlns:dc="http://purl.org/dc/elements/1.1/"
    xmlns:cc="http://creativecommons.org/ns#"
    xmlns:rdf="http://www.w3.org/1999/02/22-rdf-syntax-ns#"
    xmlns:svg="http://www.w3.org/2000/svg"
    xmlns="http://www.w3.org/2000/svg"
    id="svg8"
    version="1.1"
    viewBox="0 0 92 16"
    height="16mm"
    width="92mm">
    <defs
        id="defs2" />
    <metadata
        id="metadata5">
        <rdf:RDF>
            <cc:Work
                rdf:about="">
                <dc:format>image/svg+xml</dc:format>
                <dc:type
                    rdf:resource="http://purl.org/dc/dcmitype/StillImage" />
                <dc:title></dc:title>
            </cc:Work>
        </rdf:RDF>
    </metadata>
    <g
        transform="translate(0,-281)"
        id="layer1">
        <g
            transform="matrix(0.6706894,0,0,0.6706894,-15.484068,260.16004)"
            id="g875">
            <g
                id="g850"
                transform="translate(0,-6.2966666e-6)">
                <path
                    id="path844"
                    d="m 59.247767,43.897692 c 0,0 -4.11049,2.126115 -5.38616,1.889882 -1.27567,-0.236236 -6.199423,-5.147581 -7.173441,-5.038729 -0.974018,0.108853 0.08638,2.629129 -0.764059,2.440142 -1.946863,-0.393558 -2.899742,-1.857419 -3.563589,-3.592248 -0.663847,-1.734828 -1.384002,-2.191461 -2.101306,-2.235841 -0.717304,-0.04438 -0.826465,3.276109 -1.233171,3.560232 -0.406706,0.284123 -1.689289,-0.493645 -1.918048,-1.817823 -0.329911,-1.909693 -0.722544,-4.327155 -1.242262,-4.468898 -0.519719,-0.14174 -0.761193,1.514773 -1.658887,1.420277 -0.897692,-0.09449 -3.913396,-2.101305 -4.480361,-2.006809 -0.566962,0.09449 -0.338835,0.683894 -1.094786,0.825634 -0.755954,0.14174 -4.157739,-0.377975 -4.157739,-0.377975 0,0 2.976562,1.748139 4.630208,3.212796 1.653646,1.464659 8.787948,7.984746 12.756698,9.165923 3.96875,1.181176 7.276041,1.370163 9.02418,0.897694 1.748139,-0.472472 7.795758,-3.307292 7.795758,-3.307292 z"
                    style="fill:#7dc84b;fill-opacity:1;stroke:none;stroke-width:0.26458332px;stroke-linecap:butt;stroke-linejoin:miter;stroke-opacity:1" />
                <path
                    id="path846"
                    d="m 57.901228,46.047432 c 0,0 -2.284767,2.028264 -6.638208,3.732514 -4.353441,1.70425 -6.260639,1.22437 -8.131236,1.810905 -1.870598,0.586534 -2.881343,2.252645 -3.402771,1.83117 -0.558927,-0.451786 1.159233,-2.321531 0.259861,-3.118302 -0.899372,-0.796772 -5.258258,2.559444 -5.825223,1.66175 -0.566965,-0.897695 1.413358,-2.469004 0.610158,-3.248579 -0.8032,-0.779575 -5.716889,0.07087 -5.457031,-0.944941 0.259858,-1.015812 2.159525,-0.400617 1.866257,-1.653646 -0.293268,-1.253029 -4.064901,-1.538204 -3.801707,-2.593839 0.263195,-1.055635 0.74008,-2.529796 -0.0034,-3.731818 -0.743438,-1.202022 -2.098471,-3.212922 -2.07719,-3.218242 0,0 5.079055,3.614398 8.055618,6.11849 2.976563,2.504092 5.622396,4.819196 8.882441,5.693267 3.260045,0.874071 6.921685,1.039434 9.16592,0.425222 2.244235,-0.614212 6.496468,-2.763951 6.496468,-2.763951 z"
                    style="fill:#7dc84b;fill-opacity:1;stroke:none;stroke-width:0.26458332px;stroke-linecap:butt;stroke-linejoin:miter;stroke-opacity:1" />
            </g>
            <g
                aria-label="Sa"
                transform="scale(1.0696965,0.93484461)"
                style="font-style:normal;font-weight:normal;font-size:26.02410316px;line-height:1.25;font-family:sans-serif;letter-spacing:0px;word-spacing:0px;fill:#3d474d;fill-opacity:1;stroke:none;stroke-width:0.65060258"
                id="text854">
                <path
                    d="m 69.409744,50.795996 q 0,-1.537557 -1.080102,-2.427053 -1.080102,-0.902203 -3.951902,-1.702749 -2.871801,-0.813253 -4.193337,-1.766284 -1.880649,-1.346951 -1.880649,-3.532569 0,-2.122082 1.740871,-3.443619 1.753577,-1.334244 4.472892,-1.334244 1.842527,0 3.291135,0.711597 1.461314,0.711597 2.26186,1.982305 0.800546,1.270708 0.800546,2.833679 H 69.29538 q 0,-1.893355 -1.296122,-3.036993 -1.296123,-1.156344 -3.481741,-1.156344 -2.122082,0 -3.380083,0.953031 -1.258001,0.940324 -1.258001,2.465174 0,1.410486 1.13093,2.299982 1.13093,0.889495 3.621518,1.575678 2.490588,0.673475 3.774003,1.410486 1.283416,0.724304 1.931477,1.74087 0.648061,1.016567 0.648061,2.401639 0,2.185618 -1.753577,3.507154 -1.74087,1.321537 -4.599964,1.321537 -1.95689,0 -3.596104,-0.69889 -1.626506,-0.698889 -2.477881,-1.956891 -0.838667,-1.258001 -0.838667,-2.884507 H 59.2822 q 0,1.956891 1.461314,3.087821 1.461315,1.13093 3.888367,1.13093 2.160204,0 3.469033,-0.953031 1.30883,-0.953031 1.30883,-2.528709 z"
                    style="font-style:normal;font-variant:normal;font-weight:300;font-stretch:normal;font-family:Roboto;-inkscape-font-specification:'Roboto Light';fill:#3d474d;fill-opacity:1;stroke-width:0.65060258"
                    id="path845" />
                <path
                    d="m 82.66323,55.345131 q -0.228728,-0.648061 -0.292263,-1.918769 -0.800546,1.04198 -2.04584,1.613799 -1.232587,0.559112 -2.617659,0.559112 -1.982305,0 -3.214892,-1.105517 -1.219879,-1.105516 -1.219879,-2.795558 0,-2.007718 1.664627,-3.17677 1.677335,-1.169051 4.663499,-1.169051 h 2.757437 v -1.562971 q 0,-1.474022 -0.91491,-2.312689 -0.902203,-0.851375 -2.643073,-0.851375 -1.588385,0 -2.630366,0.813253 -1.041981,0.813254 -1.041981,1.956891 l -1.524849,-0.01271 q 0,-1.639214 1.524849,-2.833679 1.52485,-1.207173 3.74859,-1.207173 2.299981,0 3.621518,1.156344 1.334243,1.143638 1.372365,3.202185 v 6.506026 q 0,1.995012 0.419333,2.986164 v 0.152485 z m -4.777863,-1.092809 q 1.52485,0 2.719316,-0.737011 1.207172,-0.737011 1.753577,-1.969597 v -3.024286 h -2.719316 q -2.274567,0.02541 -3.557982,0.838667 -1.283416,0.800547 -1.283416,2.211033 0,1.156344 0.851375,1.918769 0.864081,0.762425 2.236446,0.762425 z"
                    style="font-style:normal;font-variant:normal;font-weight:300;font-stretch:normal;font-family:Roboto;-inkscape-font-specification:'Roboto Light';fill:#3d474d;fill-opacity:1;stroke-width:0.65060258"
                    id="path847" />
            </g>
            <g
                aria-label="s"
                transform="scale(1.0696965,0.93484461)"
                style="font-style:normal;font-weight:normal;font-size:26.02410316px;line-height:1.25;font-family:sans-serif;letter-spacing:0px;word-spacing:0px;fill:#3d474d;fill-opacity:1;stroke:none;stroke-width:0.65060258"
                id="text838">
                <path
                    d="m 145.28555,51.85068 q 0,-1.130931 -0.9149,-1.817113 -0.90221,-0.686182 -2.73203,-1.067395 -1.82982,-0.393919 -2.84638,-0.889496 -1.00386,-0.508283 -1.49944,-1.232587 -0.48287,-0.724303 -0.48287,-1.753577 0,-1.626506 1.35966,-2.681194 1.35966,-1.067395 3.48174,-1.067395 2.29998,0 3.68505,1.143638 1.39778,1.13093 1.39778,2.96075 h -1.52485 q 0,-1.207173 -1.01656,-2.007719 -1.00386,-0.800547 -2.54142,-0.800547 -1.49944,0 -2.41435,0.673476 -0.9022,0.660768 -0.9022,1.728163 0,1.029274 0.74972,1.601092 0.76242,0.559112 2.75744,1.029274 2.00771,0.470162 2.99887,1.003859 1.00386,0.533698 1.48673,1.283415 0.48286,0.749718 0.48286,1.817113 0,1.74087 -1.41048,2.782851 -1.39778,1.041981 -3.65964,1.041981 -2.40164,0 -3.90107,-1.156345 -1.48673,-1.169051 -1.48673,-2.948043 h 1.52485 q 0.089,1.334244 1.11822,2.083962 1.04198,0.73701 2.74473,0.73701 1.58838,0 2.56683,-0.698889 0.97844,-0.698889 0.97844,-1.766284 z"
                    style="font-style:normal;font-variant:normal;font-weight:300;font-stretch:normal;font-family:Roboto;-inkscape-font-specification:'Roboto Light';fill:#3d474d;fill-opacity:1;stroke-width:0.65060258"
                    id="path859" />
            </g>
            <g
                aria-label="lead"
                transform="scale(1.0696965,0.93484461)"
                style="font-style:normal;font-weight:normal;font-size:26.02410316px;line-height:1.25;font-family:sans-serif;letter-spacing:0px;word-spacing:0px;fill:#7dc855;fill-opacity:1;stroke:none;stroke-width:0.65060258"
                id="text842">
                <path
                    d="M 90.886343,55.345131 H 87.201289 V 35.827054 h 3.685054 z"
                    style="font-style:normal;font-variant:normal;font-weight:bold;font-stretch:normal;font-family:Roboto;-inkscape-font-specification:'Roboto Bold';fill:#7dc855;fill-opacity:1;stroke-width:0.65060258"
                    id="path850" />
                <path
                    d="m 100.25146,55.599273 q -3.024283,0 -4.930346,-1.855234 -1.893355,-1.855234 -1.893355,-4.943055 v -0.355798 q 0,-2.071255 0.800546,-3.697761 0.800546,-1.639214 2.261861,-2.516002 1.474021,-0.889496 3.354669,-0.889496 2.820975,0 4.434775,1.778991 1.6265,1.778992 1.6265,5.044712 v 1.499435 h -8.755176 q 0.177899,1.346951 1.067395,2.160204 0.902203,0.813254 2.274571,0.813254 2.12208,0 3.31654,-1.537557 l 1.80441,2.020426 q -0.82596,1.169051 -2.23645,1.829819 -1.41048,0.648062 -3.12594,0.648062 z M 99.832128,44.315384 q -1.092809,0 -1.778991,0.737011 -0.673475,0.737011 -0.864082,2.109375 h 5.108245 v -0.292263 q -0.0254,-1.219879 -0.66077,-1.880648 -0.63535,-0.673475 -1.804402,-0.673475 z"
                    style="font-style:normal;font-variant:normal;font-weight:bold;font-stretch:normal;font-family:Roboto;-inkscape-font-specification:'Roboto Bold';fill:#7dc855;fill-opacity:1;stroke-width:0.65060258"
                    id="path852" />
                <path
                    d="m 115.97012,55.345131 q -0.25414,-0.495576 -0.3685,-1.232587 -1.33425,1.486729 -3.46904,1.486729 -2.02042,0 -3.35467,-1.169052 -1.32153,-1.169051 -1.32153,-2.948043 0,-2.185618 1.6138,-3.354669 1.6265,-1.169052 4.68891,-1.181759 h 1.69004 v -0.787839 q 0,-0.953031 -0.49557,-1.52485 -0.48287,-0.571819 -1.53756,-0.571819 -0.92762,0 -1.46131,0.444748 -0.521,0.444748 -0.521,1.21988 h -3.67234 q 0,-1.194466 0.73701,-2.211032 0.73701,-1.016567 2.08396,-1.588385 1.34695,-0.584526 3.02429,-0.584526 2.54141,0 4.02814,1.283415 1.49944,1.270708 1.49944,3.583397 v 5.959622 q 0.0127,1.95689 0.5464,2.96075 v 0.21602 z m -3.03699,-2.554123 q 0.81325,0 1.49944,-0.355799 0.68618,-0.368505 1.01656,-0.978445 v -2.363517 h -1.37236 q -2.75744,0 -2.93534,1.906062 l -0.0127,0.21602 q 0,0.686183 0.48287,1.130931 0.48287,0.444748 1.32154,0.444748 z"
                    style="font-style:normal;font-variant:normal;font-weight:bold;font-stretch:normal;font-family:Roboto;-inkscape-font-specification:'Roboto Bold';fill:#7dc855;fill-opacity:1;stroke-width:0.65060258"
                    id="path854" />
                <path
                    d="m 121.40875,48.368943 q 0,-3.214892 1.43591,-5.120954 1.4486,-1.906062 3.9519,-1.906062 2.00772,0 3.31655,1.499436 v -7.014309 h 3.68505 v 19.518077 h -3.31655 l -0.1779,-1.461314 q -1.37236,1.715456 -3.53257,1.715456 -2.42705,0 -3.90107,-1.906063 -1.46132,-1.918769 -1.46132,-5.324267 z m 3.67235,0.266849 q 0,1.931476 0.67348,2.96075 0.67347,1.029273 1.95689,1.029273 1.70275,0 2.40164,-1.4359 v -5.425924 q -0.68619,-1.4359 -2.37623,-1.4359 -2.65578,0 -2.65578,4.307701 z"
                    style="font-style:normal;font-variant:normal;font-weight:bold;font-stretch:normal;font-family:Roboto;-inkscape-font-specification:'Roboto Bold';fill:#7dc855;fill-opacity:1;stroke-width:0.65060258"
                    id="path856" />
            </g>
        </g>
    </g>
</svg>
